<svg version="1.1" id="Layer_1" xmlns="http://www.w3.org/2000/svg" xmlns:xlink="http://www.w3.org/1999/xlink" x="0px" y="0px"
	 width="100%" viewBox="0 0 100 100" enable-background="new 0 0 100 100" xml:space="preserve">
<path fill="none" opacity="1.000000" stroke="none" 
	d="
M1.000000,36.000000 
	C1.000000,33.629440 1.000000,31.258884 1.384385,28.622261 
	C14.832251,28.566065 27.895517,28.810255 40.959801,28.891994 
	C41.668407,28.896427 42.385521,27.541538 43.098679,26.819405 
	C42.100677,26.213358 41.107746,25.089891 40.103901,25.080051 
	C27.979832,24.961184 15.854035,24.985548 3.729127,25.052244 
	C2.817708,25.057255 1.909631,25.669847 1.000000,26.000000 
	C1.000000,17.694141 1.000000,9.388284 1.000000,1.043111 
	C34.333336,1.043111 67.666672,1.043111 101.000000,1.043111 
	C101.000000,5.073040 101.000000,9.059858 100.640503,13.551485 
	C97.117218,8.550656 92.607384,5.840844 87.806343,7.217873 
	C78.625313,9.851169 78.008240,16.835115 79.632172,24.958376 
	C75.286926,16.229919 66.483871,13.287973 59.580307,8.084316 
	C58.824696,7.514763 57.720619,6.978727 56.842628,7.067161 
	C48.755650,7.881711 40.654945,8.649718 32.619999,9.846102 
	C29.491980,10.311857 26.509209,12.657975 27.842060,16.005745 
	C28.587006,17.876848 32.018654,19.473045 34.397354,19.729324 
	C38.991695,20.224312 43.739967,20.029789 48.345436,19.470566 
	C52.791801,18.930662 55.953053,20.504553 58.662663,23.577835 
	C58.610298,23.889467 58.642620,24.136248 58.546513,24.205956 
	C54.114140,27.420692 49.648369,30.589725 45.233227,33.827805 
	C37.699654,39.352943 36.969284,43.756710 42.234856,51.499046 
	C45.539211,56.357666 48.846088,61.214569 52.858261,67.110313 
	C45.409565,67.110313 39.280762,66.862892 33.185001,67.204704 
	C29.625854,67.404266 26.662849,69.233482 26.921486,73.493675 
	C27.172216,77.623672 29.918703,79.127663 33.733360,79.146797 
	C36.418941,79.160278 39.104637,79.149406 42.737335,79.149406 
	C39.061691,83.119835 36.162643,86.092323 33.446369,89.223366 
	C29.526348,93.741959 29.493053,96.273872 33.000000,101.000000 
	C22.395947,101.000000 11.791894,101.000000 1.000000,101.000000 
	C1.000000,86.979668 1.000000,72.958488 1.382145,58.650681 
	C13.472220,58.576088 25.179882,58.861092 36.888432,58.904179 
	C38.289608,58.909340 39.695621,57.599216 41.099396,56.898743 
	C39.631668,56.265472 38.170605,55.101349 36.695164,55.082821 
	C24.798304,54.933441 12.898739,54.999638 1.000000,55.000000 
	C1.000000,52.958332 1.000000,50.916668 1.381325,48.622444 
	C11.496046,48.576206 21.229136,48.828495 30.963474,48.893421 
	C31.670835,48.898132 32.387272,47.542183 33.099491,46.818851 
	C32.102386,46.211662 31.119083,45.107208 30.105904,45.079082 
	C24.136517,44.913376 18.156963,44.879929 12.187351,45.041981 
	C8.452318,45.143372 4.728726,45.666245 1.000000,46.000000 
	C1.000000,43.629444 1.000000,41.258884 1.380459,38.631294 
	C11.494330,38.579197 21.227442,38.830143 30.961779,38.893845 
	C31.671043,38.898483 32.389194,37.545280 33.103214,36.823376 
	C32.105415,36.216404 31.121536,35.112602 30.107531,35.084198 
	C24.137989,34.916965 18.158234,34.881611 12.188403,35.042492 
	C8.453047,35.143154 4.729078,35.666382 1.000000,36.000000 
z"/>
<path fill="none" opacity="1.000000" stroke="none" 
	d="
M101.000000,48.000000 
	C101.000000,65.599190 101.000000,83.198387 101.000000,101.000000 
	C80.646217,101.000000 60.291767,101.000000 39.349617,100.650070 
	C45.325989,94.175697 51.788933,87.936340 58.525738,82.008202 
	C60.195366,80.538994 62.702213,79.445755 64.911209,79.269402 
	C72.513641,78.662498 74.708519,74.970016 70.767677,68.350563 
	C67.034828,62.080452 63.058468,55.955303 59.080475,49.592491 
	C62.700996,47.291172 66.113625,45.121994 69.690758,42.848251 
	C70.069778,44.343533 70.334206,45.304379 70.555946,46.274971 
	C71.954140,52.395111 73.015198,53.212334 79.459000,52.902256 
	C83.118851,52.726143 86.779617,52.213146 90.430206,52.293839 
	C94.670555,52.387566 98.178520,51.162182 101.000000,48.000000 
z"/>
<path fill="currentColor" opacity="1.000000" stroke="none" 
	d="
M101.000000,47.666668 
	C98.178520,51.162182 94.670555,52.387566 90.430206,52.293839 
	C86.779617,52.213146 83.118851,52.726143 79.459000,52.902256 
	C73.015198,53.212334 71.954140,52.395111 70.555946,46.274971 
	C70.334206,45.304379 70.069778,44.343533 69.690758,42.848251 
	C66.113625,45.121994 62.700996,47.291172 59.080475,49.592491 
	C63.058468,55.955303 67.034828,62.080452 70.767677,68.350563 
	C74.708519,74.970016 72.513641,78.662498 64.911209,79.269402 
	C62.702213,79.445755 60.195366,80.538994 58.525738,82.008202 
	C51.788933,87.936340 45.325989,94.175697 38.880959,100.650070 
	C37.285641,101.000000 35.571285,101.000000 33.428463,101.000000 
	C29.493053,96.273872 29.526348,93.741959 33.446369,89.223366 
	C36.162643,86.092323 39.061691,83.119835 42.737335,79.149406 
	C39.104637,79.149406 36.418941,79.160278 33.733360,79.146797 
	C29.918703,79.127663 27.172216,77.623672 26.921486,73.493675 
	C26.662849,69.233482 29.625854,67.404266 33.185001,67.204704 
	C39.280762,66.862892 45.409565,67.110313 52.858261,67.110313 
	C48.846088,61.214569 45.539211,56.357666 42.234856,51.499046 
	C36.969284,43.756710 37.699654,39.352943 45.233227,33.827805 
	C49.648369,30.589725 54.114140,27.420692 58.546513,24.205956 
	C58.642620,24.136248 58.610298,23.889467 58.662663,23.577835 
	C55.953053,20.504553 52.791801,18.930662 48.345436,19.470566 
	C43.739967,20.029789 38.991695,20.224312 34.397354,19.729324 
	C32.018654,19.473045 28.587006,17.876848 27.842060,16.005745 
	C26.509209,12.657975 29.491980,10.311857 32.619999,9.846102 
	C40.654945,8.649718 48.755650,7.881711 56.842628,7.067161 
	C57.720619,6.978727 58.824696,7.514763 59.580307,8.084316 
	C66.483871,13.287973 75.286926,16.229919 79.632172,24.958376 
	C78.008240,16.835115 78.625313,9.851169 87.806343,7.217873 
	C92.607384,5.840844 97.117218,8.550656 100.640503,14.028147 
	C101.000000,15.066669 101.000000,16.133339 100.685356,17.624887 
	C97.695526,18.936962 98.020081,19.972656 100.198380,21.461601 
	C97.817963,23.960346 95.458817,26.098661 92.969353,27.913147 
	C92.555649,26.715052 92.272263,25.840786 92.251152,24.740564 
	C96.084984,22.717745 98.143860,19.680912 96.468208,16.036762 
	C95.481316,13.890504 92.450768,11.355407 90.378334,11.389146 
	C88.038368,11.427241 84.848557,13.648716 83.628540,15.819845 
	C81.611618,19.409132 83.996422,22.402975 87.109360,24.998348 
	C87.019325,26.380068 86.974022,27.302279 86.552322,28.204470 
	C84.331169,27.326323 82.486397,26.468197 80.800636,25.684034 
	C81.808067,31.009041 82.740631,35.938332 83.723534,41.133690 
	C86.917511,41.368366 90.230713,41.860546 93.531120,41.786102 
	C97.007072,41.707687 99.495544,42.844505 101.000000,46.000000 
	C101.000000,46.444447 101.000000,46.888889 101.000000,47.666668 
M64.377220,24.960007 
	C58.341251,29.368614 52.296310,33.765003 46.272602,38.190300 
	C42.511852,40.953125 41.962296,44.130222 44.756393,48.038055 
	C48.626366,53.450607 52.344784,58.975113 55.992233,64.540726 
	C56.940357,65.987465 57.383476,67.765152 58.058552,69.390846 
	C56.219437,69.851608 54.394901,70.628456 52.538483,70.714088 
	C46.880524,70.975090 41.202095,70.829536 35.550175,71.159691 
	C34.006832,71.249855 32.528782,72.457794 31.020769,73.152756 
	C32.483166,73.803764 33.935917,74.992035 35.409523,75.018494 
	C44.904587,75.188942 54.404346,75.130363 63.902206,75.080193 
	C65.456581,75.071983 67.009201,74.733421 69.373695,74.450500 
	C68.091438,72.080986 67.323204,70.472969 66.388641,68.968262 
	C63.055061,63.600933 59.919235,58.083820 56.211540,52.984802 
	C53.503597,49.260693 54.370255,47.414036 58.056171,45.300297 
	C63.964500,41.912086 69.683723,38.172188 75.300888,34.315849 
	C76.489677,33.499714 77.907845,31.012604 77.484558,30.203716 
	C75.738426,26.866922 73.781166,23.391665 71.070877,20.854654 
	C62.662621,12.983974 52.975761,8.840618 41.195358,12.472360 
	C39.789410,12.905795 38.199043,12.705102 36.744267,13.025705 
	C35.143723,13.378432 33.601097,13.993969 32.033241,14.495008 
	C38.047791,15.401358 43.792297,15.685894 49.496857,15.330027 
	C56.785568,14.875336 60.976582,19.117971 64.377220,24.960007 
M41.233440,86.741676 
	C34.838150,93.835083 34.838150,93.835083 35.835968,98.121742 
	C42.478661,91.752739 48.645393,85.840073 55.084064,79.666679 
	C47.634777,77.307907 45.313347,82.902878 41.233440,86.741676 
M84.995575,48.517181 
	C88.663048,48.161633 92.330513,47.806080 95.997986,47.450527 
	C95.937119,47.008362 95.876244,46.566196 95.815376,46.124035 
	C91.523529,45.805183 87.188049,45.742344 82.964500,45.022675 
	C81.567108,44.784569 80.149796,43.037640 79.316734,41.638199 
	C78.674103,40.558647 78.930237,38.944073 78.772110,37.426842 
	C72.817863,40.488941 72.763718,40.710533 75.823715,48.969280 
	C78.506027,48.849823 81.297783,48.725494 84.995575,48.517181 
z"/>
<path fill="none" opacity="1.000000" stroke="none" 
	d="
M93.099670,28.236977 
	C95.458817,26.098661 97.817963,23.960346 100.406036,21.533194 
	C100.634956,21.244356 101.000000,21.000000 101.000000,21.000000 
	C101.000000,29.020899 101.000000,37.041798 101.000000,45.531349 
	C99.495544,42.844505 97.007072,41.707687 93.531120,41.786102 
	C90.230713,41.860546 86.917511,41.368366 83.723534,41.133690 
	C82.740631,35.938332 81.808067,31.009041 80.800636,25.684034 
	C82.486397,26.468197 84.331169,27.326323 86.821655,28.452995 
	C89.344803,28.560020 91.222237,28.398500 93.099670,28.236977 
z"/>
<path fill="currentColor" opacity="1.000000" stroke="currentColor" stroke-width="3.000000"
	d="
M1.000000,26.333332 
	C1.909631,25.669847 2.817708,25.057255 3.729127,25.052244 
	C15.854035,24.985548 27.979832,24.961184 40.103901,25.080051 
	C41.107746,25.089891 42.100677,26.213358 43.098679,26.819405 
	C42.385521,27.541538 41.668407,28.896427 40.959801,28.891994 
	C27.895517,28.810255 14.832251,28.566065 1.384385,28.178099 
	C1.000000,27.555555 1.000000,27.111111 1.000000,26.333332 
z"/>
<path fill="currentColor" opacity="1.000000" stroke="currentColor" stroke-width="3.000000"
	d="
M1.000000,55.375000 
	C12.898739,54.999638 24.798304,54.933441 36.695164,55.082821 
	C38.170605,55.101349 39.631668,56.265472 41.099396,56.898743 
	C39.695621,57.599216 38.289608,58.909340 36.888432,58.904179 
	C25.179882,58.861092 13.472220,58.576088 1.382145,58.182022 
	C1.000000,57.250000 1.000000,56.500000 1.000000,55.375000 
z"/>
<path fill="currentColor" opacity="1.000000" stroke="currentColor" stroke-width="3.000000"
	d="
M1.000000,36.333332 
	C4.729078,35.666382 8.453047,35.143154 12.188403,35.042492 
	C18.158234,34.881611 24.137989,34.916965 30.107531,35.084198 
	C31.121536,35.112602 32.105415,36.216404 33.103214,36.823376 
	C32.389194,37.545280 31.671043,38.898483 30.961779,38.893845 
	C21.227442,38.830143 11.494330,38.579197 1.380459,38.187126 
	C1.000000,37.555553 1.000000,37.111111 1.000000,36.333332 
z"/>
<path fill="currentColor" opacity="1.000000" stroke="currentColor" stroke-width="3.000000"
	d="
M1.000000,46.333332 
	C4.728726,45.666245 8.452318,45.143372 12.187351,45.041981 
	C18.156963,44.879929 24.136517,44.913376 30.105904,45.079082 
	C31.119083,45.107208 32.102386,46.211662 33.099491,46.818851 
	C32.387272,47.542183 31.670835,48.898132 30.963474,48.893421 
	C21.229136,48.828495 11.496046,48.576206 1.381325,48.184944 
	C1.000000,47.555553 1.000000,47.111111 1.000000,46.333332 
z"/>
<path fill="#0D0D0D" opacity="1.000000" stroke="none" 
	d="
M101.000000,20.625000 
	C101.000000,21.000000 100.634956,21.244356 100.427307,21.172764 
	C98.020081,19.972656 97.695526,18.936962 100.685356,18.024883 
	C101.000000,18.750000 101.000000,19.500000 101.000000,20.625000 
z"/>
<path fill="#F7F7F7" opacity="1.000000" stroke="none" 
	d="
M64.552864,24.656895 
	C60.976582,19.117971 56.785568,14.875336 49.496857,15.330027 
	C43.792297,15.685894 38.047791,15.401358 32.033241,14.495008 
	C33.601097,13.993969 35.143723,13.378432 36.744267,13.025705 
	C38.199043,12.705102 39.789410,12.905795 41.195358,12.472360 
	C52.975761,8.840618 62.662621,12.983974 71.070877,20.854654 
	C73.781166,23.391665 75.738426,26.866922 77.484558,30.203716 
	C77.907845,31.012604 76.489677,33.499714 75.300888,34.315849 
	C69.683723,38.172188 63.964500,41.912086 58.056171,45.300297 
	C54.370255,47.414036 53.503597,49.260693 56.211540,52.984802 
	C59.919235,58.083820 63.055061,63.600933 66.388641,68.968262 
	C67.323204,70.472969 68.091438,72.080986 69.373695,74.450500 
	C67.009201,74.733421 65.456581,75.071983 63.902206,75.080193 
	C54.404346,75.130363 44.904587,75.188942 35.409523,75.018494 
	C33.935917,74.992035 32.483166,73.803764 31.020769,73.152756 
	C32.528782,72.457794 34.006832,71.249855 35.550175,71.159691 
	C41.202095,70.829536 46.880524,70.975090 52.538483,70.714088 
	C54.394901,70.628456 56.219437,69.851608 58.058548,69.390839 
	C57.383476,67.765152 56.940357,65.987465 55.992233,64.540726 
	C52.344784,58.975113 48.626366,53.450607 44.756393,48.038055 
	C41.962296,44.130222 42.511852,40.953125 46.272602,38.190300 
	C52.296310,33.765003 58.341251,29.368614 64.552864,24.656895 
z"/>
<path fill="#F4F4F4" opacity="1.000000" stroke="none" 
	d="
M87.154099,24.538839 
	C83.996422,22.402975 81.611618,19.409132 83.628540,15.819845 
	C84.848557,13.648716 88.038368,11.427241 90.378334,11.389146 
	C92.450768,11.355407 95.481316,13.890504 96.468208,16.036762 
	C98.143860,19.680912 96.084984,22.717745 91.844864,24.720684 
	C89.835571,24.797453 88.494835,24.668146 87.154099,24.538839 
z"/>
<path fill="#EEEEEE" opacity="1.000000" stroke="none" 
	d="
M41.475582,86.480835 
	C45.313347,82.902878 47.634777,77.307907 55.084064,79.666679 
	C48.645393,85.840073 42.478661,91.752739 35.835968,98.121742 
	C34.838150,93.835083 34.838150,93.835083 41.475582,86.480835 
z"/>
<path fill="#EDEDED" opacity="1.000000" stroke="none" 
	d="
M84.542557,48.559174 
	C81.297783,48.725494 78.506027,48.849823 75.823715,48.969280 
	C72.763718,40.710533 72.817863,40.488941 78.772110,37.426842 
	C78.930237,38.944073 78.674103,40.558647 79.316734,41.638199 
	C80.149796,43.037640 81.567108,44.784569 82.964500,45.022675 
	C87.188049,45.742344 91.523529,45.805183 95.815376,46.124035 
	C95.876244,46.566196 95.937119,47.008362 95.997986,47.450527 
	C92.330513,47.806080 88.663048,48.161633 84.542557,48.559174 
z"/>
<path fill="#0D0D0D" opacity="1.000000" stroke="none" 
	d="
M87.109360,24.998348 
	C88.494835,24.668146 89.835571,24.797453 91.582596,24.946640 
	C92.272263,25.840786 92.555649,26.715052 92.969353,27.913147 
	C91.222237,28.398500 89.344803,28.560020 87.198044,28.473017 
	C86.974022,27.302279 87.019325,26.380068 87.109360,24.998348 
z"/>
</svg>