<svg version="1.1" id="Layer_1" xmlns="http://www.w3.org/2000/svg" xmlns:xlink="http://www.w3.org/1999/xlink" x="0px" y="0px"
	 width="100%" viewBox="0 0 512 512" enable-background="new 0 0 512 512" xml:space="preserve">
<path fill="#000000" opacity="1.000000" stroke="none" 
	d="
M372.531342,1.000000 
	C376.730743,4.222428 377.524933,8.349633 377.419006,13.124043 
	C377.007294,31.674183 380.014954,28.273373 363.297333,38.812580 
	C355.380005,43.803875 350.083374,49.589066 347.905396,58.890045 
	C341.474091,86.354538 327.194305,110.287033 312.996826,134.211578 
	C312.656799,134.784561 312.325897,135.363007 311.992737,135.940033 
	C307.187897,144.261139 307.198212,144.251022 313.981781,151.042145 
	C318.792816,155.858566 320.770691,161.715103 321.447601,168.489639 
	C323.108856,185.115555 317.430420,200.316910 313.105469,215.811157 
	C311.718933,220.778641 310.355682,225.755310 308.819458,230.677109 
	C308.118073,232.924194 308.297272,234.489700 310.644867,235.564285 
	C330.172363,244.502747 343.196533,260.594971 355.775513,277.054169 
	C363.058380,286.583588 369.649109,296.635223 375.328278,307.224762 
	C379.792786,315.549408 376.253784,321.297760 366.729675,321.321442 
	C346.900696,321.370728 327.071259,321.287964 307.242615,321.382690 
	C304.333771,321.396576 301.685516,320.652222 298.441559,319.520996 
	C294.483948,326.008087 290.614410,332.568970 286.525726,338.990387 
	C282.553345,345.229156 279.704987,351.158600 280.979614,359.356384 
	C282.421844,368.632080 281.342255,378.300812 281.348145,387.798645 
	C281.354950,398.796295 281.320312,409.794067 281.358673,420.791595 
	C281.390900,430.033203 281.551819,438.818024 285.713318,447.894928 
	C291.601837,460.738770 290.276672,474.879364 286.935272,488.570923 
	C286.738342,489.377930 286.468323,490.177551 286.371979,490.997040 
	C285.217041,500.818146 280.572357,508.209839 271.234009,512.760071 
	C266.975464,513.000000 262.950897,513.000000 258.215393,512.769836 
	C254.940094,511.044098 252.312851,509.644226 249.835968,508.015656 
	C248.435410,507.094849 247.372833,506.729767 245.849960,507.844147 
	C243.326767,509.690491 240.625992,511.294128 238.000000,513.000000 
	C233.643097,513.000000 229.286194,513.000000 224.464661,513.000000 
	C222.576843,512.152039 221.146698,511.315552 219.731674,510.454224 
	C212.647354,506.141907 208.732117,499.916901 208.685211,491.548706 
	C208.608612,477.886749 208.695541,464.223938 208.641373,450.561768 
	C208.631180,447.995270 209.106018,445.630493 210.264526,443.345734 
	C213.428055,437.106842 216.656464,430.895966 219.613739,424.559448 
	C221.006958,421.574219 222.638306,421.037506 225.463486,422.586670 
	C228.487778,424.245026 231.669876,425.615570 235.002014,427.216949 
	C236.601608,423.123779 235.233658,419.554535 234.626358,416.104156 
	C231.891388,400.565308 231.842117,384.837952 232.874863,369.286530 
	C234.558640,343.931519 225.350357,320.880646 219.640305,297.056549 
	C219.533539,296.611084 219.123123,296.238434 218.907837,295.912659 
	C218.640366,295.810913 218.447189,295.659546 218.334229,295.705475 
	C208.240768,299.810303 202.209488,294.662109 196.008926,287.240814 
	C180.525299,268.708832 164.353165,250.751495 148.424072,232.592743 
	C145.527863,229.291153 143.350784,225.861252 145.520416,221.341492 
	C147.586151,217.038162 151.422058,216.607025 155.656723,216.621582 
	C178.982468,216.701767 202.309601,216.537994 225.634216,216.718521 
	C234.290665,216.785522 241.800415,213.037201 249.540512,210.225464 
	C254.282944,208.502670 254.686417,202.681122 251.037018,199.028046 
	C245.267181,193.252441 239.425461,187.546539 233.751480,181.678360 
	C231.648865,179.503769 229.532806,178.883026 226.606842,179.723907 
	C193.832718,189.142853 161.040665,198.499527 128.238190,207.819290 
	C125.879837,208.489349 124.120384,209.823578 122.449608,211.507385 
	C116.112953,217.893463 109.787529,224.293503 103.321144,230.546921 
	C99.582253,234.162689 95.007133,234.802216 91.746033,231.289810 
	C88.187767,227.457275 85.295158,228.430786 81.266609,230.061188 
	C68.740982,235.130478 55.688503,225.537933 56.738838,212.166107 
	C57.374039,204.079346 62.366993,199.396301 69.718681,196.723846 
	C85.829849,190.867188 102.033867,185.282791 117.591637,177.961960 
	C144.865219,165.128159 172.324768,152.689819 199.615936,139.892883 
	C208.625320,135.668350 218.386780,134.319412 227.771286,131.543808 
	C229.749802,130.958649 232.053452,131.044312 234.138382,128.787842 
	C221.118622,125.255936 217.475250,114.904778 214.859436,103.670265 
	C213.351715,97.194801 211.365768,90.832001 209.672104,84.398224 
	C206.538284,72.493614 210.842728,60.728737 221.075928,53.779934 
	C223.651337,52.031120 225.465637,50.080467 226.759415,47.176571 
	C232.469391,34.360447 246.780243,29.089380 259.365936,34.927467 
	C271.816528,40.702892 277.064331,55.289673 270.761902,67.813774 
	C268.961151,71.392197 268.829498,74.519089 269.622955,78.225838 
	C271.286621,85.997597 273.208588,93.666481 273.538086,101.760887 
	C274.113129,115.886673 281.774597,127.423775 293.627533,133.412109 
	C298.413818,125.130966 302.792053,116.522751 308.118134,108.547531 
	C320.710754,89.691452 327.020508,68.296852 333.945618,47.112850 
	C334.768341,44.596119 335.473328,42.260899 331.621338,40.683964 
	C329.169952,46.310837 326.580658,51.827896 324.337830,57.482388 
	C317.627899,74.398994 309.950134,90.758438 299.049103,105.495987 
	C296.477509,108.972641 294.675781,109.552940 291.085541,107.050140 
	C279.779907,99.168884 280.604797,101.531204 287.680084,91.749039 
	C301.458099,72.699753 308.604126,50.551701 317.601471,29.317703 
	C323.283752,15.907327 331.297424,5.876769 345.714661,1.199578 
	C354.687561,1.000000 363.375122,1.000000 372.531342,1.000000 
M264.657654,396.500061 
	C265.965027,371.102783 262.944061,345.996643 259.532196,320.920776 
	C259.011414,317.093323 259.044403,312.913055 253.468826,312.347961 
	C251.280106,312.126129 250.078003,309.825897 248.864517,308.010712 
	C246.087463,303.856628 243.324234,299.692719 240.491989,295.576447 
	C239.542496,294.196442 238.857010,292.409882 236.809204,292.077728 
	C236.626175,292.676605 236.398453,293.016357 236.456940,293.296265 
	C236.829727,295.080200 237.244705,296.856140 237.683838,298.625244 
	C243.393005,321.626221 251.594406,344.131805 249.496735,368.552063 
	C248.630371,378.637939 248.492706,388.974152 249.645538,399.010223 
	C253.019379,428.381805 258.955078,457.502930 257.372131,487.306885 
	C257.231140,489.961670 258.366638,492.198364 260.060028,494.108917 
	C263.174347,497.622589 267.204315,497.049683 268.427063,492.489471 
	C272.517609,477.233765 275.788849,461.894470 266.728271,447.082672 
	C265.115448,444.446075 264.603577,441.588287 264.622498,438.493439 
	C264.706055,424.829437 264.657654,411.164612 264.657654,396.500061 
M230.656876,148.351837 
	C216.068619,150.926987 202.804138,157.082260 189.554733,163.360413 
	C173.612061,170.914764 157.557571,178.233093 141.551483,185.653610 
	C170.074265,178.103394 198.404953,170.141113 226.635818,161.839432 
	C232.837708,160.015717 237.565811,160.873260 241.851440,165.766403 
	C243.971146,168.186615 246.005554,170.929062 250.470917,172.890869 
	C253.576157,169.345001 257.171814,165.811966 260.091949,161.788651 
	C266.718933,152.658112 274.700714,150.708588 284.779541,155.798218 
	C287.176971,157.008865 289.977112,158.529633 293.480743,157.364212 
	C291.321625,153.575653 287.701416,151.985046 284.972015,149.469696 
	C276.705139,141.851074 265.101746,137.285339 262.301788,124.657333 
	C262.253326,124.438667 261.774200,124.315491 261.482330,124.150108 
	C257.792938,124.471107 255.696518,126.558647 254.061600,129.854416 
	C245.456558,147.200989 248.969894,143.405930 230.656876,148.351837 
M262.089844,185.874466 
	C264.868317,188.741669 267.683228,191.574661 270.415527,194.485199 
	C273.454437,197.722366 274.246826,201.383972 272.246429,205.492386 
	C271.298981,207.438217 270.364075,209.390793 269.462799,211.358292 
	C268.970978,212.431992 268.401855,213.727066 269.668762,214.513535 
	C276.789490,218.933899 283.778961,223.606674 292.260742,227.515549 
	C295.983582,209.313156 304.246552,192.950562 304.318665,174.406143 
	C300.114044,178.257416 295.795074,177.679001 291.319580,176.128876 
	C287.075684,174.658936 282.797943,173.287018 278.546265,171.839172 
	C277.088226,171.342621 275.480347,170.767212 274.289368,171.959229 
	C269.987915,176.264420 264.875458,179.826309 262.089844,185.874466 
M256.130005,96.251266 
	C254.671036,89.610138 253.242905,82.962044 251.744385,76.329849 
	C250.256805,69.746124 245.894882,66.014313 239.215179,65.503906 
	C231.276428,64.897293 224.138184,72.017952 225.907852,79.038223 
	C228.258530,88.363388 230.908737,97.612785 233.394409,106.904327 
	C234.218048,109.983109 236.295441,111.765205 239.261337,112.359421 
	C248.811981,114.272888 257.223389,106.704880 256.130005,96.251266 
M227.877808,446.413422 
	C227.061676,448.401245 225.572571,450.377716 225.538803,452.378754 
	C225.322922,465.169800 225.342133,477.967255 225.490128,490.760223 
	C225.523926,493.681549 227.505295,495.841644 230.395157,496.301178 
	C233.213211,496.749359 234.991394,494.844269 236.085800,492.387329 
	C236.557480,491.328400 236.897873,490.211578 237.315826,489.127991 
	C244.907455,469.445953 238.301773,450.110809 235.771133,430.612701 
	C233.252533,435.652527 230.733917,440.692352 227.877808,446.413422 
M299.515472,269.954285 
	C298.120819,268.776459 296.840088,267.417023 295.309082,266.456573 
	C291.497986,264.065826 289.475555,265.205444 289.366913,269.698364 
	C289.302643,272.356018 289.749786,275.088715 289.281677,277.663055 
	C287.294830,288.589600 291.812836,295.154510 301.297485,300.784363 
	C308.525879,305.074890 315.257904,304.501099 323.507812,304.458801 
	C317.040985,291.448334 309.812714,280.087982 299.515472,269.954285 
M232.516342,235.132248 
	C230.782974,233.578384 228.687378,233.351303 226.470612,233.353683 
	C209.860565,233.371552 193.250443,233.338562 176.640457,233.375961 
	C175.453308,233.378632 173.907852,232.796005 173.058411,234.951965 
	C177.156540,239.672958 181.540741,244.405762 185.538300,249.445282 
	C188.021255,252.575409 190.379425,253.220459 194.068726,251.499649 
	C205.807632,246.024261 217.885406,241.373108 230.267029,237.530304 
	C231.294510,237.211411 232.643051,237.134491 232.516342,235.132248 
M269.905334,259.776489 
	C267.032959,258.223877 264.789673,255.540222 261.168121,254.841187 
	C258.341980,258.873444 257.749756,263.899139 255.289658,267.939270 
	C250.044266,276.553589 251.407715,283.964233 257.911865,291.263733 
	C259.937256,293.536804 261.479187,295.172943 264.420532,293.545776 
	C267.546326,291.816650 272.897064,293.010773 272.702576,286.853729 
	C272.471710,279.547241 272.616211,272.227600 272.670074,264.914215 
	C272.684540,262.952332 272.299316,261.292938 269.905334,259.776489 
M241.122040,257.766571 
	C241.467514,256.087067 242.959152,254.528336 241.764053,252.671906 
	C234.764984,252.902161 206.850250,263.327667 201.734543,267.750488 
	C203.242920,269.474701 205.059860,271.026337 206.215408,272.971008 
	C209.676819,278.796112 214.170410,278.673828 220.477356,277.816345 
	C232.535950,276.176849 238.453079,269.540070 241.122040,257.766571 
M338.747253,282.732635 
	C325.574097,265.876068 313.964111,255.204651 306.236084,253.045303 
	C320.725067,265.648529 330.931763,281.074829 339.285156,297.862091 
	C343.050598,305.429321 344.470398,306.041992 353.248108,303.772583 
	C349.273590,296.364014 344.124664,289.895966 338.747253,282.732635 
M275.549500,238.000702 
	C270.003174,234.678741 264.468231,231.337540 258.903381,228.046906 
	C257.301178,227.099503 255.607101,225.550858 253.509262,228.484406 
	C263.409821,235.032425 273.144226,241.540451 282.972809,247.902893 
	C284.629822,248.975540 286.686432,249.362320 288.659363,246.901718 
	C285.166931,243.029617 280.301788,241.199677 275.549500,238.000702 
M350.654907,18.079935 
	C346.696503,18.943438 343.173309,20.505459 340.649078,24.071955 
	C342.357666,26.368101 344.417877,29.824955 346.517883,28.992231 
	C351.871765,26.869234 356.990082,23.802135 361.031525,18.883921 
	C357.552704,16.535973 354.474701,17.401930 350.654907,18.079935 
M278.112335,319.946503 
	C280.141205,316.603149 282.170074,313.259766 284.141846,310.010468 
	C280.388916,306.516632 277.034363,306.170471 275.646027,308.827789 
	C274.689484,310.658661 276.035858,318.186920 278.112335,319.946503 
M95.429260,211.382034 
	C99.271835,211.427505 103.665688,207.590546 105.143105,202.156677 
	C99.594254,204.150314 94.580246,205.951782 88.638054,208.086746 
	C91.663513,208.843155 93.478371,209.567719 95.429260,211.382034 
z"/>
</svg>