<svg version="1.1" id="Layer_1" xmlns="http://www.w3.org/2000/svg" xmlns:xlink="http://www.w3.org/1999/xlink" x="0px" y="0px"
	 width="100%" viewBox="0 0 100 100" enable-background="new 0 0 100 100" xml:space="preserve">
<path fill="#FDFDFD" opacity="1.000000" stroke="none" 
	d="
M101.000000,38.000000 
	C101.000000,59.333328 101.000000,80.166656 101.000000,100.999985 
	C67.666679,100.999992 34.333366,100.999992 1.000036,101.000000 
	C1.000024,67.666695 1.000024,34.333385 1.000012,1.000059 
	C34.333298,1.000039 67.666595,1.000039 100.999947,1.000020 
	C101.000000,13.166667 101.000000,25.333334 101.000000,38.000000 
M45.592022,90.076057 
	C48.125614,83.941223 50.473572,77.718994 53.297447,71.720825 
	C54.235893,69.727493 56.396114,68.309364 57.997772,66.628265 
	C58.977699,75.997559 58.892567,84.492744 59.066689,92.982605 
	C59.093758,94.302399 60.305130,95.597908 60.968853,96.904648 
	C61.653336,95.618675 62.897057,94.346840 62.929977,93.044395 
	C63.119347,85.552956 63.300224,78.040100 62.919704,70.563225 
	C62.683109,65.914345 64.142540,63.485165 68.812897,63.221561 
	C68.991234,63.409096 69.179504,63.513325 69.207512,63.650314 
	C69.806671,66.581238 70.359314,69.521889 70.979195,72.448318 
	C71.933456,76.953384 75.079163,79.492241 78.953552,78.939323 
	C83.049721,78.354767 85.565071,74.683800 84.823753,70.034721 
	C83.855141,63.960163 82.531090,57.937923 81.704506,51.846420 
	C81.011795,46.741467 79.508247,42.663910 73.029289,42.668598 
	C81.169678,33.512741 87.806084,24.230703 91.423454,13.095197 
	C91.884399,11.676229 92.585709,10.237835 92.602585,8.801704 
	C92.617165,7.561663 91.815903,6.312030 91.375313,5.066637 
	C90.536911,5.886640 89.537170,6.601057 88.910004,7.559314 
	C88.387337,8.357909 88.324547,9.449899 88.019165,10.399431 
	C83.429268,24.670876 74.582123,35.950020 63.428024,46.120197 
	C62.223400,39.854931 63.224789,35.079582 67.696709,30.784962 
	C72.359451,26.307085 76.286011,21.057755 80.486679,16.105206 
	C83.691284,12.327013 83.892326,8.884789 80.892303,6.514022 
	C77.194351,3.591724 74.110069,5.049773 71.397118,8.231175 
	C70.101173,9.750890 68.584732,11.098583 67.405220,12.698915 
	C60.560108,21.986223 51.633995,27.740818 40.382359,30.789288 
	C29.598589,33.711002 29.761650,34.313286 22.957342,25.050690 
	C22.662144,24.648838 22.388466,24.230055 22.076777,23.841618 
	C19.811224,21.018198 17.018932,19.871244 13.814651,22.017942 
	C10.465319,24.261816 10.095378,27.428757 12.277183,30.704739 
	C15.780287,35.964653 19.206209,41.310703 23.181383,46.200344 
	C24.375504,47.669167 27.342871,48.452030 29.398619,48.289959 
	C32.587502,48.038544 35.691254,46.707302 39.125927,45.751839 
	C40.190231,52.588078 41.595516,58.742748 38.971439,65.206993 
	C36.229980,71.960411 34.227955,79.016891 31.970091,85.962791 
	C30.258091,91.229446 31.467291,94.787445 35.404430,96.463913 
	C39.386917,98.159698 42.715931,96.219704 45.592022,90.076057 
M51.193573,22.823975 
	C56.090580,17.499336 56.265526,11.795506 51.660099,7.613681 
	C47.461929,3.801649 41.237434,4.179206 37.482471,8.473645 
	C34.260872,12.158097 34.141842,17.401709 37.192730,21.237686 
	C40.400524,25.270943 44.880077,25.946781 51.193573,22.823975 
z"/>
<path fill="#0E0E0E" opacity="1.000000" stroke="none" 
	d="
M45.410919,90.407104 
	C42.715931,96.219704 39.386917,98.159698 35.404430,96.463913 
	C31.467291,94.787445 30.258091,91.229446 31.970091,85.962791 
	C34.227955,79.016891 36.229980,71.960411 38.971439,65.206993 
	C41.595516,58.742748 40.190231,52.588078 39.125927,45.751839 
	C35.691254,46.707302 32.587502,48.038544 29.398619,48.289959 
	C27.342871,48.452030 24.375504,47.669167 23.181383,46.200344 
	C19.206209,41.310703 15.780287,35.964653 12.277183,30.704739 
	C10.095378,27.428757 10.465319,24.261816 13.814651,22.017942 
	C17.018932,19.871244 19.811224,21.018198 22.076777,23.841618 
	C22.388466,24.230055 22.662144,24.648838 22.957342,25.050690 
	C29.761650,34.313286 29.598589,33.711002 40.382359,30.789288 
	C51.633995,27.740818 60.560108,21.986223 67.405220,12.698915 
	C68.584732,11.098583 70.101173,9.750890 71.397118,8.231175 
	C74.110069,5.049773 77.194351,3.591724 80.892303,6.514022 
	C83.892326,8.884789 83.691284,12.327013 80.486679,16.105206 
	C76.286011,21.057755 72.359451,26.307085 67.696709,30.784962 
	C63.224789,35.079582 62.223400,39.854931 63.428024,46.120197 
	C74.582123,35.950020 83.429268,24.670876 88.019165,10.399431 
	C88.324547,9.449899 88.387337,8.357909 88.910004,7.559314 
	C89.537170,6.601057 90.536911,5.886640 91.375313,5.066637 
	C91.815903,6.312030 92.617165,7.561663 92.602585,8.801704 
	C92.585709,10.237835 91.884399,11.676229 91.423454,13.095197 
	C87.806084,24.230703 81.169678,33.512741 73.029289,42.668598 
	C79.508247,42.663910 81.011795,46.741467 81.704506,51.846420 
	C82.531090,57.937923 83.855141,63.960163 84.823753,70.034721 
	C85.565071,74.683800 83.049721,78.354767 78.953552,78.939323 
	C75.079163,79.492241 71.933456,76.953384 70.979195,72.448318 
	C70.359314,69.521889 69.806671,66.581238 69.207512,63.650314 
	C69.179504,63.513325 68.991234,63.409096 68.812897,63.221561 
	C64.142540,63.485165 62.683109,65.914345 62.919704,70.563225 
	C63.300224,78.040100 63.119347,85.552956 62.929977,93.044395 
	C62.897057,94.346840 61.653336,95.618675 60.968849,96.904648 
	C60.305130,95.597908 59.093758,94.302399 59.066689,92.982605 
	C58.892567,84.492744 58.977699,75.997559 57.997772,66.628265 
	C56.396114,68.309364 54.235893,69.727493 53.297447,71.720825 
	C50.473572,77.718994 48.125614,83.941223 45.410919,90.407104 
M57.882175,50.008392 
	C58.252048,47.024334 59.044289,44.018414 58.891247,41.061420 
	C58.670380,36.794044 59.812820,33.512768 62.826107,30.359827 
	C67.766518,25.190447 72.308609,19.627989 76.813492,14.065140 
	C77.728836,12.934826 77.735603,11.068730 78.161217,9.541831 
	C76.703339,10.242824 74.904266,10.612548 73.846512,11.702019 
	C69.207359,16.480303 64.850639,21.532070 60.237598,26.336905 
	C58.906742,27.723093 57.208435,29.016611 55.428131,29.666401 
	C47.479847,32.567425 39.397461,35.102131 31.458363,38.026634 
	C28.683193,39.048912 27.145773,38.319435 25.700235,35.996986 
	C24.120308,33.458622 22.462166,30.920000 20.483841,28.696732 
	C19.278490,27.342144 17.404333,26.582684 15.830586,25.555906 
	C16.274214,27.272720 16.557087,29.054373 17.214706,30.684879 
	C17.700062,31.888273 18.667789,32.899052 19.431875,33.987736 
	C21.817972,37.387474 23.564697,42.498196 26.777313,43.706112 
	C30.092983,44.952774 34.891464,42.595341 38.937050,41.447491 
	C41.873837,40.614239 42.890965,41.532711 43.161556,44.368771 
	C43.487000,47.779697 44.095226,51.163643 44.640038,54.971764 
	C49.094944,53.298981 53.093922,51.797394 57.882175,50.008392 
M46.247921,58.757130 
	C45.590412,59.630810 44.650318,60.409485 44.319668,61.393047 
	C41.415985,70.030396 38.483150,78.663918 35.922855,87.405151 
	C35.471077,88.947601 36.710003,90.985245 37.168159,92.794212 
	C38.570354,91.718712 40.610497,90.937767 41.266205,89.517601 
	C44.388924,82.754257 46.983459,75.746864 50.113258,68.987122 
	C50.985809,67.102592 52.768108,65.212830 54.614964,64.291656 
	C58.900383,62.154198 63.554642,60.769276 67.916473,58.767849 
	C71.420273,57.160126 72.729050,58.215076 73.132675,61.817696 
	C73.482597,64.940971 73.994743,68.112663 75.006577,71.067284 
	C75.517685,72.559753 77.294167,73.618896 78.498505,74.873970 
	C79.254539,73.278244 80.822533,71.574387 80.626892,70.105415 
	C79.751793,63.534801 78.198990,57.056580 77.245049,50.493519 
	C76.697350,46.725422 75.157784,46.769398 72.206100,48.032562 
	C63.836044,51.614491 55.364285,54.958759 46.247921,58.757130 
z"/>
<path fill="#121212" opacity="1.000000" stroke="none" 
	d="
M50.872059,23.038486 
	C44.880077,25.946781 40.400524,25.270943 37.192730,21.237686 
	C34.141842,17.401709 34.260872,12.158097 37.482471,8.473645 
	C41.237434,4.179206 47.461929,3.801649 51.660099,7.613681 
	C56.265526,11.795506 56.090580,17.499336 50.872059,23.038486 
M46.157612,9.130417 
	C42.719849,8.725943 39.983852,10.141800 39.420715,13.438802 
	C39.095711,15.341588 40.009964,18.159857 41.396675,19.500217 
	C44.035725,22.051050 47.228111,21.463177 49.627960,18.649605 
	C52.218723,15.612215 51.167282,12.250282 46.157612,9.130417 
z"/>
<path fill="#F6F6F6" opacity="1.000000" stroke="none" 
	d="
M57.487537,50.152100 
	C53.093922,51.797394 49.094944,53.298981 44.640038,54.971764 
	C44.095226,51.163643 43.487000,47.779697 43.161556,44.368771 
	C42.890965,41.532711 41.873837,40.614239 38.937050,41.447491 
	C34.891464,42.595341 30.092983,44.952774 26.777313,43.706112 
	C23.564697,42.498196 21.817972,37.387474 19.431875,33.987736 
	C18.667789,32.899052 17.700062,31.888273 17.214706,30.684879 
	C16.557087,29.054373 16.274214,27.272720 15.830585,25.555906 
	C17.404333,26.582684 19.278490,27.342144 20.483841,28.696732 
	C22.462166,30.920000 24.120308,33.458622 25.700235,35.996986 
	C27.145773,38.319435 28.683193,39.048912 31.458363,38.026634 
	C39.397461,35.102131 47.479847,32.567425 55.428131,29.666401 
	C57.208435,29.016611 58.906742,27.723093 60.237598,26.336905 
	C64.850639,21.532070 69.207359,16.480303 73.846512,11.702019 
	C74.904266,10.612548 76.703339,10.242824 78.161217,9.541832 
	C77.735603,11.068730 77.728836,12.934826 76.813492,14.065140 
	C72.308609,19.627989 67.766518,25.190447 62.826107,30.359827 
	C59.812820,33.512768 58.670380,36.794044 58.891247,41.061420 
	C59.044289,44.018414 58.252048,47.024334 57.487537,50.152100 
z"/>
<path fill="#F4F4F4" opacity="1.000000" stroke="none" 
	d="
M46.590248,58.576874 
	C55.364285,54.958759 63.836044,51.614491 72.206100,48.032562 
	C75.157784,46.769398 76.697350,46.725422 77.245049,50.493519 
	C78.198990,57.056580 79.751793,63.534801 80.626892,70.105415 
	C80.822533,71.574387 79.254539,73.278244 78.498505,74.873970 
	C77.294167,73.618896 75.517685,72.559753 75.006577,71.067284 
	C73.994743,68.112663 73.482597,64.940971 73.132675,61.817696 
	C72.729050,58.215076 71.420273,57.160126 67.916473,58.767849 
	C63.554642,60.769276 58.900383,62.154198 54.614964,64.291656 
	C52.768108,65.212830 50.985809,67.102592 50.113258,68.987122 
	C46.983459,75.746864 44.388924,82.754257 41.266205,89.517601 
	C40.610497,90.937767 38.570354,91.718712 37.168159,92.794212 
	C36.710003,90.985245 35.471077,88.947601 35.922855,87.405151 
	C38.483150,78.663918 41.415985,70.030396 44.319668,61.393047 
	C44.650318,60.409485 45.590412,59.630810 46.590248,58.576874 
z"/>
<path fill="#F7F7F7" opacity="1.000000" stroke="none" 
	d="
M46.536949,9.230936 
	C51.167282,12.250282 52.218723,15.612215 49.627960,18.649605 
	C47.228111,21.463177 44.035725,22.051050 41.396675,19.500217 
	C40.009964,18.159857 39.095711,15.341588 39.420715,13.438802 
	C39.983852,10.141800 42.719849,8.725943 46.536949,9.230936 
z"/>
</svg>