<svg version="1.1" id="Layer_1" xmlns="http://www.w3.org/2000/svg" xmlns:xlink="http://www.w3.org/1999/xlink" x="0px" y="0px"
	 width="120%" viewBox="0 0 496 496" enable-background="new 0 0 496 496" xml:space="preserve">
<path fill="currentColor" opacity="1.000000" stroke="currentColor" stroke-width="5.000000"
	d="
M108.887184,210.892487 
	C104.102211,215.315521 99.675026,219.611710 95.018402,223.642838 
	C86.302879,231.187683 74.828033,231.034393 67.328766,222.398575 
	C52.365921,205.168121 37.756985,187.620377 23.366589,169.907394 
	C17.101002,162.195145 17.676708,152.331299 24.726994,143.671173 
	C35.346050,130.627380 46.449829,117.977966 57.359898,105.171425 
	C66.327293,94.645226 75.442863,84.241875 84.247543,73.581543 
	C90.916420,65.507172 99.067444,59.849487 108.927429,56.418785 
	C130.311737,48.978287 151.750717,41.677277 172.973251,33.796604 
	C184.504944,29.514481 196.032181,31.559708 207.569351,32.313763 
	C229.694321,33.759808 251.803726,34.472652 273.948517,32.974293 
	C284.080048,32.288773 294.213287,31.628563 304.347534,30.984600 
	C311.663300,30.519735 318.519897,32.620934 325.342316,34.851826 
	C347.653931,42.147549 369.955994,49.472332 392.272247,56.753796 
	C403.585541,60.445156 412.364227,67.508339 419.836151,76.616791 
	C438.325745,99.156029 457.003143,121.541161 475.583832,144.005783 
	C483.500336,153.577011 483.650452,163.074051 475.620728,172.411713 
	C461.070312,189.332230 446.387421,206.140350 431.623474,222.875122 
	C423.022461,232.624283 411.246277,232.957474 401.155121,223.857986 
	C395.588531,218.838425 390.263672,213.551224 384.808838,208.406937 
	C383.134857,206.828232 381.391266,205.323273 378.830261,203.021057 
	C378.271210,209.003632 377.558990,213.995392 377.374451,219.006561 
	C375.515869,269.474518 376.650360,319.963989 376.391693,370.443909 
	C376.355499,377.506836 376.430969,377.360718 383.423370,377.834229 
	C392.072845,378.420013 400.808350,379.165924 408.569427,383.433990 
	C430.469940,395.477783 434.592010,424.362366 417.446838,443.442169 
	C406.725372,455.373383 393.083801,462.392120 378.187775,467.263184 
	C356.683075,474.295380 334.481964,477.163666 311.944305,478.540649 
	C286.921722,480.069427 262.425598,477.655823 238.258484,471.239258 
	C237.131882,470.940125 235.968323,470.715820 234.900711,470.268677 
	C220.686249,464.315674 206.749664,465.472931 192.088348,469.748901 
	C165.265915,477.571625 137.869781,477.929504 110.601868,471.579071 
	C75.960953,463.511627 71.983154,428.521667 86.108139,407.046661 
	C87.579857,404.809143 88.156242,402.844421 88.000526,400.169617 
	C86.297630,370.917389 89.996864,342.672852 104.098694,316.438965 
	C106.803322,311.407471 110.000114,306.761475 114.373795,303.042999 
	C116.387047,301.331329 117.653053,299.472565 117.647514,296.671967 
	C117.588615,266.850220 118.367783,237.020935 116.747345,207.215195 
	C116.713943,206.600876 116.487350,205.997070 116.250977,204.942657 
	C113.115257,206.269897 111.359184,208.767273 108.887184,210.892487 
M133.533569,237.121002 
	C133.254868,246.552353 133.269592,246.517365 140.598099,249.599960 
	C163.009842,259.027008 185.628067,267.967407 207.753159,278.070099 
	C209.422363,278.832275 210.973114,279.599335 212.973328,278.918457 
	C220.396927,276.391602 226.319870,279.430298 231.578552,284.343933 
	C235.237045,287.762421 238.958084,291.063812 243.147720,293.842407 
	C245.752869,295.570129 248.155914,295.782501 251.082062,294.492645 
	C285.983002,279.108276 320.917511,263.799927 355.869293,248.531296 
	C358.634644,247.323257 359.834229,245.640930 360.023468,242.510147 
	C361.388123,219.933487 362.193665,197.312897 365.672943,174.902054 
	C369.587036,149.690689 375.391083,124.942856 383.309814,100.698341 
	C385.067261,95.317581 389.514954,93.155495 394.266724,94.899727 
	C398.244659,96.359894 399.965851,100.801697 398.286285,105.809189 
	C390.646362,128.586990 385.558929,151.975204 381.583771,175.623917 
	C381.156616,178.165207 380.165680,181.171143 382.280457,183.297943 
	C387.418976,188.465698 392.823151,193.369293 398.090515,198.351120 
	C398.914948,197.777176 399.390900,197.566513 399.702484,197.211609 
	C415.529419,179.184219 431.286285,161.094803 447.210907,143.154251 
	C449.926636,140.094696 449.523376,137.894028 447.108643,135.015228 
	C433.403015,118.675896 419.810364,102.241776 406.187469,85.833122 
	C401.436401,80.110535 396.062012,75.175789 388.867950,72.741257 
	C372.623718,67.244087 356.340424,61.862408 340.094421,56.370285 
	C337.650085,55.543945 336.218109,55.756790 335.118927,58.501732 
	C330.805786,69.272850 324.656189,78.971909 316.853607,87.543457 
	C293.789612,112.880402 265.429993,124.489616 231.246826,118.771492 
	C203.406876,114.114456 182.835220,98.534386 168.854187,74.078835 
	C165.480209,68.177086 163.000671,61.853317 160.038452,55.588074 
	C158.949326,55.843334 158.134155,55.958305 157.371704,56.224358 
	C142.907181,61.271698 128.447418,66.332672 113.989998,71.400352 
	C108.044113,73.484535 103.009171,76.883949 98.897163,81.693588 
	C94.026848,87.390175 89.019859,92.969933 84.151817,98.668419 
	C73.658417,110.951874 63.204166,123.268875 52.765324,135.598755 
	C51.177265,137.474518 49.250690,139.239349 51.640881,142.042633 
	C66.557793,159.537704 81.414696,177.084122 96.236115,194.660217 
	C98.239067,197.035446 99.991379,196.886047 102.091782,194.902771 
	C104.999069,192.157623 107.856255,189.326950 111.002045,186.875717 
	C114.324684,184.286697 115.047981,181.112030 114.562614,177.171265 
	C111.913483,155.662964 107.798424,134.460068 101.867149,113.604340 
	C100.784782,109.798477 99.310722,105.985138 99.713333,101.886635 
	C100.036461,98.597366 101.614624,96.293350 104.963440,95.375610 
	C108.414581,94.429825 111.327019,95.279617 113.336884,98.182373 
	C114.345917,99.639671 114.899216,101.471916 115.406456,103.208260 
	C121.667686,124.640976 126.422768,146.419449 129.086685,168.577454 
	C129.941589,175.688416 132.285461,179.530914 139.444351,182.451599 
	C174.597916,196.793549 209.414307,211.962784 244.322403,226.903809 
	C246.934021,228.021622 249.152740,228.240448 251.888214,226.991150 
	C263.098969,221.871124 274.410370,216.968597 285.726044,212.081741 
	C301.167908,205.412933 316.646912,198.830154 332.112122,192.215393 
	C333.030914,191.822418 333.958130,191.444458 334.898865,191.108200 
	C340.933228,188.951065 345.916077,190.486237 347.678101,195.030914 
	C349.300842,199.216202 346.741608,203.645401 340.947601,206.162048 
	C311.775482,218.833054 282.567719,231.422028 253.400024,244.103210 
	C249.978729,245.590698 246.782623,245.773941 243.304764,244.266342 
	C212.137115,230.755539 180.971054,217.239792 149.719772,203.924454 
	C144.302811,201.616425 139.011063,198.734344 133.591507,197.733765 
	C133.591507,210.793427 133.591507,223.535507 133.533569,237.121002 
M215.805099,359.527740 
	C230.296860,368.524933 242.977325,379.881165 256.104218,390.641724 
	C260.034332,393.863434 260.397827,398.445740 257.756653,401.706421 
	C255.286896,404.755493 250.243423,405.285339 246.395432,402.730774 
	C244.459747,401.445679 242.724991,399.858856 240.892410,398.417328 
	C230.686554,390.389252 220.957733,381.760590 210.162033,374.472260 
	C205.158356,371.094208 200.213608,370.504669 194.587936,372.673981 
	C189.784927,374.526062 184.841248,376.127991 179.836014,377.321442 
	C156.855255,382.801086 141.046936,377.689148 128.049500,360.319397 
	C124.299568,355.307983 119.790817,351.180908 114.012657,348.594055 
	C109.353905,346.508331 108.501671,347.029907 107.231087,352.117218 
	C104.226227,364.148499 102.991943,376.353760 103.298935,388.738770 
	C103.606735,401.156677 101.354050,399.793488 114.522270,399.789124 
	C139.375381,399.780884 164.096115,400.732056 188.255203,407.554016 
	C204.307205,412.086761 219.690170,418.489197 235.452866,423.823517 
	C249.519012,428.583679 263.777435,432.459412 278.501709,434.502869 
	C281.687592,434.945068 284.649048,435.349426 286.288055,431.257019 
	C289.136932,424.143616 294.364655,418.735748 300.071320,413.786682 
	C311.199280,404.135986 324.897980,401.669220 338.845795,399.603424 
	C348.769684,398.133545 358.863678,397.226410 369.808411,392.981140 
	C351.382690,390.127167 334.997223,385.416656 319.283539,378.499512 
	C317.257050,377.607422 316.226135,378.788483 314.964722,379.904449 
	C304.547485,389.120514 295.924438,389.747650 284.983856,381.519836 
	C280.956268,378.490875 277.844238,376.085938 273.214783,380.710632 
	C270.494873,383.427704 266.922577,382.208038 264.201141,379.728058 
	C261.374603,377.152344 261.015564,373.999542 262.699158,370.639740 
	C263.428436,369.184448 264.363434,367.832214 265.158813,366.509827 
	C259.915314,360.005646 259.077454,359.703766 255.066299,362.733215 
	C250.774490,365.974640 246.867355,366.166718 243.782104,363.287933 
	C240.734985,360.444641 240.787552,356.030640 243.988846,351.578033 
	C244.857834,350.369415 246.003479,349.447662 244.885956,347.660461 
	C242.161850,343.303925 238.854752,342.694550 234.881836,346.006958 
	C234.370773,346.433075 233.864624,346.870544 233.318527,347.248291 
	C229.060394,350.193909 224.846512,350.107758 221.989944,347.032654 
	C218.849106,343.651550 219.188293,339.540131 222.832886,335.423401 
	C223.994919,334.110809 225.969681,333.385925 226.092316,331.062256 
	C223.191437,327.611755 219.552628,327.874084 215.711060,329.122040 
	C206.305618,332.177582 198.169052,337.924347 189.073990,341.651825 
	C164.216644,351.839142 146.851257,348.106750 134.530319,324.196869 
	C133.078995,321.380432 131.479355,318.611908 129.098755,316.463470 
	C127.445190,314.971130 125.364410,313.524750 123.421959,315.705139 
	C119.214859,320.427612 116.313919,325.897583 114.414421,332.317108 
	C126.412567,335.544678 134.540207,342.997620 141.262390,352.194397 
	C148.756729,362.447632 158.890533,365.039124 170.854568,362.934052 
	C177.111359,361.833191 183.178802,360.116455 189.143417,357.982269 
	C197.975967,354.821930 206.689621,354.271912 215.805099,359.527740 
M348.957062,372.523621 
	C352.322784,373.006287 355.498413,374.837799 359.366150,374.115570 
	C359.366150,337.762054 359.366150,301.577209 359.366150,264.620300 
	C325.883484,279.376770 292.996735,293.870605 259.742340,308.526459 
	C264.707855,312.408691 265.778717,314.193451 265.752777,317.949005 
	C265.713196,323.684326 268.583618,326.321259 274.097565,325.614960 
	C279.803558,324.884064 283.975037,328.582092 283.758881,334.179810 
	C283.523865,340.266998 286.633514,342.812378 292.443848,341.288788 
	C297.316589,340.011017 301.948669,342.333954 302.134705,347.009918 
	C302.299744,351.156921 304.617554,352.864441 307.514160,354.621063 
	C320.271698,362.357544 334.047424,367.742859 348.957062,372.523621 
M257.120789,459.203888 
	C265.558167,461.308838 274.200531,462.179932 282.821564,462.548798 
	C312.093994,463.801453 341.061432,461.419617 369.353699,453.440979 
	C382.972260,449.600433 395.776215,443.987122 405.352417,432.835266 
	C375.543243,445.782867 344.157318,450.711212 311.999969,451.884308 
	C278.980652,453.088806 247.300354,446.330902 217.029724,433.915375 
	C181.015030,419.143982 143.774033,413.683777 105.182129,415.307312 
	C101.832802,415.448273 99.430473,416.687225 97.825546,419.553894 
	C91.493271,430.864471 93.562180,449.261292 109.728210,454.707397 
	C119.655441,458.051758 129.852310,459.138580 140.162949,459.630310 
	C159.821335,460.567810 178.979553,457.590698 197.769836,451.892914 
	C208.438644,448.657837 218.992676,448.931030 229.676514,452.399902 
	C238.363190,455.220337 247.238464,457.541260 257.120789,459.203888 
M174.347198,281.236450 
	C161.067505,275.681549 147.787811,270.126648 134.470474,264.556030 
	C133.934891,265.699310 133.555161,266.134369 133.551651,266.572449 
	C133.469025,276.893829 133.426849,287.215515 133.377640,297.537170 
	C133.371826,298.754822 133.593109,299.991913 134.701370,300.604553 
	C143.270630,305.341614 146.844528,314.021515 151.545151,321.811401 
	C155.847076,328.940521 161.760147,331.833221 170.094696,330.480499 
	C174.522095,329.761902 178.816467,328.451813 183.051544,326.859650 
	C187.551086,325.168060 190.464722,323.094482 188.958435,317.533600 
	C188.283051,315.040253 189.024902,312.271759 189.365356,309.614166 
	C190.221771,302.929108 193.305725,297.087433 196.704803,290.827209 
	C189.074982,287.549347 182.064209,284.537445 174.347198,281.236450 
M274.929993,75.473068 
	C285.440887,68.752174 293.910645,60.318340 298.905731,47.637630 
	C264.279083,50.613937 230.669373,50.981537 196.853333,47.392399 
	C205.098816,75.203720 242.649841,94.146683 274.929993,75.473068 
M381.580566,405.214417 
	C372.976196,409.409607 363.676331,411.264435 354.432892,413.333893 
	C344.060028,415.656250 333.281281,415.758850 323.094818,419.063354 
	C314.458099,421.865082 307.683899,426.989624 302.917114,434.801239 
	C304.783997,436.446899 306.521759,435.839111 308.097504,435.865997 
	C319.756348,436.065155 331.372192,435.237946 342.906555,433.669434 
	C363.591248,430.856659 383.705078,425.808960 402.638855,416.810852 
	C412.586792,412.083221 412.958130,407.051971 404.280029,399.859039 
	C403.385742,399.117828 402.413208,398.468933 401.460114,397.801270 
	C398.870117,395.986877 396.491455,395.854797 393.711884,397.848969 
	C390.080048,400.454590 386.094391,402.567047 381.580566,405.214417 
M304.635620,70.082214 
	C290.085876,89.485512 270.524292,100.102806 246.445740,99.829750 
	C218.507828,99.512901 197.773605,85.897148 184.524628,61.199608 
	C182.798843,57.982586 181.437469,54.570702 179.888779,51.257740 
	C179.276443,49.947838 178.340271,48.924637 176.778854,49.463909 
	C174.911407,50.108891 175.566116,51.556057 176.073578,52.783043 
	C177.153809,55.394970 178.258179,57.999260 179.440125,60.566406 
	C193.920944,92.017990 223.592255,108.777100 259.054962,103.220726 
	C288.065277,98.675339 307.133423,79.782944 319.623322,53.868572 
	C321.447693,50.083271 319.428375,49.271183 316.162537,49.187660 
	C312.842896,56.358860 309.635284,63.308178 304.635620,70.082214 
M431.534607,198.040634 
	C441.643311,186.549088 451.782684,175.084290 461.845703,163.552872 
	C465.895386,158.912231 465.615265,157.000732 460.689484,153.030762 
	C459.250549,153.285828 458.479614,154.432999 457.623779,155.418610 
	C443.009766,172.249435 428.400635,189.084518 413.822388,205.946304 
	C412.279053,207.731430 409.707581,209.443909 412.669098,212.152725 
	C415.406189,214.656250 417.736633,213.919128 419.931091,211.380539 
	C423.629730,207.101868 427.352478,202.844070 431.534607,198.040634 
M45.317982,171.195877 
	C47.459000,173.737473 49.604927,176.274933 51.740170,178.821381 
	C60.387707,189.134201 69.022942,199.457397 77.684464,209.758469 
	C79.580025,212.012833 81.665840,213.279129 84.495941,211.003464 
	C87.439377,208.636642 85.769493,206.781296 84.055122,204.779114 
	C70.222015,188.623962 56.428864,172.434509 42.556847,156.312881 
	C41.305168,154.858231 40.067104,152.061890 37.448746,154.450729 
	C35.372013,156.345398 34.875843,158.582748 36.968208,161.010056 
	C39.679890,164.155823 42.254192,167.420029 45.317982,171.195877 
M231.195633,315.011749 
	C233.477295,316.675507 235.754318,318.345673 238.042450,320.000488 
	C239.326752,320.929352 240.564072,320.805237 241.591217,319.625641 
	C242.599869,318.467255 241.966293,317.436554 241.089798,316.572327 
	C234.345474,309.922058 228.251678,302.589935 220.570724,296.920868 
	C218.777359,295.597260 216.894165,294.618835 214.573181,295.731384 
	C209.718063,298.058624 204.828445,309.373291 206.291733,315.290680 
	C214.291534,312.855438 222.344986,310.763580 231.195633,315.011749 
M300.697571,368.448242 
	C291.809113,363.631378 291.809113,363.631378 289.713562,366.188843 
	C292.018890,368.882294 294.833527,370.901550 298.347717,371.506958 
	C299.848511,371.765503 302.825195,372.387238 300.697571,368.448242 
M275.421783,355.402924 
	C277.947723,356.642548 278.457153,354.824005 279.359650,352.858093 
	C276.187012,351.467133 274.990295,345.799316 268.927429,349.622162 
	C271.321320,351.741333 273.153900,353.363617 275.421783,355.402924 
M255.398361,336.918823 
	C256.594025,337.565674 257.591156,339.277191 259.468414,337.417053 
	C259.302856,334.939545 257.060974,333.769958 255.551193,332.165100 
	C254.694946,331.254913 253.608841,329.911682 252.188202,331.170441 
	C250.476181,332.687378 251.973358,333.818359 252.980423,334.880798 
	C253.549728,335.481354 254.233444,335.973450 255.398361,336.918823 
z"/>
<path fill="currentColor" opacity="1.000000" stroke="none" 
	d="
M335.604492,180.831573 
	C310.415619,190.926987 284.320190,175.624619 282.099701,149.193054 
	C280.786499,133.561691 288.847076,118.616531 305.408051,111.321487 
	C320.545807,104.653374 338.652588,108.612114 348.796417,120.541969 
	C365.850861,140.599243 359.986816,168.034637 335.604492,180.831573 
M331.792206,127.594765 
	C329.622833,126.761505 327.499725,125.768867 325.275848,125.123329 
	C316.890076,122.689102 307.116974,126.785553 302.021484,134.757156 
	C296.956116,142.681641 297.434906,153.208633 303.415985,159.813858 
	C309.043915,166.029083 316.032135,169.139267 324.439178,167.054108 
	C333.405212,164.830322 339.558075,159.101318 341.479889,150.005478 
	C343.403198,140.902618 340.464874,133.257568 331.792206,127.594765 
z"/>
<path fill="currentColor" opacity="1.000000" stroke="none" 
	d="
M145.999847,450.420532 
	C137.513840,450.418640 129.527832,450.427277 121.541893,450.404968 
	C120.047516,450.400787 118.523018,450.438477 117.065048,450.170502 
	C112.807877,449.388031 109.459541,445.540070 109.973885,441.821960 
	C110.588432,437.379425 113.574059,434.913605 117.832825,434.876892 
	C134.634048,434.731842 151.440247,434.703918 168.238922,434.978516 
	C173.767151,435.068878 176.511551,438.348572 176.319305,443.111542 
	C176.130630,447.786011 173.175934,450.301392 167.462753,450.379364 
	C160.476227,450.474731 153.487579,450.413727 145.999847,450.420532 
z"/>
</svg>