<svg version="1.1" id="Layer_1" xmlns="http://www.w3.org/2000/svg" xmlns:xlink="http://www.w3.org/1999/xlink" x="0px" y="0px"
	 width="100%" viewBox="0 0 1024 1024" enable-background="new 0 0 1024 1024" xml:space="preserve">
<path fill="none" stroke="currentColor" stroke-width="32" stroke-linecap="round" stroke-linejoin="round" opacity="1.000000" stroke="none" 
	d="
M190.140686,852.218262 
	C196.472412,844.849304 196.748199,836.824219 196.093414,827.767883 
	C193.501617,791.920105 194.989746,756.228638 203.673386,721.148682 
	C210.079315,695.270264 220.009293,670.807251 234.226410,648.181946 
	C238.140884,641.952393 242.597626,636.109497 248.545700,631.637695 
	C251.211655,629.633423 252.089615,627.161865 252.077026,623.888977 
	C251.880157,572.724487 252.093872,521.555725 251.465851,470.397064 
	C251.239777,451.980103 249.748032,433.530121 247.289932,415.159149 
	C244.749268,414.394928 243.624924,416.422668 242.240036,417.646393 
	C226.885269,431.214081 211.632904,444.898132 196.235138,458.416626 
	C177.886429,474.525909 150.809265,472.802063 134.541809,454.063324 
	C107.232437,422.605255 80.263329,390.851837 53.148575,359.224823 
	C50.220585,355.809570 47.270618,352.413177 44.340420,348.999817 
	C30.164555,332.486420 29.440504,309.884613 43.165215,293.004364 
	C61.452141,270.513000 80.119011,248.330017 98.671242,226.055008 
	C122.662857,197.249176 146.794006,168.559021 170.683517,139.668945 
	C183.037338,124.729195 198.311188,114.314835 216.660797,108.264267 
	C240.854782,100.286598 265.046692,92.302444 289.219818,84.261963 
	C293.079926,82.978020 296.957123,82.125801 300.986572,82.923615 
	C307.905823,84.293579 312.592743,89.803741 313.125977,96.974846 
	C313.623108,103.660973 309.580658,110.029137 302.735504,112.398117 
	C288.890259,117.189682 274.955078,121.721725 261.051178,126.343300 
	C248.568237,130.492569 236.034897,134.494965 223.601517,138.787277 
	C209.534897,143.643402 199.368256,153.520111 190.099213,164.762787 
	C160.004135,201.265976 129.733871,237.625229 99.385101,273.917847 
	C96.696198,277.133362 96.662338,279.044891 99.413841,282.233643 
	C128.476242,315.914398 157.374725,349.736633 186.324112,383.514954 
	C192.070450,390.219818 197.955582,396.810242 203.544189,403.643555 
	C205.789429,406.388824 207.417221,407.083313 210.341019,404.443665 
	C220.109482,395.624512 230.066040,387.013062 239.988052,378.365051 
	C242.065491,376.554352 242.566422,374.669983 242.174759,371.792450 
	C234.609833,316.213440 220.394196,262.187469 204.296951,208.597534 
	C202.495956,202.601761 201.802658,196.804794 205.935760,191.475876 
	C209.601669,186.749329 214.469818,184.704620 220.432571,185.535248 
	C227.080917,186.461380 231.406067,190.326553 233.217026,196.643250 
	C239.314896,217.912720 245.450806,239.175232 251.179413,260.545685 
	C259.800964,292.708191 266.519257,325.286560 271.454132,358.222198 
	C272.018768,361.990723 273.654633,364.199677 277.422668,365.789490 
	C330.060730,387.999481 382.606354,410.428345 435.191040,432.765015 
	C460.024292,443.313568 484.903900,453.753052 509.727020,464.325256 
	C512.085022,465.329498 514.038391,465.206604 516.361267,464.215485 
	C568.600708,441.927979 620.867981,419.705841 673.135925,397.485321 
	C680.646057,394.292603 688.171753,391.135559 695.716553,388.025848 
	C705.289124,384.080353 713.799072,387.091583 717.481689,395.658173 
	C721.179504,404.260071 717.542053,412.463287 707.870422,416.615936 
	C688.740356,424.829742 669.541077,432.882233 650.372498,441.006256 
	C607.283325,459.268280 564.174927,477.485321 521.131409,495.854309 
	C515.365845,498.314789 510.116089,498.316864 504.326050,495.839813 
	C461.912384,477.694672 419.415009,459.745270 376.954468,441.709564 
	C345.686035,428.427856 314.434723,415.105927 283.170197,401.815002 
	C281.516418,401.111969 279.810608,400.531403 277.787445,399.764282 
	C276.833130,404.618530 278.084137,409.040039 278.523285,413.353210 
	C281.714417,444.696564 283.228546,476.115570 283.226562,507.603638 
	C283.226288,511.966705 284.624573,514.114258 288.569061,515.772888 
	C323.117035,530.300354 357.590424,545.005310 392.087921,559.652832 
	C408.336365,566.551880 424.608826,573.395020 440.819427,580.381836 
	C443.332275,581.464783 445.382965,581.409729 447.895477,580.286560 
	C458.295349,575.636963 468.821625,577.758911 476.762756,585.848450 
	C477.929077,587.036560 479.271729,588.156311 480.089966,589.564941 
	C487.029602,601.512512 499.167542,605.488464 511.008240,609.974854 
	C514.309875,611.225891 516.832581,609.171814 519.470215,608.064087 
	C542.504211,598.390076 565.480652,588.579041 588.477661,578.816833 
	C637.695862,557.923828 686.889832,536.973145 736.177307,516.244690 
	C740.967285,514.230164 742.808044,511.867035 742.849670,506.427979 
	C743.085388,475.629852 744.488159,444.891510 747.504333,414.201385 
	C753.541260,352.775482 765.008728,292.445923 782.333252,233.214081 
	C785.556946,222.192322 788.527649,211.096802 791.684265,200.055054 
	C794.369629,190.661697 799.354370,186.593140 807.845032,186.692993 
	C817.822205,186.810318 825.009583,195.652649 822.415527,205.360687 
	C817.560852,223.528976 812.159363,241.550461 807.210693,259.694519 
	C797.043213,296.973358 789.214478,334.746033 783.629272,372.985260 
	C783.319397,375.106720 783.970215,376.466461 785.463013,377.774353 
	C795.739685,386.778625 806.028503,395.769928 816.217285,404.873077 
	C818.584351,406.987976 820.064636,406.446381 821.945374,404.248138 
	C852.379944,368.673431 882.867371,333.143890 913.347778,297.608398 
	C918.010864,292.171997 922.648804,286.712524 927.400391,281.354187 
	C929.322937,279.186157 929.770020,277.582825 927.614319,275.003265 
	C894.916199,235.875229 862.382019,196.610168 829.706909,157.462814 
	C820.048462,145.891205 806.950256,140.064270 792.890747,135.545837 
	C760.710571,125.203835 728.663574,114.445053 696.616394,103.694901 
	C692.645020,102.362717 690.846008,102.878571 689.258423,107.093559 
	C666.790344,166.744690 624.992554,206.148880 563.987427,224.425522 
	C532.274170,233.926559 499.948914,234.281052 467.824249,225.746338 
	C402.515839,208.395584 358.945007,167.258102 335.678741,104.160187 
	C333.374329,97.910599 331.629547,91.471748 330.433289,84.905464 
	C329.050598,77.315865 332.681366,70.238457 339.884216,67.691559 
	C352.283051,63.307407 364.664795,58.729214 377.353119,55.360283 
	C385.872803,53.098179 394.949890,54.608418 403.736816,55.034332 
	C421.194641,55.880547 438.666687,56.153019 456.122437,56.843750 
	C485.762817,58.016644 515.403625,57.795151 545.041870,57.590660 
	C573.824829,57.392075 602.600220,56.431816 631.341431,54.782547 
	C641.099548,54.222595 650.410889,55.368290 659.771973,58.527321 
	C710.259155,75.564987 760.868713,92.239700 811.419983,109.087975 
	C828.953064,114.931602 843.334961,125.304085 855.127197,139.502182 
	C897.603455,190.644531 940.188965,241.696152 982.667786,292.836334 
	C996.461487,309.442535 995.768921,332.787476 981.601318,349.239960 
	C952.254395,383.319855 922.983948,417.466644 893.852417,451.730743 
	C875.433472,473.394775 849.251099,475.485474 827.856262,456.623871 
	C812.981628,443.510559 798.138367,430.361725 783.266724,417.245026 
	C782.168274,416.276215 781.258789,414.971985 778.901001,414.744446 
	C778.394470,418.697754 777.734619,422.670288 777.397461,426.670013 
	C775.143372,453.403015 773.949890,480.176483 773.975464,507.015289 
	C774.061462,597.347290 774.020813,687.679382 774.030151,778.011475 
	C774.030884,785.040222 774.033997,785.064880 780.982300,785.790405 
	C790.081909,786.740479 799.191833,787.594238 808.287231,788.581604 
	C840.898926,792.121765 866.415222,815.121521 872.653259,847.263245 
	C876.689331,868.059631 870.166321,886.485596 857.817139,903.002075 
	C841.522949,924.794678 819.821899,939.656494 795.097656,950.298767 
	C765.977661,962.833130 735.215576,969.241516 704.075073,974.178711 
	C661.137390,980.986511 617.901489,982.494080 574.553101,981.085327 
	C550.976929,980.319153 528.080383,975.224060 505.475830,968.539185 
	C490.690338,964.166687 476.102356,958.604492 460.219086,959.133362 
	C453.809021,959.346802 447.653809,960.505432 441.578979,962.313110 
	C412.339386,971.013611 382.810333,978.368835 352.308624,980.952759 
	C325.841309,983.194824 299.391449,982.195251 272.994019,979.717224 
	C256.011871,978.123047 239.469925,974.532959 223.667450,967.876648 
	C189.301437,953.401184 175.389069,926.119995 178.405777,889.413147 
	C179.484863,876.282959 183.484329,864.008606 190.140686,852.218262 
M517.859863,750.583557 
	C509.766266,751.188843 504.143982,748.204834 501.518188,741.910217 
	C498.915436,735.670959 500.704742,729.080383 506.280396,723.882690 
	C508.295288,722.004395 510.746155,720.489868 512.242859,717.658875 
	C507.572479,712.674072 502.918427,707.914062 498.521301,702.927429 
	C496.277893,700.383240 494.519531,700.859497 492.236298,702.748657 
	C488.644897,705.720154 485.010040,708.678223 481.144745,711.270996 
	C474.214539,715.919556 465.271942,714.437073 460.557068,708.136475 
	C455.912323,701.929565 456.835388,693.299927 462.726196,687.771118 
	C464.062531,686.516846 465.817230,685.602234 466.666992,683.506348 
	C463.223145,683.245361 460.295044,683.381348 457.295074,683.851074 
	C444.719116,685.820190 433.868988,692.227478 422.578522,697.367615 
	C406.196228,704.825928 390.029633,712.822876 372.084473,715.818115 
	C350.608429,719.402649 330.191071,717.303833 312.471069,703.076965 
	C303.250336,695.673950 296.435455,686.229126 290.043976,676.416992 
	C285.778778,669.869019 281.864410,663.059509 275.966919,657.701416 
	C269.851959,652.145569 268.665680,652.015991 263.337494,658.551758 
	C256.113983,667.412476 251.491196,677.790771 246.643631,688.037964 
	C245.003113,691.505737 245.585846,692.989746 249.403015,693.946777 
	C258.154816,696.141113 266.482391,699.556458 274.440735,703.821228 
	C288.122742,711.153320 298.980255,721.727722 307.456207,734.489258 
	C317.339569,749.369873 331.338531,754.470398 348.396027,754.800842 
	C369.422882,755.208191 389.297119,750.493286 408.803650,743.272522 
	C429.605377,735.572388 448.730530,739.218323 466.207947,752.423462 
	C473.385010,757.846130 480.341431,763.561157 487.388275,769.155701 
	C505.004974,783.141663 522.671204,797.066162 540.202148,811.158875 
	C547.226257,816.805359 548.651489,824.572510 544.436584,831.571777 
	C539.614929,839.578613 528.896057,840.634399 520.479553,833.945007 
	C496.609680,814.973206 472.686066,796.068542 448.887238,777.007996 
	C439.372375,769.387512 429.131042,767.075134 417.641174,771.625427 
	C393.010620,781.379822 367.584625,786.227417 341.016968,784.298462 
	C324.718536,783.115051 309.522400,779.214111 297.087128,767.716492 
	C291.416779,762.473572 286.505096,756.597412 282.060486,750.364624 
	C271.496277,735.550110 257.232697,726.596069 239.696960,722.306824 
	C235.648438,721.316650 234.130157,722.281982 233.155228,726.281982 
	C229.123230,742.824402 226.463303,759.602905 225.546112,776.550476 
	C224.655701,793.003418 224.550583,809.517395 225.878937,825.995239 
	C226.159775,829.478943 227.412140,830.865723 231.124573,830.806091 
	C260.780273,830.330200 290.414154,831.098328 320.033112,832.643311 
	C341.501221,833.763123 362.833557,835.983398 383.883545,840.410278 
	C412.594971,846.448486 440.456909,855.536499 468.418457,864.258484 
	C506.201416,876.044189 543.640198,889.103699 583.207458,894.119629 
	C593.412415,895.413330 593.247681,895.820312 598.768005,887.292542 
	C620.553284,853.638611 651.007751,833.757874 691.220276,829.847900 
	C711.780823,827.848694 732.268494,825.587219 752.177917,819.784241 
	C756.608887,818.492676 760.924255,816.804626 765.292908,815.299133 
	C757.145874,812.917664 749.262024,811.627502 741.494934,809.832275 
	C717.585754,804.305908 694.411621,796.432251 671.901489,786.739258 
	C665.914734,784.161255 661.631653,784.284668 656.180725,788.291809 
	C646.815613,795.176697 635.924744,797.758240 624.108582,796.523621 
	C610.416199,795.092896 598.682861,789.153320 587.387817,781.872437 
	C576.993896,775.172424 576.959534,775.225586 567.577942,783.317871 
	C561.155884,788.857361 551.810547,788.579834 546.407288,782.689087 
	C540.830688,776.609375 541.038696,767.532532 546.815918,761.452393 
	C548.619141,759.554626 551.080078,758.260376 552.435303,755.410095 
	C547.545349,751.180542 542.531799,747.096313 537.831055,742.679260 
	C535.208252,740.214600 533.157898,740.250183 530.547241,742.530518 
	C526.943176,745.678650 523.719299,749.478027 517.859863,750.583557 
M742.702576,615.500000 
	C742.702576,592.997498 742.702576,570.494995 742.702576,547.196777 
	C673.775085,576.451904 606.110352,605.171082 537.773682,634.175415 
	C539.943604,635.297180 541.392578,635.995483 542.793701,636.779175 
	C549.430359,640.491028 553.371765,648.004822 549.765808,654.487915 
	C545.867676,661.496338 549.378784,664.495544 553.688110,668.192871 
	C555.077148,669.384644 556.495239,670.582336 557.677368,671.967346 
	C560.237244,674.966309 562.655640,675.551880 566.699707,673.927490 
	C577.063660,669.764587 589.154114,678.755554 586.524658,689.255676 
	C584.760986,696.298706 588.055481,698.916870 592.242981,702.209045 
	C594.467834,703.958069 596.841675,705.562012 598.842834,707.540466 
	C601.662720,710.328430 603.939026,710.584412 607.371033,708.041626 
	C612.888306,703.954102 619.949158,704.415466 625.058655,708.301331 
	C630.196960,712.208984 632.344849,718.723633 629.890869,725.301819 
	C628.649597,728.628967 629.690613,729.879272 632.272827,731.626465 
	C661.818604,751.616577 694.478333,764.742065 728.280396,775.334412 
	C732.644348,776.701904 737.071777,778.200378 742.702026,778.464417 
	C742.702026,724.254639 742.702026,670.377319 742.702576,615.500000 
M271.498535,861.152344 
	C256.002441,861.112915 240.505569,861.146484 225.010757,860.983826 
	C221.017639,860.941956 218.580093,862.564819 216.635056,865.978516 
	C209.909958,877.781677 207.465607,890.373535 208.178986,903.896423 
	C209.033813,920.100159 216.565887,931.623291 230.982086,938.721802 
	C237.114334,941.741333 243.516342,944.068848 250.222641,945.596008 
	C277.033875,951.701477 304.217834,952.574646 331.575134,952.071899 
	C363.144409,951.491638 393.604523,944.815430 423.811218,936.433167 
	C433.577911,933.722961 443.183380,930.323792 453.425842,929.682678 
	C470.122925,928.637512 486.302094,931.318726 502.052826,936.671082 
	C535.976379,948.198853 570.876465,953.502197 606.629150,952.532776 
	C623.919434,952.064026 641.224731,951.492065 658.484985,949.827515 
	C687.829346,946.997620 716.960266,942.991150 745.532532,935.598389 
	C768.864868,929.561340 791.471008,921.741699 811.107727,907.131653 
	C813.166077,905.600220 815.337708,904.209351 817.469788,901.062988 
	C799.543335,907.661133 782.293457,912.569763 764.724854,916.162354 
	C742.714844,920.663208 720.490601,923.633484 698.073547,925.636963 
	C680.457581,927.211365 662.802673,927.781372 645.226013,927.769226 
	C628.153381,927.757385 610.999268,927.255859 593.881287,925.651794 
	C573.601135,923.751526 553.621155,920.684265 533.914185,915.719421 
	C505.981567,908.682190 478.612854,899.725586 451.188812,890.982483 
	C423.922363,882.289612 396.669830,873.430420 368.442139,868.473145 
	C336.743347,862.906311 304.653992,861.329529 271.498535,861.152344 
M390.594208,679.044250 
	C393.789368,677.627319 396.929749,676.065430 400.194092,674.831482 
	C403.972046,673.403564 404.804596,671.346619 403.919586,667.198914 
	C399.402069,646.026733 402.666412,626.197754 415.282349,608.242188 
	C416.020477,607.191589 417.140656,606.257874 416.781586,603.952942 
	C372.845062,585.317383 328.533844,566.522949 284.304749,547.763306 
	C282.922150,549.953918 283.350739,551.659180 283.348602,553.274658 
	C283.318665,575.755188 283.420532,598.236328 283.246735,620.715515 
	C283.216217,624.666260 284.226715,627.195801 287.855865,629.075317 
	C291.849396,631.143555 295.071686,634.369690 298.298218,637.529724 
	C307.450500,646.493286 313.414307,657.769104 320.658020,668.112366 
	C330.534058,682.214172 343.566956,689.638306 361.135651,687.359497 
	C371.082367,686.069336 380.637329,683.192749 390.594208,679.044250 
M521.100525,161.651306 
	C524.575378,161.272095 528.096313,161.133118 531.518066,160.477020 
	C571.858215,152.741974 601.397827,130.704147 619.526733,93.694778 
	C620.582458,91.539635 622.028687,89.379623 621.488647,86.233490 
	C549.193909,89.089890 476.936249,88.726707 404.516846,86.135895 
	C405.249420,91.844360 408.821411,99.685402 413.788635,107.070068 
	C439.195343,144.841522 474.679565,163.013626 521.100525,161.651306 
M758.011047,849.643005 
	C739.057922,855.042847 719.630615,857.770691 700.058105,859.274353 
	C680.142761,860.804199 661.805725,866.215637 646.181580,879.085083 
	C640.193298,884.017578 634.585510,889.384216 630.082458,895.817261 
	C631.766052,897.292419 633.339172,896.829224 634.750000,896.828125 
	C650.219543,896.816345 665.672974,896.880371 681.150818,896.066895 
	C712.289673,894.430237 742.995789,890.105225 773.234192,882.636414 
	C796.077332,876.994202 818.166077,869.247864 838.812378,857.680054 
	C842.808350,855.441101 843.619812,853.136780 842.257629,848.932556 
	C838.581360,837.585999 831.545166,829.229126 821.257568,823.321472 
	C817.281189,821.038086 814.210022,821.169312 810.442810,824.082275 
	C794.988159,836.032532 777.651672,844.315002 758.011047,849.643005 
M133.238174,369.256165 
	C114.305237,347.212921 95.372299,325.169708 76.430222,303.115814 
	C72.739342,305.377411 70.767273,308.273010 68.648666,311.011932 
	C62.875519,318.475494 63.138855,323.301514 69.331627,330.512573 
	C97.849014,363.719208 126.351700,396.938599 154.788773,430.213989 
	C163.671600,440.608124 168.666534,441.029022 178.901398,432.409271 
	C182.658173,429.245392 182.988235,427.055054 179.595291,423.188141 
	C164.117538,405.548004 148.956512,387.629974 133.238174,369.256165 
M902.826355,393.332123 
	C903.995117,391.922943 905.142822,390.495636 906.335938,389.107391 
	C923.367004,369.291412 940.403076,349.479736 957.440857,329.669495 
	C961.050171,325.472870 962.995056,320.761810 960.426880,315.457153 
	C958.105591,310.662292 954.283447,306.948944 950.629517,303.380737 
	C948.090149,304.213470 947.087097,306.021240 945.809814,307.509277 
	C926.518555,329.985168 907.231689,352.464874 887.949463,374.948547 
	C873.757324,391.497101 859.565918,408.046387 845.399048,424.616608 
	C844.249146,425.961609 842.816345,427.221130 844.158020,429.406891 
	C850.601624,439.904205 861.783081,440.981323 869.798340,431.722748 
	C880.692688,419.138580 891.512573,406.490021 902.826355,393.332123 
M426.884308,174.602158 
	C458.878998,195.074341 493.718201,204.360992 531.544312,199.431946 
	C571.574890,194.215637 605.263977,176.363373 631.713013,145.586319 
	C644.091492,131.182281 653.491394,114.959175 659.971924,97.066597 
	C661.027588,94.152092 661.183289,91.992630 657.557251,90.856926 
	C653.917297,89.716888 653.779053,92.495865 653.010315,94.551765 
	C643.348572,120.390671 628.173401,142.369995 606.603516,159.633072 
	C576.054993,184.082138 541.257141,195.134949 502.042725,192.382996 
	C480.388611,190.863403 460.139648,184.926834 441.291748,174.405182 
	C408.875336,156.309067 386.388245,129.568893 373.197083,94.916428 
	C371.092682,89.388283 370.306427,89.258629 365.115387,92.813683 
	C370.427368,114.278175 391.389923,151.339539 426.884308,174.602158 
M439.132996,626.641357 
	C434.245514,634.479431 431.871582,642.963440 432.258575,652.246643 
	C432.544128,659.096802 433.037018,659.622437 439.576111,657.449646 
	C458.201416,651.260864 476.448334,651.071777 494.177979,660.527283 
	C497.577728,662.340393 498.763641,659.747803 500.429352,657.528748 
	C495.143250,651.847595 489.642975,646.688843 485.044678,640.822998 
	C477.625397,631.358459 468.462646,624.956665 457.110291,620.928528 
	C446.172089,617.047363 446.348846,616.549194 439.132996,626.641357 
M620.626404,759.929077 
	C616.748474,757.355286 612.743164,754.950806 609.029602,752.158447 
	C605.564453,749.552856 603.394836,750.430847 601.643250,753.939148 
	C607.732300,760.908569 623.249023,767.460876 629.754272,765.718384 
	C626.821106,763.865967 624.022888,762.098755 620.626404,759.929077 
M558.899597,720.903687 
	C563.520447,724.892578 568.163940,728.855652 572.754333,732.879333 
	C575.883545,735.622009 577.931519,734.525757 579.857971,730.884338 
	C574.827087,726.699097 569.839600,722.673645 564.998413,718.479248 
	C561.741394,715.657471 559.817566,716.516052 558.899597,720.903687 
M527.613525,689.890015 
	C529.674011,692.028442 531.693604,694.208374 533.807678,696.292419 
	C535.559692,698.019592 537.168762,698.050903 538.445129,695.747559 
	C532.146179,687.356689 523.720154,680.559326 519.978333,681.713989 
	C522.517090,684.433594 524.823547,686.904358 527.613525,689.890015 
z"/>
<path fill="none" stroke="currentColor" stroke-width="64" stroke-linecap="round" stroke-linejoin="round" opacity="1.000000" stroke="none" 
	d="
M719.571045,334.544739 
	C700.547852,358.088776 668.802368,368.375824 639.662109,359.397095 
	C608.983276,349.944244 590.366699,328.703125 585.756042,296.976257 
	C578.728760,248.619232 618.215820,207.246658 666.830078,210.883560 
	C703.356201,213.616119 733.113098,243.099197 736.361084,279.818085 
	C738.162720,300.184662 732.434998,318.282532 719.571045,334.544739 
M699.813171,264.719391 
	C691.902039,249.959061 673.296631,239.268921 654.422424,242.290619 
	C629.790283,246.234116 613.642578,266.726959 616.505859,292.461761 
	C619.146973,316.199341 639.910767,332.684814 662.550964,331.562439 
	C695.052795,329.951172 716.150391,295.028381 699.813171,264.719391 
z"/>
<path fill="none" stroke="currentColor" stroke-width="64" stroke-linecap="round" stroke-linejoin="round" opacity="1.000000" stroke="none" 
	d="
M306.999939,936.369995 
	C291.003967,936.368958 275.507935,936.390564 260.012085,936.357239 
	C251.377945,936.338623 245.074890,930.243103 244.858398,921.810791 
	C244.650558,913.715576 251.242844,906.972595 259.782318,906.956787 
	C295.772766,906.890259 331.763519,906.887817 367.753937,906.967651 
	C376.556763,906.987183 382.401520,913.153137 382.336670,921.859497 
	C382.270752,930.710815 376.554474,936.346924 367.484192,936.361633 
	C347.489502,936.394104 327.494690,936.370361 306.999939,936.369995 
z"/>
</svg>