<svg version="1.1" id="Layer_1" xmlns="http://www.w3.org/2000/svg" xmlns:xlink="http://www.w3.org/1999/xlink" x="0px" y="0px"
	 width="100%" viewBox="0 0 100 100" enable-background="new 0 0 100 100" xml:space="preserve">
<path fill="none" opacity="1.000000" stroke="currentColor" stroke-linecap="round" stroke-linejoin="round" stroke-width="6.000000"
	d="
M38.500000,73.000000 
	C40.999794,73.583641 42.563080,75.572044 43.986118,77.009178 
	C47.123222,77.074585 48.431095,75.043434 49.989342,73.489311 
	C63.841003,59.674358 77.680344,45.846970 91.492180,31.992205 
	C95.991707,27.478680 96.239883,24.385914 92.483101,19.011816 
	C88.905228,13.893655 84.741447,9.475930 78.515854,7.451257 
	C76.031563,6.643323 73.830299,6.720917 72.021187,8.521288 
	C56.650799,23.817390 41.318691,39.152187 26.072487,54.571674 
	C25.626732,55.022491 24.447634,55.812386 24.942432,57.091225 
	C26.983257,60.927261 30.250996,63.674900 33.446373,66.559402 
	C35.352219,68.279823 37.727646,69.754738 38.500000,72.500000 
"/>
<path fill="none" opacity="1.000000" stroke="currentColor" stroke-linecap="round" stroke-linejoin="round" stroke-width="6.000000"
	d="
M28.750000,64.000000 
	C27.940266,66.731987 25.931612,68.582932 24.003469,70.503487 
	C18.826637,75.659950 13.639501,80.806564 8.511230,86.011063 
	C5.863428,88.698227 7.067780,90.729034 9.421866,93.078293 
	C11.752242,95.403877 13.716250,95.723755 15.987490,93.487297 
	C21.193701,88.360786 26.340057,83.173363 31.496515,77.996529 
	C33.417072,76.068390 35.268013,74.059738 38.000000,73.250000 
"/>
<path fill="none" opacity="1.000000" stroke="currentColor" stroke-linecap="round" stroke-linejoin="round" stroke-width="5.000000"
	d="
M34.000000,24.000000 
	C38.007584,23.060612 39.120560,20.151926 38.985546,16.500534 
	C38.822655,12.095201 36.351074,9.169145 32.479065,7.550067 
	C29.179470,6.170345 26.088478,6.987382 23.500334,9.500344 
	C16.973305,15.837769 17.619268,22.596157 24.988558,26.024593 
	C28.429565,27.625460 31.417925,27.507551 34.000000,24.500000 
"/>
<path fill="none" opacity="1.000000" stroke="currentColor" stroke-linecap="round" stroke-linejoin="round" stroke-width="5.000000"
	d="
M23.000000,11.500000 
	C24.285044,17.527229 28.879545,20.774517 33.500000,24.000000 
"/>
</svg>