<svg version="1.1" id="Layer_1" xmlns="http://www.w3.org/2000/svg" xmlns:xlink="http://www.w3.org/1999/xlink" x="0px" y="0px"
	 width="100%" viewBox="0 0 512 512" enable-background="new 0 0 512 512" xml:space="preserve">
<path fill="#000000" opacity="1.000000" stroke="none" 
	d="
M135.388474,432.413727 
	C132.793777,437.546295 131.878891,442.841736 130.255035,447.905090 
	C129.036331,451.705109 127.908081,455.568542 126.277229,459.195862 
	C120.030861,473.088928 104.816727,474.381287 95.803413,461.930542 
	C91.391747,455.836334 90.316154,448.766266 89.906898,441.595703 
	C89.347244,431.789948 89.243874,421.958954 88.804749,412.145050 
	C88.638123,408.420990 89.411713,404.962769 92.194443,402.582947 
	C104.662354,391.920319 106.891983,376.677399 110.736557,362.114868 
	C111.494522,359.243866 110.298561,356.893524 109.315598,354.446960 
	C104.412270,342.242706 99.530891,330.029175 94.536980,317.861938 
	C91.454788,310.352448 90.278122,302.436005 89.889397,294.472107 
	C89.215721,280.670349 88.980774,266.844727 88.712708,253.026169 
	C88.305565,232.038589 87.960846,211.049133 87.756485,190.058853 
	C87.720261,186.338379 86.050941,183.828583 83.603401,181.390137 
	C68.019913,165.864700 52.417965,150.356659 36.961514,134.705200 
	C24.845030,122.435837 24.333141,105.241440 35.472557,93.457054 
	C39.003986,89.721153 43.470039,87.556557 48.161282,85.727066 
	C66.157997,78.708649 84.137543,71.646103 102.146835,64.660217 
	C105.622612,63.311943 108.349518,61.334755 110.908844,58.456543 
	C123.194077,44.640629 138.600937,39.504402 156.418320,44.843277 
	C174.324524,50.208771 184.777954,62.579311 187.442719,81.361778 
	C190.406464,102.251656 177.445496,120.296822 161.436066,126.947777 
	C142.697205,134.732635 122.210136,129.540634 109.821205,113.618324 
	C107.593910,110.755798 105.693672,109.842606 102.334831,111.524536 
	C96.852226,114.269943 91.203224,116.683044 85.632797,119.232521 
	C91.212372,131.494553 105.258209,139.205750 118.091461,137.544540 
	C141.169922,134.557159 164.245438,131.539764 187.351730,128.782654 
	C190.928864,128.355820 192.571213,126.240509 194.276779,123.785446 
	C207.774658,104.355972 221.287109,84.936440 234.714249,65.458115 
	C238.427582,60.071297 242.395691,54.986534 247.787506,51.152023 
	C258.873108,43.268219 273.735474,38.089725 287.097168,53.020355 
	C289.031097,52.914467 289.653748,51.101395 290.762848,49.986046 
	C297.002289,43.711430 304.526520,41.981369 312.820251,44.234184 
	C321.246033,46.522873 326.616638,52.192390 328.292114,60.838482 
	C330.878448,74.184898 333.208588,87.580948 335.755371,101.547935 
	C361.566620,83.994980 385.180756,84.495193 404.021729,110.809006 
	C414.280212,125.136284 414.736267,149.052322 394.975403,168.005341 
	C396.239136,170.336746 398.531158,171.339539 400.784698,172.330444 
	C413.285919,177.827393 425.729401,183.465378 438.338623,188.703629 
	C447.017029,192.308884 453.304596,198.029434 456.226288,206.997803 
	C461.637207,223.607117 466.786591,240.301498 472.176453,256.917816 
	C476.094910,268.997833 465.550415,278.653961 454.461914,280.243927 
	C443.221954,281.855591 435.777100,277.328918 431.284668,265.770172 
	C427.246246,255.379517 423.546509,244.840836 420.170959,234.216995 
	C418.808289,229.928345 416.530945,227.455307 412.355072,226.113968 
	C408.905975,225.006088 405.630981,223.356094 401.748718,221.723358 
	C400.808197,227.258514 403.089844,231.872986 403.706940,236.645340 
	C404.323181,241.411484 405.645447,246.082031 406.419586,250.833374 
	C407.164246,255.404114 409.103577,259.190826 412.119507,262.744904 
	C427.259186,280.585907 443.760712,297.018127 461.956177,311.734955 
	C469.964417,318.212189 469.261902,323.591522 459.855560,327.989655 
	C447.025055,333.988922 433.713684,338.707825 419.216766,343.041260 
	C423.329163,350.503632 427.194580,357.517761 431.322235,365.007812 
	C436.160034,362.176483 439.762573,358.752472 443.211700,355.278595 
	C451.901764,346.526154 462.260986,345.041748 473.663727,347.810516 
	C484.832581,350.522461 488.624329,358.096344 484.443848,368.872375 
	C481.396820,376.726746 476.932495,383.723663 471.639099,390.207611 
	C463.832764,399.769623 455.275146,408.666412 446.619690,417.437256 
	C436.491577,427.700378 418.388824,426.560852 405.989929,414.833435 
	C397.497406,406.800842 390.997650,396.995087 383.617279,387.975647 
	C374.965271,377.402069 366.510742,366.667023 357.951477,356.017334 
	C356.390778,354.075470 354.845337,352.384521 351.980316,351.972229 
	C347.981018,351.396698 345.951233,352.397583 344.753357,356.534119 
	C340.495239,371.238708 336.084900,385.908539 331.271454,400.438873 
	C329.035126,407.189667 331.295044,413.319489 332.645233,419.540070 
	C334.128998,426.376068 333.090759,432.357910 329.121460,438.008423 
	C321.892731,448.298920 312.681641,456.422699 301.590881,462.186127 
	C287.922882,469.288818 276.657532,462.367249 275.617676,446.903625 
	C274.842712,435.379242 277.538391,424.441650 280.289154,413.458923 
	C285.663300,392.002014 290.955902,370.524506 296.411499,349.088409 
	C297.319885,345.519165 296.707916,343.736115 292.843842,342.630249 
	C281.769958,339.461090 271.205597,334.954834 261.095825,329.394470 
	C258.032593,327.709686 255.466553,325.842377 255.442856,321.889648 
	C255.417648,317.685730 258.148041,315.704498 261.450378,314.118256 
	C275.853058,307.199860 289.019714,298.571320 299.522797,286.327301 
	C317.369843,265.521973 321.226379,241.399918 313.292511,216.071838 
	C304.984436,189.549210 302.106934,162.110596 296.717834,135.104584 
	C293.337128,118.163185 290.617706,101.089981 287.567627,84.082016 
	C287.396820,83.129631 286.915588,82.232918 286.471039,81.014748 
	C281.396240,84.557137 277.059448,88.133057 273.900360,93.537659 
	C259.693604,117.842735 245.034225,141.882858 230.606842,166.059555 
	C225.813232,174.092438 218.665848,177.864380 209.532333,178.147812 
	C204.703995,178.297638 199.866592,178.125565 195.034561,178.192429 
	C188.125931,178.288040 185.365555,181.007782 185.344482,187.955475 
	C185.286377,207.120407 184.741287,226.307297 185.463715,245.444946 
	C186.279022,267.043213 182.902817,287.833160 176.863174,308.438629 
	C172.656052,322.792084 169.298523,337.392822 165.370316,351.831085 
	C164.479202,355.106354 164.863754,357.938934 166.134369,360.960968 
	C170.135498,370.477478 173.516968,380.285278 178.017181,389.553589 
	C184.121262,402.125122 186.119736,415.485596 187.266144,429.103699 
	C187.843994,435.968109 190.383743,442.354431 191.656982,449.051605 
	C194.386490,463.408569 184.950272,473.269073 170.359329,471.000824 
	C160.611633,469.485535 154.024506,464.061707 150.321915,454.968353 
	C146.931274,446.641052 143.466568,438.343872 140.022446,430.038422 
	C139.647705,429.134705 139.193222,428.264069 138.638107,427.085999 
	C136.561386,428.328918 136.443253,430.467438 135.388474,432.413727 
M156.372894,376.008057 
	C153.623734,369.582123 151.252045,362.961639 148.058121,356.764954 
	C136.142700,333.647125 127.238289,309.554565 124.156593,283.614105 
	C123.179810,275.391907 122.017448,267.073914 123.320343,258.733948 
	C123.972069,254.562225 126.450386,251.898834 130.647903,251.933655 
	C134.871368,251.968689 137.227570,254.772522 137.835464,258.899719 
	C138.052261,260.371582 138.076111,261.886261 138.043243,263.378204 
	C137.792877,274.738373 138.838654,285.968292 141.364517,297.051361 
	C144.243118,309.682159 148.189133,321.943634 153.749588,333.828156 
	C155.485092,332.614563 155.449844,331.053070 155.818054,329.657288 
	C158.787628,318.399536 161.541351,307.078125 164.811172,295.907928 
	C169.149170,281.088501 171.101501,266.093628 170.778976,250.616043 
	C170.331253,229.130936 170.628479,207.629517 170.674866,186.135223 
	C170.700546,174.232605 178.719604,165.227707 190.436646,163.518707 
	C196.586258,162.621750 202.747681,163.019638 208.898132,163.049957 
	C213.221161,163.071259 216.121002,161.325134 218.287292,157.690582 
	C230.821960,136.660080 243.235413,115.553215 256.102997,94.727440 
	C260.673431,87.330330 263.562134,78.630775 271.460693,73.510315 
	C275.794128,70.701057 276.904663,66.597542 275.017609,62.738663 
	C273.015839,58.645214 269.036163,57.281075 263.884094,59.149612 
	C257.225677,61.564457 252.294357,66.087135 248.305389,71.889404 
	C233.584335,93.302361 218.630112,114.556366 204.067123,136.075577 
	C200.796677,140.908188 196.655350,142.671707 191.254059,143.319366 
	C167.984268,146.109573 144.729767,149.030396 121.482300,152.002197 
	C107.538017,153.784760 94.936340,151.229111 84.584938,141.070847 
	C78.995903,135.586105 73.426270,130.077652 67.984421,124.447891 
	C62.055397,118.314148 63.020931,113.209335 70.690125,109.652489 
	C79.302032,105.658447 87.963326,101.770981 96.582802,97.793083 
	C98.336220,96.983887 100.678421,96.539932 100.636467,93.967232 
	C100.572456,90.041779 101.118965,86.066696 100.183311,82.159454 
	C97.821289,81.860344 96.067009,82.983627 94.259445,83.681168 
	C80.904716,88.834808 67.575775,94.055550 54.251133,99.286804 
	C40.487179,104.690536 38.328957,115.025612 48.714920,125.413445 
	C64.027458,140.728775 79.285233,156.098877 94.600647,171.411316 
	C98.850227,175.660049 102.048553,180.444321 102.292076,186.623795 
	C102.698677,196.941071 103.167404,207.265503 103.172173,217.587097 
	C103.183167,241.412659 103.543785,265.230988 104.400093,289.037476 
	C104.753555,298.864075 106.234207,308.479034 110.172256,317.722015 
	C117.741463,335.487701 124.846512,353.451263 132.138504,371.335022 
	C142.573074,396.925964 153.014862,422.514008 163.420700,448.116669 
	C164.920380,451.806488 166.794708,455.005249 171.066986,455.973938 
	C175.899323,457.069641 178.056519,455.069366 176.855011,450.331238 
	C174.360016,440.492126 172.103287,430.653015 171.342346,420.457062 
	C170.977341,415.566498 170.766953,410.535828 168.700241,405.796906 
	C164.508026,396.184143 160.649796,386.425690 156.372894,376.008057 
M282.688782,323.288666 
	C300.913849,331.167084 320.097870,335.291992 339.776306,336.530945 
	C372.412354,338.585724 404.160095,333.685303 434.860535,322.363434 
	C438.336548,321.081543 442.108093,320.233276 445.034546,317.788574 
	C444.390076,315.945343 442.992950,315.226196 441.887634,314.248840 
	C426.004120,300.204559 411.215485,285.110260 397.850677,268.629242 
	C395.378937,265.581207 393.667572,262.317657 392.909851,258.447449 
	C389.941010,243.283615 386.777374,228.157181 383.917175,212.973328 
	C383.292999,209.659637 382.400360,205.868225 385.744598,203.203308 
	C389.097412,200.531555 392.687653,201.529724 396.142822,203.012604 
	C405.018677,206.821838 413.752716,210.988327 422.752899,214.470612 
	C427.879578,216.454178 430.803802,219.512665 432.502930,224.773315 
	C436.439758,236.962006 440.923737,248.974915 445.243408,261.038483 
	C446.733856,265.200806 449.672577,266.674805 453.928253,265.239502 
	C458.280731,263.771545 457.931854,260.808990 456.783600,257.199158 
	C452.293915,243.084427 447.965912,228.918076 443.614349,214.759689 
	C441.796967,208.846542 438.214020,204.932159 432.416077,202.248398 
	C415.089294,194.228073 396.480957,188.820709 380.846375,177.295959 
	C378.935669,175.887527 376.765991,176.308182 374.587067,176.715103 
	C350.006317,181.305618 326.271942,163.425385 323.513336,138.601578 
	C322.875397,132.861313 324.956238,127.250938 324.087952,121.779915 
	C321.093140,102.909561 317.594116,84.116806 314.091217,65.331024 
	C313.063660,59.820385 309.512329,57.411587 305.010803,58.400745 
	C300.761078,59.334572 298.839325,63.256931 299.806366,68.679764 
	C303.014954,86.672020 305.815765,104.745323 309.428284,122.655357 
	C315.495087,152.733215 318.804291,183.294785 327.707642,212.902420 
	C336.041718,240.616760 332.099487,267.306824 314.437897,291.118927 
	C306.089661,302.374359 295.526733,311.199982 283.852295,318.812988 
	C282.591980,319.634857 279.163788,320.129669 282.688782,323.288666 
M349.849152,110.319283 
	C339.261902,119.023697 335.480011,130.866531 339.492462,142.750900 
	C343.295349,154.014481 354.035858,162.163498 365.705566,162.639252 
	C378.011932,163.140961 389.758484,155.274170 394.064087,143.647263 
	C398.425659,131.869370 394.756744,118.868225 384.820129,110.890190 
	C375.017334,103.019592 361.827423,102.648514 349.849152,110.319283 
M131.434250,60.824574 
	C129.739975,61.880054 127.961800,62.822655 126.365028,64.009346 
	C116.040810,71.682129 112.362724,86.807762 117.892731,98.613945 
	C123.625435,110.852882 137.158585,117.930603 149.504456,115.146614 
	C166.812698,111.243599 176.863846,94.694168 171.823074,78.398567 
	C166.573288,61.427307 149.181976,53.582153 131.434250,60.824574 
M431.933838,384.127838 
	C427.297913,385.162476 424.396057,383.129242 422.219940,379.115997 
	C417.221313,369.897278 411.818573,360.893127 406.986450,351.590698 
	C404.874084,347.524139 402.194611,346.519562 398.123810,347.735840 
	C397.018066,348.066162 395.843506,348.177094 394.694855,348.351074 
	C387.889404,349.381836 381.082214,350.401428 373.808289,351.495056 
	C374.616089,352.838989 374.957214,353.590332 375.458221,354.213074 
	C388.191101,370.040192 400.919220,385.871307 413.703644,401.656769 
	C416.616943,405.253937 420.574982,407.342773 424.893585,408.866150 
	C429.660248,410.547516 433.870911,409.619995 437.215149,405.977600 
	C445.208099,397.271973 453.752106,389.057495 461.074890,379.753540 
	C465.066650,374.681885 468.673340,369.332184 470.512970,363.071320 
	C465.044525,360.104950 459.792328,360.812195 455.073639,364.741089 
	C447.533905,371.018860 440.735992,378.164703 431.933838,384.127838 
M320.791870,384.451050 
	C324.176941,373.416626 327.562042,362.382172 331.075562,350.929016 
	C325.945190,350.042938 321.681549,349.490814 317.510284,348.535278 
	C313.188934,347.545319 311.330750,349.022736 310.294006,353.368469 
	C305.592682,373.074799 300.432617,392.671539 295.714172,412.373962 
	C293.170227,422.996460 289.499756,433.464020 290.285187,444.674286 
	C290.646362,449.828918 291.912262,450.672577 296.423920,448.105988 
	C304.490051,443.517334 311.181366,437.348724 316.678070,429.877991 
	C318.342529,427.615723 319.086945,425.252808 318.129211,422.405823 
	C314.277405,410.955688 314.464752,399.647552 319.533691,388.544708 
	C320.012939,387.495026 320.247559,386.333679 320.791870,384.451050 
M129.647797,404.378601 
	C126.887482,397.666534 124.127167,390.954437 121.366859,384.242371 
	C120.868423,384.087860 120.369987,383.933380 119.871552,383.778870 
	C119.796997,395.540649 111.363655,402.224213 105.217300,410.296417 
	C104.130989,411.723083 104.059357,413.380646 104.107780,415.059662 
	C104.405243,425.375153 104.087463,435.712158 105.278076,445.997589 
	C105.531807,448.189545 105.980232,450.293945 107.180511,452.127197 
	C109.366112,455.465332 111.671219,455.355469 113.401825,451.873657 
	C113.916618,450.837891 114.305870,449.716980 114.592735,448.594208 
	C117.693825,436.456512 122.256653,424.866699 127.403343,413.467102 
	C128.585297,410.849121 130.728333,408.341858 129.647797,404.378601 
z"/>
</svg>