<svg version="1.1" id="Layer_1" xmlns="http://www.w3.org/2000/svg" xmlns:xlink="http://www.w3.org/1999/xlink" x="0px" y="0px"
	 width="100%" viewBox="0 0 512 512" enable-background="new 0 0 600 600" xml:space="preserve">
<path fill="none" opacity="1.000000" stroke="none" 
	d="
M304.000000,513.000000 
	C202.691269,513.000000 101.882530,513.000000 1.036899,513.000000 
	C1.036899,342.399567 1.036899,171.799149 1.036899,1.099354 
	C171.558746,1.099354 342.117554,1.099354 512.838196,1.099354 
	C512.838196,171.666550 512.838196,342.333252 512.838196,513.000000 
	C443.465790,513.000000 373.982880,513.000000 304.000000,513.000000 
M503.663696,295.679840 
	C501.434723,264.961884 499.588348,234.209854 496.856323,203.536697 
	C494.651794,178.785721 484.040985,157.963455 464.611481,142.051239 
	C448.010529,128.455521 428.742401,120.819298 407.828522,116.838707 
	C405.822174,116.456841 403.035736,115.256126 402.337860,113.674004 
	C394.977631,96.987938 367.272552,82.200134 344.730957,86.016693 
	C324.635864,89.419022 307.270477,96.448708 297.664825,116.084358 
	C297.113983,117.210388 295.128662,117.830994 293.684875,118.292442 
	C283.427979,121.570641 272.775208,123.898270 262.927856,128.115082 
	C234.798706,140.160477 214.315613,160.042572 207.787155,190.654739 
	C203.606354,210.258759 201.351715,230.472809 200.366791,250.518204 
	C198.225601,294.096161 197.400833,337.739868 196.156769,381.360046 
	C195.889938,390.715607 198.446182,393.001678 208.013382,393.004028 
	C222.636902,393.007629 237.260422,393.005005 252.232254,393.005005 
	C252.027039,396.568909 251.906357,399.690216 251.657394,402.801300 
	C250.833801,413.093201 250.078247,423.392700 249.064133,433.666321 
	C248.548706,438.887848 250.043198,442.855835 254.834763,445.261230 
	C262.686005,449.202667 270.286133,453.851318 278.484955,456.857697 
	C315.165527,470.307800 352.915222,471.888489 391.141449,465.460938 
	C410.442963,462.215515 428.841797,456.221466 445.659149,445.844788 
	C450.445160,442.891754 452.707886,439.198395 452.056854,433.503052 
	C451.300781,426.888824 450.916992,420.231201 450.411957,413.589325 
	C449.875946,406.539734 449.387207,399.486481 448.855957,392.132263 
	C464.524170,392.132263 479.496735,392.148193 494.469208,392.125641 
	C502.123932,392.114105 505.087891,389.237732 504.984009,381.597137 
	C504.598877,353.278625 504.127441,324.961304 503.663696,295.679840 
M30.323490,457.160645 
	C43.378334,464.834229 57.575069,469.267731 72.369774,472.034515 
	C97.645470,476.761414 123.144791,475.863220 148.589615,474.601929 
	C164.399704,473.818268 179.924377,470.732544 194.839325,465.111267 
	C208.383759,460.006531 220.821625,453.184814 230.539948,442.151184 
	C235.292374,436.755463 234.130020,431.296783 227.689240,427.972656 
	C225.785049,426.989899 223.743668,426.003357 222.258057,424.523682 
	C213.778915,416.078430 204.739624,408.060974 197.215775,398.819336 
	C181.666214,379.719604 172.311584,357.852844 173.306381,332.766235 
	C173.732849,322.011902 176.112442,311.339294 177.523727,300.618896 
	C180.514969,277.896729 182.125427,255.048859 176.915695,232.543945 
	C173.295929,216.907425 168.343506,201.524170 163.090927,186.337509 
	C158.490540,173.036530 158.615402,160.214462 165.924774,148.435730 
	C171.652847,139.205154 178.819427,130.779861 186.000732,122.568596 
	C190.959106,116.899124 191.769653,113.769386 186.256927,108.796028 
	C183.108200,105.955353 182.128769,102.887619 181.964783,98.827431 
	C181.272507,81.686356 180.350739,64.553215 179.348465,47.426788 
	C179.047943,42.291576 175.507812,39.138809 171.058914,39.415340 
	C166.841873,39.677460 164.163132,43.059437 164.178085,48.239891 
	C164.183365,50.068272 164.429504,51.894726 164.521423,53.724285 
	C165.196686,67.165283 165.860748,80.606842 166.563843,94.763237 
	C148.971008,87.716972 134.260422,92.767838 122.291634,102.956467 
	C114.000610,99.028961 106.901291,94.019257 99.106766,92.439346 
	C91.396477,90.876511 82.984329,92.776299 74.643921,93.168312 
	C75.403732,78.293671 76.257286,62.670818 76.970444,47.041557 
	C77.225174,41.459194 74.806763,38.906948 69.512589,38.622948 
	C64.738937,38.366867 62.173847,40.850445 61.864166,46.319584 
	C60.894260,63.448784 59.817234,80.575447 59.185062,97.717964 
	C59.009232,102.486015 58.081726,106.142395 54.296997,109.440979 
	C49.220905,113.865059 49.710823,117.746704 54.609711,122.448738 
	C58.685539,126.360786 62.812210,130.293167 66.362961,134.665909 
	C79.765800,151.171509 85.022888,168.913834 75.930908,189.717194 
	C58.492321,229.618408 56.039589,271.053253 64.909508,313.406311 
	C68.851334,332.228210 68.283226,350.741486 61.091061,368.820618 
	C51.387604,393.212372 34.765060,412.110199 14.326954,428.004211 
	C8.013806,432.913696 7.183509,437.268433 12.806356,442.931702 
	C17.916674,448.078766 24.001633,452.258148 30.323490,457.160645 
z"/>
<path fill="currentColor" opacity="1.000000" stroke="currentColor" stroke-width="30.000000"
	d="
M503.676086,296.161682 
	C504.127441,324.961304 504.598877,353.278625 504.984009,381.597137 
	C505.087891,389.237732 502.123932,392.114105 494.469208,392.125641 
	C479.496735,392.148193 464.524170,392.132263 448.855957,392.132263 
	C449.387207,399.486481 449.875946,406.539734 450.411957,413.589325 
	C450.916992,420.231201 451.300781,426.888824 452.056854,433.503052 
	C452.707886,439.198395 450.445160,442.891754 445.659149,445.844788 
	C428.841797,456.221466 410.442963,462.215515 391.141449,465.460938 
	C352.915222,471.888489 315.165527,470.307800 278.484955,456.857697 
	C270.286133,453.851318 262.686005,449.202667 254.834763,445.261230 
	C250.043198,442.855835 248.548706,438.887848 249.064133,433.666321 
	C250.078247,423.392700 250.833801,413.093201 251.657394,402.801300 
	C251.906357,399.690216 252.027039,396.568909 252.232254,393.005005 
	C237.260422,393.005005 222.636902,393.007629 208.013382,393.004028 
	C198.446182,393.001678 195.889938,390.715607 196.156769,381.360046 
	C197.400833,337.739868 198.225601,294.096161 200.366791,250.518204 
	C201.351715,230.472809 203.606354,210.258759 207.787155,190.654739 
	C214.315613,160.042572 234.798706,140.160477 262.927856,128.115082 
	C272.775208,123.898270 283.427979,121.570641 293.684875,118.292442 
	C295.128662,117.830994 297.113983,117.210388 297.664825,116.084358 
	C307.270477,96.448708 324.635864,89.419022 344.730957,86.016693 
	C367.272552,82.200134 394.977631,96.987938 402.337860,113.674004 
	C403.035736,115.256126 405.822174,116.456841 407.828522,116.838707 
	C428.742401,120.819298 448.010529,128.455521 464.611481,142.051239 
	C484.040985,157.963455 494.651794,178.785721 496.856323,203.536697 
	C499.588348,234.209854 501.434723,264.961884 503.676086,296.161682 
M273.302460,437.240845 
	C295.080566,447.722595 318.271973,451.789429 342.421906,452.840973 
	C342.519806,451.301849 342.655334,450.164246 342.655518,449.026611 
	C342.665009,390.874725 342.701172,332.722687 342.531189,274.571320 
	C342.523926,272.078308 341.182526,269.065643 339.481232,267.180878 
	C319.055695,244.552490 298.432465,222.102631 277.891022,199.578644 
	C273.204102,194.439362 273.231384,190.802109 277.765076,185.654572 
	C279.196381,184.029480 280.600769,182.380676 282.551758,180.125000 
	C278.117737,180.125000 274.946350,180.001572 271.788452,180.155212 
	C267.527405,180.362488 263.894409,179.700073 261.789062,175.328156 
	C259.826385,171.252502 261.896484,168.346985 264.123505,165.332657 
	C270.729523,156.391159 277.295898,147.420395 284.023712,138.262375 
	C283.101379,138.114914 282.569489,137.866241 282.145782,137.989548 
	C279.919342,138.637360 277.681396,139.277390 275.517639,140.103958 
	C250.511551,149.656357 230.904816,165.150864 223.554443,191.880112 
	C219.922379,205.087906 218.529709,219.020447 217.187485,232.729218 
	C212.588867,279.697571 211.831528,326.848145 211.383942,374.000397 
	C211.375122,374.928558 211.563248,375.858643 211.657791,376.771362 
	C225.772858,376.771362 239.542877,376.771362 253.355499,376.771362 
	C253.549484,376.118378 253.773209,375.666718 253.809402,375.200470 
	C255.884705,348.467346 257.932922,321.732086 260.009277,294.999023 
	C261.660065,273.744873 263.314758,252.490952 265.033783,231.242264 
	C265.426147,226.392349 268.639832,223.788773 273.441193,224.107574 
	C278.405914,224.437210 280.993927,227.143768 281.003113,232.138168 
	C281.006470,233.967316 280.847595,235.799927 280.698517,237.625717 
	C278.842255,260.366150 276.931335,283.102173 275.118439,305.846069 
	C271.955780,345.523682 268.876038,385.207947 265.702942,424.884735 
	C265.038300,433.195404 264.921326,433.186035 273.302460,437.240845 
M361.486938,267.270294 
	C360.550446,269.956238 358.804047,272.639954 358.796692,275.328430 
	C358.638947,333.139893 358.675812,390.951874 358.674988,448.763763 
	C358.674988,450.043427 358.674988,451.323090 358.674988,453.030548 
	C384.441589,451.718903 408.891602,447.318329 431.716125,435.692902 
	C435.259521,433.888123 436.336151,431.831940 435.940918,427.948090 
	C434.458466,413.379761 433.213715,398.785217 432.051605,384.186798 
	C430.479218,364.435150 429.134064,344.665466 427.566895,324.913361 
	C425.169830,294.701080 422.630066,264.500000 420.289917,234.283432 
	C420.133209,232.260101 420.486603,229.447495 421.768738,228.237442 
	C423.713257,226.402161 426.803314,224.457306 429.187683,224.701080 
	C433.469666,225.138824 435.923340,228.421783 436.282043,233.045395 
	C439.154297,270.069244 442.085236,307.088562 445.001495,344.109009 
	C445.835266,354.693542 446.680023,365.277252 447.518860,375.850220 
	C461.542175,375.850220 475.120941,375.850220 488.971008,375.850220 
	C488.971008,373.949005 489.004089,372.311005 488.966064,370.674652 
	C488.250122,339.865692 488.157532,309.025146 486.610168,278.257812 
	C485.290070,252.008804 483.118439,225.740021 479.823608,199.669556 
	C476.124451,170.400299 453.489227,145.241150 416.720947,136.065140 
	C423.887329,145.788834 430.968628,154.958679 437.467651,164.524139 
	C439.089600,166.911346 439.935059,170.886276 439.172699,173.574249 
	C438.138672,177.220276 434.453369,178.851318 430.339691,178.703568 
	C426.586517,178.568726 422.824677,178.674988 418.157837,178.674988 
	C419.700745,180.712372 420.610748,182.005966 421.613373,183.223267 
	C428.734436,191.868820 428.704926,193.792740 421.031281,202.191788 
	C401.368988,223.712799 381.685272,245.214233 361.486938,267.270294 
M385.721771,116.873657 
	C372.476593,101.756042 355.880585,99.009964 337.263977,103.766342 
	C319.621857,108.273750 305.105103,121.547012 311.138733,143.932571 
	C316.048553,162.148529 321.730988,180.223511 328.291595,197.908096 
	C334.707825,215.203476 342.668793,231.925781 350.451721,250.065033 
	C355.577087,238.643555 360.289429,228.585785 364.634399,218.371750 
	C375.092682,193.786972 385.434113,169.138290 390.470276,142.708420 
	C392.161499,133.832840 392.023926,125.124153 385.721771,116.873657 
M317.614624,214.926529 
	C313.082367,203.332321 308.550110,191.738098 303.872803,179.772812 
	C300.115173,184.073410 296.643829,188.046310 293.014984,192.199493 
	C301.646393,201.835220 310.100708,211.273239 319.491669,221.756882 
	C318.750305,218.892532 318.329498,217.266693 317.614624,214.926529 
M384.157257,217.308655 
	C391.884674,208.698090 399.612091,200.087524 407.414581,191.393356 
	C403.941254,186.872971 400.736725,182.702393 397.111359,177.984131 
	C394.804169,184.287109 392.824493,190.030640 390.602600,195.678925 
	C387.938507,202.451309 385.039673,209.131058 382.316986,215.880981 
	C381.906952,216.897537 380.540375,218.951202 384.157257,217.308655 
M406.338104,149.174698 
	C405.755371,149.332794 404.720581,149.388031 404.657715,149.664368 
	C403.713348,153.815826 402.897003,157.996414 401.989624,162.470459 
	C406.600647,162.470459 410.931519,162.470459 416.069244,162.470459 
	C412.743683,157.899780 409.770966,153.813995 406.338104,149.174698 
M288.235321,163.358444 
	C292.112946,163.358444 295.990570,163.358444 300.014801,163.358444 
	C298.887634,158.404495 297.931519,154.202301 296.816681,149.302567 
	C294.320251,152.462540 292.247986,154.830215 290.482147,157.407822 
	C289.240967,159.219589 288.416901,161.317123 288.235321,163.358444 
M381.500000,219.000000 
	C381.366669,219.200012 381.233337,219.400009 381.100006,219.600021 
	C381.399994,219.566681 381.700012,219.533340 381.500000,219.000000 
z"/>
<path fill="currentColor" opacity="1.000000" stroke="currentColor" stroke-width="30.000000"
	d="
M29.990211,457.012390 
	C24.001633,452.258148 17.916674,448.078766 12.806356,442.931702 
	C7.183509,437.268433 8.013806,432.913696 14.326954,428.004211 
	C34.765060,412.110199 51.387604,393.212372 61.091061,368.820618 
	C68.283226,350.741486 68.851334,332.228210 64.909508,313.406311 
	C56.039589,271.053253 58.492321,229.618408 75.930908,189.717194 
	C85.022888,168.913834 79.765800,151.171509 66.362961,134.665909 
	C62.812210,130.293167 58.685539,126.360786 54.609711,122.448738 
	C49.710823,117.746704 49.220905,113.865059 54.296997,109.440979 
	C58.081726,106.142395 59.009232,102.486015 59.185062,97.717964 
	C59.817234,80.575447 60.894260,63.448784 61.864166,46.319584 
	C62.173847,40.850445 64.738937,38.366867 69.512589,38.622948 
	C74.806763,38.906948 77.225174,41.459194 76.970444,47.041557 
	C76.257286,62.670818 75.403732,78.293671 74.643921,93.168312 
	C82.984329,92.776299 91.396477,90.876511 99.106766,92.439346 
	C106.901291,94.019257 114.000610,99.028961 122.291634,102.956467 
	C134.260422,92.767838 148.971008,87.716972 166.563843,94.763237 
	C165.860748,80.606842 165.196686,67.165283 164.521423,53.724285 
	C164.429504,51.894726 164.183365,50.068272 164.178085,48.239891 
	C164.163132,43.059437 166.841873,39.677460 171.058914,39.415340 
	C175.507812,39.138809 179.047943,42.291576 179.348465,47.426788 
	C180.350739,64.553215 181.272507,81.686356 181.964783,98.827431 
	C182.128769,102.887619 183.108200,105.955353 186.256927,108.796028 
	C191.769653,113.769386 190.959106,116.899124 186.000732,122.568596 
	C178.819427,130.779861 171.652847,139.205154 165.924774,148.435730 
	C158.615402,160.214462 158.490540,173.036530 163.090927,186.337509 
	C168.343506,201.524170 173.295929,216.907425 176.915695,232.543945 
	C182.125427,255.048859 180.514969,277.896729 177.523727,300.618896 
	C176.112442,311.339294 173.732849,322.011902 173.306381,332.766235 
	C172.311584,357.852844 181.666214,379.719604 197.215775,398.819336 
	C204.739624,408.060974 213.778915,416.078430 222.258057,424.523682 
	C223.743668,426.003357 225.785049,426.989899 227.689240,427.972656 
	C234.130020,431.296783 235.292374,436.755463 230.539948,442.151184 
	C220.821625,453.184814 208.383759,460.006531 194.839325,465.111267 
	C179.924377,470.732544 164.399704,473.818268 148.589615,474.601929 
	C123.144791,475.863220 97.645470,476.761414 72.369774,472.034515 
	C57.575069,469.267731 43.378334,464.834229 29.990211,457.012390 
M84.702858,216.220795 
	C83.194092,222.003342 81.113846,227.708878 80.321632,233.587982 
	C79.337608,240.890594 77.240257,249.050171 79.387512,255.607056 
	C95.342201,304.326172 120.136818,347.953064 157.245392,383.906586 
	C164.541489,390.975586 172.639450,397.217010 180.367584,403.840088 
	C180.724472,403.496338 181.081360,403.152618 181.438248,402.808868 
	C181.185181,402.291534 180.996719,401.728821 180.669846,401.263306 
	C160.539902,372.598328 154.463593,341.354218 161.564972,306.917267 
	C165.670258,287.009460 166.382462,266.625397 164.339600,246.233704 
	C162.429413,227.166473 156.283447,209.237000 149.734940,191.489899 
	C142.843292,172.812805 144.637985,155.142288 154.325623,138.261597 
	C158.927521,130.242783 164.830612,122.970734 170.200241,115.280174 
	C158.000580,103.034973 142.192505,103.549622 129.846863,117.650345 
	C124.273834,124.015656 118.261002,125.350853 112.028389,117.451302 
	C101.152100,103.666122 84.669296,103.342766 72.327087,115.081047 
	C77.781357,122.687302 83.780815,129.878510 88.471611,137.840698 
	C98.156754,154.280319 100.697533,171.634750 93.452667,189.955109 
	C90.162521,198.275009 87.736145,206.936478 84.702858,216.220795 
M163.076675,410.424225 
	C127.140945,381.927185 101.732056,345.200653 80.555786,304.527069 
	C93.138840,360.401062 69.152916,401.682159 29.233969,437.146240 
	C38.740425,444.933472 49.332844,450.034546 60.797409,452.859100 
	C99.075264,462.289703 137.607407,461.876953 176.103195,454.325531 
	C188.501038,451.893585 200.110657,447.043701 211.076599,439.053650 
	C193.659592,431.524658 178.081009,422.126770 163.076675,410.424225 
z"/>
<path fill="#FDFDFD" opacity="1.000000" stroke="none" 
	d="
M272.949036,437.108093 
	C264.921326,433.186035 265.038300,433.195404 265.702942,424.884735 
	C268.876038,385.207947 271.955780,345.523682 275.118439,305.846069 
	C276.931335,283.102173 278.842255,260.366150 280.698517,237.625717 
	C280.847595,235.799927 281.006470,233.967316 281.003113,232.138168 
	C280.993927,227.143768 278.405914,224.437210 273.441193,224.107574 
	C268.639832,223.788773 265.426147,226.392349 265.033783,231.242264 
	C263.314758,252.490952 261.660065,273.744873 260.009277,294.999023 
	C257.932922,321.732086 255.884705,348.467346 253.809402,375.200470 
	C253.773209,375.666718 253.549484,376.118378 253.355499,376.771362 
	C239.542877,376.771362 225.772858,376.771362 211.657791,376.771362 
	C211.563248,375.858643 211.375122,374.928558 211.383942,374.000397 
	C211.831528,326.848145 212.588867,279.697571 217.187485,232.729218 
	C218.529709,219.020447 219.922379,205.087906 223.554443,191.880112 
	C230.904816,165.150864 250.511551,149.656357 275.517639,140.103958 
	C277.681396,139.277390 279.919342,138.637360 282.145782,137.989548 
	C282.569489,137.866241 283.101379,138.114914 284.023712,138.262375 
	C277.295898,147.420395 270.729523,156.391159 264.123505,165.332657 
	C261.896484,168.346985 259.826385,171.252502 261.789062,175.328156 
	C263.894409,179.700073 267.527405,180.362488 271.788452,180.155212 
	C274.946350,180.001572 278.117737,180.125000 282.551758,180.125000 
	C280.600769,182.380676 279.196381,184.029480 277.765076,185.654572 
	C273.231384,190.802109 273.204102,194.439362 277.891022,199.578644 
	C298.432465,222.102631 319.055695,244.552490 339.481232,267.180878 
	C341.182526,269.065643 342.523926,272.078308 342.531189,274.571320 
	C342.701172,332.722687 342.665009,390.874725 342.655518,449.026611 
	C342.655334,450.164246 342.519806,451.301849 342.421906,452.840973 
	C318.271973,451.789429 295.080566,447.722595 272.949036,437.108093 
z"/>
<path fill="#FEFEFE" opacity="1.000000" stroke="none" 
	d="
M361.748535,266.996887 
	C381.685272,245.214233 401.368988,223.712799 421.031281,202.191788 
	C428.704926,193.792740 428.734436,191.868820 421.613373,183.223267 
	C420.610748,182.005966 419.700745,180.712372 418.157837,178.674988 
	C422.824677,178.674988 426.586517,178.568726 430.339691,178.703568 
	C434.453369,178.851318 438.138672,177.220276 439.172699,173.574249 
	C439.935059,170.886276 439.089600,166.911346 437.467651,164.524139 
	C430.968628,154.958679 423.887329,145.788834 416.720947,136.065140 
	C453.489227,145.241150 476.124451,170.400299 479.823608,199.669556 
	C483.118439,225.740021 485.290070,252.008804 486.610168,278.257812 
	C488.157532,309.025146 488.250122,339.865692 488.966064,370.674652 
	C489.004089,372.311005 488.971008,373.949005 488.971008,375.850220 
	C475.120941,375.850220 461.542175,375.850220 447.518860,375.850220 
	C446.680023,365.277252 445.835266,354.693542 445.001495,344.109009 
	C442.085236,307.088562 439.154297,270.069244 436.282043,233.045395 
	C435.923340,228.421783 433.469666,225.138824 429.187683,224.701080 
	C426.803314,224.457306 423.713257,226.402161 421.768738,228.237442 
	C420.486603,229.447495 420.133209,232.260101 420.289917,234.283432 
	C422.630066,264.500000 425.169830,294.701080 427.566895,324.913361 
	C429.134064,344.665466 430.479218,364.435150 432.051605,384.186798 
	C433.213715,398.785217 434.458466,413.379761 435.940918,427.948090 
	C436.336151,431.831940 435.259521,433.888123 431.716125,435.692902 
	C408.891602,447.318329 384.441589,451.718903 358.674988,453.030548 
	C358.674988,451.323090 358.674988,450.043427 358.674988,448.763763 
	C358.675812,390.951874 358.638947,333.139893 358.796692,275.328430 
	C358.804047,272.639954 360.550446,269.956238 361.748535,266.996887 
z"/>
<path fill="#FDFDFD" opacity="1.000000" stroke="none" 
	d="
M385.923218,117.179237 
	C392.023926,125.124153 392.161499,133.832840 390.470276,142.708420 
	C385.434113,169.138290 375.092682,193.786972 364.634399,218.371750 
	C360.289429,228.585785 355.577087,238.643555 350.451721,250.065033 
	C342.668793,231.925781 334.707825,215.203476 328.291595,197.908096 
	C321.730988,180.223511 316.048553,162.148529 311.138733,143.932571 
	C305.105103,121.547012 319.621857,108.273750 337.263977,103.766342 
	C355.880585,99.009964 372.476593,101.756042 385.923218,117.179237 
z"/>
<path fill="#F5F5F5" opacity="1.000000" stroke="none" 
	d="
M317.761658,215.283691 
	C318.329498,217.266693 318.750305,218.892532 319.491669,221.756882 
	C310.100708,211.273239 301.646393,201.835220 293.014984,192.199493 
	C296.643829,188.046310 300.115173,184.073410 303.872803,179.772812 
	C308.550110,191.738098 313.082367,203.332321 317.761658,215.283691 
z"/>
<path fill="#F5F5F5" opacity="1.000000" stroke="none" 
	d="
M383.890747,217.631012 
	C380.540375,218.951202 381.906952,216.897537 382.316986,215.880981 
	C385.039673,209.131058 387.938507,202.451309 390.602600,195.678925 
	C392.824493,190.030640 394.804169,184.287109 397.111359,177.984131 
	C400.736725,182.702393 403.941254,186.872971 407.414581,191.393356 
	C399.612091,200.087524 391.884674,208.698090 383.890747,217.631012 
z"/>
<path fill="#E8E8E8" opacity="1.000000" stroke="none" 
	d="
M406.568176,149.451447 
	C409.770966,153.813995 412.743683,157.899780 416.069244,162.470459 
	C410.931519,162.470459 406.600647,162.470459 401.989624,162.470459 
	C402.897003,157.996414 403.713348,153.815826 404.657715,149.664368 
	C404.720581,149.388031 405.755371,149.332794 406.568176,149.451447 
z"/>
<path fill="#F3F3F3" opacity="1.000000" stroke="none" 
	d="
M287.820984,163.322754 
	C288.416901,161.317123 289.240967,159.219589 290.482147,157.407822 
	C292.247986,154.830215 294.320251,152.462540 296.816681,149.302567 
	C297.931519,154.202301 298.887634,158.404495 300.014801,163.358444 
	C295.990570,163.358444 292.112946,163.358444 287.820984,163.322754 
z"/>
<path fill="#F5F5F5" opacity="1.000000" stroke="none" 
	d="
M381.750000,219.250000 
	C381.700012,219.533340 381.399994,219.566681 381.100006,219.600006 
	C381.233337,219.400009 381.366669,219.200012 381.750000,219.250000 
z"/>
<path fill="#FDFDFD" opacity="1.000000" stroke="none" 
	d="
M84.810402,215.831894 
	C87.736145,206.936478 90.162521,198.275009 93.452667,189.955109 
	C100.697533,171.634750 98.156754,154.280319 88.471611,137.840698 
	C83.780815,129.878510 77.781357,122.687302 72.327087,115.081047 
	C84.669296,103.342766 101.152100,103.666122 112.028389,117.451302 
	C118.261002,125.350853 124.273834,124.015656 129.846863,117.650345 
	C142.192505,103.549622 158.000580,103.034973 170.200241,115.280174 
	C164.830612,122.970734 158.927521,130.242783 154.325623,138.261597 
	C144.637985,155.142288 142.843292,172.812805 149.734940,191.489899 
	C156.283447,209.237000 162.429413,227.166473 164.339600,246.233704 
	C166.382462,266.625397 165.670258,287.009460 161.564972,306.917267 
	C154.463593,341.354218 160.539902,372.598328 180.669846,401.263306 
	C180.996719,401.728821 181.185181,402.291534 181.438248,402.808868 
	C181.081360,403.152618 180.724472,403.496338 180.367584,403.840088 
	C172.639450,397.217010 164.541489,390.975586 157.245392,383.906586 
	C120.136818,347.953064 95.342201,304.326172 79.387512,255.607056 
	C77.240257,249.050171 79.337608,240.890594 80.321632,233.587982 
	C81.113846,227.708878 83.194092,222.003342 84.810402,215.831894 
z"/>
<path fill="#FEFEFE" opacity="1.000000" stroke="none" 
	d="
M163.346710,410.659119 
	C178.081009,422.126770 193.659592,431.524658 211.076599,439.053650 
	C200.110657,447.043701 188.501038,451.893585 176.103195,454.325531 
	C137.607407,461.876953 99.075264,462.289703 60.797409,452.859100 
	C49.332844,450.034546 38.740425,444.933472 29.233969,437.146240 
	C69.152916,401.682159 93.138840,360.401062 80.555786,304.527069 
	C101.732056,345.200653 127.140945,381.927185 163.346710,410.659119 
z"/>
</svg>