<svg version="1.1" id="Layer_1" xmlns="http://www.w3.org/2000/svg" xmlns:xlink="http://www.w3.org/1999/xlink" x="0px" y="0px"
	 width="100%" viewBox="0 0 100 100" enable-background="new 0 0 100 100" xml:space="preserve">
<path fill="#FDFDFD" opacity="1.000000" stroke="none" 
	d="
M64.000000,101.000000 
	C42.666672,101.000000 21.833342,101.000000 1.000008,101.000000 
	C1.000006,67.666679 1.000006,34.333351 1.000003,1.000022 
	C34.333317,1.000015 67.666634,1.000015 100.999969,1.000007 
	C100.999977,34.333309 100.999977,67.666618 100.999985,100.999969 
	C88.833336,101.000000 76.666664,101.000000 64.000000,101.000000 
M73.516617,91.109329 
	C86.028419,79.554649 82.270226,65.188606 64.449852,57.597340 
	C69.586067,50.984375 74.665924,44.441162 79.748886,37.900360 
	C85.058174,31.068310 90.625931,24.413481 95.504730,17.286873 
	C96.750259,15.467483 96.758896,11.571821 95.600777,9.708460 
	C94.595238,8.090588 91.059151,7.243065 88.787102,7.476001 
	C87.058922,7.653179 85.349083,9.882877 83.989754,11.500721 
	C66.216324,32.654182 48.523026,53.874973 30.742016,75.022034 
	C29.651293,76.319244 28.114401,77.779884 26.579382,78.067841 
	C21.137781,79.088615 20.844456,75.384583 20.785414,71.333214 
	C20.719587,66.816429 18.480530,63.717472 13.802524,63.006721 
	C9.857474,62.407333 6.157212,65.045029 5.129516,68.922264 
	C2.600226,78.464645 8.784490,89.898430 18.185854,93.061501 
	C28.467319,96.520683 35.777325,93.823792 44.504448,83.351738 
	C53.240623,95.810074 61.614285,98.232979 73.516617,91.109329 
z"/>
<path fill="#0F0F0F" opacity="1.000000" stroke="none" 
	d="
M73.237358,91.347031 
	C61.614285,98.232979 53.240623,95.810074 44.504448,83.351738 
	C35.777325,93.823792 28.467319,96.520683 18.185854,93.061501 
	C8.784490,89.898430 2.600226,78.464645 5.129516,68.922264 
	C6.157212,65.045029 9.857474,62.407333 13.802524,63.006721 
	C18.480530,63.717472 20.719587,66.816429 20.785414,71.333214 
	C20.844456,75.384583 21.137781,79.088615 26.579382,78.067841 
	C28.114401,77.779884 29.651293,76.319244 30.742016,75.022034 
	C48.523026,53.874973 66.216324,32.654182 83.989754,11.500721 
	C85.349083,9.882877 87.058922,7.653179 88.787102,7.476001 
	C91.059151,7.243065 94.595238,8.090588 95.600777,9.708460 
	C96.758896,11.571821 96.750259,15.467483 95.504730,17.286873 
	C90.625931,24.413481 85.058174,31.068310 79.748886,37.900360 
	C74.665924,44.441162 69.586067,50.984375 64.449852,57.597340 
	C82.270226,65.188606 86.028419,79.554649 73.237358,91.347031 
M65.851425,39.226677 
	C54.950977,52.255817 44.100700,65.327682 33.087254,78.260605 
	C31.693977,79.896713 29.576868,81.562141 27.568216,81.912277 
	C20.390320,83.163437 17.406500,80.249146 16.938927,72.008583 
	C16.777697,69.167038 16.027868,66.935295 12.800431,66.938728 
	C9.484974,66.942253 8.904588,69.324081 8.806303,72.099869 
	C8.437200,82.524254 14.247459,89.111969 23.900633,90.271347 
	C33.118038,91.378380 41.913265,84.421768 43.884666,74.196983 
	C45.070225,68.048012 47.772408,62.697372 53.502159,60.520313 
	C63.169235,56.847237 65.817528,47.337532 73.500870,40.298496 
	C70.077896,39.517868 68.189659,39.087242 65.851425,39.226677 
M61.602818,91.085175 
	C68.659264,90.711990 71.982765,88.709930 74.129028,83.998001 
	C72.385002,83.311714 70.605713,82.611557 68.826431,81.911400 
	C70.515724,81.042992 72.295403,80.310112 73.865501,79.262985 
	C75.106041,78.435638 76.088974,77.222023 77.281914,76.089165 
	C73.580666,75.127350 71.225876,74.515434 68.871094,73.903511 
	C70.835747,72.647018 72.800392,71.390518 75.026237,69.966980 
	C72.485237,64.765953 67.960274,62.028160 61.798698,62.034588 
	C55.963303,62.040672 51.495247,65.277611 49.714123,69.935524 
	C51.569313,71.199547 53.269417,72.357903 54.969517,73.516251 
	C52.684704,74.208244 50.399895,74.900246 46.843250,75.977448 
	C48.334866,77.199142 49.416649,78.234749 50.644337,79.050873 
	C52.018898,79.964638 53.525616,80.679611 54.974823,81.481087 
	C53.491062,82.026962 52.002369,82.560104 50.528450,83.131363 
	C50.285240,83.225632 50.106781,83.486969 49.662361,83.879677 
	C52.171959,88.120285 55.854904,90.486351 61.602818,91.085175 
M87.623390,13.154032 
	C86.410385,14.652065 85.197380,16.150099 83.734543,17.956678 
	C85.336266,19.021452 86.615395,19.871771 88.042870,20.820709 
	C89.537560,18.929895 91.024017,17.532837 91.867226,15.819252 
	C92.466995,14.600377 92.200203,12.955094 92.320160,11.500117 
	C90.918976,11.846935 89.517784,12.193753 87.623390,13.154032 
M78.056396,31.902372 
	C76.881798,31.087835 75.707191,30.273298 74.208305,29.233881 
	C72.650772,31.104469 71.263657,32.770390 69.667542,34.687317 
	C71.618454,35.836884 73.121010,36.722256 74.940865,37.794598 
	C76.284866,35.886860 77.486633,34.181011 78.056396,31.902372 
M78.986801,23.496174 
	C78.319435,24.405447 77.652069,25.314718 76.846848,26.411821 
	C78.433716,27.439392 79.791962,28.318924 81.443153,29.388149 
	C82.814568,27.580837 84.058777,25.941160 85.586258,23.928177 
	C83.267426,23.097115 82.116447,19.204250 78.986801,23.496174 
z"/>
<path fill="#F5F5F5" opacity="1.000000" stroke="none" 
	d="
M66.076424,38.941650 
	C68.189659,39.087242 70.077896,39.517868 73.500870,40.298496 
	C65.817528,47.337532 63.169235,56.847237 53.502159,60.520313 
	C47.772408,62.697372 45.070225,68.048012 43.884666,74.196983 
	C41.913265,84.421768 33.118038,91.378380 23.900633,90.271347 
	C14.247459,89.111969 8.437200,82.524254 8.806303,72.099869 
	C8.904588,69.324081 9.484974,66.942253 12.800431,66.938728 
	C16.027868,66.935295 16.777697,69.167038 16.938927,72.008583 
	C17.406500,80.249146 20.390320,83.163437 27.568216,81.912277 
	C29.576868,81.562141 31.693977,79.896713 33.087254,78.260605 
	C44.100700,65.327682 54.950977,52.255817 66.076424,38.941650 
z"/>
<path fill="#F4F4F4" opacity="1.000000" stroke="none" 
	d="
M61.183487,91.065178 
	C55.854904,90.486351 52.171959,88.120285 49.662361,83.879677 
	C50.106781,83.486969 50.285240,83.225632 50.528450,83.131363 
	C52.002369,82.560104 53.491062,82.026962 54.974823,81.481087 
	C53.525616,80.679611 52.018898,79.964638 50.644337,79.050873 
	C49.416649,78.234749 48.334866,77.199142 46.843250,75.977448 
	C50.399895,74.900246 52.684704,74.208244 54.969517,73.516251 
	C53.269417,72.357903 51.569313,71.199547 49.714123,69.935524 
	C51.495247,65.277611 55.963303,62.040672 61.798698,62.034588 
	C67.960274,62.028160 72.485237,64.765953 75.026237,69.966980 
	C72.800392,71.390518 70.835747,72.647018 68.871094,73.903519 
	C71.225876,74.515434 73.580666,75.127350 77.281914,76.089165 
	C76.088974,77.222023 75.106041,78.435638 73.865501,79.262985 
	C72.295403,80.310112 70.515724,81.042992 68.826431,81.911400 
	C70.605713,82.611557 72.385002,83.311714 74.129028,83.998001 
	C71.982765,88.709930 68.659264,90.711990 61.183487,91.065178 
M57.099316,73.351784 
	C59.038567,77.659164 62.590969,75.505257 65.579964,75.348152 
	C65.949402,75.328735 66.625107,73.940407 66.480125,73.354309 
	C66.335243,72.768593 65.329636,71.985596 64.716049,71.998314 
	C62.298141,72.048424 59.886021,72.377617 57.099316,73.351784 
M66.543304,81.585854 
	C63.803249,81.123482 61.070023,80.604607 58.314331,80.271591 
	C57.976906,80.230820 57.149242,81.229973 57.201614,81.669403 
	C57.285549,82.373657 57.972321,83.615860 58.305809,83.584457 
	C61.064384,83.324753 63.800285,82.824196 66.543304,81.585854 
z"/>
<path fill="#F1F1F1" opacity="1.000000" stroke="none" 
	d="
M87.869995,12.847301 
	C89.517784,12.193753 90.918976,11.846935 92.320160,11.500116 
	C92.200203,12.955094 92.466995,14.600377 91.867226,15.819252 
	C91.024017,17.532837 89.537560,18.929895 88.042870,20.820709 
	C86.615395,19.871771 85.336266,19.021452 83.734543,17.956678 
	C85.197380,16.150099 86.410385,14.652065 87.869995,12.847301 
z"/>
<path fill="#EAEAEA" opacity="1.000000" stroke="none" 
	d="
M78.372406,32.188766 
	C77.486633,34.181011 76.284866,35.886860 74.940865,37.794598 
	C73.121010,36.722256 71.618454,35.836884 69.667542,34.687317 
	C71.263657,32.770390 72.650772,31.104469 74.208305,29.233881 
	C75.707191,30.273298 76.881798,31.087835 78.372406,32.188766 
z"/>
<path fill="#EEEEEE" opacity="1.000000" stroke="none" 
	d="
M79.208847,23.226189 
	C82.116447,19.204250 83.267426,23.097115 85.586258,23.928177 
	C84.058777,25.941160 82.814568,27.580837 81.443153,29.388149 
	C79.791962,28.318924 78.433716,27.439392 76.846848,26.411821 
	C77.652069,25.314718 78.319435,24.405447 79.208847,23.226189 
z"/>
<path fill="#232323" opacity="1.000000" stroke="none" 
	d="
M57.285530,72.977516 
	C59.886021,72.377617 62.298141,72.048424 64.716049,71.998314 
	C65.329636,71.985596 66.335243,72.768593 66.480125,73.354309 
	C66.625107,73.940407 65.949402,75.328735 65.579964,75.348152 
	C62.590969,75.505257 59.038567,77.659164 57.285530,72.977516 
z"/>
<path fill="#181818" opacity="1.000000" stroke="none" 
	d="
M66.543182,81.991196 
	C63.800285,82.824196 61.064384,83.324753 58.305809,83.584457 
	C57.972321,83.615860 57.285549,82.373657 57.201614,81.669403 
	C57.149242,81.229973 57.976906,80.230820 58.314331,80.271591 
	C61.070023,80.604607 63.803249,81.123482 66.543182,81.991196 
z"/>
</svg>