<svg version="1.1" id="Layer_1" xmlns="http://www.w3.org/2000/svg" xmlns:xlink="http://www.w3.org/1999/xlink" x="0px" y="0px"
	 width="100%" viewBox="0 0 100 100" enable-background="new 0 0 100 100" xml:space="preserve">
<path fill="#FBFBFB" opacity="1.000000" stroke="none" 
	d="
M101.000000,34.000000 
	C101.000000,56.285339 101.000000,78.570679 101.000000,101.000000 
	C84.417381,101.000000 67.834404,101.000000 51.251431,101.000000 
	C34.620579,101.000000 17.989731,101.000000 1.000000,101.000000 
	C1.000000,88.981483 1.000000,76.959404 1.359699,64.536041 
	C4.644930,65.275642 7.542856,66.494766 10.502444,67.539139 
	C14.972372,69.116470 15.732755,68.383698 15.515221,63.708210 
	C15.313213,59.366467 15.472123,55.007927 15.472123,50.656784 
	C16.020531,50.611706 16.568937,50.566628 17.117344,50.521549 
	C18.047588,55.147293 20.060507,59.863140 19.684586,64.380180 
	C18.881245,74.033005 22.692184,82.600685 24.634995,91.588287 
	C25.324156,94.776405 30.675163,96.646271 33.895050,94.766319 
	C35.014645,94.112633 35.093258,90.956474 34.934895,89.000938 
	C34.693024,86.014114 33.832539,83.077393 33.234688,80.119392 
	C33.668369,80.028458 34.102047,79.937523 34.535728,79.846588 
	C35.160912,81.648705 35.865864,83.427750 36.395298,85.257568 
	C37.642170,89.567009 40.548611,91.315193 44.924156,91.397095 
	C48.179050,91.458008 49.245098,90.395943 48.067616,87.242165 
	C46.501945,83.048637 44.981930,78.834969 43.579117,74.584793 
	C42.613605,71.659523 47.369488,64.325157 50.391289,64.066795 
	C54.468414,63.718220 58.560928,63.549664 62.844948,63.291935 
	C64.134735,72.076675 65.467087,80.765022 66.665062,89.471863 
	C67.275543,93.908737 69.955544,95.248268 74.017700,94.952209 
	C78.506851,94.625023 76.895752,91.232567 76.928322,88.913780 
	C77.053040,80.036545 76.978760,71.156502 76.978760,62.214306 
	C78.808624,62.885952 81.079216,63.719364 83.366600,64.558945 
	C82.850395,68.548050 82.129532,72.156036 81.982529,75.787254 
	C81.824356,79.694496 84.856094,81.494705 88.026695,81.781212 
	C89.115295,81.879593 91.026245,79.027176 91.619057,77.214600 
	C92.955772,73.127457 93.686424,68.843628 94.696938,64.647835 
	C95.733673,60.343102 94.386520,57.131832 90.394020,55.121540 
	C87.431000,53.629612 84.341988,52.347980 81.531693,50.612274 
	C80.403435,49.915440 79.187828,48.252357 79.191429,47.032547 
	C79.203583,42.918785 79.745224,38.806591 80.034019,35.304420 
	C87.184731,35.039085 94.317841,41.113415 101.000000,34.000000 
z"/>
<path fill="#0E0E0E" opacity="1.000000" stroke="none" 
	d="
M101.000000,33.625000 
	C94.317841,41.113415 87.184731,35.039085 80.034019,35.304420 
	C79.745224,38.806591 79.203583,42.918785 79.191429,47.032547 
	C79.187828,48.252357 80.403435,49.915440 81.531693,50.612274 
	C84.341988,52.347980 87.431000,53.629612 90.394020,55.121540 
	C94.386520,57.131832 95.733673,60.343102 94.696938,64.647835 
	C93.686424,68.843628 92.955772,73.127457 91.619057,77.214600 
	C91.026245,79.027176 89.115295,81.879593 88.026695,81.781212 
	C84.856094,81.494705 81.824356,79.694496 81.982529,75.787254 
	C82.129532,72.156036 82.850395,68.548050 83.366600,64.558945 
	C81.079216,63.719364 78.808624,62.885952 76.978760,62.214306 
	C76.978760,71.156502 77.053040,80.036545 76.928322,88.913780 
	C76.895752,91.232567 78.506851,94.625023 74.017700,94.952209 
	C69.955544,95.248268 67.275543,93.908737 66.665062,89.471863 
	C65.467087,80.765022 64.134735,72.076675 62.844948,63.291935 
	C58.560928,63.549664 54.468414,63.718220 50.391289,64.066795 
	C47.369488,64.325157 42.613605,71.659523 43.579117,74.584793 
	C44.981930,78.834969 46.501945,83.048637 48.067616,87.242165 
	C49.245098,90.395943 48.179050,91.458008 44.924156,91.397095 
	C40.548611,91.315193 37.642170,89.567009 36.395298,85.257568 
	C35.865864,83.427750 35.160912,81.648705 34.535728,79.846588 
	C34.102047,79.937523 33.668369,80.028458 33.234688,80.119392 
	C33.832539,83.077393 34.693024,86.014114 34.934895,89.000938 
	C35.093258,90.956474 35.014645,94.112633 33.895050,94.766319 
	C30.675163,96.646271 25.324156,94.776405 24.634995,91.588287 
	C22.692184,82.600685 18.881245,74.033005 19.684586,64.380180 
	C20.060507,59.863140 18.047588,55.147293 17.117344,50.521549 
	C16.568937,50.566628 16.020531,50.611706 15.472123,50.656784 
	C15.472123,55.007927 15.313213,59.366467 15.515221,63.708210 
	C15.732755,68.383698 14.972372,69.116470 10.502444,67.539139 
	C7.542856,66.494766 4.644930,65.275642 1.359699,64.067383 
	C1.000000,60.638714 1.000000,57.277424 1.345989,53.307617 
	C3.506378,45.435608 6.161114,38.527214 13.416560,35.119095 
	C22.315430,30.939003 31.513351,27.776321 41.602684,31.073330 
	C43.457272,31.679377 45.508308,31.792038 47.481689,31.904984 
	C51.988499,32.162930 54.675331,30.970898 56.235111,25.720186 
	C60.945629,9.863110 72.864563,3.638870 87.071472,8.638360 
	C94.358376,11.202662 94.439987,11.412436 90.666397,17.916912 
	C94.108170,22.274445 97.554085,26.637222 101.000000,31.000000 
	C101.000000,31.750000 101.000000,32.500000 101.000000,33.625000 
M44.717632,35.979347 
	C39.952862,35.306335 35.203663,34.245903 30.419567,34.053555 
	C23.696474,33.783245 19.684216,37.781925 20.113218,44.543266 
	C20.359735,48.428535 21.975395,52.224960 22.954363,56.066566 
	C23.441799,57.979328 24.554710,60.025013 24.233624,61.802662 
	C22.525328,71.260406 26.351519,79.840324 28.124189,88.735344 
	C28.303699,89.636108 29.333241,90.367462 29.968311,91.177437 
	C30.334610,90.963501 30.700911,90.749573 31.067209,90.535637 
	C29.836735,85.081795 28.467430,79.653343 27.462433,74.158264 
	C27.170126,72.559990 27.520275,70.565796 28.269993,69.110687 
	C30.087267,65.583572 32.194664,62.185490 34.445919,58.914906 
	C35.120975,57.934193 37.073471,56.692333 37.734146,57.015343 
	C46.013851,61.063354 54.523037,60.233597 63.189732,58.974140 
	C64.282883,58.815281 66.551193,60.776581 66.834068,62.070587 
	C67.897072,66.933205 68.323517,71.932259 69.064552,76.868774 
	C69.748146,81.422661 70.529343,85.961891 71.267548,90.507576 
	C71.697723,90.460068 72.127892,90.412567 72.558067,90.365059 
	C72.640656,89.467438 72.835678,88.563843 72.788422,87.673111 
	C72.320770,78.858215 71.784538,70.046875 71.340340,61.230873 
	C71.250237,59.442673 71.223961,57.589413 71.582924,55.851810 
	C72.743187,50.235573 74.172859,44.675171 75.345345,39.061218 
	C75.986206,35.992718 76.027969,32.767815 76.964432,29.811258 
	C77.247871,28.916384 80.790321,28.078936 80.871109,28.234915 
	C84.417358,35.082005 91.046928,30.738571 96.187859,32.614082 
	C94.097626,28.811546 91.676971,25.542992 88.802246,22.740152 
	C85.894073,19.904703 84.257278,17.191498 87.399368,13.596236 
	C77.074821,9.264544 69.512070,10.909940 64.240616,18.852488 
	C62.248734,21.853680 60.307629,25.264975 59.705494,28.726286 
	C58.737278,34.291973 55.218536,35.552410 50.620907,35.918251 
	C48.964027,36.050091 47.291885,35.990093 44.717632,35.979347 
M8.362226,46.091476 
	C7.485628,49.257008 6.673134,52.442043 5.717433,55.583511 
	C4.277620,60.316277 5.830634,62.739162 11.264559,62.675404 
	C11.264559,58.658932 10.814690,54.635708 11.391178,50.765362 
	C11.966823,46.900681 13.570142,43.189068 14.722933,39.410351 
	C14.552651,39.232391 14.382370,39.054428 14.212088,38.876469 
	C12.403056,41.073391 10.594025,43.270313 8.362226,46.091476 
M79.057129,58.393936 
	C80.149208,58.788197 81.211891,59.345669 82.338432,59.548527 
	C87.272240,60.436966 88.945625,62.905132 87.265678,67.906578 
	C86.355591,70.616028 86.459862,73.666191 86.106552,76.562660 
	C93.161652,62.307850 92.135300,59.608551 78.321175,53.909771 
	C78.174797,53.849384 77.991714,53.877991 77.478401,53.837963 
	C76.789314,55.428192 74.099434,57.177574 79.057129,58.393936 
M40.976009,62.659576 
	C40.090187,62.631611 38.450554,62.468857 38.427956,62.595238 
	C37.723686,66.533905 37.177204,70.500793 36.427681,75.705231 
	C38.930843,71.538857 40.725433,68.815956 42.194008,65.927322 
	C42.575302,65.177338 41.937393,63.909195 40.976009,62.659576 
z"/>
<path fill="#FDFDFD" opacity="1.000000" stroke="none" 
	d="
M101.000000,30.531342 
	C97.554085,26.637222 94.108170,22.274445 90.666397,17.916912 
	C94.439987,11.412436 94.358376,11.202662 87.071472,8.638360 
	C72.864563,3.638870 60.945629,9.863110 56.235111,25.720186 
	C54.675331,30.970898 51.988499,32.162930 47.481689,31.904984 
	C45.508308,31.792038 43.457272,31.679377 41.602684,31.073330 
	C31.513351,27.776321 22.315430,30.939003 13.416560,35.119095 
	C6.161114,38.527214 3.506378,45.435608 1.345989,52.849548 
	C1.000000,35.708431 1.000000,18.416861 1.000000,1.125292 
	C1.124501,1.083528 1.248996,1.005183 1.373504,1.005163 
	C34.460255,0.999862 67.547005,1.000000 101.000000,1.000000 
	C101.000000,10.684484 101.000000,20.373585 101.000000,30.531342 
z"/>
<path fill="#F9F9F9" opacity="1.000000" stroke="none" 
	d="
M45.172173,35.998493 
	C47.291885,35.990093 48.964027,36.050091 50.620907,35.918251 
	C55.218536,35.552410 58.737278,34.291973 59.705494,28.726286 
	C60.307629,25.264975 62.248734,21.853680 64.240616,18.852488 
	C69.512070,10.909940 77.074821,9.264544 87.399368,13.596236 
	C84.257278,17.191498 85.894073,19.904703 88.802246,22.740152 
	C91.676971,25.542992 94.097626,28.811546 96.187859,32.614082 
	C91.046928,30.738571 84.417358,35.082005 80.871109,28.234915 
	C80.790321,28.078936 77.247871,28.916384 76.964432,29.811258 
	C76.027969,32.767815 75.986206,35.992718 75.345345,39.061218 
	C74.172859,44.675171 72.743187,50.235573 71.582924,55.851810 
	C71.223961,57.589413 71.250237,59.442673 71.340340,61.230873 
	C71.784538,70.046875 72.320770,78.858215 72.788422,87.673111 
	C72.835678,88.563843 72.640656,89.467438 72.558067,90.365059 
	C72.127892,90.412567 71.697723,90.460068 71.267548,90.507576 
	C70.529343,85.961891 69.748146,81.422661 69.064552,76.868774 
	C68.323517,71.932259 67.897072,66.933205 66.834068,62.070587 
	C66.551193,60.776581 64.282883,58.815281 63.189732,58.974140 
	C54.523037,60.233597 46.013851,61.063354 37.734146,57.015343 
	C37.073471,56.692333 35.120975,57.934193 34.445919,58.914906 
	C32.194664,62.185490 30.087267,65.583572 28.269993,69.110687 
	C27.520275,70.565796 27.170126,72.559990 27.462433,74.158264 
	C28.467430,79.653343 29.836735,85.081795 31.067209,90.535637 
	C30.700911,90.749573 30.334610,90.963501 29.968311,91.177437 
	C29.333241,90.367462 28.303699,89.636108 28.124189,88.735344 
	C26.351519,79.840324 22.525328,71.260406 24.233624,61.802662 
	C24.554710,60.025013 23.441799,57.979328 22.954363,56.066566 
	C21.975395,52.224960 20.359735,48.428535 20.113218,44.543266 
	C19.684216,37.781925 23.696474,33.783245 30.419567,34.053555 
	C35.203663,34.245903 39.952862,35.306335 45.172173,35.998493 
z"/>
<path fill="#F1F1F1" opacity="1.000000" stroke="none" 
	d="
M8.573610,45.779358 
	C10.594025,43.270313 12.403056,41.073391 14.212088,38.876469 
	C14.382370,39.054428 14.552651,39.232391 14.722933,39.410351 
	C13.570142,43.189068 11.966823,46.900681 11.391178,50.765362 
	C10.814690,54.635708 11.264559,58.658932 11.264559,62.675404 
	C5.830634,62.739162 4.277620,60.316277 5.717433,55.583511 
	C6.673134,52.442043 7.485628,49.257008 8.573610,45.779358 
z"/>
<path fill="#E0E0E0" opacity="1.000000" stroke="none" 
	d="
M78.682770,58.271908 
	C74.099434,57.177574 76.789314,55.428192 77.478401,53.837963 
	C77.991714,53.877991 78.174797,53.849384 78.321175,53.909771 
	C92.135300,59.608551 93.161652,62.307850 86.106552,76.562660 
	C86.459862,73.666191 86.355591,70.616028 87.265678,67.906578 
	C88.945625,62.905132 87.272240,60.436966 82.338432,59.548527 
	C81.211891,59.345669 80.149208,58.788197 78.682770,58.271908 
z"/>
<path fill="#DFDFDF" opacity="1.000000" stroke="none" 
	d="
M41.371815,62.769314 
	C41.937393,63.909195 42.575302,65.177338 42.194008,65.927322 
	C40.725433,68.815956 38.930843,71.538857 36.427681,75.705231 
	C37.177204,70.500793 37.723686,66.533905 38.427956,62.595238 
	C38.450554,62.468857 40.090187,62.631611 41.371815,62.769314 
z"/>
</svg>