<svg version="1.1" id="Layer_1" xmlns="http://www.w3.org/2000/svg" xmlns:xlink="http://www.w3.org/1999/xlink" x="0px" y="0px"
	 width="100%" viewBox="0 0 100 100" enable-background="new 0 0 100 100" xml:space="preserve">
<path fill="#FDFDFD" opacity="1.000000" stroke="none" 
	d="
M59.000000,101.000000 
	C39.333336,101.000000 20.166674,101.000000 1.000008,101.000000 
	C1.000005,67.666679 1.000005,34.333351 1.000003,1.000021 
	C34.333317,1.000014 67.666634,1.000014 100.999969,1.000007 
	C100.999977,34.333313 100.999977,67.666626 100.999985,100.999969 
	C87.166664,101.000000 73.333336,101.000000 59.000000,101.000000 
M47.500000,97.018509 
	C59.827572,97.017738 72.157104,97.134605 84.481262,96.929253 
	C87.376961,96.881004 90.478409,96.221413 93.087845,94.996559 
	C96.978310,93.170403 98.586502,88.469254 96.126534,85.362556 
	C92.887718,81.272247 93.002449,76.858452 92.989548,72.208641 
	C92.969894,65.128136 89.417664,60.791023 82.507797,59.039257 
	C80.742058,58.591618 77.964851,58.531197 77.431473,57.430641 
	C74.704590,51.804031 69.216766,51.551186 64.412384,50.218357 
	C55.321720,47.696423 50.008541,42.047260 47.871975,32.854378 
	C46.256699,25.904419 46.516243,19.495529 49.973156,13.081483 
	C53.601624,6.349124 51.394241,2.983275 43.858616,2.981264 
	C42.692493,2.980952 41.493301,3.158022 40.366226,2.948051 
	C36.432262,2.215163 34.248489,4.291247 33.434818,7.671798 
	C32.015373,13.569182 30.992887,19.562111 29.714325,25.964163 
	C27.886225,26.558392 25.304665,27.397533 22.446342,28.326639 
	C22.173313,26.597395 22.263226,25.490995 21.817774,24.677889 
	C20.731943,22.695866 22.299007,18.244654 17.845297,19.332558 
	C14.509770,20.147322 10.556136,20.317951 10.996914,26.315796 
	C11.488454,33.004395 10.137740,39.848724 9.381471,46.602039 
	C8.809264,51.711712 7.306911,56.792103 7.367338,61.871857 
	C7.408766,65.354385 9.422443,68.813446 10.554484,72.282997 
	C10.476912,76.159325 9.012637,80.396278 7.710946,84.682610 
	C6.064408,90.104469 11.035667,97.009529 16.513947,97.015038 
	C26.509289,97.025093 36.504646,97.018288 47.500000,97.018509 
z"/>
<path fill="#0B0B0B" opacity="1.000000" stroke="none" 
	d="
M47.000000,97.018509 
	C36.504646,97.018288 26.509289,97.025093 16.513947,97.015038 
	C11.035667,97.009529 6.064408,90.104469 7.710946,84.682610 
	C9.012637,80.396278 10.476912,76.159325 10.554484,72.282997 
	C9.422443,68.813446 7.408766,65.354385 7.367338,61.871857 
	C7.306911,56.792103 8.809264,51.711712 9.381471,46.602039 
	C10.137740,39.848724 11.488454,33.004395 10.996914,26.315796 
	C10.556136,20.317951 14.509770,20.147322 17.845297,19.332558 
	C22.299007,18.244654 20.731943,22.695866 21.817774,24.677889 
	C22.263226,25.490995 22.173313,26.597395 22.446342,28.326639 
	C25.304665,27.397533 27.886225,26.558392 29.714325,25.964163 
	C30.992887,19.562111 32.015373,13.569182 33.434818,7.671798 
	C34.248489,4.291247 36.432262,2.215163 40.366226,2.948051 
	C41.493301,3.158022 42.692493,2.980952 43.858616,2.981264 
	C51.394241,2.983275 53.601624,6.349124 49.973156,13.081483 
	C46.516243,19.495529 46.256699,25.904419 47.871975,32.854378 
	C50.008541,42.047260 55.321720,47.696423 64.412384,50.218357 
	C69.216766,51.551186 74.704590,51.804031 77.431473,57.430641 
	C77.964851,58.531197 80.742058,58.591618 82.507797,59.039257 
	C89.417664,60.791023 92.969894,65.128136 92.989548,72.208641 
	C93.002449,76.858452 92.887718,81.272247 96.126534,85.362556 
	C98.586502,88.469254 96.978310,93.170403 93.087845,94.996559 
	C90.478409,96.221413 87.376961,96.881004 84.481262,96.929253 
	C72.157104,97.134605 59.827572,97.017738 47.000000,97.018509 
M44.462635,39.804710 
	C43.486244,40.009480 42.496975,40.427429 41.536461,40.369400 
	C40.069565,40.280777 38.622532,39.863361 37.167068,39.585537 
	C38.216175,38.604225 39.150143,37.436127 40.348717,36.697273 
	C41.419319,36.037308 42.782051,35.851242 44.633274,35.258320 
	C40.538486,25.519211 43.381920,16.417021 47.883636,7.438614 
	C37.315510,6.778988 38.220398,5.265700 35.510731,15.194878 
	C35.164272,16.464420 35.062847,17.817926 34.983932,19.140652 
	C34.413319,28.704718 34.424973,28.707073 25.383114,31.710957 
	C24.594622,31.972908 23.757164,32.113728 23.002785,32.447273 
	C20.553173,33.530354 19.275244,32.800064 18.804670,30.136299 
	C18.428379,28.006222 17.728786,25.933258 17.172688,23.834944 
	C16.875147,23.893425 16.577608,23.951904 16.280067,24.010386 
	C14.483740,38.160915 12.687412,52.311443 10.863590,66.678558 
	C38.059677,68.433327 62.199196,80.952240 88.967613,78.529053 
	C88.967613,76.033066 89.616150,73.324043 88.803635,71.164818 
	C87.785439,68.458992 86.093918,65.227470 83.753792,63.968147 
	C79.512199,61.685577 73.725388,62.274681 71.180161,56.819916 
	C70.986633,56.405140 70.016373,56.352787 70.081818,56.376507 
	C68.857895,58.062145 67.829155,59.478962 66.800423,60.895779 
	C65.881844,58.812447 64.963264,56.729111 63.853859,54.212971 
	C63.030548,53.992359 61.632046,53.617619 60.112682,53.210491 
	C58.966740,54.805794 58.056927,56.424351 56.790932,57.685303 
	C56.164310,58.309437 54.881737,58.274998 53.895947,58.538525 
	C53.812252,57.513733 53.390656,56.360420 53.720596,55.492954 
	C54.276276,54.031967 55.308956,52.752403 56.212872,51.279415 
	C54.303486,50.001007 52.706432,48.931717 50.570286,47.501480 
	C49.851955,48.512321 49.435860,49.585392 48.652973,50.095104 
	C47.157372,51.068844 45.452866,51.721714 43.835068,52.507763 
	C44.508995,50.777077 44.710892,48.516281 45.946327,47.416180 
	C49.497242,44.254250 47.480408,42.023773 44.462635,39.804710 
M13.410504,80.031456 
	C13.181189,80.830055 12.978822,81.637566 12.718360,82.425873 
	C10.282346,89.798737 12.454894,92.986382 19.928379,92.986595 
	C40.896389,92.987190 61.864395,92.990356 82.832405,92.981186 
	C84.494980,92.980461 86.421509,93.407852 87.757736,92.723366 
	C89.725571,91.715370 92.766594,89.793259 92.681900,88.425774 
	C92.515221,85.734459 91.077057,82.927231 87.041695,82.891052 
	C80.564598,82.833000 74.094986,82.144997 67.616486,81.848351 
	C66.445045,81.794701 64.712288,81.936615 64.148933,82.679001 
	C61.130352,86.656906 56.973801,87.068672 52.530540,87.025124 
	C47.205845,86.972931 41.852146,87.340492 36.565739,86.887535 
	C33.469986,86.622269 29.427429,86.005974 27.687426,83.955269 
	C24.986567,80.772133 28.422653,77.606567 30.277634,74.732040 
	C30.410582,74.526024 30.295048,74.159653 30.295048,73.442696 
	C25.873751,72.723343 21.348017,71.987000 16.439981,71.188454 
	C15.516481,73.988976 14.643089,76.637535 13.410504,80.031456 
M52.396809,79.083702 
	C48.736008,78.062973 45.074757,77.043839 41.414501,76.021164 
	C35.244370,74.297226 33.258579,75.456520 31.163242,82.149597 
	C40.689873,82.149597 50.143101,82.149597 59.596325,82.149597 
	C59.631176,81.713112 59.666027,81.276634 59.700878,80.840149 
	C57.532146,80.308281 55.363411,79.776421 52.396809,79.083702 
z"/>
<path fill="#FAFAFA" opacity="1.000000" stroke="none" 
	d="
M44.862373,39.708221 
	C47.480408,42.023773 49.497242,44.254250 45.946327,47.416180 
	C44.710892,48.516281 44.508995,50.777077 43.835068,52.507767 
	C45.452866,51.721714 47.157372,51.068844 48.652973,50.095104 
	C49.435860,49.585392 49.851955,48.512321 50.570286,47.501480 
	C52.706432,48.931717 54.303486,50.001007 56.212872,51.279415 
	C55.308956,52.752403 54.276276,54.031967 53.720596,55.492954 
	C53.390656,56.360420 53.812252,57.513733 53.895943,58.538525 
	C54.881737,58.274998 56.164310,58.309437 56.790932,57.685303 
	C58.056927,56.424351 58.966740,54.805794 60.112682,53.210491 
	C61.632046,53.617619 63.030548,53.992359 63.853859,54.212971 
	C64.963264,56.729111 65.881844,58.812447 66.800423,60.895779 
	C67.829155,59.478962 68.857895,58.062145 70.081818,56.376507 
	C70.016373,56.352787 70.986633,56.405140 71.180161,56.819916 
	C73.725388,62.274681 79.512199,61.685577 83.753792,63.968147 
	C86.093918,65.227470 87.785439,68.458992 88.803635,71.164818 
	C89.616150,73.324043 88.967613,76.033066 88.967613,78.529053 
	C62.199196,80.952240 38.059677,68.433327 10.863590,66.678558 
	C12.687412,52.311443 14.483740,38.160915 16.280067,24.010386 
	C16.577608,23.951904 16.875147,23.893425 17.172688,23.834944 
	C17.728786,25.933258 18.428379,28.006222 18.804670,30.136299 
	C19.275244,32.800064 20.553173,33.530354 23.002785,32.447273 
	C23.757164,32.113728 24.594622,31.972908 25.383114,31.710957 
	C34.424973,28.707073 34.413319,28.704718 34.983932,19.140652 
	C35.062847,17.817926 35.164272,16.464420 35.510731,15.194878 
	C38.220398,5.265700 37.315510,6.778988 47.883636,7.438614 
	C43.381920,16.417021 40.538486,25.519211 44.633274,35.258320 
	C42.782051,35.851242 41.419319,36.037308 40.348717,36.697273 
	C39.150143,37.436127 38.216175,38.604225 37.167068,39.585541 
	C38.622532,39.863361 40.069565,40.280777 41.536461,40.369400 
	C42.496975,40.427429 43.486244,40.009480 44.862373,39.708221 
z"/>
<path fill="#FBFBFB" opacity="1.000000" stroke="none" 
	d="
M13.590101,79.658783 
	C14.643089,76.637535 15.516481,73.988976 16.439981,71.188454 
	C21.348017,71.987000 25.873751,72.723343 30.295048,73.442696 
	C30.295048,74.159653 30.410582,74.526024 30.277634,74.732040 
	C28.422653,77.606567 24.986567,80.772133 27.687426,83.955269 
	C29.427429,86.005974 33.469986,86.622269 36.565739,86.887535 
	C41.852146,87.340492 47.205845,86.972931 52.530540,87.025124 
	C56.973801,87.068672 61.130352,86.656906 64.148933,82.679001 
	C64.712288,81.936615 66.445045,81.794701 67.616486,81.848351 
	C74.094986,82.144997 80.564598,82.833000 87.041695,82.891052 
	C91.077057,82.927231 92.515221,85.734459 92.681900,88.425774 
	C92.766594,89.793259 89.725571,91.715370 87.757736,92.723366 
	C86.421509,93.407852 84.494980,92.980461 82.832405,92.981186 
	C61.864395,92.990356 40.896389,92.987190 19.928379,92.986595 
	C12.454894,92.986382 10.282346,89.798737 12.718360,82.425873 
	C12.978822,81.637566 13.181189,80.830055 13.590101,79.658783 
z"/>
<path fill="#F4F4F4" opacity="1.000000" stroke="none" 
	d="
M52.795746,79.164124 
	C55.363411,79.776421 57.532146,80.308281 59.700878,80.840149 
	C59.666027,81.276634 59.631176,81.713112 59.596325,82.149597 
	C50.143101,82.149597 40.689873,82.149597 31.163242,82.149597 
	C33.258579,75.456520 35.244370,74.297226 41.414501,76.021164 
	C45.074757,77.043839 48.736008,78.062973 52.795746,79.164124 
z"/>
</svg>