<svg version="1.1" id="Layer_1" xmlns="http://www.w3.org/2000/svg" xmlns:xlink="http://www.w3.org/1999/xlink" x="0px" y="0px"
	 width="100%" viewBox="0 0 256 256" enable-background="new 0 0 256 256" xml:space="preserve">
<path fill="#000000" opacity="1.000000" stroke="none" 
	d="
M100.440872,54.564293 
	C107.071922,60.121571 114.685638,63.194942 122.228088,66.214867 
	C129.663437,69.191910 132.543503,74.400406 132.392075,82.109543 
	C132.187302,92.534348 132.341171,102.966187 132.341171,113.976334 
	C142.309555,104.033485 143.679169,91.723221 136.790512,81.261711 
	C134.348907,77.553757 131.766495,73.796844 131.629593,69.003914 
	C131.516388,65.040047 132.429230,61.691284 136.232910,59.808765 
	C138.561981,58.656063 138.951370,56.749191 138.962006,54.426979 
	C138.975677,51.438904 139.150146,48.443886 139.428833,45.468109 
	C139.558258,44.086136 140.277023,42.934662 141.963730,42.896553 
	C143.560654,42.860466 144.344223,43.860180 144.905853,45.155273 
	C144.971176,45.305882 145.053741,45.494534 145.017365,45.637253 
	C141.440643,59.666462 154.862564,59.737968 161.324600,65.527603 
	C162.822998,66.870079 164.010025,66.175728 165.283005,65.187737 
	C169.123260,62.207203 173.210037,59.673676 178.025574,58.579727 
	C180.596451,57.995697 180.775253,56.070225 180.812271,53.964024 
	C180.861923,51.139458 180.862457,48.302822 181.149658,45.498573 
	C181.284103,44.185955 182.089508,42.964272 183.718719,42.865051 
	C185.555588,42.753185 186.481277,43.889671 186.860580,45.467064 
	C187.129593,46.585800 187.205124,47.771400 187.215317,48.928493 
	C187.258362,53.812138 186.531815,58.452293 192.174744,61.775417 
	C196.208817,64.151077 195.187164,69.262016 193.514175,73.211418 
	C192.031418,76.711815 190.216202,80.180084 187.951248,83.217773 
	C183.269699,89.496544 183.545853,95.745354 186.845993,102.414589 
	C197.420563,123.784805 210.125061,143.937683 222.194260,164.452499 
	C227.595398,173.633148 233.118591,182.744949 238.762115,191.778198 
	C240.428970,194.446228 240.086105,196.339294 237.842590,198.283173 
	C225.476486,208.997635 212.244873,216.767761 194.812439,216.168503 
	C172.511124,215.401871 150.159637,215.754471 127.836380,216.078964 
	C111.511337,216.316284 99.575569,207.653732 88.014816,197.861801 
	C85.998253,196.153778 86.309258,194.053925 87.417328,191.975113 
	C88.335869,190.251846 89.321388,188.564285 90.422028,186.602875 
	C84.256424,182.733994 78.997589,178.458450 75.495033,171.520432 
	C70.851166,178.415649 65.978432,184.151947 58.500397,186.984863 
	C55.031399,188.299026 51.554771,189.273636 47.856785,189.296722 
	C40.046585,189.345505 32.235661,189.374008 24.425623,189.321884 
	C18.469271,189.282120 17.793308,188.630310 17.781155,182.705200 
	C17.738783,162.043655 17.755568,141.382004 17.756563,120.720390 
	C17.757124,109.056580 17.787943,97.392746 17.773926,85.728966 
	C17.758505,72.897903 20.177753,69.396133 31.909960,64.661942 
	C36.372658,62.861141 40.769085,60.866661 44.861542,58.253094 
	C47.419769,56.619328 50.204853,54.962452 51.596306,52.405220 
	C55.134037,45.903526 60.594513,45.122417 67.170609,45.555092 
	C73.972839,46.002651 80.841408,45.919857 87.654022,45.559647 
	C92.024117,45.328579 94.987305,46.593098 96.981438,50.525772 
	C97.710182,51.962936 99.093567,53.068157 100.440872,54.564293 
M215.592728,164.844620 
	C208.706802,153.251053 201.585938,141.788818 195.009232,130.022415 
	C189.739365,120.594093 183.853668,111.466858 180.002930,101.276054 
	C177.187256,93.824402 177.964310,86.990395 182.699280,80.520515 
	C184.457993,78.117409 185.839722,75.432121 187.321121,72.834312 
	C188.498810,70.769104 189.580490,68.502373 188.105621,66.259377 
	C186.529648,63.862633 183.846069,63.830521 181.328751,64.112610 
	C175.771378,64.735359 171.300690,67.697136 167.473831,71.471062 
	C164.372543,74.529457 162.086334,75.049965 158.794479,71.539391 
	C154.751678,67.227997 149.761047,64.177628 143.467957,64.219414 
	C137.698944,64.257713 136.092529,66.601212 138.590637,71.690590 
	C140.126373,74.819359 141.767914,77.950256 143.785858,80.777634 
	C148.834061,87.850746 149.298950,95.266159 145.747360,102.953949 
	C143.447906,107.931351 140.632507,112.667892 138.224533,117.598442 
	C136.272354,121.595718 132.570160,124.953606 132.463913,129.597565 
	C132.196823,141.270813 132.375580,152.954239 132.375580,164.633591 
	C138.272552,148.765457 143.575150,132.834366 148.967590,116.933731 
	C149.688644,114.807579 150.450684,111.802483 153.562683,112.914116 
	C156.702713,114.035767 155.174622,116.744324 154.473343,118.859756 
	C146.316299,143.465652 138.148865,168.068161 129.914322,192.648178 
	C129.225830,194.703293 128.989670,197.894073 125.720146,197.203964 
	C121.789558,196.374344 124.051544,193.277740 124.045403,191.042282 
	C124.044174,190.595261 123.831947,190.148834 123.722122,189.721985 
	C115.051208,187.981461 106.371063,190.274673 97.797951,188.798187 
	C95.603561,188.420273 95.116074,190.886230 94.179932,192.388702 
	C93.307449,193.789001 93.677879,194.991501 94.861855,195.898239 
	C103.854927,202.785522 112.669319,209.839218 125.000504,209.740585 
	C147.990112,209.556732 171.009338,209.014725 193.963287,209.938110 
	C208.008560,210.503128 219.185318,205.609283 229.732361,197.393997 
	C232.594757,195.164413 232.796066,193.199402 230.962662,190.258606 
	C225.853653,182.063782 220.932434,173.751862 215.592728,164.844620 
M103.406303,83.742386 
	C98.210930,94.524132 93.699821,105.708931 87.646797,115.985519 
	C80.096710,128.803757 77.298279,142.086517 78.143311,156.847000 
	C79.002937,171.862396 89.153809,183.032333 104.152985,183.684113 
	C107.640114,183.835648 108.936218,182.603104 108.827103,179.126221 
	C108.649727,173.474213 108.803650,167.812241 108.792137,162.154510 
	C108.776352,154.398163 108.759224,154.580704 100.874939,154.283890 
	C98.148491,154.181244 93.186996,156.230667 93.335228,151.495453 
	C93.467720,147.262741 98.313133,148.838211 101.203499,148.753937 
	C108.734169,148.534332 108.707222,148.663025 108.784492,141.030380 
	C109.013298,118.430908 108.914001,95.777496 119.088722,74.720123 
	C119.833282,73.179199 119.778275,71.772987 117.996475,70.970284 
	C113.204620,68.811531 108.397339,66.687050 103.363853,64.445503 
	C105.189514,72.261482 105.189514,72.261482 101.729431,77.263634 
	C102.311508,79.209854 104.832123,80.523880 103.406303,83.742386 
M65.944313,122.496132 
	C60.991707,112.496201 55.849602,102.583809 51.171116,92.457237 
	C49.020683,87.802635 43.966785,83.417206 48.359768,77.421875 
	C48.499569,77.231079 48.425098,76.635864 48.243294,76.493118 
	C43.984104,73.148979 45.930725,68.895241 47.087597,64.420029 
	C42.039833,66.643951 37.636707,68.571838 33.244484,70.524269 
	C31.185766,71.439415 29.879225,72.600235 31.316530,75.115166 
	C37.500996,85.936440 38.893238,97.989372 40.439423,110.060555 
	C41.845222,121.035736 41.260780,132.022064 41.248367,142.999695 
	C41.243542,147.266403 42.306950,149.239838 46.844109,148.735001 
	C49.306561,148.460999 51.839081,148.675797 54.328945,148.838821 
	C55.981838,148.947021 57.233307,149.906677 57.257030,151.663315 
	C57.282131,153.521820 55.939724,154.255066 54.259785,154.298386 
	C51.262409,154.375687 48.262074,154.422958 45.264442,154.380020 
	C42.574974,154.341522 41.309425,155.462860 41.339336,158.257080 
	C41.417812,165.587799 41.392952,172.920059 41.352028,180.251358 
	C41.339447,182.504547 42.219078,183.606171 44.581165,183.648300 
	C58.563461,183.897736 69.577316,174.419296 70.892609,164.850342 
	C72.840393,150.679810 74.249573,136.343796 65.944313,122.496132 
M123.559189,79.488091 
	C121.101250,84.425171 119.204605,89.553246 118.187042,94.992950 
	C112.998039,122.732552 115.593109,150.760971 115.112923,178.673141 
	C115.024391,183.819565 118.949364,183.525620 122.559250,183.696259 
	C126.536972,183.884262 126.692810,181.456726 126.689835,178.525330 
	C126.657700,146.878174 126.672417,115.230965 126.666473,83.583778 
	C126.666077,81.457817 126.650566,79.319550 125.032455,77.272881 
	C124.589211,77.940674 124.250107,78.451561 123.559189,79.488091 
M24.045374,169.491608 
	C24.044003,172.321304 24.012138,175.151398 24.047770,177.980637 
	C24.116463,183.434967 25.271685,184.386475 30.622692,183.592239 
	C34.919922,182.954391 35.690819,179.997147 35.680801,176.317078 
	C35.634132,159.172577 36.067333,142.014374 35.512390,124.887543 
	C35.060928,110.954422 33.762985,97.006073 28.934967,83.705147 
	C28.102968,81.413040 27.289873,79.078003 24.044655,77.471596 
	C24.044655,107.812439 24.044655,138.153290 24.045374,169.491608 
M71.789597,89.087982 
	C70.734108,97.139236 70.571259,105.039642 75.682732,112.778000 
	C77.257812,107.387146 79.892448,102.946777 79.561432,97.834389 
	C79.101379,90.729080 78.316177,83.644753 77.663544,76.552055 
	C77.545883,75.273293 77.809776,73.803558 75.814835,73.622665 
	C73.753403,73.435753 73.468887,74.744652 73.017212,76.303795 
	C71.886208,80.207909 72.644379,84.252319 71.789597,89.087982 
M84.631424,105.638283 
	C84.655258,106.892509 83.185318,108.012421 84.254410,109.675423 
	C88.038269,101.777145 91.655487,94.129776 95.368942,86.529427 
	C96.621696,83.965424 97.317131,81.665459 94.883705,79.309456 
	C93.396820,77.869888 93.071098,75.726845 94.836624,74.469101 
	C100.553429,70.396507 96.678223,66.727142 94.647537,61.729507 
	C93.180573,77.349953 88.680061,91.066986 84.631424,105.638283 
M57.976173,92.594757 
	C60.643463,97.886398 63.310749,103.178040 65.978043,108.469681 
	C62.455227,93.816391 57.995743,79.472908 55.585945,63.750740 
	C51.632286,69.668114 51.570229,69.725456 55.308899,73.771790 
	C57.222317,75.842659 56.844177,77.776871 55.151760,79.459763 
	C52.924454,81.674530 53.281509,83.767860 54.689407,86.164467 
	C55.780754,88.022209 56.647648,90.011810 57.976173,92.594757 
M82.435860,56.537582 
	C84.244629,56.827644 85.096863,59.163879 87.191681,58.827522 
	C89.953453,54.206867 89.483749,51.579216 85.688728,51.450859 
	C78.697380,51.214401 71.692337,51.377468 64.693024,51.385250 
	C63.052494,51.387074 61.642403,51.854073 61.443840,53.745911 
	C61.290157,55.210167 61.018158,56.793560 62.375328,57.936497 
	C63.742435,59.087807 64.890274,58.079208 66.002769,57.434956 
	C71.064552,54.503658 76.275711,53.707405 82.435860,56.537582 
M72.703369,66.918076 
	C76.691048,68.623489 79.151039,66.546524 81.403931,63.653381 
	C76.801826,59.532818 72.957603,59.544407 69.084290,63.545010 
	C69.569771,65.061539 70.824112,65.849030 72.703369,66.918076 
M85.971596,77.429512 
	C86.465469,74.462212 88.198479,71.635201 87.195557,68.040306 
	C80.213623,71.809021 84.920479,77.301529 84.716591,81.896721 
	C85.073456,80.645393 85.430313,79.394058 85.971596,77.429512 
M66.584328,80.162521 
	C66.665817,78.191650 66.435265,76.144279 66.895691,74.266312 
	C67.773697,70.685028 65.833786,69.253250 62.885773,67.974907 
	C62.925262,72.558487 64.245689,76.604630 65.354958,80.686890 
	C65.648010,81.765343 66.100700,82.300484 66.584328,80.162521 
z"/>
<path fill="#000000" opacity="1.000000" stroke="none" 
	d="
M188.554749,150.575470 
	C193.162323,164.339218 197.679535,177.716095 202.066711,191.135498 
	C202.724121,193.146408 204.403488,195.955902 200.904526,196.954254 
	C197.730545,197.859863 197.124969,194.958572 196.403870,192.807846 
	C188.209290,168.366333 180.056488,143.910828 171.899826,119.456627 
	C171.584351,118.510834 171.308853,117.548622 171.074142,116.579674 
	C170.687271,114.982559 170.874130,113.533997 172.584824,112.821747 
	C174.585281,111.988861 175.837997,113.080559 176.491699,114.793427 
	C177.734192,118.048988 178.838440,121.358841 179.943314,124.665108 
	C182.786133,133.172043 185.597961,141.689301 188.554749,150.575470 
z"/>
</svg>