<svg version="1.1" id="Layer_1" xmlns="http://www.w3.org/2000/svg" xmlns:xlink="http://www.w3.org/1999/xlink" x="0px" y="0px"
	 width="100%" viewBox="0 0 101 101" enable-background="new 0 0 101 101" xml:space="preserve">
<path fill="none" opacity="1.000000" stroke="#000000" stroke-linecap="round" stroke-linejoin="round" stroke-width="6.000000"
	d="
M65.000000,9.500000 
	C54.873898,14.866391 46.394913,21.961115 40.452522,31.971817 
	C36.655060,38.369114 34.686817,45.275173 33.741642,52.989265 
	C23.362688,53.169930 14.358332,49.945316 6.000000,44.500000 
"/>
<path fill="none" opacity="1.000000" stroke="#000000" stroke-linecap="round" stroke-linejoin="round" stroke-width="6.000000"
	d="
M7.000000,63.000000 
	C13.329616,66.081978 19.569767,69.340164 26.494350,71.023239 
	C37.865162,73.787018 48.821247,72.533707 59.500000,68.000000 
"/>
<path fill="none" opacity="1.000000" stroke="#000000" stroke-linecap="round" stroke-linejoin="round" stroke-width="6.000000"
	d="
M60.500000,38.000000 
	C68.613785,44.135128 74.201958,52.175552 77.972458,61.511124 
	C80.163834,66.936852 81.386620,72.613091 81.510826,78.499771 
	C81.549644,80.339874 81.156639,82.228188 82.000000,84.000000 
"/>
<path fill="none" opacity="1.000000" stroke="#000000" stroke-linecap="round" stroke-linejoin="round" stroke-width="6.000000"
	d="
M37.500000,8.500000 
	C31.346523,8.004796 26.779701,11.840674 22.620577,15.151472 
	C10.616515,24.707096 3.735560,37.288837 4.591100,52.995037 
	C5.340050,66.744423 10.300275,78.395943 21.856503,87.188599 
	C28.235672,92.042229 34.780411,95.662865 42.509918,96.939980 
	C55.988705,99.167023 68.286705,95.947777 78.938011,87.422546 
	C82.778709,84.348473 86.244255,80.701660 89.008270,76.505447 
	C94.701813,67.861732 96.607430,59.133720 91.080826,49.453854 
	C86.452133,41.346703 81.484886,33.713612 73.511200,28.482924 
	C72.429871,27.773575 71.500000,26.833332 70.500000,26.000000 
"/>
<path fill="none" opacity="1.000000" stroke="#000000" stroke-linecap="round" stroke-linejoin="round" stroke-width="6.000000"
	d="
M94.500000,58.500000 
	C97.741318,52.923763 96.262482,47.089134 94.916496,41.520184 
	C91.031265,25.445171 81.659866,14.405211 65.570389,8.798025 
	C57.991543,6.156793 50.768829,4.996126 42.994019,6.468417 
	C41.776249,6.699022 40.558136,6.439090 39.478352,7.477490 
	C27.358395,19.132980 18.625595,32.436569 18.500000,50.000000 
"/>
<path fill="none" opacity="1.000000" stroke="#000000" stroke-linecap="round" stroke-linejoin="round" stroke-width="6.000000"
	d="
M64.500000,82.500000 
	C52.507545,89.290688 39.789474,90.456589 26.478622,87.599602 
	C25.643042,87.420250 24.500000,86.319466 23.500000,87.500000 
"/>
<path fill="none" opacity="1.000000" stroke="#000000" stroke-linecap="round" stroke-linejoin="round" stroke-width="6.000000"
	d="
M81.000000,18.000000 
	C72.210548,21.541878 65.864479,28.055988 60.580063,35.556408 
	C56.851395,40.848698 53.635418,46.536457 51.000000,52.500000 
"/>
<path fill="none" opacity="1.000000" stroke="#000000" stroke-linecap="round" stroke-linejoin="round" stroke-width="6.000000"
	d="
M67.000000,93.500000 
	C66.419800,79.327789 60.965469,67.012451 53.154167,55.396332 
	C51.399494,52.786972 49.618996,52.776222 47.509495,53.068523 
	C43.144669,53.673336 38.833332,53.832104 34.500000,53.000000 
"/>
</svg>