<svg version="1.1" id="Layer_1" xmlns="http://www.w3.org/2000/svg" xmlns:xlink="http://www.w3.org/1999/xlink" x="0px" y="0px"
	 width="100%" viewBox="0 0 100 100" enable-background="new 0 0 100 100" xml:space="preserve">
<path fill="none" opacity="1.000000" stroke="none" stroke-width="3.000000"
	d="
M59.000000,101.000000 
	C39.333336,101.000000 20.166674,101.000000 1.000008,101.000000 
	C1.000005,67.666679 1.000005,34.333351 1.000003,1.000021 
	C34.333317,1.000014 67.666634,1.000014 100.999969,1.000007 
	C100.999977,34.333313 100.999977,67.666626 100.999985,100.999969 
	C87.166664,101.000000 73.333336,101.000000 59.000000,101.000000 
M33.609955,80.353790 
	C37.748188,78.026230 41.841537,78.060547 46.112747,80.187332 
	C47.520870,80.888489 49.529270,81.360489 50.940811,80.915237 
	C58.434765,78.551369 65.752518,80.183853 73.277954,80.556091 
	C79.930008,80.885124 86.772758,77.527832 93.542137,80.977074 
	C93.675652,81.045105 93.916969,81.060883 94.029938,80.984940 
	C95.000526,80.332413 95.953102,79.653107 96.911057,78.981796 
	C96.110680,78.310715 95.209671,76.971931 94.525955,77.074974 
	C89.395096,77.848190 85.590508,70.760063 79.947372,74.647934 
	C79.636955,74.861794 78.540176,73.950859 77.818031,73.548065 
	C63.467876,65.543961 49.112103,57.549843 34.783154,49.507950 
	C33.660378,48.877815 32.181732,48.112759 31.794842,47.067520 
	C29.585684,41.099194 27.657358,35.026920 25.543846,28.722134 
	C34.188114,29.546204 39.484966,26.403402 40.817085,20.161247 
	C41.950798,14.848807 38.757957,9.450944 33.387241,7.600236 
	C27.533901,5.583220 22.625479,8.284117 18.937244,15.551457 
	C9.749959,13.851548 5.451746,18.681110 8.112498,27.759485 
	C10.071165,34.442375 12.443590,41.027157 13.988414,47.802319 
	C15.923252,56.287971 19.446110,63.373112 27.586981,67.428772 
	C27.807907,67.538834 27.854666,67.998505 28.081202,68.523605 
	C26.798674,70.970497 25.451759,73.540222 23.777317,76.734825 
	C19.963734,72.373116 16.415962,73.123230 12.660344,75.834747 
	C11.545463,76.639679 9.741620,76.417839 8.378758,76.973671 
	C7.187553,77.459496 6.172362,78.376900 5.079408,79.103638 
	C6.242980,79.728065 7.761602,81.173897 8.514579,80.848419 
	C15.208648,77.954903 21.734539,78.915634 28.375540,80.929504 
	C29.706142,81.333008 31.329493,80.771133 33.609955,80.353790 
M11.508524,88.232552 
	C10.709120,88.446800 9.840221,88.528511 9.125097,88.903488 
	C7.732522,89.633667 6.426105,90.528168 5.084000,91.354599 
	C6.663856,91.854584 8.604321,93.202766 9.762305,92.710449 
	C15.330182,90.343292 20.657211,90.139458 26.148491,92.792397 
	C27.110037,93.256927 28.566563,93.300652 29.586252,92.943764 
	C36.546989,90.507492 43.454937,92.482330 50.371109,92.469177 
	C58.129440,92.454437 65.814629,92.196182 73.653519,92.519241 
	C80.141190,92.786613 86.806702,89.813988 93.414589,92.949783 
	C93.689484,93.080238 94.158936,93.118156 94.388969,92.969292 
	C95.262024,92.404282 96.073837,91.744629 96.908546,91.120377 
	C96.150902,90.412048 95.511078,89.422462 94.614113,89.046738 
	C91.609604,87.788200 88.560997,86.574493 85.427170,85.716583 
	C84.267502,85.399109 82.616913,85.771088 81.545975,86.417786 
	C75.870071,89.845222 70.357834,89.760406 64.573517,86.584175 
	C63.242683,85.853401 60.834747,85.783646 59.540672,86.510414 
	C53.777767,89.746941 48.307453,89.768402 42.529675,86.555923 
	C41.213947,85.824371 38.796528,85.810966 37.494370,86.545372 
	C32.813438,89.185410 27.697832,90.393196 23.259319,87.668839 
	C19.006668,85.058563 15.853966,85.391418 11.508524,88.232552 
M59.918938,38.563492 
	C56.114502,44.827576 56.050533,50.251999 59.722553,55.215366 
	C63.131611,59.823296 68.935287,61.975735 74.234276,60.597401 
	C80.118759,59.066769 84.388008,54.152531 84.947449,48.265694 
	C85.483185,42.628433 82.239700,36.906200 77.090988,34.405121 
	C71.379173,31.630503 65.893433,32.797279 59.918938,38.563492 
z"/>
<path fill="currentColor" opacity="1.000000" stroke="currentColor" stroke-width="3.000000"
	d="
M33.213909,80.504082 
	C31.329493,80.771133 29.706142,81.333008 28.375540,80.929504 
	C21.734539,78.915634 15.208648,77.954903 8.514579,80.848419 
	C7.761602,81.173897 6.242980,79.728065 5.079409,79.103638 
	C6.172362,78.376900 7.187553,77.459496 8.378758,76.973671 
	C9.741620,76.417839 11.545463,76.639679 12.660344,75.834747 
	C16.415962,73.123230 19.963734,72.373116 23.777317,76.734825 
	C25.451759,73.540222 26.798674,70.970497 28.081202,68.523605 
	C27.854666,67.998505 27.807907,67.538834 27.586981,67.428772 
	C19.446110,63.373112 15.923252,56.287971 13.988414,47.802319 
	C12.443590,41.027157 10.071165,34.442375 8.112498,27.759485 
	C5.451746,18.681110 9.749959,13.851548 18.937244,15.551457 
	C22.625479,8.284117 27.533901,5.583220 33.387241,7.600236 
	C38.757957,9.450944 41.950798,14.848807 40.817085,20.161247 
	C39.484966,26.403402 34.188114,29.546204 25.543846,28.722134 
	C27.657358,35.026920 29.585684,41.099194 31.794842,47.067520 
	C32.181732,48.112759 33.660378,48.877815 34.783154,49.507950 
	C49.112103,57.549843 63.467876,65.543961 77.818031,73.548065 
	C78.540176,73.950859 79.636955,74.861794 79.947372,74.647934 
	C85.590508,70.760063 89.395096,77.848190 94.525955,77.074974 
	C95.209671,76.971931 96.110680,78.310715 96.911057,78.981796 
	C95.953102,79.653107 95.000526,80.332413 94.029938,80.984940 
	C93.916969,81.060883 93.675652,81.045105 93.542137,80.977074 
	C86.772758,77.527832 79.930008,80.885124 73.277954,80.556091 
	C65.752518,80.183853 58.434765,78.551369 50.940811,80.915237 
	C49.529270,81.360489 47.520870,80.888489 46.112747,80.187332 
	C41.841537,78.060547 37.748188,78.026230 33.213909,80.504082 
M37.696857,55.821190 
	C30.511217,53.246029 26.802683,48.005421 25.056953,40.669632 
	C23.641981,34.723732 21.522812,28.896261 19.142960,23.258135 
	C18.398041,21.493338 15.578440,19.204031 14.077868,19.445944 
	C10.816800,19.971672 10.867215,22.788511 11.794250,25.771255 
	C14.748934,35.277973 17.348221,44.895370 20.322750,54.395512 
	C20.927017,56.325439 22.275707,58.261944 23.798435,59.612083 
	C26.520266,62.025417 31.280008,63.494011 32.131100,66.288506 
	C33.008377,69.168983 30.239733,73.159866 28.777508,77.527451 
	C31.776415,76.517830 34.613506,76.063278 36.864567,74.665169 
	C39.151997,73.244461 40.537258,73.005455 42.969246,74.595551 
	C48.299110,78.080345 53.881222,77.706024 59.479004,74.548637 
	C60.784958,73.812027 62.944458,74.122223 64.571228,74.521400 
	C67.625046,75.270737 70.576698,76.436455 73.570831,77.429016 
	C73.705902,76.976952 73.840965,76.524887 73.976028,76.072815 
	C62.107117,69.421478 50.238201,62.770145 37.696857,55.821190 
M23.571419,20.631531 
	C25.578266,24.370640 28.560986,26.058939 32.649487,24.333471 
	C36.158329,22.852636 37.748047,19.888071 36.689297,16.202902 
	C35.661503,12.625469 32.979469,10.694677 29.114601,11.102887 
	C25.050646,11.532125 23.058748,14.638960 23.571419,20.631531 
z"/>
<path fill="currentColor" opacity="1.000000" stroke="currentColor" stroke-width="3.000000"
	d="
M11.890857,88.135452 
	C15.853966,85.391418 19.006668,85.058563 23.259319,87.668839 
	C27.697832,90.393196 32.813438,89.185410 37.494370,86.545372 
	C38.796528,85.810966 41.213947,85.824371 42.529675,86.555923 
	C48.307453,89.768402 53.777767,89.746941 59.540672,86.510414 
	C60.834747,85.783646 63.242683,85.853401 64.573517,86.584175 
	C70.357834,89.760406 75.870071,89.845222 81.545975,86.417786 
	C82.616913,85.771088 84.267502,85.399109 85.427170,85.716583 
	C88.560997,86.574493 91.609604,87.788200 94.614113,89.046738 
	C95.511078,89.422462 96.150902,90.412048 96.908546,91.120377 
	C96.073837,91.744629 95.262024,92.404282 94.388969,92.969292 
	C94.158936,93.118156 93.689484,93.080238 93.414589,92.949783 
	C86.806702,89.813988 80.141190,92.786613 73.653519,92.519241 
	C65.814629,92.196182 58.129440,92.454437 50.371109,92.469177 
	C43.454937,92.482330 36.546989,90.507492 29.586252,92.943764 
	C28.566563,93.300652 27.110037,93.256927 26.148491,92.792397 
	C20.657211,90.139458 15.330182,90.343292 9.762305,92.710449 
	C8.604321,93.202766 6.663856,91.854584 5.084000,91.354599 
	C6.426105,90.528168 7.732522,89.633667 9.125097,88.903488 
	C9.840221,88.528511 10.709120,88.446800 11.890857,88.135452 
z"/>
<path fill="currentColor" opacity="1.000000" stroke="currentColor" stroke-width="3.000000"
	d="
M60.143364,38.262756 
	C65.893433,32.797279 71.379173,31.630503 77.090988,34.405121 
	C82.239700,36.906200 85.483185,42.628433 84.947449,48.265694 
	C84.388008,54.152531 80.118759,59.066769 74.234276,60.597401 
	C68.935287,61.975735 63.131611,59.823296 59.722553,55.215366 
	C56.050533,50.251999 56.114502,44.827576 60.143364,38.262756 
M77.756493,39.701134 
	C73.636902,36.310497 69.261955,35.957317 64.987465,39.152821 
	C61.480568,41.774479 60.193382,45.497383 61.462082,49.772350 
	C62.656826,53.798134 65.527611,56.247242 69.653824,56.843719 
	C73.819870,57.445957 77.207779,55.773651 79.408371,52.207108 
	C81.988243,48.025829 81.375122,43.982773 77.756493,39.701134 
z"/>
<path fill="#F7F7F7" opacity="1.000000" stroke="none" 
	d="
M38.033073,55.970001 
	C50.238201,62.770145 62.107117,69.421478 73.976028,76.072815 
	C73.840965,76.524887 73.705902,76.976952 73.570831,77.429016 
	C70.576698,76.436455 67.625046,75.270737 64.571228,74.521400 
	C62.944458,74.122223 60.784958,73.812027 59.479004,74.548637 
	C53.881222,77.706024 48.299110,78.080345 42.969246,74.595551 
	C40.537258,73.005455 39.151997,73.244461 36.864567,74.665169 
	C34.613506,76.063278 31.776415,76.517830 28.777508,77.527451 
	C30.239733,73.159866 33.008377,69.168983 32.131100,66.288506 
	C31.280008,63.494011 26.520266,62.025417 23.798435,59.612083 
	C22.275707,58.261944 20.927017,56.325439 20.322750,54.395512 
	C17.348221,44.895370 14.748934,35.277973 11.794250,25.771255 
	C10.867215,22.788511 10.816800,19.971672 14.077868,19.445944 
	C15.578440,19.204031 18.398041,21.493338 19.142960,23.258135 
	C21.522812,28.896261 23.641981,34.723732 25.056953,40.669632 
	C26.802683,48.005421 30.511217,53.246029 38.033073,55.970001 
z"/>
<path fill="#F4F4F4" opacity="1.000000" stroke="none" 
	d="
M23.407314,20.277428 
	C23.058748,14.638960 25.050646,11.532125 29.114601,11.102887 
	C32.979469,10.694677 35.661503,12.625469 36.689297,16.202902 
	C37.748047,19.888071 36.158329,22.852636 32.649487,24.333471 
	C28.560986,26.058939 25.578266,24.370640 23.407314,20.277428 
z"/>
<path fill="#F7F7F7" opacity="1.000000" stroke="none" 
	d="
M78.028328,39.973301 
	C81.375122,43.982773 81.988243,48.025829 79.408371,52.207108 
	C77.207779,55.773651 73.819870,57.445957 69.653824,56.843719 
	C65.527611,56.247242 62.656826,53.798134 61.462082,49.772350 
	C60.193382,45.497383 61.480568,41.774479 64.987465,39.152821 
	C69.261955,35.957317 73.636902,36.310497 78.028328,39.973301 
z"/>
</svg>