<svg version="1.1" id="Layer_1" xmlns="http://www.w3.org/2000/svg" xmlns:xlink="http://www.w3.org/1999/xlink" x="0px" y="0px"
	 width="100%" viewBox="0 0 512 512" enable-background="new 0 0 512 512" xml:space="preserve">
<path fill="#FEFEFE" opacity="1.000000" stroke="none" 
	d="
M1.000000,273.000000 
	C1.000000,182.370544 1.000000,91.741104 1.000000,1.055828 
	C171.559372,1.055828 342.118774,1.055828 513.000000,1.055828 
	C513.000000,92.021759 513.000000,183.043900 512.621704,274.380371 
	C507.486481,242.174606 491.629211,216.585938 463.601074,199.317932 
	C435.447632,181.972717 405.290466,179.542801 373.844788,189.957779 
	C355.966827,151.212234 338.191193,112.688477 320.335175,73.990463 
	C321.487061,73.702744 321.962067,73.480888 322.437347,73.480347 
	C338.269318,73.462181 354.102783,73.336517 369.932617,73.521721 
	C377.351105,73.608513 382.409882,78.217682 383.040100,84.688629 
	C383.696869,91.431854 379.534180,97.263275 372.908234,98.634735 
	C371.137756,99.001190 369.263611,98.900635 367.435303,98.947510 
	C361.380066,99.102760 357.864044,102.192200 357.860504,107.400566 
	C357.857056,112.545296 361.463928,115.774673 367.424835,115.963882 
	C385.772705,116.546280 399.804932,104.112244 400.111877,86.999702 
	C400.430084,69.262115 387.335846,56.509041 368.575500,56.440762 
	C348.910309,56.369186 329.244568,56.393600 309.579193,56.435993 
	C299.463989,56.457794 295.971252,61.866592 300.167114,70.984703 
	C306.275604,84.259224 312.466949,97.495613 318.595886,110.760773 
	C319.330048,112.349800 319.895325,114.016853 320.661346,115.958084 
	C319.161774,115.958084 318.167297,115.958099 317.172852,115.958076 
	C274.842102,115.957184 232.511353,115.966011 190.180710,115.902618 
	C189.053726,115.900932 187.280350,115.429123 186.901749,114.647186 
	C183.113602,106.822968 179.555023,98.887596 175.628723,90.322540 
	C178.981903,90.322540 181.453568,90.429657 183.913376,90.304245 
	C195.424149,89.717392 204.311386,80.885544 204.901810,69.522614 
	C205.486694,58.266033 197.436340,48.359222 185.977325,46.907246 
	C170.616394,44.960850 155.200073,43.455517 139.818314,41.668144 
	C124.877365,39.931999 112.620689,49.742195 111.526489,64.433281 
	C110.479004,78.497101 121.614632,90.094429 136.467636,90.328506 
	C142.132538,90.417793 147.815475,90.110046 153.456848,90.485001 
	C155.127060,90.596008 157.433609,92.045662 158.167862,93.519798 
	C162.312195,101.840302 166.222046,110.289619 169.827011,118.856956 
	C170.578384,120.642639 170.336929,123.400070 169.493408,125.218010 
	C160.055389,145.558380 150.415329,165.805038 140.807358,186.066345 
	C140.121338,187.513031 139.260239,188.876663 138.530136,190.189697 
	C137.659302,190.028381 137.149673,189.996063 136.682190,189.838593 
	C78.091835,170.103958 18.179344,203.148407 3.625247,263.217438 
	C2.830460,266.497742 1.878693,269.740021 1.000000,273.000000 
z"/>
<path fill="#040404" opacity="1.000000" stroke="none" 
	d="
M1.000000,273.468658 
	C1.878693,269.740021 2.830460,266.497742 3.625247,263.217438 
	C18.179344,203.148407 78.091835,170.103958 136.682190,189.838593 
	C137.149673,189.996063 137.659302,190.028381 138.530136,190.189697 
	C139.260239,188.876663 140.121338,187.513031 140.807358,186.066345 
	C150.415329,165.805038 160.055389,145.558380 169.493408,125.218010 
	C170.336929,123.400070 170.578384,120.642639 169.827011,118.856956 
	C166.222046,110.289619 162.312195,101.840302 158.167862,93.519798 
	C157.433609,92.045662 155.127060,90.596008 153.456848,90.485001 
	C147.815475,90.110046 142.132538,90.417793 136.467636,90.328506 
	C121.614632,90.094429 110.479004,78.497101 111.526489,64.433281 
	C112.620689,49.742195 124.877365,39.931999 139.818314,41.668144 
	C155.200073,43.455517 170.616394,44.960850 185.977325,46.907246 
	C197.436340,48.359222 205.486694,58.266033 204.901810,69.522614 
	C204.311386,80.885544 195.424149,89.717392 183.913376,90.304245 
	C181.453568,90.429657 178.981903,90.322540 175.628723,90.322540 
	C179.555023,98.887596 183.113602,106.822968 186.901749,114.647186 
	C187.280350,115.429123 189.053726,115.900932 190.180710,115.902618 
	C232.511353,115.966011 274.842102,115.957184 317.172852,115.958076 
	C318.167297,115.958099 319.161774,115.958084 320.661346,115.958084 
	C319.895325,114.016853 319.330048,112.349800 318.595886,110.760773 
	C312.466949,97.495613 306.275604,84.259224 300.167114,70.984703 
	C295.971252,61.866592 299.463989,56.457794 309.579193,56.435993 
	C329.244568,56.393600 348.910309,56.369186 368.575500,56.440762 
	C387.335846,56.509041 400.430084,69.262115 400.111877,86.999702 
	C399.804932,104.112244 385.772705,116.546280 367.424835,115.963882 
	C361.463928,115.774673 357.857056,112.545296 357.860504,107.400566 
	C357.864044,102.192200 361.380066,99.102760 367.435303,98.947510 
	C369.263611,98.900635 371.137756,99.001190 372.908234,98.634735 
	C379.534180,97.263275 383.696869,91.431854 383.040100,84.688629 
	C382.409882,78.217682 377.351105,73.608513 369.932617,73.521721 
	C354.102783,73.336517 338.269318,73.462181 322.437347,73.480347 
	C321.962067,73.480888 321.487061,73.702744 320.335175,73.990463 
	C338.191193,112.688477 355.966827,151.212234 373.844788,189.957779 
	C405.290466,179.542801 435.447632,181.972717 463.601074,199.317932 
	C491.629211,216.585938 507.486481,242.174606 512.621704,274.847351 
	C513.000000,283.354218 513.000000,291.708466 512.627319,300.662659 
	C512.018677,302.400635 511.776672,303.537445 511.547394,304.676819 
	C503.412903,345.097137 480.013245,372.305542 441.104340,386.111664 
	C440.319031,386.390289 439.640625,386.970367 437.738159,388.118286 
	C462.891083,388.118286 486.643921,388.118286 510.313843,388.118286 
	C510.313843,393.859619 510.313843,399.240204 510.313843,404.806030 
	C508.065369,404.806030 506.238373,404.806061 504.411407,404.806061 
	C338.601654,404.805389 172.791885,404.804016 6.982135,404.812195 
	C4.988087,404.812286 2.994045,404.934692 1.000000,405.000000 
	C1.000000,399.645081 1.000000,394.290131 1.460353,388.373138 
	C29.576668,387.776581 57.232632,387.742096 85.329468,387.837708 
	C88.731697,387.967804 91.693054,387.967804 94.654404,387.967804 
	C94.657021,387.781036 94.659630,387.594269 94.662247,387.407471 
	C91.420784,386.985840 88.179314,386.564178 84.541794,386.071350 
	C41.582344,376.369751 14.695393,350.482697 3.536665,308.278595 
	C2.717090,305.178833 1.846739,302.092560 0.999999,299.000000 
	C1.000000,290.645782 1.000000,282.291534 1.000000,273.468658 
M324.064392,293.207123 
	C329.222656,342.067322 371.324615,376.525208 418.926819,370.846191 
	C458.357880,366.141998 489.815369,334.474518 493.859528,295.413147 
	C497.978088,255.633423 474.647797,218.662369 437.011536,205.592560 
	C418.538696,199.177551 400.020874,199.288727 381.198120,205.627777 
	C382.120422,207.736923 382.814850,209.404358 383.571442,211.043106 
	C393.939362,233.500626 404.322449,255.951141 414.686676,278.410370 
	C418.357635,286.365387 417.653473,291.118835 412.495361,293.601196 
	C407.169220,296.164459 402.881500,293.529327 399.136230,285.404755 
	C388.020203,261.290649 376.900879,237.178101 365.557587,212.576416 
	C336.684692,231.626816 322.574158,257.858795 324.064392,293.207123 
M325.317841,348.143280 
	C290.192108,299.647308 303.151855,228.665573 358.309601,196.894196 
	C350.096375,179.094009 341.867523,161.260010 333.298157,142.688019 
	C332.241119,144.688156 331.522247,145.931290 330.909607,147.224747 
	C313.849670,183.241745 296.872803,219.298523 279.634460,255.229874 
	C277.966400,258.706757 278.353821,260.470734 280.827789,263.256134 
	C290.310852,273.932739 292.580322,286.273895 286.879730,299.405243 
	C281.269348,312.328674 270.836243,319.365204 256.826416,319.747559 
	C242.580414,320.136292 232.037750,313.308319 225.396271,300.667908 
	C224.327484,298.633789 223.625244,296.407074 222.824234,294.442688 
	C216.620773,294.442688 210.675201,294.442688 204.958389,294.442688 
	C196.664520,346.728760 166.578400,377.546753 114.834427,387.668579 
	C203.351181,387.668579 291.581512,387.668579 379.811829,387.668579 
	C357.913208,379.996918 339.566223,367.518707 325.317841,348.143280 
M124.553055,203.816620 
	C65.849731,187.458038 9.266149,238.287903 18.789003,298.826019 
	C25.109604,339.006958 57.748425,368.223877 99.081497,370.700470 
	C137.470413,373.000702 173.906662,346.746429 184.615143,308.920746 
	C185.935486,304.256897 186.544250,299.391602 187.567444,294.189056 
	C184.896378,294.189056 183.248260,294.189117 181.600143,294.189056 
	C156.102783,294.188232 130.605377,294.211487 105.108055,294.173981 
	C95.791115,294.160278 92.275902,288.514008 96.260994,280.017029 
	C100.915756,270.092133 105.655815,260.207245 110.346909,250.299332 
	C117.289185,235.636765 124.220909,220.969193 131.379089,205.834473 
	C129.074905,205.121918 127.213837,204.546387 124.553055,203.816620 
M305.156281,161.659561 
	C309.610199,152.278305 314.064117,142.897034 318.668030,133.199860 
	C277.272339,133.199860 236.601776,133.199860 195.295334,133.199860 
	C199.472321,142.372574 203.418716,151.093567 207.410065,159.793945 
	C220.556503,188.450623 233.876389,217.029724 246.722458,245.820297 
	C248.886810,250.671066 251.174911,252.164398 256.446045,252.185211 
	C261.286774,252.204346 263.194794,250.679123 265.125458,246.529160 
	C278.214447,218.394943 291.614166,190.405319 305.156281,161.659561 
M227.995773,266.584930 
	C230.026215,264.182495 232.056656,261.780060 234.266312,259.165588 
	C216.476288,220.350342 198.638077,181.429947 180.511047,141.879379 
	C171.545898,160.805527 162.853592,179.155670 154.052963,197.734512 
	C168.443314,206.291656 180.027924,217.350937 188.848358,231.214630 
	C197.722961,245.163498 202.774811,260.470154 204.444107,277.001221 
	C210.784500,277.001221 216.749771,277.001221 222.878464,277.001221 
	C223.567062,275.341095 224.194458,273.633270 224.976059,271.999115 
	C225.762299,270.355286 226.701935,268.784760 227.995773,266.584930 
M185.219269,265.328461 
	C179.501587,242.856796 166.624512,225.735901 146.736099,213.155609 
	C136.566513,234.638016 126.663765,255.556763 116.604965,276.805145 
	C140.478210,276.805145 163.771362,276.805145 187.480423,276.805145 
	C186.762314,272.953033 186.125580,269.537384 185.219269,265.328461 
M238.983459,283.830994 
	C238.968597,284.829987 238.880035,285.834259 238.950729,286.827148 
	C239.447647,293.806274 243.038559,298.701813 249.367264,301.421875 
	C255.589844,304.096313 261.545959,303.070282 266.649445,298.745117 
	C271.883911,294.308929 273.952667,288.571564 272.219147,281.732727 
	C270.301392,274.167023 263.991791,269.058411 256.402863,268.896820 
	C247.621902,268.709839 241.775742,273.456970 238.983459,283.830994 
M185.514236,72.675888 
	C189.248444,67.938469 188.239075,64.220581 182.583450,63.513489 
	C167.237061,61.594818 151.856598,59.929543 136.467560,58.383648 
	C132.141083,57.949032 128.613678,61.435471 128.424057,65.553894 
	C128.241623,69.515594 131.048080,73.154549 135.327728,73.187500 
	C151.789902,73.314224 168.254745,73.095528 185.514236,72.675888 
z"/>
<path fill="#FEFEFE" opacity="1.000000" stroke="none" 
	d="
M1.000000,405.468689 
	C2.994045,404.934692 4.988087,404.812286 6.982135,404.812195 
	C172.791885,404.804016 338.601654,404.805389 504.411407,404.806061 
	C506.238373,404.806061 508.065369,404.806030 510.313843,404.806030 
	C510.313843,399.240204 510.313843,393.859619 510.313843,388.118286 
	C486.643921,388.118286 462.891083,388.118286 437.738159,388.118286 
	C439.640625,386.970367 440.319031,386.390289 441.104340,386.111664 
	C480.013245,372.305542 503.412903,345.097137 511.547394,304.676819 
	C511.776672,303.537445 512.018677,302.400635 512.627319,301.131317 
	C513.000000,371.629486 513.000000,442.259003 513.000000,512.940552 
	C342.333344,512.940552 171.666672,512.940552 1.000000,512.940552 
	C1.000000,477.233215 1.000000,441.585266 1.000000,405.468689 
M322.220306,459.370270 
	C319.469727,458.164520 316.725372,455.925323 313.967590,455.908600 
	C275.161163,455.673798 236.352829,455.716736 197.545044,455.761444 
	C191.447815,455.768463 187.940002,459.003723 187.948914,464.154449 
	C187.957733,469.251495 191.542450,472.703125 197.541946,472.715149 
	C236.349792,472.793060 275.157990,472.813141 313.965759,472.716248 
	C321.862518,472.696533 325.168732,467.585480 322.220306,459.370270 
M394.821594,472.762726 
	C426.449646,472.763885 458.077667,472.776642 489.705688,472.740723 
	C491.847260,472.738281 494.081604,472.691681 496.110352,472.104370 
	C500.325073,470.884338 502.373047,467.756500 501.996643,463.429199 
	C501.621338,459.114685 499.111969,456.453339 494.723511,455.887817 
	C493.081970,455.676239 491.400330,455.739655 489.736969,455.739075 
	C465.266846,455.730652 440.796692,455.727234 416.326569,455.735016 
	C408.003967,455.737671 399.678009,455.641479 391.360046,455.848724 
	C386.750336,455.963562 383.468048,459.385956 383.190125,463.700500 
	C382.933960,467.676910 385.743256,471.340973 389.962646,472.353119 
	C391.238312,472.659119 392.593231,472.634491 394.821594,472.762726 
M116.347809,455.739655 
	C84.071777,455.741272 51.795727,455.727264 19.519722,455.758301 
	C13.419853,455.764160 9.764066,458.818146 9.577256,463.825317 
	C9.381116,469.082520 13.117843,472.708649 19.325066,472.722046 
	C52.432789,472.793610 85.540756,472.762634 118.648598,472.728790 
	C119.954887,472.727478 121.324326,472.520386 122.555252,472.094147 
	C126.716789,470.653107 128.615875,467.590881 128.201294,463.251343 
	C127.803986,459.092377 125.345963,456.646576 121.277916,455.908630 
	C119.983284,455.673767 118.625389,455.787689 116.347809,455.739655 
z"/>
<path fill="#FDFDFD" opacity="1.000000" stroke="none" 
	d="
M0.999999,299.468658 
	C1.846739,302.092560 2.717090,305.178833 3.536665,308.278595 
	C14.695393,350.482697 41.582344,376.369751 84.541290,386.334167 
	C84.920753,387.014648 84.904671,387.361115 84.888596,387.707611 
	C57.232632,387.742096 29.576668,387.776581 1.460353,387.905518 
	C1.000000,358.645782 1.000000,329.291534 0.999999,299.468658 
z"/>
<path fill="#FDFDFD" opacity="1.000000" stroke="none" 
	d="
M324.044342,292.735962 
	C322.574158,257.858795 336.684692,231.626816 365.557587,212.576416 
	C376.900879,237.178101 388.020203,261.290649 399.136230,285.404755 
	C402.881500,293.529327 407.169220,296.164459 412.495361,293.601196 
	C417.653473,291.118835 418.357635,286.365387 414.686676,278.410370 
	C404.322449,255.951141 393.939362,233.500626 383.571442,211.043106 
	C382.814850,209.404358 382.120422,207.736923 381.198120,205.627777 
	C400.020874,199.288727 418.538696,199.177551 437.011536,205.592560 
	C474.647797,218.662369 497.978088,255.633423 493.859528,295.413147 
	C489.815369,334.474518 458.357880,366.141998 418.926819,370.846191 
	C371.324615,376.525208 329.222656,342.067322 324.044342,292.735962 
M459.702087,284.685730 
	C459.043976,289.791290 458.569275,294.929138 457.677612,299.993591 
	C456.733276,305.357208 458.969879,309.836060 463.584290,310.961578 
	C468.410858,312.138855 472.588257,309.586212 474.053162,304.210480 
	C479.527618,284.120636 476.447327,265.322815 465.094543,247.919312 
	C462.064850,243.274918 457.192566,242.228897 453.020538,244.900635 
	C448.834412,247.581375 447.822815,252.334869 450.924164,257.120026 
	C456.215118,265.283508 459.106323,274.146332 459.702087,284.685730 
M425.495392,220.002411 
	C423.049622,219.536133 420.621918,218.872375 418.154144,218.646103 
	C413.503296,218.219681 409.743835,221.028778 408.968933,225.230652 
	C408.112762,229.873169 410.538391,233.699646 415.211548,235.116348 
	C420.437225,236.700516 425.662506,238.286331 430.878204,239.902908 
	C435.545502,241.349472 440.079102,239.574326 441.852142,235.561523 
	C443.792725,231.169479 442.148865,226.484329 437.467133,224.300827 
	C433.876404,222.626175 430.030121,221.499466 425.495392,220.002411 
z"/>
<path fill="#FCFCFC" opacity="1.000000" stroke="none" 
	d="
M325.546661,348.421875 
	C339.566223,367.518707 357.913208,379.996918 379.811829,387.668579 
	C291.581512,387.668579 203.351181,387.668579 114.834427,387.668579 
	C166.578400,377.546753 196.664520,346.728760 204.958389,294.442688 
	C210.675201,294.442688 216.620773,294.442688 222.824234,294.442688 
	C223.625244,296.407074 224.327484,298.633789 225.396271,300.667908 
	C232.037750,313.308319 242.580414,320.136292 256.826416,319.747559 
	C270.836243,319.365204 281.269348,312.328674 286.879730,299.405243 
	C292.580322,286.273895 290.310852,273.932739 280.827789,263.256134 
	C278.353821,260.470734 277.966400,258.706757 279.634460,255.229874 
	C296.872803,219.298523 313.849670,183.241745 330.909607,147.224747 
	C331.522247,145.931290 332.241119,144.688156 333.298157,142.688019 
	C341.867523,161.260010 350.096375,179.094009 358.309601,196.894196 
	C303.151855,228.665573 290.192108,299.647308 325.546661,348.421875 
z"/>
<path fill="#FDFDFD" opacity="1.000000" stroke="none" 
	d="
M124.952904,203.893738 
	C127.213837,204.546387 129.074905,205.121918 131.379089,205.834473 
	C124.220909,220.969193 117.289185,235.636765 110.346909,250.299332 
	C105.655815,260.207245 100.915756,270.092133 96.260994,280.017029 
	C92.275902,288.514008 95.791115,294.160278 105.108055,294.173981 
	C130.605377,294.211487 156.102783,294.188232 181.600143,294.189056 
	C183.248260,294.189117 184.896378,294.189056 187.567444,294.189056 
	C186.544250,299.391602 185.935486,304.256897 184.615143,308.920746 
	C173.906662,346.746429 137.470413,373.000702 99.081497,370.700470 
	C57.748425,368.223877 25.109604,339.006958 18.789003,298.826019 
	C9.266149,238.287903 65.849731,187.458038 124.952904,203.893738 
M48.754368,326.725006 
	C50.944344,329.224762 52.971062,331.895050 55.362602,334.184204 
	C58.941582,337.609985 63.626537,337.589020 67.032852,334.462097 
	C70.449966,331.325256 70.775055,326.784882 67.718102,322.783569 
	C66.308128,320.938049 64.533920,319.371246 63.118404,317.529358 
	C52.973351,304.328552 49.664612,289.600403 53.573238,273.374969 
	C54.705643,268.674164 54.868774,264.353119 50.159348,261.503510 
	C44.814888,258.269623 38.949123,261.358002 37.209568,268.428040 
	C32.061386,289.351685 35.823383,308.610352 48.754368,326.725006 
M77.823265,340.373596 
	C76.564888,345.383362 78.502914,349.394440 83.156891,350.639252 
	C89.498695,352.335632 96.140602,353.221283 102.707199,353.665192 
	C107.744232,354.005737 111.272675,350.032867 111.314186,345.336548 
	C111.356506,340.550446 108.094131,337.386139 102.861908,336.810425 
	C98.262802,336.304382 93.624031,335.834503 89.127815,334.803375 
	C84.018646,333.631683 80.358490,334.906647 77.823265,340.373596 
z"/>
<path fill="#FEFEFE" opacity="1.000000" stroke="none" 
	d="
M305.034851,162.014252 
	C291.614166,190.405319 278.214447,218.394943 265.125458,246.529160 
	C263.194794,250.679123 261.286774,252.204346 256.446045,252.185211 
	C251.174911,252.164398 248.886810,250.671066 246.722458,245.820297 
	C233.876389,217.029724 220.556503,188.450623 207.410065,159.793945 
	C203.418716,151.093567 199.472321,142.372574 195.295334,133.199860 
	C236.601776,133.199860 277.272339,133.199860 318.668030,133.199860 
	C314.064117,142.897034 309.610199,152.278305 305.034851,162.014252 
z"/>
<path fill="#FCFCFC" opacity="1.000000" stroke="none" 
	d="
M227.785065,266.883514 
	C226.701935,268.784760 225.762299,270.355286 224.976059,271.999115 
	C224.194458,273.633270 223.567062,275.341095 222.878464,277.001221 
	C216.749771,277.001221 210.784500,277.001221 204.444107,277.001221 
	C202.774811,260.470154 197.722961,245.163498 188.848358,231.214630 
	C180.027924,217.350937 168.443314,206.291656 154.052963,197.734512 
	C162.853592,179.155670 171.545898,160.805527 180.511047,141.879379 
	C198.638077,181.429947 216.476288,220.350342 234.266312,259.165588 
	C232.056656,261.780060 230.026215,264.182495 227.785065,266.883514 
z"/>
<path fill="#FDFDFD" opacity="1.000000" stroke="none" 
	d="
M185.354050,265.725098 
	C186.125580,269.537384 186.762314,272.953033 187.480423,276.805145 
	C163.771362,276.805145 140.478210,276.805145 116.604965,276.805145 
	C126.663765,255.556763 136.566513,234.638016 146.736099,213.155609 
	C166.624512,225.735901 179.501587,242.856796 185.354050,265.725098 
z"/>
<path fill="#FBFBFB" opacity="1.000000" stroke="none" 
	d="
M239.016449,283.409454 
	C241.775742,273.456970 247.621902,268.709839 256.402863,268.896820 
	C263.991791,269.058411 270.301392,274.167023 272.219147,281.732727 
	C273.952667,288.571564 271.883911,294.308929 266.649445,298.745117 
	C261.545959,303.070282 255.589844,304.096313 249.367264,301.421875 
	C243.038559,298.701813 239.447647,293.806274 238.950729,286.827148 
	C238.880035,285.834259 238.968597,284.829987 239.016449,283.409454 
z"/>
<path fill="#FAFAFA" opacity="1.000000" stroke="none" 
	d="
M185.116409,72.840767 
	C168.254745,73.095528 151.789902,73.314224 135.327728,73.187500 
	C131.048080,73.154549 128.241623,69.515594 128.424057,65.553894 
	C128.613678,61.435471 132.141083,57.949032 136.467560,58.383648 
	C151.856598,59.929543 167.237061,61.594818 182.583450,63.513489 
	C188.239075,64.220581 189.248444,67.938469 185.116409,72.840767 
z"/>
<path fill="#B0B0B0" opacity="1.000000" stroke="none" 
	d="
M85.329468,387.837708 
	C84.904671,387.361115 84.920753,387.014648 84.937347,386.405334 
	C88.179314,386.564178 91.420784,386.985840 94.662247,387.407471 
	C94.659630,387.594269 94.657021,387.781036 94.654404,387.967804 
	C91.693054,387.967804 88.731697,387.967804 85.329468,387.837708 
z"/>
<path fill="#050505" opacity="1.000000" stroke="none" 
	d="
M322.449921,459.683502 
	C325.168732,467.585480 321.862518,472.696533 313.965759,472.716248 
	C275.157990,472.813141 236.349792,472.793060 197.541946,472.715149 
	C191.542450,472.703125 187.957733,469.251495 187.948914,464.154449 
	C187.940002,459.003723 191.447815,455.768463 197.545044,455.761444 
	C236.352829,455.716736 275.161163,455.673798 313.967590,455.908600 
	C316.725372,455.925323 319.469727,458.164520 322.449921,459.683502 
z"/>
<path fill="#050505" opacity="1.000000" stroke="none" 
	d="
M394.366730,472.762024 
	C392.593231,472.634491 391.238312,472.659119 389.962646,472.353119 
	C385.743256,471.340973 382.933960,467.676910 383.190125,463.700500 
	C383.468048,459.385956 386.750336,455.963562 391.360046,455.848724 
	C399.678009,455.641479 408.003967,455.737671 416.326569,455.735016 
	C440.796692,455.727234 465.266846,455.730652 489.736969,455.739075 
	C491.400330,455.739655 493.081970,455.676239 494.723511,455.887817 
	C499.111969,456.453339 501.621338,459.114685 501.996643,463.429199 
	C502.373047,467.756500 500.325073,470.884338 496.110352,472.104370 
	C494.081604,472.691681 491.847260,472.738281 489.705688,472.740723 
	C458.077667,472.776642 426.449646,472.763885 394.366730,472.762024 
z"/>
<path fill="#050505" opacity="1.000000" stroke="none" 
	d="
M116.822121,455.740845 
	C118.625389,455.787689 119.983284,455.673767 121.277916,455.908630 
	C125.345963,456.646576 127.803986,459.092377 128.201294,463.251343 
	C128.615875,467.590881 126.716789,470.653107 122.555252,472.094147 
	C121.324326,472.520386 119.954887,472.727478 118.648598,472.728790 
	C85.540756,472.762634 52.432789,472.793610 19.325066,472.722046 
	C13.117843,472.708649 9.381116,469.082520 9.577256,463.825317 
	C9.764066,458.818146 13.419853,455.764160 19.519722,455.758301 
	C51.795727,455.727264 84.071777,455.741272 116.822121,455.740845 
z"/>
<path fill="#050505" opacity="1.000000" stroke="none" 
	d="
M459.679596,284.251678 
	C459.106323,274.146332 456.215118,265.283508 450.924164,257.120026 
	C447.822815,252.334869 448.834412,247.581375 453.020538,244.900635 
	C457.192566,242.228897 462.064850,243.274918 465.094543,247.919312 
	C476.447327,265.322815 479.527618,284.120636 474.053162,304.210480 
	C472.588257,309.586212 468.410858,312.138855 463.584290,310.961578 
	C458.969879,309.836060 456.733276,305.357208 457.677612,299.993591 
	C458.569275,294.929138 459.043976,289.791290 459.679596,284.251678 
z"/>
<path fill="#050505" opacity="1.000000" stroke="none" 
	d="
M425.896454,220.065735 
	C430.030121,221.499466 433.876404,222.626175 437.467133,224.300827 
	C442.148865,226.484329 443.792725,231.169479 441.852142,235.561523 
	C440.079102,239.574326 435.545502,241.349472 430.878204,239.902908 
	C425.662506,238.286331 420.437225,236.700516 415.211548,235.116348 
	C410.538391,233.699646 408.112762,229.873169 408.968933,225.230652 
	C409.743835,221.028778 413.503296,218.219681 418.154144,218.646103 
	C420.621918,218.872375 423.049622,219.536133 425.896454,220.065735 
z"/>
<path fill="#050505" opacity="1.000000" stroke="none" 
	d="
M48.525887,326.449158 
	C35.823383,308.610352 32.061386,289.351685 37.209568,268.428040 
	C38.949123,261.358002 44.814888,258.269623 50.159348,261.503510 
	C54.868774,264.353119 54.705643,268.674164 53.573238,273.374969 
	C49.664612,289.600403 52.973351,304.328552 63.118404,317.529358 
	C64.533920,319.371246 66.308128,320.938049 67.718102,322.783569 
	C70.775055,326.784882 70.449966,331.325256 67.032852,334.462097 
	C63.626537,337.589020 58.941582,337.609985 55.362602,334.184204 
	C52.971062,331.895050 50.944344,329.224762 48.525887,326.449158 
z"/>
<path fill="#060606" opacity="1.000000" stroke="none" 
	d="
M77.917648,340.009827 
	C80.358490,334.906647 84.018646,333.631683 89.127815,334.803375 
	C93.624031,335.834503 98.262802,336.304382 102.861908,336.810425 
	C108.094131,337.386139 111.356506,340.550446 111.314186,345.336548 
	C111.272675,350.032867 107.744232,354.005737 102.707199,353.665192 
	C96.140602,353.221283 89.498695,352.335632 83.156891,350.639252 
	C78.502914,349.394440 76.564888,345.383362 77.917648,340.009827 
z"/>
</svg>