<svg version="1.1" id="Layer_1" xmlns="http://www.w3.org/2000/svg" xmlns:xlink="http://www.w3.org/1999/xlink" x="0px" y="0px"
	 width="100%" viewBox="0 0 100 100" enable-background="new 0 0 100 100" xml:space="preserve">
<path fill="#FDFDFD" opacity="1.000000" stroke="none" 
	d="
M61.000000,101.000000 
	C40.666672,101.000000 20.833340,101.000000 1.000008,101.000000 
	C1.000005,67.666679 1.000005,34.333351 1.000003,1.000021 
	C34.333317,1.000014 67.666634,1.000014 100.999969,1.000007 
	C100.999977,34.333313 100.999977,67.666626 100.999985,100.999969 
	C87.833336,101.000000 74.666664,101.000000 61.000000,101.000000 
M34.245754,9.737609 
	C31.866367,14.032839 29.347153,18.258461 27.161100,22.649931 
	C25.890863,25.201654 24.626154,27.959488 24.311178,30.732729 
	C23.902727,34.328949 23.811914,38.205902 24.754677,41.640797 
	C25.662642,44.948914 28.032661,47.864380 29.813974,50.921093 
	C30.979582,52.921257 31.851341,55.333801 33.539642,56.738335 
	C37.122429,59.718933 37.658287,63.201012 36.540066,67.542305 
	C34.124954,68.276596 31.428999,68.696335 29.147608,69.901108 
	C26.813311,71.133820 24.912998,73.173210 22.758644,74.773224 
	C22.265272,75.139641 21.502342,75.130463 20.875557,75.331764 
	C9.680290,78.927399 5.983824,84.175720 7.127048,95.548813 
	C7.253480,96.806587 9.357253,98.860909 10.555848,98.869400 
	C37.516891,99.060493 64.479691,99.041397 91.441658,98.933990 
	C92.614174,98.929321 94.735176,97.791275 94.801872,97.038338 
	C95.365959,90.670219 95.768173,83.840790 89.926590,79.650803 
	C84.372826,75.667236 78.090485,72.666885 71.996994,69.486130 
	C69.882027,68.382126 67.373215,68.032593 65.250557,67.399940 
	C64.525780,62.999729 65.044617,59.598064 68.551849,56.852821 
	C70.152458,55.599964 71.044426,53.380600 72.105598,51.513107 
	C74.017273,48.148865 75.942200,44.781307 77.624771,41.300655 
	C79.452690,37.519333 79.735954,33.680363 77.305084,29.916365 
	C76.448158,28.589478 75.434601,27.112312 75.281837,25.622808 
	C74.273811,15.794720 69.336288,8.779786 60.321682,4.955417 
	C51.024403,1.011127 42.446568,2.823951 34.245754,9.737609 
z"/>
<path fill="#0A0A0A" opacity="1.000000" stroke="none" 
	d="
M34.504822,9.490955 
	C42.446568,2.823951 51.024403,1.011127 60.321682,4.955417 
	C69.336288,8.779786 74.273811,15.794720 75.281837,25.622808 
	C75.434601,27.112312 76.448158,28.589478 77.305084,29.916365 
	C79.735954,33.680363 79.452690,37.519333 77.624771,41.300655 
	C75.942200,44.781307 74.017273,48.148865 72.105598,51.513107 
	C71.044426,53.380600 70.152458,55.599964 68.551849,56.852821 
	C65.044617,59.598064 64.525780,62.999729 65.250557,67.399940 
	C67.373215,68.032593 69.882027,68.382126 71.996994,69.486130 
	C78.090485,72.666885 84.372826,75.667236 89.926590,79.650803 
	C95.768173,83.840790 95.365959,90.670219 94.801872,97.038338 
	C94.735176,97.791275 92.614174,98.929321 91.441658,98.933990 
	C64.479691,99.041397 37.516891,99.060493 10.555848,98.869400 
	C9.357253,98.860909 7.253480,96.806587 7.127048,95.548813 
	C5.983824,84.175720 9.680290,78.927399 20.875557,75.331764 
	C21.502342,75.130463 22.265272,75.139641 22.758644,74.773224 
	C24.912998,73.173210 26.813311,71.133820 29.147608,69.901108 
	C31.428999,68.696335 34.124954,68.276596 36.540066,67.542305 
	C37.658287,63.201012 37.122429,59.718933 33.539642,56.738335 
	C31.851341,55.333801 30.979582,52.921257 29.813974,50.921093 
	C28.032661,47.864380 25.662642,44.948914 24.754677,41.640797 
	C23.811914,38.205902 23.902727,34.328949 24.311178,30.732729 
	C24.626154,27.959488 25.890863,25.201654 27.161100,22.649931 
	C29.347153,18.258461 31.866367,14.032839 34.504822,9.490955 
M27.013523,79.768494 
	C27.013523,84.720993 27.013523,89.673492 27.013523,94.762772 
	C43.172569,94.762772 58.905819,94.762772 74.986603,94.762772 
	C74.986603,90.918655 74.986473,87.289322 74.986626,83.659996 
	C74.987022,74.269646 74.988098,74.265587 65.957527,71.990501 
	C65.497246,71.874542 64.993896,71.929543 64.553551,71.907127 
	C56.526806,85.265381 43.656143,82.986801 37.222580,71.717697 
	C35.200058,72.242546 33.147583,72.923676 31.040321,73.287560 
	C27.791933,73.848503 26.477083,75.630669 27.013523,79.768494 
M62.941448,37.773300 
	C63.319416,44.853828 59.398067,48.831882 53.152954,51.048386 
	C53.152954,54.335983 53.152954,57.467495 53.152954,60.619572 
	C61.921856,59.330929 68.722710,53.661423 69.844139,45.755749 
	C70.798340,39.028954 71.099800,32.162136 71.092255,25.357927 
	C71.082001,16.109291 61.381424,6.877491 53.217533,7.610513 
	C53.217533,14.051093 53.217533,20.491673 53.217533,27.170525 
	C58.438721,28.519087 61.625885,31.824026 62.941448,37.773300 
M42.678787,30.157513 
	C44.767170,28.919313 46.855553,27.681112 48.636978,26.624907 
	C48.636978,20.008595 48.636978,13.653829 48.636978,7.243503 
	C36.385693,9.736184 30.251244,17.448532 30.801838,29.471346 
	C31.022169,34.282509 31.337423,39.098495 31.862288,43.884563 
	C32.855328,52.939724 39.499710,59.410503 48.850956,60.573402 
	C48.850956,57.433956 48.850956,54.309788 48.850956,51.248726 
	C38.490574,46.593761 36.177441,39.371941 42.678787,30.157513 
M60.010433,71.148590 
	C60.414429,68.523163 60.818428,65.897728 61.098389,64.078384 
	C54.005512,64.078384 47.617928,64.078384 41.197399,64.078384 
	C40.776951,70.768837 42.628319,74.557419 47.752197,76.330978 
	C52.898762,78.112411 56.757057,76.137352 60.010433,71.148590 
M22.255060,94.923950 
	C22.591494,89.756004 22.927927,84.588058 23.274837,79.259148 
	C13.426554,81.058525 10.393450,85.209045 11.398029,94.631020 
	C11.534264,94.727005 11.669551,94.905289 11.806874,94.906868 
	C14.970363,94.943314 18.134073,94.960526 22.255060,94.923950 
M43.795322,42.428810 
	C46.848400,47.009769 51.012173,48.276886 55.086815,45.865044 
	C58.820217,43.655186 60.087902,38.791718 57.913315,35.021118 
	C55.759811,31.287069 50.933407,29.828373 47.123661,31.939568 
	C43.199253,34.114300 42.371925,37.599640 43.795322,42.428810 
M79.013535,89.417969 
	C79.013535,91.190125 79.013535,92.962273 79.013535,94.987068 
	C81.342834,94.987068 83.148094,94.987076 84.953362,94.987076 
	C86.906654,94.987076 88.859955,94.987068 90.783234,94.987068 
	C91.280151,84.549683 87.642105,79.988037 79.013626,79.980034 
	C79.013626,82.801201 79.013626,85.625557 79.013535,89.417969 
z"/>
<path fill="#FBFBFB" opacity="1.000000" stroke="none" 
	d="
M27.013748,79.306717 
	C26.477083,75.630669 27.791933,73.848503 31.040321,73.287560 
	C33.147583,72.923676 35.200058,72.242546 37.222580,71.717697 
	C43.656143,82.986801 56.526806,85.265381 64.553551,71.907127 
	C64.993896,71.929543 65.497246,71.874542 65.957527,71.990501 
	C74.988098,74.265587 74.987022,74.269646 74.986626,83.659996 
	C74.986473,87.289322 74.986603,90.918655 74.986603,94.762772 
	C58.905819,94.762772 43.172569,94.762772 27.013523,94.762772 
	C27.013523,89.673492 27.013523,84.720993 27.013748,79.306717 
z"/>
<path fill="#FAFAFA" opacity="1.000000" stroke="none" 
	d="
M62.896038,37.372002 
	C61.625885,31.824026 58.438721,28.519087 53.217533,27.170525 
	C53.217533,20.491673 53.217533,14.051093 53.213844,7.609402 
	C61.381424,6.877491 71.082001,16.109291 71.092255,25.357927 
	C71.099800,32.162136 70.798340,39.028954 69.844139,45.755749 
	C68.722710,53.661423 61.921856,59.330929 53.152954,60.619572 
	C53.152954,57.467495 53.152954,54.335983 53.152954,51.048386 
	C59.398067,48.831882 63.319416,44.853828 62.896038,37.372002 
z"/>
<path fill="#FAFAFA" opacity="1.000000" stroke="none" 
	d="
M42.413498,30.426399 
	C36.177441,39.371941 38.490574,46.593761 48.850956,51.248726 
	C48.850956,54.309788 48.850956,57.433956 48.850956,60.573402 
	C39.499710,59.410503 32.855328,52.939724 31.862288,43.884563 
	C31.337423,39.098495 31.022169,34.282509 30.801838,29.471346 
	C30.251244,17.448532 36.385693,9.736184 48.636978,7.243503 
	C48.636978,13.653829 48.636978,20.008595 48.636978,26.624907 
	C46.855553,27.681112 44.767170,28.919313 42.413498,30.426399 
z"/>
<path fill="#F7F7F7" opacity="1.000000" stroke="none" 
	d="
M59.858543,71.510895 
	C56.757057,76.137352 52.898762,78.112411 47.752197,76.330978 
	C42.628319,74.557419 40.776951,70.768837 41.197399,64.078384 
	C47.617928,64.078384 54.005512,64.078384 61.098389,64.078384 
	C60.818428,65.897728 60.414429,68.523163 59.858543,71.510895 
z"/>
<path fill="#FCFCFC" opacity="1.000000" stroke="none" 
	d="
M21.776402,94.952629 
	C18.134073,94.960526 14.970363,94.943314 11.806874,94.906868 
	C11.669551,94.905289 11.534264,94.727005 11.398029,94.631020 
	C10.393450,85.209045 13.426554,81.058525 23.274837,79.259148 
	C22.927927,84.588058 22.591494,89.756004 21.776402,94.952629 
z"/>
<path fill="#F0F0F0" opacity="1.000000" stroke="none" 
	d="
M43.613510,42.078033 
	C42.371925,37.599640 43.199253,34.114300 47.123661,31.939568 
	C50.933407,29.828373 55.759811,31.287069 57.913315,35.021118 
	C60.087902,38.791718 58.820217,43.655186 55.086815,45.865044 
	C51.012173,48.276886 46.848400,47.009769 43.613510,42.078033 
M50.612064,35.025482 
	C47.614429,35.968220 45.992153,37.879036 47.682926,40.856369 
	C48.303116,41.948483 50.468166,42.932346 51.687641,42.700214 
	C52.923466,42.464962 54.933064,40.346142 54.715111,39.616337 
	C54.205292,37.909210 52.564323,36.539886 50.612064,35.025482 
z"/>
<path fill="#FCFCFC" opacity="1.000000" stroke="none" 
	d="
M79.013580,88.933945 
	C79.013626,85.625557 79.013626,82.801201 79.013626,79.980034 
	C87.642105,79.988037 91.280151,84.549683 90.783234,94.987068 
	C88.859955,94.987068 86.906654,94.987076 84.953362,94.987076 
	C83.148094,94.987076 81.342834,94.987068 79.013535,94.987068 
	C79.013535,92.962273 79.013535,91.190125 79.013580,88.933945 
z"/>
<path fill="#111111" opacity="1.000000" stroke="none" 
	d="
M50.996727,35.029633 
	C52.564323,36.539886 54.205292,37.909210 54.715111,39.616337 
	C54.933064,40.346142 52.923466,42.464962 51.687641,42.700214 
	C50.468166,42.932346 48.303116,41.948483 47.682926,40.856369 
	C45.992153,37.879036 47.614429,35.968220 50.996727,35.029633 
z"/>
</svg>