<svg version="1.1" id="Layer_1" xmlns="http://www.w3.org/2000/svg" xmlns:xlink="http://www.w3.org/1999/xlink" x="0px" y="0px"
	 width="100%" viewBox="0 0 100 100" enable-background="new 0 0 100 100" xml:space="preserve">
<path fill="#FDFDFD" opacity="1.000000" stroke="none" 
	d="
M63.000000,101.000000 
	C42.000004,101.000000 21.500008,101.000000 1.000008,101.000000 
	C1.000005,67.666679 1.000005,34.333351 1.000003,1.000022 
	C34.333317,1.000014 67.666634,1.000014 100.999969,1.000007 
	C100.999977,34.333313 100.999977,67.666626 100.999985,100.999969 
	C88.500000,101.000000 76.000000,101.000000 63.000000,101.000000 
M20.291336,91.475693 
	C29.608383,95.235916 36.293964,91.218285 36.988335,81.441788 
	C37.348122,76.376152 40.500408,73.240738 45.603985,73.045982 
	C48.595020,72.931847 51.593922,73.006866 54.589146,73.022804 
	C61.813282,73.061226 64.420273,75.471230 65.009796,82.628334 
	C65.479713,88.333321 69.268181,92.365715 74.701675,92.944244 
	C80.294235,93.539696 85.624008,90.552200 86.351006,85.153542 
	C86.874275,81.267700 85.423691,77.116074 84.853569,73.083000 
	C85.383751,70.601906 87.416077,68.171089 89.077705,65.508896 
	C89.986641,64.052628 90.828239,62.174477 90.738518,60.539349 
	C90.309959,52.729786 85.245567,47.407799 77.350571,47.160099 
	C70.662079,46.950260 65.586494,44.036095 61.088825,39.617050 
	C54.098549,32.748962 48.907494,24.651018 45.981773,15.315957 
	C44.749096,11.382866 42.879913,10.340807 39.116222,11.440971 
	C32.449741,13.389652 25.699667,15.059203 19.072029,17.126011 
	C18.149616,17.413662 17.376251,19.224350 17.129660,20.449869 
	C16.155882,25.289370 16.005795,30.368834 14.484371,35.009899 
	C10.042782,48.558872 8.415753,61.607597 18.595581,73.368065 
	C13.418886,80.525970 13.763823,85.608780 20.291336,91.475693 
z"/>
<path fill="#0C0C0C" opacity="1.000000" stroke="none" 
	d="
M19.961010,91.272438 
	C13.763823,85.608780 13.418886,80.525970 18.595581,73.368065 
	C8.415753,61.607597 10.042782,48.558872 14.484371,35.009899 
	C16.005795,30.368834 16.155882,25.289370 17.129660,20.449869 
	C17.376251,19.224350 18.149616,17.413662 19.072029,17.126011 
	C25.699667,15.059203 32.449741,13.389652 39.116222,11.440971 
	C42.879913,10.340807 44.749096,11.382866 45.981773,15.315957 
	C48.907494,24.651018 54.098549,32.748962 61.088825,39.617050 
	C65.586494,44.036095 70.662079,46.950260 77.350571,47.160099 
	C85.245567,47.407799 90.309959,52.729786 90.738518,60.539349 
	C90.828239,62.174477 89.986641,64.052628 89.077705,65.508896 
	C87.416077,68.171089 85.383751,70.601906 84.853569,73.083000 
	C85.423691,77.116074 86.874275,81.267700 86.351006,85.153542 
	C85.624008,90.552200 80.294235,93.539696 74.701675,92.944244 
	C69.268181,92.365715 65.479713,88.333321 65.009796,82.628334 
	C64.420273,75.471230 61.813282,73.061226 54.589146,73.022804 
	C51.593922,73.006866 48.595020,72.931847 45.603985,73.045982 
	C40.500408,73.240738 37.348122,76.376152 36.988335,81.441788 
	C36.293964,91.218285 29.608383,95.235916 19.961010,91.272438 
M46.884865,35.264282 
	C45.009277,35.430080 43.133686,35.595879 41.258099,35.761673 
	C42.600689,34.394073 43.885132,32.961727 45.308182,31.683716 
	C46.131615,30.944204 47.178333,30.453308 48.321880,29.724825 
	C47.386421,28.297911 46.603378,27.103487 45.821487,25.910820 
	C44.042099,26.757885 42.610504,27.725250 41.038521,28.093742 
	C39.863358,28.369215 38.507103,27.872133 37.231483,27.719061 
	C37.856422,26.728987 38.277119,25.467989 39.151508,24.808813 
	C40.674648,23.660566 42.477497,22.883354 44.223076,21.917419 
	C43.185097,19.394709 42.326462,17.307884 41.431931,15.133812 
	C34.461433,17.217793 27.832956,19.199518 22.012035,20.939810 
	C19.541496,31.115732 17.183876,40.826557 14.673181,51.167881 
	C27.429976,50.508678 38.151279,55.127480 48.933430,59.415382 
	C61.212105,64.298424 73.894783,62.942589 86.614799,62.788383 
	C85.933098,54.967388 83.737846,51.401897 78.111771,51.338184 
	C69.017418,51.235203 62.334942,46.966221 56.310223,40.702930 
	C53.631901,41.992435 51.167442,43.378166 48.545956,44.332603 
	C47.633671,44.664757 46.333145,43.930557 45.209930,43.683376 
	C45.702015,42.763474 45.964508,41.491570 46.730656,40.991840 
	C48.760864,39.667633 51.008823,38.677273 53.155960,37.561443 
	C52.001049,34.596642 50.650173,32.768913 46.884865,35.264282 
M61.969906,66.876328 
	C54.158913,64.759926 46.347919,62.643517 38.106312,60.410435 
	C38.466328,66.915886 34.177216,67.610565 28.773651,67.058510 
	C25.894773,66.764397 22.961128,67.006355 19.377731,67.006355 
	C22.954435,74.170815 31.507420,68.634880 34.354507,74.809921 
	C43.040440,66.522102 57.590736,66.586983 66.618408,73.652550 
	C70.709587,72.646408 74.014587,71.995804 77.206474,70.987206 
	C79.092400,70.391273 80.799339,69.228920 82.586769,68.321289 
	C82.336304,67.863617 82.085838,67.405945 81.835381,66.948273 
	C75.518860,66.948273 69.202339,66.948273 61.969906,66.876328 
M30.494095,56.970806 
	C25.486942,56.247990 20.479792,55.525173 15.096390,54.748039 
	C15.730086,58.023575 16.193058,60.416649 16.645889,62.757294 
	C22.465921,62.757294 27.886692,62.757294 33.255703,62.757294 
	C34.539669,60.031036 35.111526,57.786739 30.494095,56.970806 
M80.740997,87.322647 
	C84.529068,81.700630 82.865112,75.474358 77.182945,75.236984 
	C74.826004,75.138527 71.221916,76.617378 70.275581,78.455338 
	C69.184738,80.573982 69.509186,84.441345 70.824562,86.545715 
	C72.927208,89.909554 76.686195,89.709503 80.740997,87.322647 
M27.972784,75.158020 
	C23.608030,74.450867 20.269690,75.849129 19.207857,80.338974 
	C18.304739,84.157738 19.757614,87.364891 23.675728,88.626846 
	C27.145870,89.744507 30.258638,88.886475 32.139397,85.412895 
	C34.172806,81.657387 33.047661,78.451019 27.972784,75.158020 
z"/>
<path fill="#FAFAFA" opacity="1.000000" stroke="none" 
	d="
M47.242958,35.116364 
	C50.650173,32.768913 52.001049,34.596642 53.155960,37.561443 
	C51.008823,38.677273 48.760864,39.667633 46.730656,40.991840 
	C45.964508,41.491570 45.702015,42.763474 45.209930,43.683372 
	C46.333145,43.930557 47.633671,44.664757 48.545956,44.332603 
	C51.167442,43.378166 53.631901,41.992435 56.310223,40.702930 
	C62.334942,46.966221 69.017418,51.235203 78.111771,51.338184 
	C83.737846,51.401897 85.933098,54.967388 86.614799,62.788383 
	C73.894783,62.942589 61.212105,64.298424 48.933430,59.415382 
	C38.151279,55.127480 27.429976,50.508678 14.673181,51.167881 
	C17.183876,40.826557 19.541496,31.115732 22.012035,20.939810 
	C27.832956,19.199518 34.461433,17.217793 41.431931,15.133812 
	C42.326462,17.307884 43.185097,19.394709 44.223076,21.917419 
	C42.477497,22.883354 40.674648,23.660566 39.151508,24.808813 
	C38.277119,25.467989 37.856422,26.728987 37.231483,27.719059 
	C38.507103,27.872133 39.863358,28.369215 41.038521,28.093742 
	C42.610504,27.725250 44.042099,26.757885 45.821487,25.910820 
	C46.603378,27.103487 47.386421,28.297911 48.321880,29.724825 
	C47.178333,30.453308 46.131615,30.944204 45.308182,31.683716 
	C43.885132,32.961727 42.600689,34.394073 41.258099,35.761673 
	C43.133686,35.595879 45.009277,35.430080 47.242958,35.116364 
z"/>
<path fill="#F6F6F6" opacity="1.000000" stroke="none" 
	d="
M62.427860,66.912300 
	C69.202339,66.948273 75.518860,66.948273 81.835381,66.948273 
	C82.085838,67.405945 82.336304,67.863617 82.586769,68.321289 
	C80.799339,69.228920 79.092400,70.391273 77.206474,70.987206 
	C74.014587,71.995804 70.709587,72.646408 66.618408,73.652550 
	C57.590736,66.586983 43.040440,66.522102 34.354507,74.809921 
	C31.507420,68.634880 22.954435,74.170815 19.377731,67.006355 
	C22.961128,67.006355 25.894773,66.764397 28.773651,67.058510 
	C34.177216,67.610565 38.466328,66.915886 38.106312,60.410435 
	C46.347919,62.643517 54.158913,64.759926 62.427860,66.912300 
z"/>
<path fill="#F4F4F4" opacity="1.000000" stroke="none" 
	d="
M30.920763,57.040977 
	C35.111526,57.786739 34.539669,60.031036 33.255703,62.757294 
	C27.886692,62.757294 22.465921,62.757294 16.645889,62.757294 
	C16.193058,60.416649 15.730086,58.023575 15.096390,54.748039 
	C20.479792,55.525173 25.486942,56.247990 30.920763,57.040977 
z"/>
<path fill="#E4E4E4" opacity="1.000000" stroke="none" 
	d="
M80.436508,87.575623 
	C76.686195,89.709503 72.927208,89.909554 70.824562,86.545715 
	C69.509186,84.441345 69.184738,80.573982 70.275581,78.455338 
	C71.221916,76.617378 74.826004,75.138527 77.182945,75.236984 
	C82.865112,75.474358 84.529068,81.700630 80.436508,87.575623 
M72.776237,80.851402 
	C73.647362,82.346741 74.300888,84.081902 75.522827,85.190582 
	C75.887131,85.521118 78.435646,84.379753 78.907433,83.396507 
	C79.391060,82.388573 78.713715,79.643906 78.271400,79.581039 
	C76.596489,79.343018 74.810799,79.884575 72.776237,80.851402 
z"/>
<path fill="#E6E6E6" opacity="1.000000" stroke="none" 
	d="
M28.347006,75.298920 
	C33.047661,78.451019 34.172806,81.657387 32.139397,85.412895 
	C30.258638,88.886475 27.145870,89.744507 23.675728,88.626846 
	C19.757614,87.364891 18.304739,84.157738 19.207857,80.338974 
	C20.269690,75.849129 23.608030,74.450867 28.347006,75.298920 
M29.047262,80.355927 
	C27.356457,79.957985 25.614531,79.170204 24.003614,79.381454 
	C23.466867,79.451843 22.713081,82.252541 23.094234,83.484703 
	C23.375448,84.393784 26.025627,85.591858 26.423634,85.253517 
	C27.672340,84.191986 28.355057,82.464668 29.047262,80.355927 
z"/>
<path fill="#171717" opacity="1.000000" stroke="none" 
	d="
M72.921387,80.492950 
	C74.810799,79.884575 76.596489,79.343018 78.271400,79.581039 
	C78.713715,79.643906 79.391060,82.388573 78.907433,83.396507 
	C78.435646,84.379753 75.887131,85.521118 75.522827,85.190582 
	C74.300888,84.081902 73.647362,82.346741 72.921387,80.492950 
z"/>
<path fill="#1A1A1A" opacity="1.000000" stroke="none" 
	d="
M29.152126,80.675575 
	C28.355057,82.464668 27.672340,84.191986 26.423634,85.253517 
	C26.025627,85.591858 23.375448,84.393784 23.094234,83.484703 
	C22.713081,82.252541 23.466867,79.451843 24.003614,79.381454 
	C25.614531,79.170204 27.356457,79.957985 29.152126,80.675575 
z"/>
</svg>