<svg version="1.1" id="Layer_1" xmlns="http://www.w3.org/2000/svg" xmlns:xlink="http://www.w3.org/1999/xlink" x="0px" y="0px"
	 width="100%" viewBox="0 0 100 100" enable-background="new 0 0 100 100" xml:space="preserve">
<path fill="none" opacity="1.000000" stroke="none" stroke-width="3.000000"
	d="
M1.000000,68.000000 
	C1.000000,45.708488 1.000000,23.416977 1.000000,1.062732 
	C34.228996,1.062732 67.458138,1.062732 101.000000,1.062732 
	C101.000000,23.019907 101.000000,45.041294 100.685028,67.380814 
	C99.268082,66.312355 97.910881,65.058548 97.108376,63.516148 
	C93.662201,56.892632 90.569107,50.077652 86.919296,43.572613 
	C85.843246,41.654774 83.422211,39.336342 81.512939,39.238274 
	C72.546043,38.777710 63.533218,38.810081 54.560333,39.203461 
	C52.749260,39.282864 50.271534,41.359173 49.515709,43.121498 
	C48.854252,44.663780 49.719730,47.328506 50.713390,49.028076 
	C54.108570,54.835251 57.857635,60.435516 61.491886,66.146461 
	C54.708691,68.567848 51.891304,66.008102 49.799004,60.923035 
	C47.342850,54.953655 44.283077,49.198029 41.046387,43.603504 
	C39.937180,41.686279 37.566406,39.335728 35.666016,39.237690 
	C26.699249,38.775120 17.686293,38.809475 8.713224,39.201969 
	C6.906755,39.280983 4.440738,41.354336 3.680372,43.113861 
	C3.019333,44.643543 3.897235,47.279465 4.864969,48.991261 
	C8.108745,54.729095 11.697188,60.272076 15.417288,66.318085 
	C9.672491,66.988266 5.336246,67.494133 1.000000,68.000000 
M60.982323,24.618320 
	C61.407200,26.365015 61.525032,28.267462 62.316677,29.828110 
	C64.382454,33.900604 69.491562,35.923580 73.729164,34.645134 
	C78.319473,33.260284 81.427048,28.707401 80.964775,24.044291 
	C80.517250,19.529934 76.841957,15.697527 72.348358,15.059529 
	C67.032249,14.304753 63.020485,17.412357 60.982323,24.618320 
M34.775848,27.798056 
	C35.546818,19.014475 29.668905,13.134996 22.366076,15.384975 
	C17.937143,16.749517 14.717157,21.073872 15.120266,25.493732 
	C15.556599,30.277874 18.246830,33.436413 22.851534,34.735935 
	C27.413603,36.023422 31.549271,33.703789 34.775848,27.798056 
z"/>
<path fill="currentColor" opacity="1.000000" stroke="currentColor" stroke-width="3.000000"
	d="
M1.000000,68.333328 
	C5.336246,67.494133 9.672491,66.988266 15.417288,66.318085 
	C11.697188,60.272076 8.108745,54.729095 4.864969,48.991261 
	C3.897235,47.279465 3.019333,44.643543 3.680372,43.113861 
	C4.440738,41.354336 6.906755,39.280983 8.713224,39.201969 
	C17.686293,38.809475 26.699249,38.775120 35.666016,39.237690 
	C37.566406,39.335728 39.937180,41.686279 41.046387,43.603504 
	C44.283077,49.198029 47.342850,54.953655 49.799004,60.923035 
	C51.891304,66.008102 54.708691,68.567848 61.491886,66.146461 
	C57.857635,60.435516 54.108570,54.835251 50.713390,49.028076 
	C49.719730,47.328506 48.854252,44.663780 49.515709,43.121498 
	C50.271534,41.359173 52.749260,39.282864 54.560333,39.203461 
	C63.533218,38.810081 72.546043,38.777710 81.512939,39.238274 
	C83.422211,39.336342 85.843246,41.654774 86.919296,43.572613 
	C90.569107,50.077652 93.662201,56.892632 97.108376,63.516148 
	C97.910881,65.058548 99.268082,66.312355 100.685028,67.849472 
	C101.000000,68.444443 101.000000,68.888893 100.625427,69.866180 
	C91.308632,70.601219 82.365761,70.920113 73.424957,70.869812 
	C72.196045,70.862892 70.977440,69.022148 69.754066,68.030426 
	C69.941719,67.705940 70.129372,67.381462 70.317024,67.056976 
	C78.080070,67.056976 85.843109,67.056976 94.187134,67.056976 
	C92.551117,63.656292 91.169022,60.694500 89.709793,57.771210 
	C87.559273,53.463039 85.519257,49.083637 83.058823,44.957191 
	C82.419823,43.885509 80.408546,43.143787 79.002022,43.101551 
	C72.509598,42.906590 66.001808,42.849247 59.513523,43.101967 
	C57.365147,43.185642 55.258667,44.345039 53.133034,45.012608 
	C55.279835,45.671860 57.589626,47.208904 59.546539,46.845531 
	C70.837395,44.748951 77.870407,48.984909 80.816864,60.063229 
	C80.859184,60.222336 80.988052,60.363884 81.008621,60.522442 
	C81.166779,61.741547 81.308113,62.962833 81.454666,64.183441 
	C80.230568,64.260353 78.980865,64.532539 77.787384,64.375999 
	C74.725723,63.974422 71.689034,63.382427 67.906586,62.741974 
	C67.872490,62.577602 67.290268,60.364143 67.422462,60.320625 
	C69.901962,59.504299 72.466194,58.945324 74.997414,58.336163 
	C72.103920,50.307484 68.965446,49.007038 58.520138,51.886997 
	C64.724075,65.422356 70.905670,78.908958 76.994057,92.192207 
	C80.240211,91.122299 83.726814,88.791245 85.193062,89.704369 
	C90.237869,92.846123 95.506828,93.040565 101.000000,93.000000 
	C101.000000,93.750000 101.000000,94.500000 100.597084,95.689285 
	C95.715034,95.689621 91.238976,95.214638 86.755127,94.830811 
	C85.136452,94.692245 83.236969,94.219315 81.914467,94.846077 
	C75.325661,97.968582 69.403221,95.556793 62.810226,94.457260 
	C57.057541,93.497871 50.538147,98.934509 43.848145,95.423813 
	C43.116646,95.039925 42.380001,94.574318 41.591328,94.413513 
	C40.547333,94.200653 39.211102,93.817978 38.413425,94.257599 
	C32.802151,97.350121 27.014952,98.232750 21.280878,95.136024 
	C14.972588,91.729195 9.930387,99.474449 3.825190,96.704536 
	C2.955856,96.310120 1.945231,96.227127 1.000000,96.000000 
	C1.000000,95.250000 1.000000,94.500000 1.358512,93.329651 
	C4.616940,92.749771 7.876549,93.382675 10.341103,92.264000 
	C15.309871,90.008644 19.880001,88.703903 24.742260,92.119629 
	C24.860418,92.202637 25.287788,91.845482 25.758339,91.593102 
	C23.156246,85.712929 20.418886,79.874794 18.005959,73.905510 
	C17.022577,71.472740 15.620265,70.951469 13.177409,70.930779 
	C9.115936,70.896370 5.058903,70.337814 1.000000,70.000000 
	C1.000000,69.555557 1.000000,69.111107 1.000000,68.333328 
M27.817045,54.776787 
	C25.457094,50.501171 21.425688,49.683449 12.452283,51.817749 
	C18.619503,65.570221 24.757412,79.257332 31.238493,93.709686 
	C36.952274,88.713814 42.288704,89.440369 47.861332,92.494965 
	C49.291779,93.279060 51.931549,93.504967 53.179245,92.696442 
	C59.430828,88.645317 65.403870,90.288658 71.490692,92.791924 
	C71.698875,92.877548 72.066376,92.575790 72.559555,92.371971 
	C69.321732,85.268471 66.090141,78.178627 62.823380,71.011627 
	C51.501057,71.011627 40.340431,71.120544 29.186253,70.901535 
	C27.383699,70.866135 25.609772,69.372665 23.822613,68.553192 
	C24.038368,68.031494 24.254124,67.509789 24.469879,66.988091 
	C28.293783,66.988091 32.117687,66.988091 35.941589,66.988091 
	C39.869358,66.988091 43.797127,66.988091 48.374035,66.988091 
	C44.751877,59.737801 41.303513,53.155132 38.178242,46.422485 
	C36.926395,43.725681 35.275002,42.860432 32.396175,42.950542 
	C26.070992,43.148525 19.730576,42.873154 13.406654,43.090313 
	C11.332554,43.161533 7.470741,44.381680 7.509485,44.694153 
	C7.996290,48.620331 11.439337,47.198830 13.367715,46.851810 
	C24.460888,44.855576 31.818085,48.598080 34.792961,59.777973 
	C35.184723,61.250259 35.228401,62.815170 35.433296,64.337181 
	C34.037689,64.280479 32.633049,64.304718 31.248350,64.150230 
	C28.373859,63.829548 25.509945,63.414028 21.916407,62.942295 
	C21.871628,62.749832 21.209686,60.519501 21.360907,60.462936 
	C23.815577,59.544693 26.373343,58.902054 29.165421,58.125446 
	C28.840567,57.336704 28.473003,56.444263 27.817045,54.776787 
z"/>
<path fill="none" opacity="1.000000" stroke="none" stroke-width="3.000000"
	d="
M101.000000,92.531380 
	C95.506828,93.040565 90.237869,92.846123 85.193062,89.704369 
	C83.726814,88.791245 80.240211,91.122299 76.994057,92.192207 
	C70.905670,78.908958 64.724075,65.422356 58.520138,51.886997 
	C68.965446,49.007038 72.103920,50.307484 74.997414,58.336163 
	C72.466194,58.945324 69.901962,59.504299 67.422462,60.320625 
	C67.290268,60.364143 67.872490,62.577602 67.906586,62.741974 
	C71.689034,63.382427 74.725723,63.974422 77.787384,64.375999 
	C78.980865,64.532539 80.230568,64.260353 81.454666,64.183441 
	C81.308113,62.962833 81.166779,61.741547 81.008621,60.522442 
	C80.988052,60.363884 80.859184,60.222336 80.816864,60.063229 
	C77.870407,48.984909 70.837395,44.748951 59.546539,46.845531 
	C57.589626,47.208904 55.279835,45.671860 53.133034,45.012608 
	C55.258667,44.345039 57.365147,43.185642 59.513523,43.101967 
	C66.001808,42.849247 72.509598,42.906590 79.002022,43.101551 
	C80.408546,43.143787 82.419823,43.885509 83.058823,44.957191 
	C85.519257,49.083637 87.559273,53.463039 89.709793,57.771210 
	C91.169022,60.694500 92.551117,63.656292 94.187134,67.056976 
	C85.843109,67.056976 78.080070,67.056976 70.317024,67.056976 
	C70.129372,67.381462 69.941719,67.705940 69.754066,68.030426 
	C70.977440,69.022148 72.196045,70.862892 73.424957,70.869812 
	C82.365761,70.920113 91.308632,70.601219 100.625427,70.199509 
	C101.000000,77.354256 101.000000,84.708504 101.000000,92.531380 
z"/>
<path fill="none" opacity="1.000000" stroke="none" stroke-width="3.000000"
	d="
M1.000000,96.499962 
	C1.945231,96.227127 2.955856,96.310120 3.825190,96.704536 
	C9.930387,99.474449 14.972588,91.729195 21.280878,95.136024 
	C27.014952,98.232750 32.802151,97.350121 38.413425,94.257599 
	C39.211102,93.817978 40.547333,94.200653 41.591328,94.413513 
	C42.380001,94.574318 43.116646,95.039925 43.848145,95.423813 
	C50.538147,98.934509 57.057541,93.497871 62.810226,94.457260 
	C69.403221,95.556793 75.325661,97.968582 81.914467,94.846077 
	C83.236969,94.219315 85.136452,94.692245 86.755127,94.830811 
	C91.238976,95.214638 95.715034,95.689621 100.597084,96.064285 
	C101.000000,97.659058 101.000000,99.318115 101.000000,100.982880 
	C67.666664,100.988586 34.333336,100.988586 1.000000,100.985115 
	C1.000000,99.654404 1.000000,98.327164 1.000000,96.499962 
z"/>
<path fill="none" opacity="1.000000" stroke="none" stroke-width="3.000000"
	d="
M1.000000,70.468620 
	C5.058903,70.337814 9.115936,70.896370 13.177409,70.930779 
	C15.620265,70.951469 17.022577,71.472740 18.005959,73.905510 
	C20.418886,79.874794 23.156246,85.712929 25.758339,91.593102 
	C25.287788,91.845482 24.860418,92.202637 24.742260,92.119629 
	C19.880001,88.703903 15.309871,90.008644 10.341103,92.264000 
	C7.876549,93.382675 4.616940,92.749771 1.358512,92.954651 
	C1.000000,85.645744 1.000000,78.291496 1.000000,70.468620 
z"/>
<path fill="currentColor" opacity="1.000000" stroke="currentColor" stroke-width="3.000000"
	d="
M61.010143,24.219563 
	C63.020485,17.412357 67.032249,14.304753 72.348358,15.059529 
	C76.841957,15.697527 80.517250,19.529934 80.964775,24.044291 
	C81.427048,28.707401 78.319473,33.260284 73.729164,34.645134 
	C69.491562,35.923580 64.382454,33.900604 62.316677,29.828110 
	C61.525032,28.267462 61.407200,26.365015 61.010143,24.219563 
M75.487999,21.070862 
	C73.383736,20.486073 71.074936,19.052330 69.219284,19.499418 
	C65.733131,20.339344 64.178658,23.338280 65.392723,26.849527 
	C66.574539,30.267488 69.341927,31.704201 72.912209,30.620277 
	C76.450768,29.545990 77.497063,26.199022 75.487999,21.070862 
z"/>
<path fill="currentColor" opacity="1.000000" stroke="currentColor" stroke-width="3.000000"
	d="
M34.598412,28.156624 
	C31.549271,33.703789 27.413603,36.023422 22.851534,34.735935 
	C18.246830,33.436413 15.556599,30.277874 15.120266,25.493732 
	C14.717157,21.073872 17.937143,16.749517 22.366076,15.384975 
	C29.668905,13.134996 35.546818,19.014475 34.598412,28.156624 
M27.641489,30.351229 
	C30.751652,28.698139 32.093708,25.863626 30.508175,22.940130 
	C29.533812,21.143543 26.738878,19.253859 24.848749,19.339230 
	C22.970497,19.424067 20.399494,21.566387 19.549103,23.447088 
	C17.691195,27.555979 21.346180,30.910831 27.641489,30.351229 
z"/>
<path fill="none" opacity="1.000000" stroke="none" stroke-width="3.000000"
	d="
M27.961243,55.164307 
	C28.473003,56.444263 28.840567,57.336704 29.165421,58.125446 
	C26.373343,58.902054 23.815577,59.544693 21.360907,60.462936 
	C21.209686,60.519501 21.871628,62.749832 21.916407,62.942295 
	C25.509945,63.414028 28.373859,63.829548 31.248350,64.150230 
	C32.633049,64.304718 34.037689,64.280479 35.433296,64.337181 
	C35.228401,62.815170 35.184723,61.250259 34.792961,59.777973 
	C31.818085,48.598080 24.460888,44.855576 13.367715,46.851810 
	C11.439337,47.198830 7.996290,48.620331 7.509485,44.694153 
	C7.470741,44.381680 11.332554,43.161533 13.406654,43.090313 
	C19.730576,42.873154 26.070992,43.148525 32.396175,42.950542 
	C35.275002,42.860432 36.926395,43.725681 38.178242,46.422485 
	C41.303513,53.155132 44.751877,59.737801 48.374035,66.988091 
	C43.797127,66.988091 39.869358,66.988091 35.941589,66.988091 
	C32.117687,66.988091 28.293783,66.988091 24.469879,66.988091 
	C24.254124,67.509789 24.038368,68.031494 23.822613,68.553192 
	C25.609772,69.372665 27.383699,70.866135 29.186253,70.901535 
	C40.340431,71.120544 51.501057,71.011627 62.823380,71.011627 
	C66.090141,78.178627 69.321732,85.268471 72.559555,92.371971 
	C72.066376,92.575790 71.698875,92.877548 71.490692,92.791924 
	C65.403870,90.288658 59.430828,88.645317 53.179245,92.696442 
	C51.931549,93.504967 49.291779,93.279060 47.861332,92.494965 
	C42.288704,89.440369 36.952274,88.713814 31.238493,93.709686 
	C24.757412,79.257332 18.619503,65.570221 12.452283,51.817749 
	C21.425688,49.683449 25.457094,50.501171 27.961243,55.164307 
z"/>
<path fill="none" opacity="1.000000" stroke="none" stroke-width="3.000000"
	d="
M75.714600,21.386383 
	C77.497063,26.199022 76.450768,29.545990 72.912209,30.620277 
	C69.341927,31.704201 66.574539,30.267488 65.392723,26.849527 
	C64.178658,23.338280 65.733131,20.339344 69.219284,19.499418 
	C71.074936,19.052330 73.383736,20.486073 75.714600,21.386383 
z"/>
<path fill="none" opacity="1.000000" stroke="none" 
	d="
M27.296246,30.531216 
	C21.346180,30.910831 17.691195,27.555979 19.549103,23.447088 
	C20.399494,21.566387 22.970497,19.424067 24.848749,19.339230 
	C26.738878,19.253859 29.533812,21.143543 30.508175,22.940130 
	C32.093708,25.863626 30.751652,28.698139 27.296246,30.531216 
z"/>
</svg>