<svg version="1.1" id="Layer_1" xmlns="http://www.w3.org/2000/svg" xmlns:xlink="http://www.w3.org/1999/xlink" x="0px" y="0px"
	 width="100%" viewBox="0 0 96 96" enable-background="new 0 0 96 96" xml:space="preserve">
<path fill="currentColor" opacity="1.000000" stroke="currentColor" stroke-width="2.000000"
	d="
M8.731798,56.047588 
	C17.386770,28.228540 35.935940,12.077129 64.112007,7.082144 
	C70.172462,6.007760 76.401299,6.163280 82.439384,7.854755 
	C90.178444,10.022730 94.845551,16.676714 95.392639,25.472216 
	C97.692200,62.441528 67.527855,96.425446 26.611322,95.596535 
	C14.748755,95.356224 7.026419,87.600349 6.654048,75.721596 
	C6.449713,69.203217 6.751604,62.748070 8.731798,56.047588 
M43.212704,88.692406 
	C67.937988,81.870819 83.294815,65.892899 89.177017,41.024563 
	C90.913864,33.681637 91.898338,26.072636 87.699211,18.649120 
	C83.885269,21.153999 81.396538,24.546511 78.334518,27.302551 
	C76.973930,28.527180 75.426353,30.161371 73.615440,28.485664 
	C71.719421,26.731197 73.413757,25.189775 74.601990,23.809769 
	C77.382500,20.580488 81.065292,18.141739 83.246971,14.333714 
	C71.829041,7.083069 43.587284,14.704009 28.792913,30.195126 
	C13.644409,46.057045 7.299981,73.417992 14.514694,83.092934 
	C17.595095,81.369965 19.566002,78.376602 22.228098,76.196045 
	C24.001623,74.743324 25.771479,71.153084 28.235825,73.594894 
	C31.000298,76.334084 27.094574,78.041565 25.638769,79.950127 
	C23.583397,82.644722 20.277613,84.321686 18.855143,87.957100 
	C26.773409,91.871826 34.572670,90.559425 43.212704,88.692406 
z"/>
<path fill="currentColor" opacity="1.000000" stroke="currentColor" stroke-width="2.000000"
	d="
M54.604202,38.183014 
	C53.777374,37.334110 53.162113,36.768341 52.609829,36.146629 
	C51.390823,34.774391 49.723816,33.215069 51.606461,31.480669 
	C53.425579,29.804787 55.111008,31.376064 56.270329,32.758102 
	C58.995586,36.006897 61.617584,37.699749 65.071121,33.601437 
	C65.970688,32.533913 67.527824,32.435139 68.618126,33.659336 
	C69.527519,34.680416 69.389610,36.044136 68.464912,36.832119 
	C64.567596,40.153206 65.630524,42.846020 69.156326,45.598438 
	C70.567093,46.699760 72.221489,48.408943 70.612328,50.237492 
	C68.695625,52.415501 67.162888,50.260742 65.540031,49.185974 
	C63.596561,47.898876 62.643421,44.084217 59.094257,46.581676 
	C55.067341,49.415325 54.875221,51.152439 58.352978,54.773338 
	C59.044506,55.493336 59.768139,56.192635 60.378666,56.977909 
	C61.277550,58.134087 61.604939,59.417385 60.389263,60.546734 
	C59.373734,61.490147 58.200260,61.221161 57.196060,60.472656 
	C56.265694,59.779175 55.337997,59.033600 54.585434,58.159218 
	C52.369553,55.584671 50.477234,54.906300 47.668663,57.800659 
	C44.839573,60.716175 45.671646,62.597015 48.267521,64.722160 
	C49.034286,65.349884 49.691967,66.126259 50.329430,66.892899 
	C51.271885,68.026329 51.641026,69.304855 50.452553,70.451294 
	C49.265675,71.596199 47.984074,71.132057 46.858128,70.242401 
	C46.076878,69.625092 45.292923,68.972984 44.661770,68.210876 
	C42.489975,65.588470 40.344681,64.742416 37.738087,67.754356 
	C36.600395,69.068962 34.945835,69.957260 33.429859,68.301430 
	C32.112659,66.862709 33.021999,65.328743 34.185585,64.371681 
	C37.608696,61.556160 36.188072,59.327358 33.575691,57.100967 
	C33.070686,56.670574 32.623806,56.168240 32.175003,55.676384 
	C31.114824,54.514473 30.131184,53.139523 31.362677,51.716450 
	C32.848362,49.999634 34.373436,51.085743 35.682838,52.230560 
	C36.684658,53.106457 37.662800,54.020458 38.564350,54.997879 
	C40.992294,57.630157 42.621494,55.736061 44.346748,54.067051 
	C46.022118,52.446304 47.448605,50.848110 45.102062,48.665138 
	C44.249489,47.871994 43.437645,47.028637 42.666744,46.155624 
	C41.468040,44.798138 39.708515,43.280704 41.631618,41.515007 
	C43.482613,39.815517 44.957542,41.607254 46.314362,42.798054 
	C51.123547,47.018780 52.173973,46.984360 55.307327,43.137466 
	C56.873627,41.214485 56.385761,39.868446 54.604202,38.183014 
z"/>
</svg>