<svg version="1.1" id="Layer_1" xmlns="http://www.w3.org/2000/svg" xmlns:xlink="http://www.w3.org/1999/xlink" x="0px" y="0px"
	 width="100%" viewBox="0 0 512 512" enable-background="new 0 0 512 512" xml:space="preserve">
<path fill="currentColor" opacity="1.000000" stroke="currentColor" stroke-width="5.000000"
	d="
M405.000000,513.000000 
	C305.979095,513.000000 206.958206,513.000000 107.206436,512.763062 
	C105.720940,512.185791 104.994682,511.747711 104.207588,511.519257 
	C80.469864,504.629181 64.972588,489.238464 60.676716,464.988464 
	C56.482334,441.311493 54.525681,417.236084 51.652447,393.327698 
	C49.135830,372.386749 46.714073,351.434387 44.243843,330.487854 
	C41.715309,309.046936 39.184937,287.606232 36.643913,266.166779 
	C34.455048,247.698578 32.253174,229.231903 30.051340,210.765228 
	C27.927917,192.956192 25.783899,175.149582 23.673588,157.339005 
	C21.759207,141.182007 19.991472,125.006676 17.941673,108.867035 
	C16.612843,98.404121 15.873888,88.088440 19.335999,77.812660 
	C26.854836,55.496231 46.445156,41.992630 71.991547,41.859062 
	C83.815155,41.797241 95.639374,41.826736 107.463226,41.853359 
	C110.075523,41.859238 112.203819,41.428230 113.849258,38.926231 
	C117.138885,33.924156 120.627769,29.033621 124.317116,24.318247 
	C130.726547,16.126326 135.561813,6.511188 145.000000,1.000000 
	C219.020889,1.000000 293.041779,1.000000 367.806763,1.196155 
	C372.150177,3.182045 375.580170,5.176600 378.029205,8.518162 
	C385.214020,18.321424 392.565552,28.006836 399.542938,37.955021 
	C401.508667,40.757748 403.545197,41.943993 406.890411,41.908810 
	C418.714722,41.784439 430.542358,41.764870 442.366547,41.898682 
	C462.354614,42.124878 478.762390,49.500881 489.533508,66.907295 
	C496.620972,78.360840 498.369995,90.894287 496.506897,104.329285 
	C493.473022,126.206688 491.194885,148.188965 488.604004,170.127716 
	C486.519501,187.778687 484.419373,205.427887 482.372375,223.083221 
	C480.554596,238.761902 478.853577,254.454208 477.005737,270.129272 
	C474.166931,294.210846 471.226410,318.280396 468.367401,342.359589 
	C466.193604,360.667694 464.087891,378.983917 461.936371,397.294678 
	C459.746307,415.933502 457.287720,434.545013 455.409607,453.215027 
	C453.667725,470.530731 448.287689,485.933929 435.023071,497.943268 
	C426.377380,505.770844 416.061371,510.083740 405.000000,513.000000 
M41.284500,69.791267 
	C34.810680,77.542877 31.350824,86.427322 32.362152,96.544266 
	C34.262169,115.551216 36.446350,134.530899 38.646423,153.506393 
	C40.788647,171.982956 43.143051,190.434845 45.322399,208.907211 
	C47.482559,227.216904 49.489067,245.544754 51.656830,263.853546 
	C54.156662,284.966949 56.813625,306.061798 59.301941,327.176544 
	C61.790752,348.295563 64.113914,369.434052 66.586281,390.555054 
	C69.135361,412.331451 71.815613,434.092468 74.362549,455.869110 
	C75.790352,468.077057 80.473457,478.591278 89.830650,486.817749 
	C99.195702,495.051208 110.152245,498.069824 122.520027,498.050842 
	C209.830063,497.916870 297.140442,498.004242 384.450714,498.010498 
	C388.781860,498.010803 393.121704,498.073181 397.442627,497.835663 
	C417.999268,496.705627 435.408752,481.707672 438.571472,461.332977 
	C441.474640,442.630280 443.367065,423.769012 445.617981,404.967194 
	C447.810089,386.656738 449.862488,368.329590 452.030151,350.016144 
	C454.529694,328.899017 457.121643,307.792877 459.611084,286.674591 
	C461.770233,268.358093 463.808777,250.027374 465.962372,231.710220 
	C468.153900,213.070587 470.426300,194.440460 472.653107,175.804962 
	C474.525665,160.134003 476.592834,144.482437 478.180206,128.782486 
	C479.399567,116.722282 481.970367,104.785316 481.704895,92.584579 
	C481.354309,76.472878 469.815887,62.426105 454.161102,58.707893 
	C449.838867,57.681313 447.892029,59.175564 447.442749,63.419117 
	C444.859650,87.817429 436.427216,110.346138 424.732483,131.650162 
	C398.862793,178.776352 362.752411,216.848984 319.719788,248.576920 
	C303.608826,260.455536 286.826111,271.290253 267.556122,277.601105 
	C259.702911,280.172974 251.970840,280.269440 244.056900,277.768036 
	C231.874557,273.917542 220.738327,267.949097 210.026627,261.184814 
	C174.764954,238.917496 144.232697,211.236069 118.142609,178.816284 
	C90.545380,144.523697 68.856865,107.250061 63.429771,62.434528 
	C63.043091,59.241432 61.388248,58.239590 58.208107,59.247059 
	C51.881603,61.251289 46.330711,64.430046 41.284500,69.791267 
M181.750687,134.736832 
	C179.979065,132.746445 178.217346,130.747162 176.434311,128.767044 
	C155.598221,105.627510 134.741913,82.506081 113.958069,59.319710 
	C112.547348,57.745914 110.995415,57.371548 109.107605,57.373913 
	C100.446976,57.384758 91.785751,57.438152 83.125923,57.354458 
	C79.248772,57.316986 78.514656,58.892120 78.988472,62.646992 
	C81.800316,84.930527 89.346085,105.596611 100.056046,125.160622 
	C124.174278,169.217667 158.428894,204.235153 198.034485,234.427917 
	C198.929031,235.109879 199.815765,236.019577 201.923706,235.243134 
	C203.966415,228.437805 206.175217,221.159851 208.335037,213.867371 
	C213.245880,197.286163 218.189911,180.714371 222.997879,164.103271 
	C224.660843,158.357925 220.016861,153.574371 214.269089,154.832520 
	C206.858948,156.454529 200.369812,154.719772 195.093048,149.220535 
	C190.712677,144.655487 186.514465,139.915665 181.750687,134.736832 
M409.526459,128.105042 
	C420.968781,107.570343 429.174011,85.935448 432.270660,62.484039 
	C432.795013,58.513222 431.414551,57.322441 427.806946,57.352695 
	C420.144562,57.416958 412.481293,57.385712 404.818451,57.366493 
	C402.903015,57.361687 401.383545,57.840359 400.000977,59.401558 
	C388.851074,71.992065 377.654846,84.542366 366.380493,97.021629 
	C350.860321,114.200546 335.234619,131.284134 319.706787,148.456192 
	C314.429840,154.291901 307.938080,156.399139 300.328247,155.025894 
	C293.334045,153.763763 289.265106,158.050034 291.288971,164.974045 
	C297.587158,186.521744 303.967102,208.045578 310.341370,229.570938 
	C310.798187,231.113602 310.976624,232.869156 312.614441,233.767853 
	C333.580292,225.025238 388.879791,164.835541 409.526459,128.105042 
M163.396133,22.191336 
	C161.285233,20.858694 159.208740,19.467445 157.056808,18.204729 
	C151.283417,14.816998 150.330765,15.001501 146.389008,20.329863 
	C140.744461,27.960011 135.139450,35.619434 129.524887,43.271732 
	C125.392105,48.904446 125.389297,49.508766 130.124207,54.739731 
	C154.599258,81.778946 179.087128,108.806595 203.590012,135.820587 
	C208.775589,141.537567 211.108673,141.246964 215.290497,134.541412 
	C225.422745,118.294395 235.543961,102.040436 245.704651,85.811218 
	C250.591095,78.006317 250.533646,77.253822 242.975174,72.462326 
	C216.679214,55.792679 190.346588,39.180893 163.396133,22.191336 
M322.221344,122.723473 
	C342.918213,99.909439 363.582947,77.066078 384.348267,54.314518 
	C387.300415,51.079971 388.512604,48.347565 385.401917,44.350883 
	C379.064240,36.208187 373.066040,27.798525 367.027283,19.427206 
	C364.405609,15.792901 361.637299,15.131070 357.711945,17.627764 
	C328.214783,36.389198 298.641022,55.030182 269.111603,73.741005 
	C264.408783,76.720871 263.978546,78.748260 266.991394,83.595352 
	C277.889648,101.128738 288.811584,118.647545 299.781311,136.136276 
	C302.692932,140.778152 305.496246,141.034897 309.347137,136.965271 
	C313.580414,132.491562 317.624542,127.838875 322.221344,122.723473 
M229.379120,196.697998 
	C224.976837,211.705032 220.634048,226.729980 216.121979,241.703934 
	C215.220764,244.694794 215.539017,246.696655 218.381973,248.406799 
	C227.386292,253.823212 236.396622,259.231049 246.432617,262.544800 
	C250.658875,263.940247 254.874084,265.107178 259.597687,263.941589 
	C273.133240,260.601593 284.612701,253.228622 296.268799,246.111725 
	C298.851807,244.534607 298.144135,242.477859 297.543640,240.433746 
	C291.118103,218.561295 284.587219,196.719543 278.244690,174.823181 
	C277.137207,170.999771 275.664337,169.940765 271.904785,171.891251 
	C261.703888,177.183563 251.460068,177.009140 241.322815,171.489899 
	C240.346786,170.958511 239.338165,170.174301 237.477356,170.713531 
	C234.207077,178.669296 232.361877,187.450592 229.379120,196.697998 
M251.069885,59.340626 
	C254.273636,61.666897 257.125793,63.240925 261.359833,60.503296 
	C283.035431,46.488407 304.920776,32.798073 326.717712,18.970499 
	C327.608673,18.405298 328.957977,18.071293 328.684387,16.518383 
	C320.482666,14.668773 189.676514,15.580164 185.800110,17.976086 
	C207.574860,31.770952 229.020340,45.357227 251.069885,59.340626 
M235.345596,149.154373 
	C236.508820,150.096252 237.656601,151.058014 238.837646,151.976990 
	C252.937134,162.947983 260.730621,163.029678 274.899994,152.211487 
	C277.269012,150.402771 279.334991,148.201752 281.593628,146.242737 
	C284.642578,143.598236 284.685181,140.971222 282.484924,137.549225 
	C274.839691,125.658623 267.463989,113.594833 259.956543,101.615250 
	C259.186951,100.387230 258.656281,98.886551 257.021942,98.351318 
	C255.061844,99.000092 254.510376,100.894592 253.572266,102.389084 
	C246.763397,113.236282 240.001831,124.113190 233.229904,134.983582 
	C228.596497,142.421188 228.599823,142.423264 235.345596,149.154373 
z"/>
<path fill="currentColor" opacity="1.000000" stroke="none" stroke-width="5.000000"
	d="
M406.675293,379.698425 
	C375.739471,405.901978 331.130585,392.569855 321.251587,354.543915 
	C319.248901,346.835205 319.682434,339.025421 319.637878,331.219879 
	C319.599854,324.557098 319.580536,317.893311 319.650238,311.230988 
	C319.793793,297.512390 329.801758,286.942963 343.462494,286.743011 
	C361.948303,286.472443 380.443329,286.504822 398.930176,286.740112 
	C412.230530,286.909393 422.231506,296.173462 422.973236,309.978424 
	C423.650085,322.575317 423.920715,335.256134 422.538513,347.892670 
	C421.173706,360.370117 415.700562,370.696930 406.675293,379.698425 
M364.500061,302.272858 
	C357.666809,302.281281 350.833008,302.240906 344.000458,302.315216 
	C339.440979,302.364777 335.750549,304.533783 335.526947,309.122467 
	C334.878357,322.430389 333.965820,335.898102 335.817261,349.057556 
	C338.149658,365.635498 353.937439,378.032623 370.931458,378.434967 
	C387.536652,378.828125 403.284271,366.516510 406.631653,349.788971 
	C409.099182,337.458282 407.289612,324.871490 407.585754,312.403931 
	C407.749908,305.492676 404.468719,302.367706 397.499817,302.308746 
	C386.833923,302.218475 376.166718,302.277466 364.500061,302.272858 
z"/>
</svg>