<svg version="1.1" id="Layer_1" xmlns="http://www.w3.org/2000/svg" xmlns:xlink="http://www.w3.org/1999/xlink" x="0px" y="0px"
	 width="100%" viewBox="0 0 100 100" enable-background="new 0 0 100 100" xml:space="preserve">
<path fill="#080808" opacity="1.000000" stroke="none" 
	d="
M101.000000,56.000000 
	C101.000000,67.020897 101.000000,78.041786 100.625725,89.729622 
	C95.812981,90.602264 91.368675,90.725914 86.938042,91.041618 
	C83.824104,91.263496 82.887398,89.890656 82.942177,86.928574 
	C83.080635,79.443237 83.248283,71.940414 82.868919,64.471786 
	C82.700806,61.162170 81.239166,57.918259 80.364708,54.644520 
	C79.913605,54.770859 79.462509,54.897198 79.011406,55.023537 
	C79.011406,67.821602 78.844017,80.623077 79.105034,93.415817 
	C79.192680,97.711617 78.101868,99.200600 73.576401,99.116760 
	C58.605747,98.839409 43.622330,98.806602 28.653530,99.129906 
	C23.840057,99.233871 22.795019,97.613716 22.890621,93.151253 
	C23.162758,80.448257 22.986151,67.735657 22.986151,55.026833 
	C22.472700,54.931622 21.959249,54.836411 21.445799,54.741203 
	C20.634829,58.096500 19.289110,61.425560 19.122959,64.812492 
	C18.764654,72.116425 19.132572,79.453773 18.908209,86.768394 
	C18.864601,88.190071 17.491222,90.769264 16.712288,90.776505 
	C11.477715,90.825127 6.238029,90.323380 1.000000,90.000000 
	C1.000000,79.312439 1.000000,68.624878 1.280578,57.227715 
	C4.820212,47.311600 7.859318,38.019379 11.403249,28.923859 
	C14.627847,20.647905 20.093821,14.551136 29.339371,12.591148 
	C31.288937,12.177855 33.850788,11.070194 34.655949,9.517721 
	C37.004009,4.990292 40.921211,3.581923 45.299454,3.422645 
	C53.533474,3.123095 62.502625,0.897959 67.895126,10.348307 
	C68.429176,11.284214 70.065659,11.843213 71.289474,12.094032 
	C82.490318,14.389628 88.349854,22.022671 91.958931,32.176006 
	C94.803139,40.177582 97.974144,48.062992 101.000000,56.000000 
M41.504944,94.989197 
	C52.598579,94.989197 63.692215,94.989197 75.407555,94.989197 
	C74.759186,68.729790 74.125687,43.072784 73.486038,17.166956 
	C72.114326,16.786751 70.406319,16.313332 68.504539,15.786204 
	C67.056557,21.120384 65.692513,26.145332 63.927807,32.646255 
	C60.102230,28.885872 57.128151,26.310947 54.583336,23.365187 
	C51.921074,20.283472 49.802967,20.495684 47.328201,23.469154 
	C45.735901,25.382328 43.866432,27.071169 42.066784,28.804054 
	C38.705502,32.040630 37.830048,31.845585 36.581921,27.465889 
	C35.498985,23.665844 34.569065,19.822195 33.477070,15.635729 
	C31.356827,16.319828 29.547274,16.903683 29.060448,17.060759 
	C29.060448,25.428339 30.341892,33.162888 28.765179,40.262703 
	C26.295864,51.381832 27.422235,62.417068 27.055618,73.482903 
	C26.820705,80.573418 27.011578,87.678040 27.011578,94.989197 
	C31.888557,94.989197 36.198402,94.989197 41.504944,94.989197 
M14.935452,86.235832 
	C14.954353,80.573517 15.372357,74.877098 14.892210,69.257416 
	C14.277269,62.060116 16.064516,55.712830 20.332792,50.110447 
	C27.587585,40.588070 25.446302,30.271135 22.993135,19.758732 
	C8.057930,39.641857 2.424303,61.972988 5.537285,86.928665 
	C8.367453,86.928665 11.323333,86.928665 14.935452,86.235832 
M83.847328,24.719128 
	C82.233902,22.990337 80.620468,21.261549 78.440346,18.925549 
	C76.507919,31.465652 75.302849,42.712368 83.198463,52.744312 
	C86.399231,56.811111 87.354332,61.561321 87.087448,66.788025 
	C86.750748,73.382034 87.006210,80.006294 87.006210,86.792099 
	C90.477875,86.792099 93.543106,86.792099 96.294785,86.792099 
	C99.953880,64.670738 94.207390,44.590675 83.847328,24.719128 
M59.298302,11.396589 
	C59.611992,10.377164 59.925678,9.357738 60.374344,7.899659 
	C53.879971,7.899659 47.862808,7.899659 41.473145,7.899659 
	C42.874344,12.925020 45.049255,16.079453 49.464195,16.861025 
	C53.680420,17.607418 56.810959,15.738086 59.298302,11.396589 
M62.411129,13.947419 
	C60.648266,16.014563 58.885399,18.081709 57.670723,19.506044 
	C59.099937,21.258377 60.393211,22.844034 61.992962,24.805456 
	C62.966335,20.965420 63.843849,17.617264 64.582504,14.238750 
	C64.617798,14.077347 63.425488,13.647551 62.411129,13.947419 
M38.891983,20.420559 
	C39.288139,21.786695 39.684296,23.152830 40.123180,24.666328 
	C42.023064,22.996210 43.612488,21.599007 45.023678,20.358479 
	C42.514252,17.410313 40.353985,14.872354 38.193722,12.334395 
	C37.867126,12.378026 37.540535,12.421658 37.213940,12.465288 
	C37.726482,14.870399 38.239025,17.275511 38.891983,20.420559 
z"/>
<path fill="#FCFCFC" opacity="1.000000" stroke="currentColor" stroke-width="4.000000"
	d="
M101.000000,55.531342 
	C97.974144,48.062992 94.803139,40.177582 91.958931,32.176006 
	C88.349854,22.022671 82.490318,14.389628 71.289474,12.094032 
	C70.065659,11.843213 68.429176,11.284214 67.895126,10.348307 
	C62.502625,0.897959 53.533474,3.123095 45.299454,3.422645 
	C40.921211,3.581923 37.004009,4.990292 34.655949,9.517721 
	C33.850788,11.070194 31.288937,12.177855 29.339371,12.591148 
	C20.093821,14.551136 14.627847,20.647905 11.403249,28.923859 
	C7.859318,38.019379 4.820212,47.311600 1.280578,56.759056 
	C1.000000,38.372108 1.000000,19.744217 1.000000,1.058162 
	C34.225235,1.058162 67.450592,1.058162 101.000000,1.058162 
	C101.000000,19.019600 101.000000,37.041142 101.000000,55.531342 
z"/>
<path fill="#FEFEFE" opacity="1.000000" stroke="currentColor" stroke-width="4.000000"
	d="
M1.000000,90.482956 
	C6.238029,90.323380 11.477715,90.825127 16.712288,90.776505 
	C17.491222,90.769264 18.864601,88.190071 18.908209,86.768394 
	C19.132572,79.453773 18.764654,72.116425 19.122959,64.812492 
	C19.289110,61.425560 20.634829,58.096500 21.445799,54.741203 
	C21.959249,54.836411 22.472700,54.931622 22.986151,55.026833 
	C22.986151,67.735657 23.162758,80.448257 22.890621,93.151253 
	C22.795019,97.613716 23.840057,99.233871 28.653530,99.129906 
	C43.622330,98.806602 58.605747,98.839409 73.576401,99.116760 
	C78.101868,99.200600 79.192680,97.711617 79.105034,93.415817 
	C78.844017,80.623077 79.011406,67.821602 79.011406,55.023537 
	C79.462509,54.897198 79.913605,54.770859 80.364708,54.644520 
	C81.239166,57.918259 82.700806,61.162170 82.868919,64.471786 
	C83.248283,71.940414 83.080635,79.443237 82.942177,86.928574 
	C82.887398,89.890656 83.824104,91.263496 86.938042,91.041618 
	C91.368675,90.725914 95.812981,90.602264 100.625725,90.198280 
	C101.000000,93.652603 101.000000,97.305214 100.999992,100.960800 
	C67.666649,100.963776 34.333313,100.963776 1.000000,100.963776 
	C1.000000,97.607002 1.000000,94.286461 1.000000,90.482956 
z"/>
<path fill="#FDFDFD" opacity="1.000000" stroke="currentColor" stroke-width="4.000000"
	d="
M41.006592,94.989197 
	C36.198402,94.989197 31.888557,94.989197 27.011578,94.989197 
	C27.011578,87.678040 26.820705,80.573418 27.055618,73.482903 
	C27.422235,62.417068 26.295864,51.381832 28.765179,40.262703 
	C30.341892,33.162888 29.060448,25.428339 29.060448,17.060759 
	C29.547274,16.903683 31.356827,16.319828 33.477070,15.635729 
	C34.569065,19.822195 35.498985,23.665844 36.581921,27.465889 
	C37.830048,31.845585 38.705502,32.040630 42.066784,28.804054 
	C43.866432,27.071169 45.735901,25.382328 47.328201,23.469154 
	C49.802967,20.495684 51.921074,20.283472 54.583336,23.365187 
	C57.128151,26.310947 60.102230,28.885872 63.927807,32.646255 
	C65.692513,26.145332 67.056557,21.120384 68.504539,15.786204 
	C70.406319,16.313332 72.114326,16.786751 73.486038,17.166956 
	C74.125687,43.072784 74.759186,68.729790 75.407555,94.989197 
	C63.692215,94.989197 52.598579,94.989197 41.006592,94.989197 
z"/>
<path fill="#FBFBFB" opacity="1.000000" stroke="currentColor" stroke-width="4.000000"
	d="
M14.607332,86.582245 
	C11.323333,86.928665 8.367453,86.928665 5.537285,86.928665 
	C2.424303,61.972988 8.057930,39.641857 22.993135,19.758732 
	C25.446302,30.271135 27.587585,40.588070 20.332792,50.110447 
	C16.064516,55.712830 14.277269,62.060116 14.892210,69.257416 
	C15.372357,74.877098 14.954353,80.573517 14.607332,86.582245 
z"/>
<path fill="#FAFAFA" opacity="1.000000" stroke="currentColor" stroke-width="4.000000"
	d="
M84.036079,25.043259 
	C94.207390,44.590675 99.953880,64.670738 96.294785,86.792099 
	C93.543106,86.792099 90.477875,86.792099 87.006210,86.792099 
	C87.006210,80.006294 86.750748,73.382034 87.087448,66.788025 
	C87.354332,61.561321 86.399231,56.811111 83.198463,52.744312 
	C75.302849,42.712368 76.507919,31.465652 78.440346,18.925549 
	C80.620468,21.261549 82.233902,22.990337 84.036079,25.043259 
z"/>
<path fill="#F5F5F5" opacity="1.000000" stroke="currentColor" stroke-width="4.000000"
	d="
M59.128647,11.757675 
	C56.810959,15.738086 53.680420,17.607418 49.464195,16.861025 
	C45.049255,16.079453 42.874344,12.925020 41.473145,7.899659 
	C47.862808,7.899659 53.879971,7.899659 60.374344,7.899659 
	C59.925678,9.357738 59.611992,10.377164 59.128647,11.757675 
z"/>
<path fill="#E1E1E1" opacity="1.000000" stroke="currentColor" stroke-width="4.000000"
	d="
M62.607994,13.645081 
	C63.425488,13.647551 64.617798,14.077347 64.582504,14.238750 
	C63.843849,17.617264 62.966335,20.965420 61.992962,24.805456 
	C60.393211,22.844034 59.099937,21.258377 57.670723,19.506044 
	C58.885399,18.081709 60.648266,16.014563 62.607994,13.645081 
z"/>
<path fill="#E2E2E2" opacity="1.000000" stroke="none" 
	d="
M38.821774,20.050591 
	C38.239025,17.275511 37.726482,14.870399 37.213940,12.465288 
	C37.540535,12.421658 37.867126,12.378026 38.193722,12.334395 
	C40.353985,14.872354 42.514252,17.410313 45.023678,20.358479 
	C43.612488,21.599007 42.023064,22.996210 40.123180,24.666328 
	C39.684296,23.152830 39.288139,21.786695 38.821774,20.050591 
z"/>
</svg>