<?xml version="1.0" encoding="UTF-8" standalone="no"?>
<svg
   width="500"
   zoomAndPan="magnify"
   viewBox="0 0 375 374.999991"
   height="500"
   preserveAspectRatio="xMidYMid meet"
   version="1.0"
   id="svg8"
   sodipodi:docname="shopping.svg"
   inkscape:version="1.4.3 (0d15f75, 2025-12-25)"
   xmlns:inkscape="http://www.inkscape.org/namespaces/inkscape"
   xmlns:sodipodi="http://sodipodi.sourceforge.net/DTD/sodipodi-0.dtd"
   xmlns="http://www.w3.org/2000/svg"
   xmlns:svg="http://www.w3.org/2000/svg">
  <sodipodi:namedview
     id="namedview8"
     pagecolor="#ffffff"
     bordercolor="#000000"
     borderopacity="0.25"
     inkscape:showpageshadow="2"
     inkscape:pageopacity="0.0"
     inkscape:pagecheckerboard="0"
     inkscape:deskcolor="#d1d1d1"
     inkscape:zoom="0.15268468"
     inkscape:cx="-196.48337"
     inkscape:cy="694.24123"
     inkscape:window-width="1470"
     inkscape:window-height="845"
     inkscape:window-x="0"
     inkscape:window-y="33"
     inkscape:window-maximized="1"
     inkscape:current-layer="svg8" />
  <defs
     id="defs3">
    <clipPath
       id="c53c7d0580">
      <path
         d="M 0.636719 0.0507812 L 113.136719 0.0507812 L 113.136719 7.605469 L 0.636719 7.605469 Z M 0.636719 0.0507812 "
         clip-rule="nonzero"
         id="path3" />
    </clipPath>
    <clipPath
       id="43b1586217">
      <rect
         x="0"
         width="114"
         y="0"
         height="8"
         id="rect3" />
    </clipPath>
    <clipPath
       clipPathUnits="userSpaceOnUse"
       id="clipPath30">
      <path
         d="M 16.972656,27.105469 H 358.97266 V 326.35547 H 16.972656 Z m 0,0"
         clip-rule="nonzero"
         id="path30"
         style="stroke-width:0.999997" />
    </clipPath>
  </defs>
  <path
     fill="none" stroke="currentColor" stroke-width="24" stroke-linecap="round" stroke-linejoin="round"
     d="m 344.44922,154.96875 c -3.82031,-0.86719 -7.65625,1.53516 -8.52344,5.37109 l -14.53516,63.88282 c -2.26953,9.79296 -10.83593,16.63281 -20.85156,16.63281 H 127.46875 L 91.308594,98.351562 H 209.34766 c 3.9414,0 7.12109,-3.195312 7.12109,-7.121093 0,-3.929688 -3.19141,-7.121094 -7.12109,-7.121094 H 87.6875 L 83.664062,68.253906 C 79.65625,52.421875 65.484375,41.359375 49.1875,41.359375 H 24.097656 c -3.941406,0 -7.121094,3.191406 -7.121094,7.121094 0,3.925781 3.191407,7.121093 7.121094,7.121093 h 25.074219 c 9.765625,0 18.261719,6.640626 20.667969,16.152344 L 122.20703,278.08984 c 3.71485,14.70703 16.24219,25.16797 31.05859,26.60938 3.08594,12.41015 14.22657,21.66797 27.57422,21.66797 13.34375,0 24.30078,-9.1211 27.49219,-21.375 h 66.14063 c 3.19531,12.2539 14.2539,21.375 27.49218,21.375 15.71094,0 28.4961,-12.78516 28.4961,-28.49219 0,-15.71094 -12.78516,-28.49609 -28.4961,-28.49609 -13.23828,0 -24.29687,9.125 -27.49218,21.375 h -66.14063 c -3.19141,-12.25 -14.25391,-21.375 -27.49219,-21.375 -13.23828,0 -24.11328,8.98828 -27.39843,21.09375 -8.35157,-1.28125 -15.28516,-7.44141 -17.42188,-15.8711 L 131.07812,255.125 h 169.46094 c 16.6836,0 30.96485,-11.38281 34.73047,-27.71094 l 14.53516,-63.91015 c 0.87109,-3.83204 -1.53516,-7.65235 -5.3711,-8.52344 z m -42.48438,128.63672 c 7.85547,0 14.25782,6.38672 14.25782,14.2539 0,7.86719 -6.38672,14.25391 -14.25782,14.25391 -7.86718,0 -14.2539,-6.38672 -14.2539,-14.25391 0,-7.86718 6.38672,-14.2539 14.2539,-14.2539 z m -121.125,0 c 7.85547,0 14.25391,6.38672 14.25391,14.2539 0,7.86719 -6.38672,14.25391 -14.25391,14.25391 -7.86718,0 -14.2539,-6.38672 -14.2539,-14.25391 0,-7.86718 6.38672,-14.2539 14.2539,-14.2539 z m 113.99219,-128.25 c 35.36328,0 64.125,-28.76172 64.125,-64.125001 0,-35.363281 -28.76172,-64.125 -64.125,-64.125 -35.35937,0 -64.12109,28.761719 -64.12109,64.125 0,35.363281 28.76172,64.125001 64.12109,64.125001 z m 0,-113.996095 c 27.50781,0 49.87109,22.378906 49.87109,49.871094 0,27.492191 -22.3789,49.871091 -49.87109,49.871091 -27.49219,0 -49.86719,-22.3789 -49.86719,-49.871091 0,-27.492188 22.375,-49.871094 49.86719,-49.871094 z m -35.62891,49.871094 c 0,-3.941407 3.19532,-7.121094 7.1211,-7.121094 h 21.375 v -21.375 c 0,-3.941406 3.1914,-7.121094 7.12109,-7.121094 3.92578,0 7.1211,3.195313 7.1211,7.121094 v 21.375 h 21.375 c 3.9375,0 7.11718,3.195313 7.11718,7.121094 0,3.925781 -3.1914,7.121093 -7.11718,7.121093 h -21.375 v 21.374998 c 0,3.94141 -3.19532,7.1211 -7.1211,7.1211 -3.92969,0 -7.12109,-3.19532 -7.12109,-7.1211 V 98.351562 h -21.375 c -3.94141,0 -7.1211,-3.195312 -7.1211,-7.121093 z m 0,0"
     fill-opacity="1"
     fill-rule="nonzero"
     id="path4"
     clip-path="url(#clipPath30)" />
  <path
     fill="none" stroke="currentColor" stroke-width="24" stroke-linecap="round" stroke-linejoin="round"
     d="m 140.63672,243.05078 h 112.5 v 7.55469 h -112.5 z m 0,0"
     fill-opacity="1"
     fill-rule="nonzero"
     id="path5" />
</svg>
