<svg version="1.1" id="Layer_1" xmlns="http://www.w3.org/2000/svg" xmlns:xlink="http://www.w3.org/1999/xlink" x="0px" y="0px"
	 width="100%" viewBox="0 0 100 100" enable-background="new 0 0 100 100" xml:space="preserve">
<path fill="none" opacity="1.000000" stroke="none" stroke-width="3.000000"
	d="
M55.000000,101.000000 
	C36.666668,101.000000 18.833340,101.000000 1.000007,101.000000 
	C1.000005,67.666679 1.000005,34.333351 1.000002,1.000021 
	C34.333317,1.000014 67.666634,1.000014 100.999969,1.000007 
	C100.999977,34.333313 100.999977,67.666626 100.999985,100.999969 
	C85.833336,101.000000 70.666664,101.000000 55.000000,101.000000 
M86.332497,63.896027 
	C87.989479,60.641468 89.712265,57.418430 91.289757,54.125790 
	C94.581009,47.256046 93.370209,44.052555 86.152466,40.664467 
	C87.270462,35.839424 86.263420,31.910133 81.053452,29.920881 
	C80.434486,29.684553 79.905312,28.543180 79.795723,27.757040 
	C79.284599,24.090321 77.584984,21.670506 73.804482,20.682804 
	C72.957420,20.461498 72.322784,18.909895 71.852196,17.854029 
	C69.771873,13.186343 65.684593,11.772639 61.219227,13.914457 
	C59.870304,14.561471 58.015171,14.518692 56.458961,14.304570 
	C49.792526,13.387324 43.149418,12.298911 36.502132,11.245587 
	C35.282703,11.052357 33.967281,10.965281 32.894653,10.430836 
	C27.971684,7.977919 24.308186,8.680207 21.535200,13.646839 
	C13.472378,28.087976 8.121151,43.435741 9.152476,60.215408 
	C10.206712,77.367813 19.356892,89.324936 35.304111,95.167450 
	C49.754814,100.461685 62.392078,95.178619 72.397942,84.687950 
	C77.910828,78.907944 81.548264,71.339165 86.332497,63.896027 
z"/>
<path fill="currentColor" opacity="1.000000" stroke="currentColor" stroke-width="3.000000"
	d="
M86.181854,64.236435 
	C81.548264,71.339165 77.910828,78.907944 72.397942,84.687950 
	C62.392078,95.178619 49.754814,100.461685 35.304111,95.167450 
	C19.356892,89.324936 10.206712,77.367813 9.152476,60.215408 
	C8.121151,43.435741 13.472378,28.087976 21.535200,13.646839 
	C24.308186,8.680207 27.971684,7.977919 32.894653,10.430836 
	C33.967281,10.965281 35.282703,11.052357 36.502132,11.245587 
	C43.149418,12.298911 49.792526,13.387324 56.458961,14.304570 
	C58.015171,14.518692 59.870304,14.561471 61.219227,13.914457 
	C65.684593,11.772639 69.771873,13.186343 71.852196,17.854029 
	C72.322784,18.909895 72.957420,20.461498 73.804482,20.682804 
	C77.584984,21.670506 79.284599,24.090321 79.795723,27.757040 
	C79.905312,28.543180 80.434486,29.684553 81.053452,29.920881 
	C86.263420,31.910133 87.270462,35.839424 86.152466,40.664467 
	C93.370209,44.052555 94.581009,47.256046 91.289757,54.125790 
	C89.712265,57.418430 87.989479,60.641468 86.181854,64.236435 
M37.952591,91.981949 
	C40.182308,92.879417 41.240086,92.182915 41.596298,89.743118 
	C41.708118,88.977211 43.028778,88.387787 43.796139,87.717590 
	C44.331337,88.601486 45.009972,89.433670 45.353558,90.386650 
	C45.600948,91.072807 45.401741,91.919991 45.401741,94.218742 
	C51.534992,91.905853 57.515957,90.638016 62.414791,87.615997 
	C76.554565,78.893417 81.808609,63.611736 88.671783,49.651951 
	C89.105400,48.769958 87.910835,46.352928 86.839096,45.713135 
	C86.072632,45.255585 83.717773,46.193729 82.995354,47.183403 
	C81.348541,49.439423 80.382492,52.177326 78.937759,54.598869 
	C75.319748,60.663074 71.589386,66.660255 67.904091,72.684319 
	C67.164909,72.476234 66.425720,72.268143 65.686539,72.060059 
	C65.781990,70.615967 65.409607,68.909950 66.047935,67.769806 
	C70.587334,59.661797 75.353111,51.680874 79.995155,43.629715 
	C80.820625,42.198029 81.849617,40.663853 81.976456,39.110992 
	C82.103386,37.556843 81.217743,35.919991 80.775948,34.319393 
	C79.365829,35.031082 77.364845,35.375530 76.652847,36.521114 
	C74.202934,40.462910 72.363503,44.779652 69.992073,48.775856 
	C67.068710,53.702145 63.845398,58.450436 60.441273,63.759842 
	C59.022671,62.155949 58.287941,61.325249 57.795578,60.768578 
	C61.479084,54.740288 65.157364,49.010696 68.528152,43.105572 
	C70.912117,38.929211 73.116333,34.609364 74.891052,30.150675 
	C75.432800,28.789639 74.282448,26.755089 73.907028,25.028988 
	C72.489021,25.835812 70.679283,26.334242 69.744553,27.521538 
	C68.332520,29.315105 67.620316,31.641146 66.453445,33.649529 
	C62.149368,41.057533 57.780647,48.427975 53.436237,55.812542 
	C52.669231,55.582455 51.902225,55.352364 51.135220,55.122276 
	C51.229767,53.652573 50.847778,51.917747 51.494534,50.755272 
	C56.496468,41.764805 61.861023,32.972031 66.688133,23.892015 
	C67.574432,22.224836 67.346321,18.297497 66.217194,17.549227 
	C63.211708,15.557499 62.125820,18.783508 60.956753,20.927151 
	C56.823879,28.505323 53.058411,36.316380 48.432442,43.579819 
	C46.009640,47.383961 42.492668,50.838139 38.738312,53.362305 
	C33.684757,56.759960 28.821404,54.699978 28.069876,48.641720 
	C27.328320,42.663841 27.955082,36.454815 28.517712,30.396990 
	C28.929638,25.961756 30.404552,21.632332 30.976742,17.200367 
	C31.137915,15.951985 29.785938,14.508249 29.127991,13.154116 
	C27.883059,13.796484 26.084034,14.110013 25.477839,15.131454 
	C18.451576,26.970680 14.220173,39.717545 13.216691,52.719025 
	C15.705762,54.042110 17.541794,55.018066 19.377823,55.994022 
	C17.423655,56.988274 15.469484,57.982521 13.094826,59.190708 
	C13.231943,60.275429 13.452057,62.016716 13.580200,63.030441 
	C16.151915,63.862682 18.102289,64.493851 20.052662,65.125015 
	C18.421465,66.405724 16.790268,67.686432 14.855521,69.205467 
	C15.296042,70.243599 15.914123,71.700157 16.176964,72.319572 
	C19.030296,72.606171 21.107304,72.814796 23.184311,73.023415 
	C21.910461,74.626678 20.636610,76.229935 19.184013,78.058167 
	C20.090021,79.180710 21.211185,80.569839 21.786551,81.282722 
	C24.245564,80.578606 26.135178,80.037537 28.024790,79.496460 
	C27.527370,81.430634 27.029951,83.364815 26.437483,85.668579 
	C27.508583,86.399452 28.988886,87.409554 30.394854,88.368927 
	C30.889492,88.003105 31.157282,87.808952 31.420959,87.609360 
	C32.631931,86.692665 33.841759,85.774452 35.051991,84.856781 
	C35.148884,86.264626 35.050800,87.724388 35.407238,89.063133 
	C35.670265,90.051033 36.526299,90.881050 37.952591,91.981949 
M46.984444,24.138275 
	C49.047531,25.101908 51.110619,26.065540 53.337585,27.105719 
	C54.674606,24.416016 55.898106,21.954689 57.210842,19.313841 
	C50.044155,15.664237 43.026661,13.929671 35.138252,15.787922 
	C35.138252,18.296967 35.138252,20.512226 35.138252,22.421139 
	C39.004436,22.960979 42.594986,23.462330 46.984444,24.138275 
M39.335796,37.006279 
	C41.653919,37.775345 43.972046,38.544411 46.527592,39.392242 
	C48.116005,36.649017 49.651409,33.997341 51.228981,31.272835 
	C46.065731,26.981630 40.250164,25.878017 34.633793,27.501343 
	C32.827312,28.023478 32.258617,32.828091 30.992273,36.002899 
	C34.267254,36.396065 36.381256,36.649849 39.335796,37.006279 
M37.753902,49.457165 
	C39.808270,47.493217 41.862637,45.529270 45.090534,42.443443 
	C39.480286,41.590744 35.442909,40.977100 30.755400,40.264648 
	C31.184580,43.328720 31.464682,45.258450 31.723444,47.191032 
	C32.203651,50.777512 33.976994,51.711643 37.753902,49.457165 
z"/>
<path fill="#F8F8F8" opacity="1.000000" stroke="none" 
	d="
M37.535355,91.881683 
	C36.526299,90.881050 35.670265,90.051033 35.407238,89.063133 
	C35.050800,87.724388 35.148884,86.264626 35.051991,84.856781 
	C33.841759,85.774452 32.631931,86.692665 31.420959,87.609360 
	C31.157282,87.808952 30.889492,88.003105 30.394854,88.368927 
	C28.988886,87.409554 27.508583,86.399452 26.437483,85.668579 
	C27.029951,83.364815 27.527370,81.430634 28.024790,79.496460 
	C26.135178,80.037537 24.245564,80.578606 21.786551,81.282722 
	C21.211185,80.569839 20.090021,79.180710 19.184013,78.058167 
	C20.636610,76.229935 21.910461,74.626678 23.184311,73.023415 
	C21.107304,72.814796 19.030296,72.606171 16.176964,72.319572 
	C15.914123,71.700157 15.296042,70.243599 14.855521,69.205467 
	C16.790268,67.686432 18.421465,66.405724 20.052662,65.125015 
	C18.102289,64.493851 16.151915,63.862682 13.580200,63.030441 
	C13.452057,62.016716 13.231943,60.275429 13.094826,59.190708 
	C15.469484,57.982521 17.423655,56.988274 19.377823,55.994022 
	C17.541794,55.018066 15.705762,54.042110 13.216691,52.719025 
	C14.220173,39.717545 18.451576,26.970680 25.477839,15.131454 
	C26.084034,14.110013 27.883059,13.796484 29.127991,13.154116 
	C29.785938,14.508249 31.137915,15.951985 30.976742,17.200367 
	C30.404552,21.632332 28.929638,25.961756 28.517712,30.396990 
	C27.955082,36.454815 27.328320,42.663841 28.069876,48.641720 
	C28.821404,54.699978 33.684757,56.759960 38.738312,53.362305 
	C42.492668,50.838139 46.009640,47.383961 48.432442,43.579819 
	C53.058411,36.316380 56.823879,28.505323 60.956753,20.927151 
	C62.125820,18.783508 63.211708,15.557499 66.217194,17.549227 
	C67.346321,18.297497 67.574432,22.224836 66.688133,23.892015 
	C61.861023,32.972031 56.496468,41.764805 51.494534,50.755272 
	C50.847778,51.917747 51.229767,53.652573 51.135220,55.122276 
	C51.902225,55.352364 52.669231,55.582455 53.436237,55.812542 
	C57.780647,48.427975 62.149368,41.057533 66.453445,33.649529 
	C67.620316,31.641146 68.332520,29.315105 69.744553,27.521538 
	C70.679283,26.334242 72.489021,25.835812 73.907028,25.028988 
	C74.282448,26.755089 75.432800,28.789639 74.891052,30.150675 
	C73.116333,34.609364 70.912117,38.929211 68.528152,43.105572 
	C65.157364,49.010696 61.479084,54.740288 57.795578,60.768578 
	C58.287941,61.325249 59.022671,62.155949 60.441273,63.759842 
	C63.845398,58.450436 67.068710,53.702145 69.992073,48.775856 
	C72.363503,44.779652 74.202934,40.462910 76.652847,36.521114 
	C77.364845,35.375530 79.365829,35.031082 80.775955,34.319393 
	C81.217743,35.919991 82.103386,37.556843 81.976456,39.110992 
	C81.849617,40.663853 80.820625,42.198029 79.995155,43.629715 
	C75.353111,51.680874 70.587334,59.661797 66.047935,67.769806 
	C65.409607,68.909950 65.781990,70.615967 65.686539,72.060059 
	C66.425720,72.268143 67.164909,72.476234 67.904091,72.684319 
	C71.589386,66.660255 75.319748,60.663074 78.937759,54.598869 
	C80.382492,52.177326 81.348541,49.439423 82.995354,47.183403 
	C83.717773,46.193729 86.072632,45.255585 86.839096,45.713135 
	C87.910835,46.352928 89.105400,48.769958 88.671783,49.651951 
	C81.808609,63.611736 76.554565,78.893417 62.414791,87.615997 
	C57.515957,90.638016 51.534992,91.905853 45.401741,94.218742 
	C45.401741,91.919991 45.600948,91.072807 45.353558,90.386650 
	C45.009972,89.433670 44.331337,88.601486 43.796135,87.717590 
	C43.028778,88.387787 41.708118,88.977211 41.596298,89.743118 
	C41.240086,92.182915 40.182308,92.879417 37.535355,91.881683 
z"/>
<path fill="#F3F3F3" opacity="1.000000" stroke="none" 
	d="
M46.584988,24.050980 
	C42.594986,23.462330 39.004436,22.960979 35.138252,22.421139 
	C35.138252,20.512226 35.138252,18.296967 35.138252,15.787922 
	C43.026661,13.929671 50.044155,15.664237 57.210842,19.313841 
	C55.898106,21.954689 54.674606,24.416016 53.337585,27.105719 
	C51.110619,26.065540 49.047531,25.101908 46.584988,24.050980 
z"/>
<path fill="#F8F8F8" opacity="1.000000" stroke="none" 
	d="
M38.915527,36.954956 
	C36.381256,36.649849 34.267254,36.396065 30.992273,36.002899 
	C32.258617,32.828091 32.827312,28.023478 34.633793,27.501343 
	C40.250164,25.878017 46.065731,26.981630 51.228981,31.272835 
	C49.651409,33.997341 48.116005,36.649017 46.527592,39.392242 
	C43.972046,38.544411 41.653919,37.775345 38.915527,36.954956 
z"/>
<path fill="#F3F3F3" opacity="1.000000" stroke="none" 
	d="
M37.442276,49.653431 
	C33.976994,51.711643 32.203651,50.777512 31.723444,47.191032 
	C31.464682,45.258450 31.184580,43.328720 30.755400,40.264648 
	C35.442909,40.977100 39.480286,41.590744 45.090534,42.443443 
	C41.862637,45.529270 39.808270,47.493217 37.442276,49.653431 
z"/>
</svg>