<svg version="1.1" id="Layer_1" xmlns="http://www.w3.org/2000/svg" xmlns:xlink="http://www.w3.org/1999/xlink" x="0px" y="0px"
	 width="100%" viewBox="0 0 100 100" enable-background="new 0 0 100 100" xml:space="preserve">
<path fill="#FDFDFD" opacity="1.000000" stroke="none" 
	d="
M55.000000,101.000000 
	C36.666668,101.000000 18.833340,101.000000 1.000007,101.000000 
	C1.000005,67.666679 1.000005,34.333351 1.000002,1.000021 
	C34.333317,1.000014 67.666634,1.000014 100.999969,1.000007 
	C100.999977,34.333313 100.999977,67.666626 100.999985,100.999969 
	C85.833336,101.000000 70.666664,101.000000 55.000000,101.000000 
M69.349487,58.682724 
	C65.288132,64.450264 59.657471,67.020164 52.682228,66.993027 
	C42.182484,66.952179 31.682276,66.944176 21.182613,66.994896 
	C11.954219,67.039467 5.125327,73.312416 4.986655,81.755592 
	C4.843020,90.500862 11.639383,96.946632 21.169836,97.004135 
	C29.836111,97.056419 38.502960,97.026329 47.169529,97.014557 
	C62.810097,96.993309 73.751534,88.859497 78.072968,73.799057 
	C83.891556,53.520977 89.564484,33.201118 95.308838,12.901718 
	C97.637161,4.673935 97.563065,4.446935 89.108864,5.111477 
	C87.644188,5.226608 85.636703,6.747089 85.053566,8.117749 
	C83.633888,11.454751 82.952682,15.100010 81.886742,18.594482 
	C77.870384,31.761330 73.819183,44.917542 69.349487,58.682724 
M14.336296,17.778414 
	C6.094372,21.162184 4.978433,22.796579 4.976591,31.487333 
	C4.976168,33.485497 4.974442,35.483662 4.976501,37.481823 
	C4.983936,44.697021 6.850049,47.502003 13.798320,50.068584 
	C24.122978,53.882343 34.638218,53.977551 45.183689,51.103607 
	C54.798950,48.483177 57.020729,45.484264 57.021523,35.686806 
	C57.021645,34.188183 57.022530,32.689560 57.021957,31.190939 
	C57.018890,23.166845 55.451130,20.590309 47.853050,17.831436 
	C37.013271,13.895500 26.025465,14.008027 14.336296,17.778414 
z"/>
<path fill="#0B0B0B" opacity="1.000000" stroke="currentColor" stroke-width="3.000000"
	d="
M69.565254,58.380230 
	C73.819183,44.917542 77.870384,31.761330 81.886742,18.594482 
	C82.952682,15.100010 83.633888,11.454751 85.053566,8.117749 
	C85.636703,6.747089 87.644188,5.226608 89.108864,5.111477 
	C97.563065,4.446935 97.637161,4.673935 95.308838,12.901718 
	C89.564484,33.201118 83.891556,53.520977 78.072968,73.799057 
	C73.751534,88.859497 62.810097,96.993309 47.169529,97.014557 
	C38.502960,97.026329 29.836111,97.056419 21.169836,97.004135 
	C11.639383,96.946632 4.843020,90.500862 4.986655,81.755592 
	C5.125327,73.312416 11.954219,67.039467 21.182613,66.994896 
	C31.682276,66.944176 42.182484,66.952179 52.682228,66.993027 
	C59.657471,67.020164 65.288132,64.450264 69.565254,58.380230 
M86.889511,28.325665 
	C88.623894,22.018522 90.358269,15.711380 92.092651,9.404238 
	C91.594437,9.108165 91.096230,8.812091 90.598015,8.516018 
	C89.705757,9.770597 88.402458,10.902445 87.985489,12.298935 
	C84.240067,24.843016 80.307388,37.347195 77.111290,50.034790 
	C73.902939,62.771030 66.631073,70.343864 53.271042,71.212868 
	C53.271042,78.351624 53.271042,85.230949 53.271042,92.484177 
	C64.475502,90.189484 71.058212,83.492249 74.086266,73.099228 
	C78.352448,58.456650 82.476250,43.772587 86.889511,28.325665 
M25.024668,72.726662 
	C25.024668,79.461403 25.024668,86.196144 25.024668,92.614563 
	C33.475647,92.614563 41.204243,92.614563 48.787495,92.614563 
	C48.787495,85.308357 48.787495,78.367371 48.787495,70.689178 
	C40.743263,71.053963 32.911118,71.409126 25.024668,72.726662 
M9.090183,80.819298 
	C9.368997,88.924179 13.449152,93.014221 20.830359,92.516129 
	C20.830359,85.419846 20.830359,78.319771 20.830359,71.215797 
	C14.215308,71.429337 11.714437,73.345985 9.090183,80.819298 
z"/>
<path fill="#0E0E0E" opacity="1.000000" stroke="currentColor" stroke-width="3.000000"
	d="
M14.692457,17.613384 
	C26.025465,14.008027 37.013271,13.895500 47.853050,17.831436 
	C55.451130,20.590309 57.018890,23.166845 57.021957,31.190939 
	C57.022530,32.689560 57.021645,34.188183 57.021523,35.686806 
	C57.020729,45.484264 54.798950,48.483177 45.183689,51.103607 
	C34.638218,53.977551 24.122978,53.882343 13.798320,50.068584 
	C6.850049,47.502003 4.983936,44.697021 4.976501,37.481823 
	C4.974442,35.483662 4.976168,33.485497 4.976591,31.487333 
	C4.978433,22.796579 6.094372,21.162184 14.692457,17.613384 
M47.304115,21.919252 
	C36.782864,18.024651 26.142633,17.884785 15.648486,21.659588 
	C13.148417,22.558876 11.279478,25.212742 9.120249,27.059580 
	C11.170067,28.809916 12.944497,31.295567 15.317062,32.184132 
	C25.959261,36.169800 36.790337,36.096558 47.386261,31.936506 
	C49.499722,31.106743 51.072735,28.900415 52.894955,27.328838 
	C51.274303,25.611458 49.653648,23.894079 47.304115,21.919252 
M35.192440,38.901356 
	C26.177105,39.454330 17.459087,38.236954 9.179108,34.061977 
	C8.771485,43.672585 9.656096,44.943344 18.512878,47.350986 
	C26.884743,49.626804 35.299801,49.604813 43.659100,47.320457 
	C52.362206,44.942150 53.359074,43.433239 52.810909,34.952019 
	C47.295010,36.237404 41.700851,37.541023 35.192440,38.901356 
z"/>
<path fill="#F6F6F6" opacity="1.000000" stroke="currentColor" stroke-width="3.000000"
	d="
M86.775223,28.715963 
	C82.476250,43.772587 78.352448,58.456650 74.086266,73.099228 
	C71.058212,83.492249 64.475502,90.189484 53.271042,92.484177 
	C53.271042,85.230949 53.271042,78.351624 53.271042,71.212868 
	C66.631073,70.343864 73.902939,62.771030 77.111290,50.034790 
	C80.307388,37.347195 84.240067,24.843016 87.985489,12.298935 
	C88.402458,10.902445 89.705757,9.770597 90.598015,8.516018 
	C91.096230,8.812091 91.594437,9.108165 92.092651,9.404238 
	C90.358269,15.711380 88.623894,22.018522 86.775223,28.715963 
z"/>
<path fill="#FFFFFF" opacity="1.000000" stroke="currentColor" stroke-width="3.000000"
	d="
M25.051823,72.245476 
	C32.911118,71.409126 40.743263,71.053963 48.787495,70.689178 
	C48.787495,78.367371 48.787495,85.308357 48.787495,92.614563 
	C41.204243,92.614563 33.475647,92.614563 25.024668,92.614563 
	C25.024668,86.196144 25.024668,79.461403 25.051823,72.245476 
z"/>
<path fill="#FAFAFA" opacity="1.000000" stroke="currentColor" stroke-width="3.000000"
	d="
M9.136269,80.422821 
	C11.714437,73.345985 14.215308,71.429337 20.830359,71.215797 
	C20.830359,78.319771 20.830359,85.419846 20.830359,92.516129 
	C13.449152,93.014221 9.368997,88.924179 9.136269,80.422821 
z"/>
<path fill="#F9F9F9" opacity="1.000000" stroke="currentColor" stroke-width="3.000000"
	d="
M47.668556,22.047977 
	C49.653648,23.894079 51.274303,25.611458 52.894951,27.328838 
	C51.072735,28.900415 49.499722,31.106743 47.386261,31.936506 
	C36.790337,36.096558 25.959261,36.169800 15.317062,32.184132 
	C12.944497,31.295567 11.170067,28.809916 9.120249,27.059580 
	C11.279478,25.212742 13.148417,22.558876 15.648486,21.659588 
	C26.142633,17.884785 36.782864,18.024651 47.668556,22.047977 
z"/>
<path fill="#F9F9F9" opacity="1.000000" stroke="currentColor" stroke-width="3.000000"
	d="
M35.649567,38.873001 
	C41.700851,37.541023 47.295010,36.237404 52.810909,34.952019 
	C53.359074,43.433239 52.362206,44.942150 43.659100,47.320457 
	C35.299801,49.604813 26.884743,49.626804 18.512878,47.350986 
	C9.656096,44.943344 8.771485,43.672585 9.179108,34.061977 
	C17.459087,38.236954 26.177105,39.454330 35.649567,38.873001 
z"/>
</svg>