<svg version="1.1" id="Layer_1" xmlns="http://www.w3.org/2000/svg" xmlns:xlink="http://www.w3.org/1999/xlink" x="0px" y="0px"
	 width="100%" viewBox="0 0 512 512" enable-background="new 0 0 512 512" xml:space="preserve">
<path fill="#000000" opacity="1.000000" stroke="none" 
	d="
M285.149994,326.364105 
	C300.308075,284.942261 329.132446,259.835815 372.324493,252.736786 
	C430.758392,243.132614 487.366516,282.482880 497.117950,344.897400 
	C506.263672,403.434540 464.289307,459.593170 405.434021,468.478088 
	C346.558075,477.366119 290.967682,437.939453 280.922302,377.468750 
	C278.063446,360.259308 279.672211,343.326324 285.149994,326.364105 
M394.371338,277.510010 
	C394.371826,298.993469 394.375763,320.476959 394.371552,341.960419 
	C394.369049,354.769196 394.370850,354.492554 407.295166,354.842743 
	C412.283508,354.977936 413.955933,353.198944 414.616791,348.607483 
	C418.061554,324.674561 430.176300,306.164764 450.126617,292.642334 
	C451.691315,291.581787 453.903839,291.099792 454.464325,288.587646 
	C453.878082,287.899078 453.333435,287.055725 452.602234,286.430573 
	C437.222046,273.281708 419.347565,265.885498 399.351349,263.386078 
	C395.786926,262.940521 394.001282,264.140503 394.323883,268.026825 
	C394.557312,270.838684 394.371063,273.685394 394.371338,277.510010 
M440.130280,443.616882 
	C445.469238,440.273529 450.611572,436.685120 454.954956,432.171936 
	C454.044281,430.171143 452.267242,429.801575 450.924591,428.929596 
	C432.296936,416.831909 420.515381,399.944122 415.434998,378.358459 
	C412.535675,366.039673 412.562836,366.180420 399.686646,366.236847 
	C395.486023,366.255280 394.274902,367.762207 394.295593,371.822021 
	C394.432220,398.630096 394.358276,425.439178 394.375519,452.247955 
	C394.378876,457.466492 395.351013,458.243317 400.663910,457.492188 
	C414.494934,455.536804 427.518494,451.257812 440.130280,443.616882 
M369.780823,354.707367 
	C372.445129,354.709015 375.126251,354.521515 377.769806,354.756561 
	C381.734436,355.109100 382.977203,353.436676 382.962891,349.573578 
	C382.862213,322.431488 382.872925,295.288574 382.992584,268.146576 
	C383.010956,263.975311 381.260834,262.990570 377.489990,263.493896 
	C358.734619,265.997192 341.905426,272.978485 327.194275,284.917358 
	C325.730591,286.105194 323.696442,287.007782 323.658936,289.800171 
	C325.022064,290.718750 326.511017,291.740479 328.018127,292.734650 
	C336.453796,298.299133 343.609558,305.203918 349.428833,313.451843 
	C356.938049,324.095062 361.764526,335.814941 363.468872,348.797119 
	C363.869537,351.849030 364.083923,355.485168 369.780823,354.707367 
M337.859833,443.604675 
	C349.464691,450.861115 362.129639,455.127960 375.611847,457.236755 
	C382.182800,458.264557 382.874420,457.878510 382.881744,451.244476 
	C382.908386,427.090668 382.899658,402.936829 382.912292,378.783020 
	C382.918854,366.251190 382.918518,366.530212 370.632385,366.180695 
	C365.648682,366.038879 364.029663,367.807617 363.350220,372.432861 
	C359.841064,396.322052 347.867828,414.939301 327.816681,428.393555 
	C326.238037,429.452850 324.086853,430.026276 323.591156,432.557434 
	C327.541351,436.815308 332.374023,440.040680 337.859833,443.604675 
M322.571075,302.933929 
	C321.873444,302.481812 321.184296,302.015839 320.476837,301.579681 
	C313.933990,297.546021 313.881195,297.540009 309.473175,303.652313 
	C299.329254,317.718079 293.768677,333.538757 291.500092,350.625854 
	C291.143494,353.311646 291.924622,354.719910 294.884430,354.712189 
	C312.846313,354.665405 330.808380,354.671295 348.770325,354.701324 
	C351.870880,354.706512 352.704315,353.538269 352.199615,350.372894 
	C349.050323,330.621826 339.304932,315.023712 322.571075,302.933929 
M299.886719,400.659241 
	C302.901672,407.163300 306.656586,413.213196 310.703949,419.130554 
	C313.010040,422.502136 315.086487,422.764343 318.464783,420.696564 
	C337.504395,409.042664 348.595337,392.170929 352.316376,370.250519 
	C352.829895,367.225494 351.759247,366.338135 348.983185,366.342682 
	C331.026917,366.371979 313.070526,366.359680 295.114197,366.338898 
	C291.969360,366.335266 291.133667,367.884033 291.578003,370.821625 
	C293.096649,380.861572 295.287018,390.702972 299.886719,400.659241 
M477.696411,319.765503 
	C474.771362,313.380981 470.952515,307.549164 466.994965,301.761902 
	C464.641174,298.319885 462.538391,298.291595 459.219208,300.330750 
	C440.496094,311.833221 429.564789,328.528717 425.528717,349.967499 
	C424.866608,353.484314 426.160339,354.758667 429.725281,354.737854 
	C447.213043,354.635773 464.702148,354.637390 482.189850,354.746399 
	C485.689545,354.768188 486.259735,353.414337 485.964325,350.189423 
	C485.011993,339.793640 482.159119,329.963287 477.696411,319.765503 
M477.709747,401.240021 
	C482.433197,390.385254 485.982452,379.255157 486.013092,367.316895 
	C485.277771,366.947083 484.841766,366.536774 484.404388,366.535309 
	C465.783813,366.472961 447.163147,366.437683 428.542480,366.427002 
	C425.855408,366.425446 425.106049,368.061096 425.530090,370.429077 
	C429.502045,392.609985 440.704956,409.832214 460.296570,421.395752 
	C463.205200,423.112549 464.873810,422.048920 466.556915,419.798035 
	C470.750916,414.189209 474.446014,408.282715 477.709747,401.240021 
z"/>
<path fill="#000000" opacity="1.000000" stroke="none" 
	d="
M167.151276,271.078918 
	C162.014481,278.129272 156.382416,284.260956 150.016800,289.668579 
	C147.601212,291.720612 146.194122,294.104431 145.387527,297.106262 
	C141.806107,310.434998 138.182632,323.753265 134.439804,337.037415 
	C132.800980,342.854034 132.121887,348.695892 132.145737,354.753723 
	C132.281525,389.241882 132.230011,423.730743 132.241943,458.219391 
	C132.245605,468.802521 131.623032,469.420166 120.850342,469.424377 
	C109.853966,469.428711 98.857559,469.437164 87.861237,469.412262 
	C79.976555,469.394409 78.702835,468.097351 78.700897,460.005188 
	C78.692818,426.182983 78.600899,392.360229 78.787918,358.539032 
	C78.833450,350.306427 78.029938,342.358185 75.691704,334.438812 
	C71.972160,321.841125 68.687653,309.114929 65.228951,296.440399 
	C64.657188,294.345184 64.028038,292.401978 62.210075,290.875763 
	C40.094452,272.309021 27.895452,247.772186 21.312874,220.365677 
	C10.801126,176.600098 14.599581,134.160767 35.484138,93.809143 
	C42.299747,80.640526 51.313469,69.087616 63.014389,59.918541 
	C92.213631,37.037437 127.809135,39.421455 154.760696,65.914482 
	C173.156433,83.997253 183.823181,106.365189 189.672531,131.087189 
	C199.992172,174.702682 196.360703,216.939041 175.721359,257.176514 
	C173.298462,261.900085 170.160019,266.256622 167.151276,271.078918 
M158.788574,263.310059 
	C162.202118,258.564392 165.142914,253.519913 167.618546,248.246155 
	C184.505096,212.273026 187.585510,174.808640 179.118011,136.266312 
	C174.182358,113.800270 165.026352,93.305496 149.120789,76.257980 
	C127.312119,52.883533 96.840683,49.250511 72.143295,67.186844 
	C59.745399,76.190742 50.668118,88.079819 43.976391,101.682922 
	C25.754080,138.725708 22.904652,177.522400 32.113853,217.346207 
	C37.776138,241.831940 48.466274,263.751556 67.664558,280.774323 
	C88.837807,299.548309 116.389946,300.769623 139.124115,284.023743 
	C146.727280,278.423340 152.879059,271.483856 158.788574,263.310059 
M120.675598,433.500031 
	C120.676163,407.359039 120.568817,381.217224 120.777115,355.077881 
	C120.814461,350.391174 119.316635,348.956146 114.779694,349.201599 
	C108.636909,349.533905 102.443436,349.591614 96.308411,349.196777 
	C91.332352,348.876526 90.201393,350.806732 90.227066,355.483490 
	C90.404343,387.784119 90.308304,420.086182 90.338104,452.387756 
	C90.339745,454.165771 89.864052,456.053894 91.311714,458.173462 
	C100.144753,458.173462 109.265305,458.215668 118.384987,458.145203 
	C120.806229,458.126495 120.655518,456.150818 120.660294,454.480316 
	C120.679314,447.820282 120.672523,441.160126 120.675598,433.500031 
M87.997047,335.588867 
	C88.916626,338.136017 91.125977,337.653320 93.053009,337.666351 
	C99.535660,337.710236 106.019241,337.738434 112.501587,337.677826 
	C124.697639,337.563782 121.847763,339.147156 125.278435,327.904572 
	C127.861298,319.440308 129.970779,310.831573 132.488205,301.560883 
	C123.110916,305.261597 114.475334,307.335175 105.367058,307.360657 
	C96.308105,307.385986 87.803658,304.942932 78.701988,301.535431 
	C81.829109,313.140961 84.754608,323.998199 87.997047,335.588867 
z"/>
<path fill="#000000" opacity="1.000000" stroke="none" 
	d="
M264.327026,312.176910 
	C263.019073,336.575470 261.702606,360.496246 260.415192,384.418640 
	C260.021606,391.731903 259.840912,399.059113 259.312073,406.361786 
	C258.947052,411.402557 260.094421,415.346924 263.693970,419.376862 
	C271.964935,428.636810 272.739227,443.451569 266.466766,454.467194 
	C260.464325,465.008606 247.259659,471.749573 236.200287,469.918152 
	C221.914261,467.552460 211.477905,458.528137 209.049286,445.537445 
	C207.086807,435.040070 209.154404,425.248474 216.935196,417.364746 
	C218.998962,415.273651 219.848740,413.135712 219.687576,410.274048 
	C218.415222,387.683838 217.190109,365.090881 215.993500,342.496460 
	C215.192612,327.373840 214.489532,312.246063 213.693756,297.123138 
	C212.461044,273.696991 211.147751,250.275101 209.943192,226.847565 
	C209.114288,210.726196 208.479263,194.594803 207.636108,178.474243 
	C206.480270,156.375656 204.852554,134.294876 204.122604,112.183495 
	C203.690491,99.093445 200.886749,85.948044 203.667755,72.867447 
	C207.585754,54.439018 224.435257,42.964382 241.834900,44.352467 
	C262.090424,45.968391 276.608215,61.286003 276.203247,80.402451 
	C275.822906,98.356911 274.404419,116.288879 273.473907,134.232361 
	C272.741333,148.358475 272.078369,162.488220 271.345154,176.614304 
	C270.060120,201.372360 268.726227,226.127884 267.449554,250.886353 
	C266.704163,265.341919 266.043365,279.801788 265.317505,294.258362 
	C265.025482,300.074036 264.661133,305.886078 264.327026,312.176910 
M223.929642,269.862213 
	C224.426712,281.669189 224.679565,293.492584 225.471573,305.279724 
	C227.133911,330.020172 228.260391,354.784576 229.387299,379.551666 
	C229.787918,388.356354 230.523926,397.145874 231.114655,405.941803 
	C231.616882,413.419647 232.245163,420.406616 225.006027,426.138458 
	C219.006546,430.888763 218.487488,440.644745 222.122757,447.392792 
	C226.266754,455.085144 232.764954,458.562927 241.494507,457.863495 
	C249.098145,457.254272 255.544052,452.096802 258.024811,444.598450 
	C260.455963,437.249939 258.279602,428.823364 251.972672,423.831451 
	C248.544724,421.118286 247.395081,418.082123 247.616959,413.930939 
	C248.469864,397.973846 249.113525,382.005676 249.943207,366.047272 
	C251.135406,343.115875 252.452362,320.191040 253.657455,297.260345 
	C254.461075,281.969482 255.122131,266.671112 255.919342,251.379883 
	C257.140808,227.951309 258.442932,204.526917 259.675537,181.098907 
	C260.471283,165.974152 261.204773,150.846130 261.964478,135.719482 
	C262.890900,117.272598 264.155731,98.834343 264.629669,80.375816 
	C264.986053,66.495399 253.241013,55.312550 239.454666,55.364357 
	C225.698914,55.416050 214.516205,66.702095 214.223587,80.483391 
	C214.046234,88.835655 215.054901,97.106796 215.364014,105.423004 
	C215.932724,120.722824 216.511612,136.027802 217.472488,151.306351 
	C219.436111,182.529373 220.830231,213.779816 222.492645,245.016876 
	C222.916641,252.983963 222.922852,260.987335 223.929642,269.862213 
z"/>
<path fill="#000000" opacity="1.000000" stroke="none" 
	d="
M324.976440,99.826408 
	C348.318054,90.854065 371.288177,81.986374 394.268677,73.145660 
	C397.083527,72.062782 399.606628,70.632042 401.987213,68.707092 
	C416.820251,56.713013 438.652069,57.667816 452.198975,70.764908 
	C465.960876,84.069870 467.920624,105.490585 456.288574,120.775688 
	C450.159576,128.829529 447.975342,138.459381 444.340363,147.487213 
	C436.573975,166.775635 429.318939,186.269867 421.842285,205.675125 
	C419.502899,211.747025 417.743011,212.702499 411.234314,211.537689 
	C359.192322,202.224075 320.935730,163.509918 312.004059,111.201920 
	C311.335968,107.289032 312.650299,104.730888 316.265411,103.272018 
	C319.042419,102.151375 321.826965,101.049484 324.976440,99.826408 
M373.476990,184.978271 
	C379.574463,188.649033 379.609375,188.641968 382.693268,182.567200 
	C388.499268,171.130264 394.299377,159.690384 400.106873,148.254227 
	C402.973053,142.610123 405.750336,136.917465 408.765106,131.353683 
	C410.236328,128.638580 412.575073,127.181328 415.850708,128.421326 
	C419.449097,129.783493 419.763428,132.657669 419.073456,135.823349 
	C418.796509,137.094025 418.063904,138.277267 417.467987,139.464813 
	C409.399841,155.543350 401.300873,171.606476 393.266449,187.701813 
	C392.329132,189.579544 390.861176,191.320618 391.074066,193.888000 
	C396.534393,196.749847 402.582153,197.909180 408.482361,199.483871 
	C410.987122,200.152374 412.014008,198.561050 412.823334,196.477585 
	C421.805054,173.355667 430.806122,150.241119 439.891327,127.159760 
	C440.894928,124.609947 440.476990,122.815575 438.566925,120.921631 
	C426.734802,109.189484 414.965149,97.394165 403.205078,85.589622 
	C401.671051,84.049812 400.266815,83.319626 397.942352,84.219505 
	C374.499481,93.294861 351.010834,102.251907 327.543060,111.262978 
	C326.177277,111.787392 324.234985,112.262451 324.593628,114.119698 
	C325.870575,120.732605 327.099640,127.401367 330.903259,133.783142 
	C338.945496,129.719391 346.645844,125.823273 354.350861,121.936302 
	C365.056946,116.535339 375.725494,111.057434 386.493744,105.783150 
	C391.171082,103.492172 395.877838,105.573822 396.174622,109.814346 
	C396.434723,113.530960 393.602386,114.915443 390.890411,116.301231 
	C374.575531,124.637962 358.249237,132.952484 341.953552,141.326538 
	C340.070129,142.294388 337.867523,142.861984 336.372284,145.208023 
	C339.714203,152.622620 344.349243,159.297073 350.282227,165.398972 
	C351.445892,164.363708 352.216492,163.746933 352.908783,163.052139 
	C366.196533,149.715759 379.475159,136.370300 392.755493,123.026535 
	C393.578156,122.199982 394.362061,121.330399 395.228668,120.552925 
	C397.911469,118.146080 400.984650,117.340317 403.676910,120.074821 
	C406.488892,122.930878 405.871063,126.119934 403.112305,128.888657 
	C391.706421,140.335861 380.276428,151.759125 368.894348,163.229919 
	C365.539520,166.610886 361.948578,169.811340 359.240570,174.056091 
	C363.379913,178.484741 368.213898,181.431839 373.476990,184.978271 
M426.151184,72.669083 
	C420.980408,72.723686 415.957581,73.256714 412.283783,76.422310 
	C424.082611,88.267624 435.730072,99.960976 447.593384,111.871017 
	C450.353821,107.599899 451.899139,102.602974 451.154266,97.201370 
	C449.179657,82.881836 441.340118,75.116486 426.151184,72.669083 
z"/>
<path fill="#000000" opacity="1.000000" stroke="none" 
	d="
M90.301514,104.710487 
	C89.987045,108.220512 91.000290,109.805229 94.434776,109.727112 
	C101.761620,109.560455 109.096916,109.574959 116.424583,109.722366 
	C119.700653,109.788261 120.961533,108.463646 120.781761,105.284271 
	C120.650345,102.959877 120.968880,100.602257 120.745117,98.292557 
	C120.318985,93.894173 122.168526,92.613815 126.492325,92.524147 
	C131.271072,92.425041 132.417648,94.271439 132.366135,98.668175 
	C132.236816,109.705612 132.402115,109.707581 143.410324,109.709091 
	C145.076385,109.709320 146.742447,109.704224 148.408493,109.710106 
	C154.925812,109.733093 156.806427,112.353020 155.159607,118.742523 
	C154.528366,121.191704 152.798950,121.240242 150.947037,121.258316 
	C146.115860,121.305473 141.281754,121.392830 136.453537,121.273132 
	C133.516769,121.200333 132.132858,122.243446 132.264145,125.318169 
	C132.406158,128.644043 132.452560,131.991028 132.244492,135.310226 
	C132.021286,138.870697 133.619476,139.976089 136.968552,139.922775 
	C144.963531,139.795471 152.968796,140.086746 160.956436,139.814270 
	C165.654907,139.653976 166.405319,141.876999 166.422424,145.904419 
	C166.439697,149.970413 165.174973,151.544846 160.981903,151.408646 
	C153.159714,151.154572 145.319229,151.487167 137.494690,151.272400 
	C133.700470,151.168243 131.953247,152.228195 132.219284,156.324448 
	C132.508575,160.778641 132.284927,165.266144 132.284927,170.094772 
	C137.648483,171.103897 142.597992,169.781799 147.521530,170.035873 
	C152.506714,170.293091 157.514282,170.097397 162.511642,170.143387 
	C167.364990,170.188034 166.133545,173.840469 166.312424,176.645432 
	C166.494934,179.507645 165.881348,181.447327 162.301880,181.385269 
	C153.974243,181.240875 145.639526,181.474442 137.313202,181.296570 
	C133.792648,181.221375 132.130737,182.142746 132.228683,186.015747 
	C132.653564,202.818100 129.813828,199.598709 145.621094,199.921921 
	C151.116928,200.034302 156.618073,200.046555 162.113892,199.946091 
	C166.331223,199.868988 166.410004,202.559265 166.346176,205.618103 
	C166.282806,208.654602 166.782166,211.892426 162.157959,211.873322 
	C153.661621,211.838196 145.161591,212.002869 136.670303,211.792725 
	C133.438309,211.712753 132.334625,212.640961 132.226791,215.957626 
	C131.748917,230.654175 131.653397,230.651031 146.265930,230.659500 
	C147.098953,230.659988 147.932007,230.657852 148.765015,230.662308 
	C154.848236,230.694855 157.149307,234.098373 155.104568,239.877441 
	C154.374863,241.939774 152.741104,242.004288 151.074539,242.019562 
	C146.576706,242.060806 142.064346,242.245514 137.583862,241.961426 
	C133.124359,241.678665 131.504486,243.576736 131.903961,247.818848 
	C132.059387,249.469543 131.937653,251.148819 131.904602,252.814331 
	C131.786133,258.783752 131.145325,259.218353 125.162994,259.105591 
	C121.656784,259.039459 120.678391,257.522156 120.599693,254.206482 
	C120.310837,242.035690 120.213799,242.043625 108.041473,242.042099 
	C103.876495,242.041565 99.699196,242.197311 95.549973,241.931427 
	C91.339890,241.661621 89.728874,243.420776 90.190765,247.484131 
	C90.321625,248.635300 90.211044,249.814316 90.205872,250.980530 
	C90.172791,258.434296 89.488022,258.971436 82.246010,258.343750 
	C79.700867,258.123199 78.676758,257.065735 78.715073,254.613663 
	C78.764534,251.449142 78.647285,248.281219 78.733696,245.118347 
	C78.809540,242.342072 77.565308,241.223480 74.824036,241.281693 
	C70.327782,241.377197 65.812294,241.068283 61.333969,241.366364 
	C56.830364,241.666153 55.697243,239.719284 55.605499,235.511139 
	C55.506153,230.954132 57.346729,229.653763 61.523102,229.872528 
	C65.842781,230.098785 70.185585,229.840775 74.514923,229.940338 
	C77.434067,230.007462 78.827888,228.896439 78.711685,225.842819 
	C78.578735,222.349228 78.574142,218.842407 78.713737,215.349319 
	C78.837555,212.250916 77.400742,211.299652 74.486740,211.334106 
	C66.157738,211.432556 57.821526,211.177704 49.498524,211.419266 
	C45.255867,211.542404 44.592113,209.514618 44.605286,205.949112 
	C44.618687,202.322937 45.016510,199.804031 49.608727,199.916733 
	C57.767326,200.116943 65.936424,199.861145 74.097412,200.005783 
	C77.563072,200.067184 78.673737,198.726822 78.760063,195.301498 
	C79.114990,181.217560 79.211647,181.219940 65.093063,181.219299 
	C59.928299,181.219070 54.754929,181.034256 49.601322,181.274002 
	C44.966728,181.489624 44.608364,178.864532 44.611332,175.261017 
	C44.614204,171.775101 45.118587,169.535034 49.441807,169.660355 
	C57.432117,169.891968 65.436798,169.599487 73.429810,169.778854 
	C77.104706,169.861313 78.775719,169.001602 78.792824,164.807968 
	C78.848061,151.266266 79.019104,151.267075 65.546585,151.266724 
	C61.214840,151.266602 56.871601,151.068832 52.554596,151.320786 
	C48.284813,151.569992 46.570362,150.097763 46.690308,145.622345 
	C46.800224,141.521164 47.791325,139.477707 52.371262,139.664780 
	C59.523350,139.956909 66.700981,139.584961 73.858253,139.804871 
	C77.585159,139.919388 78.722031,138.553848 78.770760,134.888992 
	C78.951370,121.303360 79.065475,121.304848 65.606354,121.295563 
	C64.606720,121.294876 63.607067,121.298744 62.607452,121.294189 
	C56.117306,121.264595 54.252075,118.658340 55.858032,112.229713 
	C56.473724,109.765106 58.216206,109.738312 60.064533,109.721382 
	C64.729118,109.678642 69.399887,109.550774 74.057251,109.734436 
	C77.427422,109.867332 79.046974,108.748566 78.819420,105.190033 
	C78.649742,102.536491 78.916946,99.857437 78.812325,97.196716 
	C78.675484,93.716492 80.307068,92.607811 83.662689,92.611038 
	C90.147026,92.617271 90.276031,92.592781 90.303581,99.257210 
	C90.310463,100.922722 90.302666,102.588310 90.301514,104.710487 
M92.718674,211.821793 
	C90.313446,211.932556 90.338326,213.678864 90.332535,215.387573 
	C90.320152,219.039597 90.462074,222.698929 90.274796,226.341599 
	C90.104652,229.651123 91.558472,230.763535 94.700569,230.652039 
	C98.845406,230.504959 103.001289,230.697449 107.149124,230.601486 
	C123.122314,230.232010 120.376587,233.704590 120.713409,216.487045 
	C120.783363,212.910904 119.203880,211.860306 115.935234,211.890945 
	C108.466446,211.960953 100.995956,211.850327 92.718674,211.821793 
M118.780930,181.517868 
	C113.802376,181.466034 108.823868,181.376541 103.845253,181.369461 
	C89.382263,181.348877 89.435677,181.358765 90.267982,195.887497 
	C90.417854,198.503708 91.161545,199.954285 93.987289,199.938416 
	C101.624435,199.895554 109.262024,199.937653 116.899361,199.917206 
	C118.420364,199.913132 120.393478,199.796371 120.412865,197.950348 
	C120.469261,192.580383 121.875481,187.104370 118.780930,181.517868 
M92.141815,169.667526 
	C97.117416,169.750824 102.096161,169.989532 107.068039,169.888855 
	C123.299026,169.560226 120.416237,173.100800 120.670593,155.378845 
	C120.672974,155.212921 120.656685,155.046417 120.664497,154.880905 
	C120.784241,152.344833 119.545448,151.316818 117.047401,151.335114 
	C109.244164,151.392258 101.440247,151.352570 93.636612,151.362869 
	C92.032722,151.364975 90.385521,151.703064 90.457558,153.666122 
	C90.649101,158.885269 89.219162,164.207397 92.141815,169.667526 
M102.520180,139.732620 
	C104.182487,139.734070 105.845688,139.771942 107.506966,139.731308 
	C123.046417,139.351151 120.383186,142.557465 120.714554,125.651939 
	C120.777420,122.444824 119.597336,121.183830 116.345901,121.266365 
	C110.033257,121.426598 103.713600,121.306267 97.396843,121.309486 
	C90.341415,121.313087 90.341408,121.316620 90.325035,128.363495 
	C90.298622,139.732101 90.298630,139.732101 102.520180,139.732620 
z"/>
</svg>