<svg version="1.1" id="Layer_1" xmlns="http://www.w3.org/2000/svg" xmlns:xlink="http://www.w3.org/1999/xlink" x="0px" y="0px"
	 width="100%" viewBox="0 0 512 512" enable-background="new 0 0 512 512" xml:space="preserve">
<path fill="none" opacity="1.000000" stroke="none" 
	d="
M1.000000,196.000000 
	C1.000000,130.666672 1.000000,65.833336 1.000000,1.000000 
	C171.666672,1.000000 342.333344,1.000000 513.000000,1.000000 
	C513.000000,171.666672 513.000000,342.333344 513.000000,513.000000 
	C342.333344,513.000000 171.666672,513.000000 1.000000,513.000000 
	C1.000000,407.500000 1.000000,302.000000 1.000000,196.000000 
M154.500000,489.002777 
	C243.657303,489.002747 332.814606,489.004486 421.971893,489.001221 
	C439.553528,489.000580 448.997101,479.488342 449.000793,461.775024 
	C449.007538,429.111755 449.058533,396.448242 448.912903,363.785614 
	C448.899048,360.676086 449.826538,359.251160 452.530853,357.796295 
	C462.455841,352.456787 467.148010,341.324615 464.025909,330.644928 
	C460.612671,318.969330 452.059174,313.666260 440.372650,312.700165 
	C440.713959,310.859314 440.974640,309.216370 441.325897,307.593018 
	C456.933472,235.461853 472.553558,163.333405 488.157410,91.201431 
	C489.903503,83.129646 488.038025,80.051277 480.147095,78.337440 
	C460.819458,74.139679 441.475037,70.018539 422.126495,65.917931 
	C415.021271,64.412094 411.647919,66.519653 410.165894,73.376167 
	C397.417236,132.356369 384.699982,191.343338 371.958984,250.325180 
	C367.472748,271.093231 362.946655,291.852661 358.356018,312.997223 
	C354.709259,312.997223 351.245728,312.997223 347.782196,312.997223 
	C344.203827,312.997223 340.625488,312.997223 337.002869,312.997223 
	C337.002869,308.097412 337.269440,303.908936 336.916351,299.773376 
	C336.646423,296.611847 337.859619,295.236969 340.548920,293.789429 
	C350.169250,288.611237 354.808777,277.856964 352.273956,267.590820 
	C349.553253,256.571899 340.532043,249.260315 329.260315,249.017212 
	C325.318237,248.932175 321.372742,249.003647 317.065002,249.003647 
	C317.654327,247.127518 318.088898,245.722946 318.536438,244.322510 
	C331.118195,204.952606 343.678406,165.575775 356.304230,126.220009 
	C358.702667,118.743851 359.295471,111.232849 357.363495,103.608208 
	C352.913940,86.048111 338.004669,73.725838 320.480194,73.039413 
	C301.849915,72.309677 286.003754,83.508904 280.116302,101.811295 
	C271.320740,129.154205 262.670380,156.543793 253.935562,183.906281 
	C249.880768,196.608215 245.772568,209.293106 241.688583,221.985733 
	C241.460464,221.930298 241.232361,221.874863 241.004257,221.819427 
	C241.004257,219.991394 241.004288,218.163345 241.004272,216.335312 
	C241.003784,175.172928 241.003754,134.010544 241.002487,92.848160 
	C241.002106,80.323425 237.278900,75.526405 225.226303,72.512924 
	C225.164871,72.358009 225.049896,72.203186 225.049622,72.048164 
	C225.028076,59.550476 225.050232,47.052605 224.988007,34.555145 
	C224.955322,27.989822 222.074097,25.060442 215.591049,25.014643 
	C206.259155,24.948719 196.926422,24.983086 187.594101,25.001585 
	C179.509583,25.017611 177.009018,27.582579 177.000549,35.857082 
	C176.987930,48.170238 176.997284,60.483421 176.997284,72.733932 
	C165.695908,74.744148 161.001526,80.380302 160.999603,91.650787 
	C160.993103,129.813492 160.996201,167.976181 160.995621,206.138885 
	C160.995590,207.766190 160.995621,209.393494 160.995621,211.020798 
	C156.814468,200.281433 153.414948,189.551575 150.067612,178.805466 
	C140.341217,147.580322 130.612991,116.355698 120.943298,85.112976 
	C119.229759,79.576546 116.250328,75.352631 110.751122,72.942490 
	C109.356468,72.331253 108.080261,70.632225 107.485023,69.139740 
	C100.797752,52.372204 84.037590,43.972149 67.481102,49.232628 
	C51.273346,54.382305 42.339409,70.998886 46.404705,88.222641 
	C46.748871,89.680786 46.558228,91.396172 46.166126,92.872566 
	C44.977825,97.346970 43.568295,101.762619 42.244953,106.201164 
	C41.668056,107.509575 39.827724,108.201035 37.958153,108.801422 
	C27.008724,112.317665 22.851669,120.278343 26.289919,131.303696 
	C33.852295,155.553802 41.423882,179.801041 49.030975,204.037140 
	C50.831951,209.775024 55.160252,212.425674 59.862930,210.850266 
	C64.256676,209.378357 65.984245,204.924881 64.238441,199.239883 
	C60.680206,187.652924 57.063446,176.083954 53.465477,164.509201 
	C49.339272,151.235107 45.207298,137.962799 41.031628,124.541199 
	C43.812122,123.750000 46.132137,123.089828 48.663990,122.369385 
	C61.890011,164.742538 74.986244,206.699921 88.194786,249.017075 
	C82.539513,249.017075 77.377312,248.894409 72.222893,249.042435 
	C61.299953,249.356140 52.408604,256.756744 49.710812,267.604126 
	C47.222294,277.610016 51.727516,288.607025 61.060947,293.484680 
	C64.522499,295.293701 65.069893,297.349731 65.063828,300.773865 
	C64.968773,354.434784 64.994423,408.095917 64.998802,461.757019 
	C65.000244,479.431213 74.482979,488.994873 92.006393,489.001038 
	C112.504265,489.008209 133.002136,489.002747 154.500000,489.002777 
z"/>
<path fill="none" stroke="currentColor" stroke-width="32" stroke-linecap="round" stroke-linejoin="round" opacity="1.000000" stroke="none" 
	d="
M154.000000,489.002777 
	C133.002136,489.002747 112.504265,489.008209 92.006393,489.001038 
	C74.482979,488.994873 65.000244,479.431213 64.998802,461.757019 
	C64.994423,408.095917 64.968773,354.434784 65.063828,300.773865 
	C65.069893,297.349731 64.522499,295.293701 61.060947,293.484680 
	C51.727516,288.607025 47.222294,277.610016 49.710812,267.604126 
	C52.408604,256.756744 61.299953,249.356140 72.222893,249.042435 
	C77.377312,248.894409 82.539513,249.017075 88.194786,249.017075 
	C74.986244,206.699921 61.890011,164.742538 48.663990,122.369385 
	C46.132137,123.089828 43.812122,123.750000 41.031628,124.541199 
	C45.207298,137.962799 49.339272,151.235107 53.465477,164.509201 
	C57.063446,176.083954 60.680206,187.652924 64.238441,199.239883 
	C65.984245,204.924881 64.256676,209.378357 59.862930,210.850266 
	C55.160252,212.425674 50.831951,209.775024 49.030975,204.037140 
	C41.423882,179.801041 33.852295,155.553802 26.289919,131.303696 
	C22.851669,120.278343 27.008724,112.317665 37.958153,108.801422 
	C39.827724,108.201035 41.668056,107.509575 42.244953,106.201164 
	C43.568295,101.762619 44.977825,97.346970 46.166126,92.872566 
	C46.558228,91.396172 46.748871,89.680786 46.404705,88.222641 
	C42.339409,70.998886 51.273346,54.382305 67.481102,49.232628 
	C84.037590,43.972149 100.797752,52.372204 107.485023,69.139740 
	C108.080261,70.632225 109.356468,72.331253 110.751122,72.942490 
	C116.250328,75.352631 119.229759,79.576546 120.943298,85.112976 
	C130.612991,116.355698 140.341217,147.580322 150.067612,178.805466 
	C153.414948,189.551575 156.814468,200.281433 160.995621,211.020798 
	C160.995621,209.393494 160.995590,207.766190 160.995621,206.138885 
	C160.996201,167.976181 160.993103,129.813492 160.999603,91.650787 
	C161.001526,80.380302 165.695908,74.744148 176.997284,72.733932 
	C176.997284,60.483421 176.987930,48.170238 177.000549,35.857082 
	C177.009018,27.582579 179.509583,25.017611 187.594101,25.001585 
	C196.926422,24.983086 206.259155,24.948719 215.591049,25.014643 
	C222.074097,25.060442 224.955322,27.989822 224.988007,34.555145 
	C225.050232,47.052605 225.028076,59.550476 225.049622,72.048164 
	C225.049896,72.203186 225.164871,72.358009 225.226303,72.512924 
	C237.278900,75.526405 241.002106,80.323425 241.002487,92.848160 
	C241.003754,134.010544 241.003784,175.172928 241.004272,216.335312 
	C241.004288,218.163345 241.004257,219.991394 241.004257,221.819427 
	C241.232361,221.874863 241.460464,221.930298 241.688583,221.985733 
	C245.772568,209.293106 249.880768,196.608215 253.935562,183.906281 
	C262.670380,156.543793 271.320740,129.154205 280.116302,101.811295 
	C286.003754,83.508904 301.849915,72.309677 320.480194,73.039413 
	C338.004669,73.725838 352.913940,86.048111 357.363495,103.608208 
	C359.295471,111.232849 358.702667,118.743851 356.304230,126.220009 
	C343.678406,165.575775 331.118195,204.952606 318.536438,244.322510 
	C318.088898,245.722946 317.654327,247.127518 317.065002,249.003647 
	C321.372742,249.003647 325.318237,248.932175 329.260315,249.017212 
	C340.532043,249.260315 349.553253,256.571899 352.273956,267.590820 
	C354.808777,277.856964 350.169250,288.611237 340.548920,293.789429 
	C337.859619,295.236969 336.646423,296.611847 336.916351,299.773376 
	C337.269440,303.908936 337.002869,308.097412 337.002869,312.997223 
	C340.625488,312.997223 344.203827,312.997223 347.782196,312.997223 
	C351.245728,312.997223 354.709259,312.997223 358.356018,312.997223 
	C362.946655,291.852661 367.472748,271.093231 371.958984,250.325180 
	C384.699982,191.343338 397.417236,132.356369 410.165894,73.376167 
	C411.647919,66.519653 415.021271,64.412094 422.126495,65.917931 
	C441.475037,70.018539 460.819458,74.139679 480.147095,78.337440 
	C488.038025,80.051277 489.903503,83.129646 488.157410,91.201431 
	C472.553558,163.333405 456.933472,235.461853 441.325897,307.593018 
	C440.974640,309.216370 440.713959,310.859314 440.372650,312.700165 
	C452.059174,313.666260 460.612671,318.969330 464.025909,330.644928 
	C467.148010,341.324615 462.455841,352.456787 452.530853,357.796295 
	C449.826538,359.251160 448.899048,360.676086 448.912903,363.785614 
	C449.058533,396.448242 449.007538,429.111755 449.000793,461.775024 
	C448.997101,479.488342 439.553528,489.000580 421.971893,489.001221 
	C332.814606,489.004486 243.657303,489.002747 154.000000,489.002777 
M81.003738,427.500000 
	C81.003761,438.999329 80.995834,450.498657 81.006439,461.997986 
	C81.014297,470.524414 83.466972,472.992462 91.975983,472.993103 
	C166.805679,472.998596 241.635391,472.997467 316.465088,472.987183 
	C317.903442,472.986969 319.341797,472.850708 320.713959,472.781250 
	C320.713959,414.037079 320.713959,355.634521 320.713959,297.289185 
	C240.696167,297.289185 160.961060,297.289185 81.003738,297.289185 
	C81.003738,340.549530 81.003738,383.524780 81.003738,427.500000 
M457.317474,106.140205 
	C460.830017,106.880424 464.342560,107.620644 468.156219,108.424324 
	C469.283783,102.930931 470.297150,97.993774 471.352264,92.853333 
	C455.424072,89.419151 440.187103,86.134003 424.560516,82.764847 
	C407.942017,159.583145 391.401062,236.043152 374.801544,312.773804 
	C391.355652,312.773804 407.599091,312.773804 423.890198,312.773804 
	C426.197357,302.036224 428.459808,291.506897 430.755554,280.822540 
	C427.255096,279.821411 423.947571,279.264954 420.990906,277.930908 
	C417.327728,276.278076 415.914429,272.723480 417.146332,269.116608 
	C420.355743,259.719788 427.766052,264.000946 434.271881,264.762512 
	C435.370728,259.556763 436.419647,254.587387 437.534058,249.307938 
	C429.541351,247.534378 421.807831,246.274551 414.418213,243.930435 
	C411.841370,243.113007 408.982117,239.890335 408.352325,237.262680 
	C407.839172,235.121628 409.902039,231.592377 411.868530,229.879288 
	C413.358398,228.581436 416.588379,228.634277 418.883118,229.026749 
	C426.182800,230.275269 433.407227,231.963623 441.018768,233.556976 
	C442.168610,228.133163 443.218689,223.180008 444.300812,218.075577 
	C441.353302,217.364670 438.910797,216.892685 436.541199,216.178833 
	C432.079803,214.834808 429.690643,211.244980 430.425934,207.238144 
	C431.237091,202.817825 434.741852,200.250702 439.562561,200.767731 
	C442.294098,201.060684 444.991974,201.667801 447.796509,202.149124 
	C448.953705,196.824173 450.003052,191.995392 451.146301,186.734634 
	C443.567444,185.101776 436.291168,183.577545 429.036255,181.957611 
	C423.015686,180.613266 420.161499,176.111832 422.008972,171.057373 
	C423.515167,166.936584 427.396729,165.201416 432.740356,166.340530 
	C439.970093,167.881744 447.189056,169.473755 454.585785,171.081604 
	C455.748474,165.524994 456.783752,160.577209 457.812408,155.661102 
	C445.952087,152.559906 442.733154,150.217224 444.084839,144.766068 
	C446.685791,134.276688 454.883545,139.193451 461.395294,139.514603 
	C462.499237,134.304794 463.524139,129.468063 464.631348,124.242714 
	C456.623871,122.467232 448.829285,120.891167 441.120148,118.971886 
	C436.579651,117.841476 434.151367,113.578720 435.171661,109.447319 
	C436.200989,105.279419 440.239471,102.727646 444.766388,103.558144 
	C448.688873,104.277756 452.576447,105.187851 457.317474,106.140205 
M432.996338,422.500000 
	C432.996338,402.072144 432.996338,381.644318 432.996338,361.294739 
	C400.684235,361.294739 368.948761,361.294739 337.297241,361.294739 
	C337.297241,398.654846 337.297241,435.723114 337.297241,472.988800 
	C366.566467,472.988800 395.542725,473.033569 424.518585,472.949097 
	C429.980988,472.933167 432.938263,469.688873 432.970764,463.995026 
	C433.047760,450.497101 432.996033,436.998383 432.996338,422.500000 
M224.996048,153.500000 
	C224.996048,132.074783 224.996048,110.649574 224.996048,89.290924 
	C208.690506,89.290924 192.955109,89.290924 177.288132,89.290924 
	C177.288132,123.976547 177.288132,158.374481 177.288132,192.709137 
	C193.309326,192.709137 209.044754,192.709137 224.996048,192.709137 
	C224.996048,179.782166 224.996048,167.141083 224.996048,153.500000 
M115.194756,193.696732 
	C122.080284,191.481796 128.965820,189.266846 135.918701,187.030228 
	C125.471397,153.581100 115.213913,120.739738 104.941544,87.850731 
	C89.277824,92.755692 74.269196,97.455513 59.146381,102.191101 
	C69.552223,135.511826 79.818550,168.385803 90.131599,201.409378 
	C98.581192,198.800980 106.501587,196.355942 115.194756,193.696732 
M295.500000,265.002747 
	C222.055145,265.002777 148.610306,264.998901 75.165459,265.009705 
	C68.768211,265.010651 65.158241,267.832001 65.033257,272.795898 
	C64.903542,277.947540 68.645378,280.989838 75.264435,280.990601 
	C159.201370,281.000458 243.138321,281.001526 327.075256,280.987854 
	C333.336639,280.986847 337.002869,277.944702 336.971344,272.948578 
	C336.939972,267.977692 333.276520,265.029663 326.977081,265.010986 
	C316.818146,264.980896 306.659027,265.002808 295.500000,265.002747 
M107.901787,249.000015 
	C123.522133,249.000015 139.142471,249.000015 155.237427,249.000015 
	C150.324112,233.274841 145.543381,217.973969 140.680511,202.410202 
	C125.260010,207.224472 110.257111,211.908371 94.935707,216.691696 
	C98.098251,226.940613 101.116508,236.901321 104.318321,246.802673 
	C104.617249,247.727066 106.077263,248.275970 107.901787,249.000015 
M212.488861,209.003952 
	C200.729477,209.003952 188.970078,209.003952 177.293976,209.003952 
	C177.293976,222.651672 177.293976,235.719620 177.293976,248.706146 
	C193.319244,248.706146 209.052841,248.706146 224.705002,248.706146 
	C224.705002,235.346313 224.705002,222.278336 224.705002,209.003952 
	C220.772446,209.003952 217.127548,209.003952 212.488861,209.003952 
M349.511078,344.997528 
	C373.629120,344.997528 397.747162,344.998352 421.865204,344.997009 
	C428.185760,344.996643 434.509644,345.113129 440.825836,344.945129 
	C445.590515,344.818390 448.847595,341.541840 448.971985,337.211884 
	C449.101746,332.694794 445.735718,329.331573 440.755890,329.019379 
	C440.092957,328.977814 439.425629,329.003143 438.760315,329.003113 
	C405.993042,329.002533 373.225739,328.999817 340.458466,329.014526 
	C339.359436,329.015015 338.260437,329.192352 337.300171,329.275299 
	C337.300171,334.675873 337.300171,339.741211 337.300171,344.997528 
	C341.236633,344.997528 344.876953,344.997528 349.511078,344.997528 
M266.194977,197.734482 
	C260.810364,214.710449 255.425735,231.686432 249.985260,248.838486 
	C255.900177,248.838486 261.209381,248.838486 266.654175,248.838486 
	C275.705231,220.638000 284.720520,192.548981 293.908844,163.920853 
	C288.726135,162.271973 283.786530,160.700439 278.657440,159.068619 
	C274.500763,172.050995 270.505920,184.527802 266.194977,197.734482 
M301.792114,244.328262 
	C309.276947,220.851410 316.761749,197.374557 324.326599,173.646744 
	C319.029358,171.964188 314.214447,170.434830 309.125061,168.818283 
	C300.513885,195.670593 292.032166,222.119324 283.410278,249.005081 
	C288.215515,249.005081 292.383972,248.749023 296.503754,249.086609 
	C299.762817,249.353653 301.068909,247.971954 301.792114,244.328262 
M341.254822,120.639931 
	C344.214752,110.786148 342.164581,102.070946 334.523590,95.215080 
	C327.239624,88.679573 318.684570,87.181984 309.467285,90.888939 
	C299.394836,94.939804 295.570007,103.352325 293.620758,113.428253 
	C308.856995,118.299240 323.767609,123.066124 338.909851,127.907066 
	C339.706818,125.483955 340.375092,123.452110 341.254822,120.639931 
M298.036652,148.411423 
	C308.384674,151.715317 318.732697,155.019196 329.263763,158.381516 
	C330.985504,153.029739 332.499084,148.325027 334.139587,143.225739 
	C318.875824,138.327805 303.789825,133.486908 288.425842,128.556808 
	C286.742462,133.890732 285.221771,138.709183 283.609833,143.816788 
	C288.461029,145.352341 292.873901,146.749146 298.036652,148.411423 
M208.996048,66.422012 
	C208.996048,58.000244 208.996048,49.578476 208.996048,41.320175 
	C203.297241,41.320175 198.226578,41.320175 193.320007,41.320175 
	C193.320007,52.041096 193.320007,62.443535 193.320007,72.675232 
	C198.710663,72.675232 203.781036,72.675232 208.996048,72.675232 
	C208.996048,70.702957 208.996048,69.050774 208.996048,66.422012 
M78.763153,79.197906 
	C83.305450,77.784958 87.847748,76.372009 92.426582,74.947701 
	C88.550781,65.547737 80.115570,61.579380 71.688560,64.793724 
	C63.603191,67.877754 59.539234,76.238068 62.490925,84.307442 
	C67.654076,82.711670 72.840034,81.108841 78.763153,79.197906 
z"/>
<path fill="none" opacity="1.000000" stroke="none" 
	d="
M81.003738,427.000000 
	C81.003738,383.524780 81.003738,340.549530 81.003738,297.289185 
	C160.961060,297.289185 240.696167,297.289185 320.713959,297.289185 
	C320.713959,355.634521 320.713959,414.037079 320.713959,472.781250 
	C319.341797,472.850708 317.903442,472.986969 316.465088,472.987183 
	C241.635391,472.997467 166.805679,472.998596 91.975983,472.993103 
	C83.466972,472.992462 81.014297,470.524414 81.006439,461.997986 
	C80.995834,450.498657 81.003761,438.999329 81.003738,427.000000 
M234.500000,344.998779 
	C205.031982,344.999023 175.563934,344.971130 146.095978,345.014923 
	C135.873138,345.030121 129.069046,351.687134 129.020096,361.738495 
	C128.943878,377.387817 128.919998,393.038391 129.030884,408.687286 
	C129.096848,417.994995 135.810089,424.931366 145.024948,424.956482 
	C182.317551,425.058228 219.610748,425.054840 256.903412,424.959137 
	C266.138855,424.935425 272.894012,418.045319 272.965607,408.757721 
	C273.087524,392.942444 273.085999,377.124969 272.966797,361.309662 
	C272.895020,351.784821 266.074799,345.142120 256.477051,345.017670 
	C249.485794,344.927032 242.492416,344.999207 234.500000,344.998779 
M193.500000,440.997711 
	C177.521332,440.999969 161.542313,440.944733 145.564178,441.037872 
	C140.453339,441.067657 137.095840,444.343475 137.026871,448.874481 
	C136.957672,453.419647 140.298996,456.703888 145.326172,456.980408 
	C146.653900,457.053406 147.988663,457.001770 149.320190,457.001801 
	C179.613098,457.002411 209.906021,457.003510 240.198929,457.001160 
	C245.857925,457.000702 251.522369,457.135223 257.174194,456.929596 
	C261.576141,456.769440 264.332153,454.186859 264.873291,449.857056 
	C265.393005,445.698669 263.239807,442.786011 259.349762,441.440521 
	C257.836517,440.917114 256.070892,441.016266 254.420029,441.014160 
	C234.446716,440.988892 214.473343,440.997742 193.500000,440.997711 
M244.494110,329.002289 
	C248.821457,328.989166 253.159943,329.164886 257.473022,328.910217 
	C261.858490,328.651276 264.930695,325.218018 264.972992,321.066315 
	C265.015137,316.924927 261.950531,313.569702 257.612335,313.056702 
	C256.790039,312.959473 255.949844,312.999908 255.117920,312.999847 
	C218.999146,312.997559 182.880371,312.997040 146.761597,313.002228 
	C145.764206,313.002380 144.734848,312.919250 143.774979,313.127075 
	C139.730103,314.002808 137.230392,316.508636 137.083588,320.677582 
	C136.927872,325.099121 139.410980,327.854767 143.645828,328.826691 
	C145.234360,329.191254 146.959320,328.996643 148.622116,328.997009 
	C180.246841,329.004120 211.871582,329.002289 244.494110,329.002289 
z"/>
<path fill="none" opacity="1.000000" stroke="none" 
	d="
M456.898438,106.076981 
	C452.576447,105.187851 448.688873,104.277756 444.766388,103.558144 
	C440.239471,102.727646 436.200989,105.279419 435.171661,109.447319 
	C434.151367,113.578720 436.579651,117.841476 441.120148,118.971886 
	C448.829285,120.891167 456.623871,122.467232 464.631348,124.242714 
	C463.524139,129.468063 462.499237,134.304794 461.395294,139.514603 
	C454.883545,139.193451 446.685791,134.276688 444.084839,144.766068 
	C442.733154,150.217224 445.952087,152.559906 457.812408,155.661102 
	C456.783752,160.577209 455.748474,165.524994 454.585785,171.081604 
	C447.189056,169.473755 439.970093,167.881744 432.740356,166.340530 
	C427.396729,165.201416 423.515167,166.936584 422.008972,171.057373 
	C420.161499,176.111832 423.015686,180.613266 429.036255,181.957611 
	C436.291168,183.577545 443.567444,185.101776 451.146301,186.734634 
	C450.003052,191.995392 448.953705,196.824173 447.796509,202.149124 
	C444.991974,201.667801 442.294098,201.060684 439.562561,200.767731 
	C434.741852,200.250702 431.237091,202.817825 430.425934,207.238144 
	C429.690643,211.244980 432.079803,214.834808 436.541199,216.178833 
	C438.910797,216.892685 441.353302,217.364670 444.300812,218.075577 
	C443.218689,223.180008 442.168610,228.133163 441.018768,233.556976 
	C433.407227,231.963623 426.182800,230.275269 418.883118,229.026749 
	C416.588379,228.634277 413.358398,228.581436 411.868530,229.879288 
	C409.902039,231.592377 407.839172,235.121628 408.352325,237.262680 
	C408.982117,239.890335 411.841370,243.113007 414.418213,243.930435 
	C421.807831,246.274551 429.541351,247.534378 437.534058,249.307938 
	C436.419647,254.587387 435.370728,259.556763 434.271881,264.762512 
	C427.766052,264.000946 420.355743,259.719788 417.146332,269.116608 
	C415.914429,272.723480 417.327728,276.278076 420.990906,277.930908 
	C423.947571,279.264954 427.255096,279.821411 430.755554,280.822540 
	C428.459808,291.506897 426.197357,302.036224 423.890198,312.773804 
	C407.599091,312.773804 391.355652,312.773804 374.801544,312.773804 
	C391.401062,236.043152 407.942017,159.583145 424.560516,82.764847 
	C440.187103,86.134003 455.424072,89.419151 471.352264,92.853333 
	C470.297150,97.993774 469.283783,102.930931 468.156219,108.424324 
	C464.342560,107.620644 460.830017,106.880424 456.898438,106.076981 
z"/>
<path fill="none" opacity="1.000000" stroke="none" 
	d="
M432.996338,423.000000 
	C432.996033,436.998383 433.047760,450.497101 432.970764,463.995026 
	C432.938263,469.688873 429.980988,472.933167 424.518585,472.949097 
	C395.542725,473.033569 366.566467,472.988800 337.297241,472.988800 
	C337.297241,435.723114 337.297241,398.654846 337.297241,361.294739 
	C368.948761,361.294739 400.684235,361.294739 432.996338,361.294739 
	C432.996338,381.644318 432.996338,402.072144 432.996338,423.000000 
M360.998291,416.500000 
	C361.000488,424.486115 360.908997,432.473724 361.037811,440.457794 
	C361.123230,445.751923 364.161743,448.882721 369.403778,448.951965 
	C379.717346,449.088135 390.034882,449.077209 400.348938,448.963379 
	C405.888184,448.902283 408.937103,445.808350 408.968689,440.201874 
	C409.055847,424.729309 409.055359,409.255615 408.968689,393.782990 
	C408.937347,388.187256 405.883209,385.099121 400.339203,385.036102 
	C390.191467,384.920654 380.040924,384.931122 369.892792,385.026398 
	C364.034515,385.081360 361.094330,388.107513 361.020477,394.037598 
	C360.931396,401.190704 360.998688,408.345764 360.998291,416.500000 
z"/>
<path fill="none" opacity="1.000000" stroke="none" 
	d="
M224.996048,154.000000 
	C224.996048,167.141083 224.996048,179.782166 224.996048,192.709137 
	C209.044754,192.709137 193.309326,192.709137 177.288132,192.709137 
	C177.288132,158.374481 177.288132,123.976547 177.288132,89.290924 
	C192.955109,89.290924 208.690506,89.290924 224.996048,89.290924 
	C224.996048,110.649574 224.996048,132.074783 224.996048,154.000000 
z"/>
<path fill="none" opacity="1.000000" stroke="none" 
	d="
M114.808372,193.803818 
	C106.501587,196.355942 98.581192,198.800980 90.131599,201.409378 
	C79.818550,168.385803 69.552223,135.511826 59.146381,102.191101 
	C74.269196,97.455513 89.277824,92.755692 104.941544,87.850731 
	C115.213913,120.739738 125.471397,153.581100 135.918701,187.030228 
	C128.965820,189.266846 122.080284,191.481796 114.808372,193.803818 
z"/>
<path fill="none" opacity="1.000000" stroke="none" 
	d="
M296.000000,265.002747 
	C306.659027,265.002808 316.818146,264.980896 326.977081,265.010986 
	C333.276520,265.029663 336.939972,267.977692 336.971344,272.948578 
	C337.002869,277.944702 333.336639,280.986847 327.075256,280.987854 
	C243.138321,281.001526 159.201370,281.000458 75.264435,280.990601 
	C68.645378,280.989838 64.903542,277.947540 65.033257,272.795898 
	C65.158241,267.832001 68.768211,265.010651 75.165459,265.009705 
	C148.610306,264.998901 222.055145,265.002777 296.000000,265.002747 
z"/>
<path fill="none" opacity="1.000000" stroke="none" 
	d="
M107.449982,248.999603 
	C106.077263,248.275970 104.617249,247.727066 104.318321,246.802673 
	C101.116508,236.901321 98.098251,226.940613 94.935707,216.691696 
	C110.257111,211.908371 125.260010,207.224472 140.680511,202.410202 
	C145.543381,217.973969 150.324112,233.274841 155.237427,249.000015 
	C139.142471,249.000015 123.522133,249.000015 107.449982,248.999603 
z"/>
<path fill="none" opacity="1.000000" stroke="none" 
	d="
M212.985764,209.003952 
	C217.127548,209.003952 220.772446,209.003952 224.705002,209.003952 
	C224.705002,222.278336 224.705002,235.346313 224.705002,248.706146 
	C209.052841,248.706146 193.319244,248.706146 177.293976,248.706146 
	C177.293976,235.719620 177.293976,222.651672 177.293976,209.003952 
	C188.970078,209.003952 200.729477,209.003952 212.985764,209.003952 
z"/>
<path fill="none" opacity="1.000000" stroke="none" 
	d="
M349.014160,344.997528 
	C344.876953,344.997528 341.236633,344.997528 337.300171,344.997528 
	C337.300171,339.741211 337.300171,334.675873 337.300171,329.275299 
	C338.260437,329.192352 339.359436,329.015015 340.458466,329.014526 
	C373.225739,328.999817 405.993042,329.002533 438.760315,329.003113 
	C439.425629,329.003143 440.092957,328.977814 440.755890,329.019379 
	C445.735718,329.331573 449.101746,332.694794 448.971985,337.211884 
	C448.847595,341.541840 445.590515,344.818390 440.825836,344.945129 
	C434.509644,345.113129 428.185760,344.996643 421.865204,344.997009 
	C397.747162,344.998352 373.629120,344.997528 349.014160,344.997528 
z"/>
<path fill="none" opacity="1.000000" stroke="none" 
	d="
M266.353027,197.369553 
	C270.505920,184.527802 274.500763,172.050995 278.657440,159.068619 
	C283.786530,160.700439 288.726135,162.271973 293.908844,163.920853 
	C284.720520,192.548981 275.705231,220.638000 266.654175,248.838486 
	C261.209381,248.838486 255.900177,248.838486 249.985260,248.838486 
	C255.425735,231.686432 260.810364,214.710449 266.353027,197.369553 
z"/>
<path fill="none" opacity="1.000000" stroke="none" 
	d="
M301.621094,244.699997 
	C301.068909,247.971954 299.762817,249.353653 296.503754,249.086609 
	C292.383972,248.749023 288.215515,249.005081 283.410278,249.005081 
	C292.032166,222.119324 300.513885,195.670593 309.125061,168.818283 
	C314.214447,170.434830 319.029358,171.964188 324.326599,173.646744 
	C316.761749,197.374557 309.276947,220.851410 301.621094,244.699997 
z"/>
<path fill="none" opacity="1.000000" stroke="none" 
	d="
M341.149109,121.030090 
	C340.375092,123.452110 339.706818,125.483955 338.909851,127.907066 
	C323.767609,123.066124 308.856995,118.299240 293.620758,113.428253 
	C295.570007,103.352325 299.394836,94.939804 309.467285,90.888939 
	C318.684570,87.181984 327.239624,88.679573 334.523590,95.215080 
	C342.164581,102.070946 344.214752,110.786148 341.149109,121.030090 
z"/>
<path fill="none" opacity="1.000000" stroke="none" 
	d="
M297.661713,148.278687 
	C292.873901,146.749146 288.461029,145.352341 283.609833,143.816788 
	C285.221771,138.709183 286.742462,133.890732 288.425842,128.556808 
	C303.789825,133.486908 318.875824,138.327805 334.139587,143.225739 
	C332.499084,148.325027 330.985504,153.029739 329.263763,158.381516 
	C318.732697,155.019196 308.384674,151.715317 297.661713,148.278687 
z"/>
<path fill="none" opacity="1.000000" stroke="none" 
	d="
M208.996048,66.910301 
	C208.996048,69.050774 208.996048,70.702957 208.996048,72.675232 
	C203.781036,72.675232 198.710663,72.675232 193.320007,72.675232 
	C193.320007,62.443535 193.320007,52.041096 193.320007,41.320175 
	C198.226578,41.320175 203.297241,41.320175 208.996048,41.320175 
	C208.996048,49.578476 208.996048,58.000244 208.996048,66.910301 
z"/>
<path fill="none" opacity="1.000000" stroke="none" 
	d="
M78.394577,79.351959 
	C72.840034,81.108841 67.654076,82.711670 62.490925,84.307442 
	C59.539234,76.238068 63.603191,67.877754 71.688560,64.793724 
	C80.115570,61.579380 88.550781,65.547737 92.426582,74.947701 
	C87.847748,76.372009 83.305450,77.784958 78.394577,79.351959 
z"/>
<path fill="none" stroke="currentColor" stroke-width="32" stroke-linecap="round" stroke-linejoin="round" opacity="1.000000" stroke="none" 
	d="
M235.000000,344.998779 
	C242.492416,344.999207 249.485794,344.927032 256.477051,345.017670 
	C266.074799,345.142120 272.895020,351.784821 272.966797,361.309662 
	C273.085999,377.124969 273.087524,392.942444 272.965607,408.757721 
	C272.894012,418.045319 266.138855,424.935425 256.903412,424.959137 
	C219.610748,425.054840 182.317551,425.058228 145.024948,424.956482 
	C135.810089,424.931366 129.096848,417.994995 129.030884,408.687286 
	C128.919998,393.038391 128.943878,377.387817 129.020096,361.738495 
	C129.069046,351.687134 135.873138,345.030121 146.095978,345.014923 
	C175.563934,344.971130 205.031982,344.999023 235.000000,344.998779 
M248.455688,361.001465 
	C214.034271,361.001465 179.612869,361.001465 145.304779,361.001465 
	C145.304779,377.341187 145.304779,393.078949 145.304779,408.695862 
	C182.677307,408.695862 219.745819,408.695862 256.693726,408.695862 
	C256.693726,392.653809 256.693726,376.916107 256.693726,361.001465 
	C254.071518,361.001465 251.755356,361.001465 248.455688,361.001465 
z"/>
<path fill="none" stroke="currentColor" stroke-width="32" stroke-linecap="round" stroke-linejoin="round" opacity="1.000000" stroke="none" 
	d="
M194.000000,440.997711 
	C214.473343,440.997742 234.446716,440.988892 254.420029,441.014160 
	C256.070892,441.016266 257.836517,440.917114 259.349762,441.440521 
	C263.239807,442.786011 265.393005,445.698669 264.873291,449.857056 
	C264.332153,454.186859 261.576141,456.769440 257.174194,456.929596 
	C251.522369,457.135223 245.857925,457.000702 240.198929,457.001160 
	C209.906021,457.003510 179.613098,457.002411 149.320190,457.001801 
	C147.988663,457.001770 146.653900,457.053406 145.326172,456.980408 
	C140.298996,456.703888 136.957672,453.419647 137.026871,448.874481 
	C137.095840,444.343475 140.453339,441.067657 145.564178,441.037872 
	C161.542313,440.944733 177.521332,440.999969 194.000000,440.997711 
z"/>
<path fill="none" stroke="currentColor" stroke-width="32" stroke-linecap="round" stroke-linejoin="round" opacity="1.000000" stroke="none" 
	d="
M243.995209,329.002289 
	C211.871582,329.002289 180.246841,329.004120 148.622116,328.997009 
	C146.959320,328.996643 145.234360,329.191254 143.645828,328.826691 
	C139.410980,327.854767 136.927872,325.099121 137.083588,320.677582 
	C137.230392,316.508636 139.730103,314.002808 143.774979,313.127075 
	C144.734848,312.919250 145.764206,313.002380 146.761597,313.002228 
	C182.880371,312.997040 218.999146,312.997559 255.117920,312.999847 
	C255.949844,312.999908 256.790039,312.959473 257.612335,313.056702 
	C261.950531,313.569702 265.015137,316.924927 264.972992,321.066315 
	C264.930695,325.218018 261.858490,328.651276 257.473022,328.910217 
	C253.159943,329.164886 248.821457,328.989166 243.995209,329.002289 
z"/>
<path fill="none" stroke="currentColor" stroke-width="32" stroke-linecap="round" stroke-linejoin="round" opacity="1.000000" stroke="none" 
	d="
M360.998291,416.000000 
	C360.998688,408.345764 360.931396,401.190704 361.020477,394.037598 
	C361.094330,388.107513 364.034515,385.081360 369.892792,385.026398 
	C380.040924,384.931122 390.191467,384.920654 400.339203,385.036102 
	C405.883209,385.099121 408.937347,388.187256 408.968689,393.782990 
	C409.055359,409.255615 409.055847,424.729309 408.968689,440.201874 
	C408.937103,445.808350 405.888184,448.902283 400.348938,448.963379 
	C390.034882,449.077209 379.717346,449.088135 369.403778,448.951965 
	C364.161743,448.882721 361.123230,445.751923 361.037811,440.457794 
	C360.908997,432.473724 361.000488,424.486115 360.998291,416.000000 
M387.421204,401.001984 
	C383.994446,401.001984 380.567688,401.001984 377.318970,401.001984 
	C377.318970,412.040985 377.318970,422.445496 377.318970,432.677002 
	C382.712433,432.677002 387.784729,432.677002 392.852417,432.677002 
	C392.852417,422.071564 392.852417,411.787842 392.852417,401.001984 
	C391.274078,401.001984 389.833832,401.001984 387.421204,401.001984 
z"/>
<path fill="none" opacity="1.000000" stroke="none" 
	d="
M248.947449,361.001465 
	C251.755356,361.001465 254.071518,361.001465 256.693726,361.001465 
	C256.693726,376.916107 256.693726,392.653809 256.693726,408.695862 
	C219.745819,408.695862 182.677307,408.695862 145.304779,408.695862 
	C145.304779,393.078949 145.304779,377.341187 145.304779,361.001465 
	C179.612869,361.001465 214.034271,361.001465 248.947449,361.001465 
z"/>
<path fill="none" opacity="1.000000" stroke="none" 
	d="
M387.907410,401.001984 
	C389.833832,401.001984 391.274078,401.001984 392.852417,401.001984 
	C392.852417,411.787842 392.852417,422.071564 392.852417,432.677002 
	C387.784729,432.677002 382.712433,432.677002 377.318970,432.677002 
	C377.318970,422.445496 377.318970,412.040985 377.318970,401.001984 
	C380.567688,401.001984 383.994446,401.001984 387.907410,401.001984 
z"/>
</svg>