<svg version="1.1" id="Layer_1" xmlns="http://www.w3.org/2000/svg" xmlns:xlink="http://www.w3.org/1999/xlink" x="0px" y="0px"
	 width="100%" viewBox="0 0 100 100" enable-background="new 0 0 100 100" xml:space="preserve">
<path fill="#FEFEFE" opacity="1.000000" stroke="none" 
	d="
M55.000000,101.000000 
	C36.666668,101.000000 18.833340,101.000000 1.000007,101.000000 
	C1.000005,67.666679 1.000005,34.333351 1.000002,1.000021 
	C34.333317,1.000014 67.666634,1.000014 100.999969,1.000007 
	C100.999977,34.333313 100.999977,67.666626 100.999985,100.999969 
	C85.833336,101.000000 70.666664,101.000000 55.000000,101.000000 
M14.993610,48.501076 
	C14.993454,59.315662 14.971224,70.130310 15.000207,80.944824 
	C15.022926,89.422112 18.639051,92.958206 27.231556,93.005737 
	C27.730675,93.008499 28.229824,93.006065 28.728958,93.006226 
	C40.260181,93.009842 43.006569,90.217155 43.006359,78.489502 
	C43.006107,64.680099 42.864632,50.868404 43.087368,37.062592 
	C43.160072,32.556026 42.253986,28.673563 39.754097,24.914349 
	C36.224770,19.607107 33.046036,14.066721 29.108578,7.630834 
	C26.947870,10.959903 25.618561,13.370514 23.949541,15.516977 
	C16.593777,24.976940 13.310875,35.532879 14.993610,48.501076 
M51.000351,68.500000 
	C51.000351,76.597679 51.000351,84.695358 51.000351,92.710022 
	C63.314980,92.710022 75.052345,92.710022 86.712265,92.710022 
	C86.712265,64.685730 86.712265,36.951954 86.712265,9.290162 
	C74.685013,9.290162 62.947632,9.290162 51.000351,9.290162 
	C51.000351,28.885983 51.000351,48.192989 51.000351,68.500000 
z"/>
<path fill="#040404" opacity="1.000000" stroke="currentColor" stroke-width="3.000000"
	d="
M14.993610,48.001507 
	C13.310875,35.532879 16.593777,24.976940 23.949541,15.516977 
	C25.618561,13.370514 26.947870,10.959903 29.108578,7.630834 
	C33.046036,14.066721 36.224770,19.607107 39.754097,24.914349 
	C42.253986,28.673563 43.160072,32.556026 43.087368,37.062592 
	C42.864632,50.868404 43.006107,64.680099 43.006359,78.489502 
	C43.006569,90.217155 40.260181,93.009842 28.728958,93.006226 
	C28.229824,93.006065 27.730675,93.008499 27.231556,93.005737 
	C18.639051,92.958206 15.022926,89.422112 15.000207,80.944824 
	C14.971224,70.130310 14.993454,59.315662 14.993610,48.001507 
M22.992712,52.500446 
	C22.992712,46.076477 22.992712,39.652504 22.992712,33.234642 
	C21.453575,33.234642 20.384256,33.234642 19.169241,33.234642 
	C19.169241,47.823799 19.169241,62.190411 19.169241,76.951324 
	C20.517673,76.869934 21.680801,76.799728 22.992712,76.720535 
	C22.992712,68.726967 22.992712,61.113571 22.992712,52.500446 
M27.007288,60.498180 
	C27.007288,65.926620 27.007288,71.355064 27.007288,76.757828 
	C28.555630,76.757828 29.624962,76.757828 30.826389,76.757828 
	C30.826389,62.161858 30.826389,47.795437 30.826389,33.046459 
	C29.471039,33.133671 28.308119,33.208500 27.007288,33.292202 
	C27.007288,42.281075 27.007288,50.889843 27.007288,60.498180 
M38.992714,43.526127 
	C38.992714,40.085274 38.992714,36.644424 38.992714,33.243698 
	C37.440788,33.243698 36.371132,33.243698 35.176250,33.243698 
	C35.176250,47.843010 35.176250,62.210331 35.176250,76.954109 
	C36.533817,76.863571 37.697388,76.785973 38.992714,76.699585 
	C38.992714,65.719604 38.992714,55.120113 38.992714,43.526127 
M23.319841,88.780052 
	C26.120754,88.853127 28.923365,89.025696 31.722218,88.977959 
	C37.083138,88.886520 38.788681,86.978455 38.772354,81.218094 
	C32.233208,81.218094 25.695461,81.218094 17.496033,81.218094 
	C19.618912,84.229446 21.089506,86.315521 23.319841,88.780052 
M35.199997,25.163542 
	C30.821068,20.606325 23.890133,22.320629 21.226179,28.749413 
	C26.442825,28.749413 31.597263,28.749413 37.152504,28.749413 
	C36.537640,27.540398 36.106319,26.692286 35.199997,25.163542 
z"/>
<path fill="#000000" opacity="1.000000" stroke="currentColor" stroke-width="3.000000"
	d="
M51.000351,68.000000 
	C51.000351,48.192989 51.000351,28.885983 51.000351,9.290162 
	C62.947632,9.290162 74.685013,9.290162 86.712265,9.290162 
	C86.712265,36.951954 86.712265,64.685730 86.712265,92.710022 
	C75.052345,92.710022 63.314980,92.710022 51.000351,92.710022 
	C51.000351,84.695358 51.000351,76.597679 51.000351,68.000000 
M55.000347,35.500050 
	C55.000347,53.247940 55.000347,70.995827 55.000347,88.754166 
	C64.610863,88.754166 73.688271,88.754166 82.754181,88.754166 
	C82.754181,86.761131 82.754181,85.017624 82.754181,82.906311 
	C80.093094,82.906311 77.665413,82.906311 75.227783,82.906311 
	C75.227783,81.447517 75.227783,80.377205 75.227783,78.923576 
	C77.858368,78.923576 80.279854,78.923576 82.771126,78.923576 
	C82.771126,76.129700 82.771126,73.724693 82.771126,70.947311 
	C78.126999,70.947311 73.695419,70.947311 68.948662,70.947311 
	C69.126198,69.358765 69.257416,68.184708 69.410088,66.818649 
	C74.093369,66.818649 78.378159,66.818649 82.793686,66.818649 
	C82.793686,64.167908 82.793686,61.760727 82.793686,58.980370 
	C80.173744,58.980370 77.751701,58.980370 74.990791,58.980370 
	C75.138062,57.389305 75.247040,56.211929 75.373344,54.847294 
	C78.042282,54.847294 80.328476,54.847294 82.803612,54.847294 
	C82.803612,52.217373 82.803612,49.810814 82.803612,47.019024 
	C78.220642,47.019024 73.793816,47.019024 69.013145,47.019024 
	C69.137939,45.436005 69.230247,44.265141 69.351837,42.722816 
	C74.125389,42.722816 78.535782,42.722816 82.660233,42.722816 
	C82.660233,39.889290 82.660233,37.476620 82.660233,34.877911 
	C80.021416,34.877911 77.722816,34.877911 75.034058,34.877911 
	C75.128471,33.472229 75.207550,32.294796 75.284225,31.153194 
	C78.077599,31.014380 80.490730,30.894461 82.670609,30.786135 
	C82.670609,27.930195 82.670609,25.529707 82.670609,22.925352 
	C78.052032,22.925352 73.758492,22.925352 69.039726,22.925352 
	C69.110870,21.513996 69.169846,20.343922 69.247467,18.804056 
	C74.038124,18.804056 78.460938,18.804056 83.059364,18.804056 
	C82.954224,16.663782 82.868736,14.923534 82.788673,13.293843 
	C73.329857,13.293843 64.264175,13.293843 55.000347,13.293843 
	C55.000347,20.557419 55.000347,27.528770 55.000347,35.500050 
z"/>
<path fill="#FFFFFF" opacity="1.000000" stroke="currentColor" stroke-width="3.000000"
	d="
M22.992712,53.000309 
	C22.992712,61.113571 22.992712,68.726967 22.992712,76.720535 
	C21.680801,76.799728 20.517673,76.869934 19.169241,76.951324 
	C19.169241,62.190411 19.169241,47.823799 19.169241,33.234642 
	C20.384256,33.234642 21.453575,33.234642 22.992712,33.234642 
	C22.992712,39.652504 22.992712,46.076477 22.992712,53.000309 
z"/>
<path fill="#FFFFFF" opacity="1.000000" stroke="currentColor" stroke-width="3.000000"
	d="
M27.007288,59.998398 
	C27.007288,50.889843 27.007288,42.281075 27.007288,33.292202 
	C28.308119,33.208500 29.471039,33.133671 30.826389,33.046459 
	C30.826389,47.795437 30.826389,62.161858 30.826389,76.757828 
	C29.624962,76.757828 28.555630,76.757828 27.007288,76.757828 
	C27.007288,71.355064 27.007288,65.926620 27.007288,59.998398 
z"/>
<path fill="#FFFFFF" opacity="1.000000" stroke="currentColor" stroke-width="3.000000"
	d="
M38.992714,44.023376 
	C38.992714,55.120113 38.992714,65.719604 38.992714,76.699585 
	C37.697388,76.785973 36.533817,76.863571 35.176250,76.954109 
	C35.176250,62.210331 35.176250,47.843010 35.176250,33.243698 
	C36.371132,33.243698 37.440788,33.243698 38.992714,33.243698 
	C38.992714,36.644424 38.992714,40.085274 38.992714,44.023376 
z"/>
<path fill="#FBFBFB" opacity="1.000000" stroke="currentColor" stroke-width="3.000000"
	d="
M22.939972,88.590820 
	C21.089506,86.315521 19.618912,84.229446 17.496033,81.218094 
	C25.695461,81.218094 32.233208,81.218094 38.772354,81.218094 
	C38.788681,86.978455 37.083138,88.886520 31.722218,88.977959 
	C28.923365,89.025696 26.120754,88.853127 22.939972,88.590820 
z"/>
<path fill="#FAFAFA" opacity="1.000000" stroke="currentColor" stroke-width="3.000000"
	d="
M35.437496,25.503857 
	C36.106319,26.692286 36.537640,27.540398 37.152504,28.749413 
	C31.597263,28.749413 26.442825,28.749413 21.226179,28.749413 
	C23.890133,22.320629 30.821068,20.606325 35.437496,25.503857 
z"/>
<path fill="#FFFFFF" opacity="1.000000" stroke="currentColor" stroke-width="3.000000"
	d="
M55.000347,35.000084 
	C55.000347,27.528770 55.000347,20.557419 55.000347,13.293843 
	C64.264175,13.293843 73.329857,13.293843 82.788673,13.293843 
	C82.868736,14.923534 82.954224,16.663782 83.059364,18.804056 
	C78.460938,18.804056 74.038124,18.804056 69.247467,18.804056 
	C69.169846,20.343922 69.110870,21.513996 69.039726,22.925352 
	C73.758492,22.925352 78.052032,22.925352 82.670609,22.925352 
	C82.670609,25.529707 82.670609,27.930195 82.670609,30.786135 
	C80.490730,30.894461 78.077599,31.014380 75.284225,31.153194 
	C75.207550,32.294796 75.128471,33.472229 75.034058,34.877911 
	C77.722816,34.877911 80.021416,34.877911 82.660233,34.877911 
	C82.660233,37.476620 82.660233,39.889290 82.660233,42.722816 
	C78.535782,42.722816 74.125389,42.722816 69.351837,42.722816 
	C69.230247,44.265141 69.137939,45.436005 69.013145,47.019024 
	C73.793816,47.019024 78.220642,47.019024 82.803612,47.019024 
	C82.803612,49.810814 82.803612,52.217373 82.803612,54.847294 
	C80.328476,54.847294 78.042282,54.847294 75.373344,54.847294 
	C75.247040,56.211929 75.138062,57.389305 74.990791,58.980370 
	C77.751701,58.980370 80.173744,58.980370 82.793686,58.980370 
	C82.793686,61.760727 82.793686,64.167908 82.793686,66.818649 
	C78.378159,66.818649 74.093369,66.818649 69.410088,66.818649 
	C69.257416,68.184708 69.126198,69.358765 68.948662,70.947311 
	C73.695419,70.947311 78.126999,70.947311 82.771126,70.947311 
	C82.771126,73.724693 82.771126,76.129700 82.771126,78.923576 
	C80.279854,78.923576 77.858368,78.923576 75.227783,78.923576 
	C75.227783,80.377205 75.227783,81.447517 75.227783,82.906311 
	C77.665413,82.906311 80.093094,82.906311 82.754181,82.906311 
	C82.754181,85.017624 82.754181,86.761131 82.754181,88.754166 
	C73.688271,88.754166 64.610863,88.754166 55.000347,88.754166 
	C55.000347,70.995827 55.000347,53.247940 55.000347,35.000084 
z"/>
</svg>