<svg version="1.1" id="Layer_1" xmlns="http://www.w3.org/2000/svg" xmlns:xlink="http://www.w3.org/1999/xlink" x="0px" y="0px"
	 width="100%" viewBox="0 0 512 512" enable-background="new 0 0 512 512" xml:space="preserve">
<path fill="#FEFEFE" opacity="1.000000" stroke="none" 
	d="
M513.000000,128.000000 
	C513.000000,245.687561 513.000000,363.375122 512.645142,481.414703 
	C511.006500,478.545715 509.947235,475.212860 508.406006,472.120148 
	C473.515015,402.105988 438.572784,332.117310 403.636414,262.125732 
	C391.104584,237.019470 378.613159,211.892853 366.005157,186.824890 
	C359.443695,173.779037 345.749115,168.415756 332.855377,173.613190 
	C322.379730,177.835876 316.821106,186.881104 316.819885,199.846329 
	C316.811218,293.150299 317.005920,386.455078 316.625244,479.757477 
	C316.562256,495.196411 320.586060,506.793549 335.865540,512.532715 
	C335.956085,512.566711 335.957153,512.838989 336.000000,513.000000 
	C314.312439,513.000000 292.624878,513.000000 270.576904,512.631165 
	C273.431396,511.042023 277.003357,510.358154 279.794067,508.500549 
	C288.099915,502.971924 291.144409,494.828003 291.138672,484.942749 
	C291.050537,333.065735 291.077362,181.188629 291.075867,29.311556 
	C291.075836,27.979464 291.105927,26.644537 291.033539,25.315748 
	C290.611389,17.566029 287.474243,11.052025 281.193695,6.553103 
	C277.851471,4.158990 273.755676,2.816931 270.000000,1.000002 
	C350.876801,1.000000 431.753571,1.000000 513.000000,1.000000 
	C513.000000,15.685493 513.000000,30.374088 512.648254,45.387527 
	C508.870605,29.077415 495.413727,18.088505 478.019501,18.056654 
	C436.357117,17.980360 394.694458,18.008278 353.031982,18.037762 
	C331.146179,18.053249 316.883820,32.340752 316.820251,54.337437 
	C316.758575,75.668457 316.775391,96.999886 316.823669,118.330986 
	C316.873474,140.339539 331.056885,154.560684 353.048981,154.671616 
	C364.714172,154.730453 376.379913,154.674026 388.045410,154.674026 
	C417.542480,154.674042 447.039642,154.726471 476.536560,154.659256 
	C494.064880,154.619324 505.615265,146.486313 511.539734,130.338409 
	C511.849518,129.494019 512.505249,128.776550 513.000000,128.000000 
z"/>
<path fill="#FDFDFD" opacity="1.000000" stroke="none" 
	d="
M1.000000,346.000000 
	C1.000000,231.091202 1.000000,116.182411 1.000000,1.000000 
	C69.687317,1.000000 138.375000,1.000000 207.417938,1.340278 
	C194.802979,6.768481 188.844757,14.695108 188.842422,27.413086 
	C188.814163,180.541595 188.816956,333.670105 188.839691,486.798615 
	C188.841446,498.536163 194.468445,506.635498 205.210617,511.271210 
	C206.204071,511.699951 207.073166,512.416870 208.000000,513.000000 
	C180.979111,513.000000 153.958206,513.000000 126.575546,512.621460 
	C142.372009,510.160828 154.268448,496.125702 154.612854,478.262085 
	C154.863297,465.271820 154.669617,452.273041 154.672684,439.278046 
	C154.674240,432.654083 154.672958,426.030121 154.672958,419.509247 
	C166.994720,417.023560 171.732391,411.213104 171.749725,398.976654 
	C171.769547,384.982025 171.753174,370.987366 171.755905,356.992706 
	C171.758926,341.512695 169.153076,337.823944 154.672104,333.068176 
	C154.672104,331.320190 154.672256,329.498047 154.672089,327.675903 
	C154.666779,268.698486 154.710968,209.720947 154.546951,150.743988 
	C154.535782,146.724915 153.557755,142.462540 152.009659,138.737076 
	C145.896729,124.026459 139.385315,109.481239 133.006104,94.881500 
	C122.971397,71.915627 112.894516,48.968121 102.899330,25.985073 
	C99.708176,18.647289 94.711021,13.880399 86.301666,13.897927 
	C78.146996,13.914925 73.119240,18.416227 69.979614,25.601137 
	C53.362167,63.629593 36.651569,101.617554 20.157814,139.699478 
	C18.755117,142.938110 18.124546,146.762421 18.117157,150.316681 
	C17.993860,209.627060 18.027308,268.937775 18.025833,328.248413 
	C18.025787,330.050995 18.025826,331.853577 18.025826,333.582886 
	C9.252379,334.967651 7.281746,336.434998 1.000000,346.000000 
z"/>
<path fill="#030303" opacity="1.000000" stroke="none" 
	d="
M1.000000,346.468658 
	C7.281746,336.434998 9.252379,334.967651 18.025826,333.582886 
	C18.025826,331.853577 18.025787,330.050995 18.025833,328.248413 
	C18.027308,268.937775 17.993860,209.627060 18.117157,150.316681 
	C18.124546,146.762421 18.755117,142.938110 20.157814,139.699478 
	C36.651569,101.617554 53.362167,63.629593 69.979614,25.601137 
	C73.119240,18.416227 78.146996,13.914925 86.301666,13.897927 
	C94.711021,13.880399 99.708176,18.647289 102.899330,25.985073 
	C112.894516,48.968121 122.971397,71.915627 133.006104,94.881500 
	C139.385315,109.481239 145.896729,124.026459 152.009659,138.737076 
	C153.557755,142.462540 154.535782,146.724915 154.546951,150.743988 
	C154.710968,209.720947 154.666779,268.698486 154.672089,327.675903 
	C154.672256,329.498047 154.672104,331.320190 154.672104,333.068176 
	C169.153076,337.823944 171.758926,341.512695 171.755905,356.992706 
	C171.753174,370.987366 171.769547,384.982025 171.749725,398.976654 
	C171.732391,411.213104 166.994720,417.023560 154.672958,419.509247 
	C154.672958,426.030121 154.674240,432.654083 154.672684,439.278046 
	C154.669617,452.273041 154.863297,465.271820 154.612854,478.262085 
	C154.268448,496.125702 142.372009,510.160828 126.106888,512.621460 
	C99.312439,513.000000 72.624878,513.000000 45.339756,512.653625 
	C29.914425,508.021088 20.699036,498.489899 18.402494,483.095154 
	C17.599556,477.712708 18.054562,472.133453 18.042934,466.643860 
	C18.009504,450.857269 18.031141,435.070496 18.031141,419.111359 
	C9.246956,419.032532 4.775320,413.487427 1.000000,407.000000 
	C1.000000,386.979095 1.000000,366.958221 1.000000,346.468658 
M69.183517,269.503784 
	C69.183517,290.905914 69.183517,312.308014 69.183517,333.644470 
	C80.934113,333.644470 91.882545,333.644470 102.972771,333.644470 
	C103.100563,332.808380 103.280762,332.179138 103.280952,331.549866 
	C103.296242,280.236938 103.304146,228.924026 103.259666,177.611130 
	C103.258606,176.388031 103.028473,174.838562 102.280525,173.995560 
	C97.361275,168.451141 92.270317,163.059082 86.744270,157.086548 
	C81.314507,162.765137 77.151482,167.553970 72.501694,171.811157 
	C69.904633,174.188950 69.038124,176.562454 69.104637,179.984482 
	C69.318283,190.975983 69.458679,201.985474 69.004372,212.962265 
	C68.883942,215.872070 67.263893,219.646790 65.046486,221.360107 
	C59.527325,225.624557 52.288712,221.045349 52.171185,213.423584 
	C51.996529,202.097427 52.133629,190.766602 52.109558,179.437820 
	C52.106750,178.116837 52.443989,176.132812 51.740955,175.581284 
	C46.501129,171.470673 41.038635,167.643875 35.395210,163.546005 
	C35.395210,220.774185 35.395210,277.172089 35.395210,333.552979 
	C41.123684,333.552979 46.527039,333.552979 52.122780,333.552979 
	C52.122780,309.082062 52.121586,284.933441 52.125664,260.784790 
	C52.125916,259.286011 52.019447,257.767365 52.217251,256.292114 
	C52.858879,251.506821 56.510735,248.370651 61.080395,248.541702 
	C65.636131,248.712234 68.923050,252.059509 69.126770,257.012726 
	C69.284119,260.838318 69.174477,264.674866 69.183517,269.503784 
M31.508373,402.030609 
	C72.409126,402.030609 113.309883,402.030609 154.425339,402.030609 
	C154.425339,384.846313 154.425339,368.116638 154.425339,351.257690 
	C108.876457,351.257690 63.562515,351.257690 18.043047,351.257690 
	C18.043047,359.892761 18.043047,368.196808 18.043047,376.500854 
	C18.043047,384.926819 18.043047,393.352783 18.043047,402.030609 
	C22.568157,402.030609 26.539940,402.030609 31.508373,402.030609 
M35.076824,460.499817 
	C35.074749,465.828552 35.056904,471.157379 35.073750,476.486053 
	C35.113853,489.169617 41.851955,495.951019 54.460644,495.960022 
	C75.609085,495.975128 96.757545,495.972565 117.905991,495.958527 
	C130.863617,495.949951 137.519501,489.310760 137.551987,476.268188 
	C137.595520,458.783386 137.566422,441.298340 137.550827,423.813416 
	C137.549515,422.352142 137.414047,420.890991 137.336975,419.351166 
	C103.151054,419.351166 69.278259,419.351166 35.076824,419.351166 
	C35.076824,432.918610 35.076824,446.209290 35.076824,460.499817 
M53.802807,105.301987 
	C48.275375,117.898918 42.747948,130.495850 37.146351,143.261826 
	C44.943638,149.096542 52.466755,154.726089 60.044727,160.396683 
	C64.560562,155.842865 68.647270,151.687943 72.771126,147.570221 
	C81.541489,138.812912 91.078018,138.715988 99.811089,147.474716 
	C104.113304,151.789581 108.130943,156.388184 112.255478,160.834808 
	C118.990761,155.750671 124.464478,151.078506 130.478775,147.257080 
	C134.952896,144.414276 135.168564,141.907227 133.056854,137.274384 
	C124.108093,117.641838 115.623322,97.797783 106.902473,77.879082 
	C93.923119,77.879082 81.103897,77.793892 68.289719,78.009003 
	C66.988091,78.030846 65.136383,79.588982 64.526688,80.894882 
	C60.875221,88.715919 57.512825,96.671906 53.802807,105.301987 
M120.397614,186.543259 
	C120.397614,235.594864 120.397614,284.646454 120.397614,333.691193 
	C126.488564,333.691193 131.772079,333.691193 137.226395,333.691193 
	C137.226395,277.005127 137.226395,220.528961 137.226395,163.386551 
	C133.748779,165.981689 131.063049,168.609238 127.868378,170.239319 
	C121.344566,173.568039 119.054489,178.585648 120.397614,186.543259 
M85.511078,60.842960 
	C89.930305,60.842960 94.349533,60.842960 99.475342,60.842960 
	C95.012512,50.665005 90.847420,41.166077 86.327354,30.857597 
	C83.873207,36.473095 81.820518,41.173519 79.764862,45.872646 
	C77.669029,50.663605 75.570274,55.453285 73.210297,60.843025 
	C77.605164,60.843025 81.065636,60.843025 85.511078,60.842960 
z"/>
<path fill="#030303" opacity="1.000000" stroke="none" 
	d="
M208.468658,513.000000 
	C207.073166,512.416870 206.204071,511.699951 205.210617,511.271210 
	C194.468445,506.635498 188.841446,498.536163 188.839691,486.798615 
	C188.816956,333.670105 188.814163,180.541595 188.842422,27.413086 
	C188.844757,14.695108 194.802979,6.768481 207.886597,1.340278 
	C228.354233,1.000000 248.708450,1.000000 269.531342,1.000002 
	C273.755676,2.816931 277.851471,4.158990 281.193695,6.553103 
	C287.474243,11.052025 290.611389,17.566029 291.033539,25.315748 
	C291.105927,26.644537 291.075836,27.979464 291.075867,29.311556 
	C291.077362,181.188629 291.050537,333.065735 291.138672,484.942749 
	C291.144409,494.828003 288.099915,502.971924 279.794067,508.500549 
	C277.003357,510.358154 273.431396,511.042023 270.108246,512.631165 
	C249.645767,513.000000 229.291550,513.000000 208.468658,513.000000 
M274.032745,420.500549 
	C274.032745,414.407196 274.032745,408.313843 274.032745,402.023804 
	C265.094879,402.023804 256.781158,402.112793 248.470627,401.988647 
	C243.878372,401.920044 240.905151,399.352570 240.125626,394.890839 
	C239.379227,390.618622 241.318985,387.352631 245.351913,385.739105 
	C246.979614,385.087921 248.919556,385.044678 250.720215,385.028046 
	C258.471436,384.956451 266.223694,384.997467 273.685822,384.997467 
	C273.685822,378.864868 273.685822,373.442230 273.685822,367.944214 
	C270.673828,367.944214 267.997406,368.100616 265.345795,367.910583 
	C260.333252,367.551361 256.853455,363.755920 257.025421,359.084473 
	C257.191650,354.568268 260.620758,351.198822 265.476685,350.965363 
	C268.241364,350.832458 271.017670,350.941315 273.752258,350.941315 
	C273.752258,344.937561 273.752258,339.525452 273.752258,333.877808 
	C265.666046,333.877808 257.857452,333.935211 250.050125,333.859680 
	C243.783173,333.799103 239.971725,330.445923 239.992981,325.220337 
	C240.014328,319.972015 243.699326,316.871185 250.148117,316.826385 
	C257.940796,316.772217 265.734131,316.813538 273.689301,316.813538 
	C273.689301,310.890564 273.689301,305.367371 273.689301,299.638519 
	C270.513367,299.638519 267.653809,299.902527 264.861969,299.580048 
	C260.016327,299.020233 256.861969,295.293304 257.028381,290.817688 
	C257.197540,286.268341 260.495789,283.025543 265.490540,282.730194 
	C268.255676,282.566711 271.038391,282.700897 273.752289,282.700897 
	C273.752289,276.591644 273.752289,271.148438 273.752289,265.565704 
	C265.643921,265.565704 257.796509,265.876678 249.996887,265.402374 
	C247.144806,265.228943 243.554138,263.880005 241.870636,261.797821 
	C240.378159,259.951874 240.326736,256.167267 240.959549,253.558777 
	C241.896301,249.697464 245.487778,248.490128 249.228271,248.458771 
	C257.352295,248.390656 265.477295,248.437775 273.815552,248.437775 
	C273.815552,242.658096 273.815552,237.236984 273.815552,231.583359 
	C267.137299,230.617767 257.337372,233.783920 257.302917,222.930634 
	C257.268066,211.956299 267.231445,214.952621 273.684357,214.017853 
	C273.684357,208.209473 273.684357,202.810364 273.684357,197.182190 
	C265.357544,197.182190 257.358215,197.513290 249.412964,197.002701 
	C246.629547,196.823837 243.087662,195.264740 241.442032,193.137115 
	C237.200882,187.653702 241.751526,180.337296 249.292374,180.166168 
	C257.404510,179.982071 265.524078,180.124588 273.813232,180.124588 
	C273.813232,174.292633 273.813232,168.884415 273.813232,163.194122 
	C267.164185,162.519989 257.734558,165.451843 257.319489,155.155365 
	C256.855774,143.651520 267.129913,146.757019 273.726196,145.775360 
	C273.726196,139.998993 273.726196,134.594528 273.726196,128.985840 
	C265.107239,128.985840 256.791473,129.102539 248.481201,128.940109 
	C243.826508,128.849121 240.449310,125.585365 240.020798,121.341591 
	C239.586349,117.038971 242.462158,112.972954 246.726486,112.155106 
	C248.340790,111.845497 250.046036,111.969879 251.709991,111.966263 
	C259.126862,111.950134 266.543823,111.959267 273.691986,111.959267 
	C273.691986,105.824730 273.691986,100.402618 273.691986,94.857971 
	C270.516937,94.857971 267.662476,95.088936 264.859863,94.806168 
	C260.148529,94.330826 256.862152,90.466225 257.026123,86.016640 
	C257.193756,81.467987 260.571411,78.153519 265.470551,77.916878 
	C268.234161,77.783394 271.009491,77.892815 273.747314,77.892815 
	C273.747314,71.860878 273.747314,66.445854 273.747314,60.818787 
	C266.651001,60.818787 259.838959,60.819958 253.026886,60.818493 
	C244.011414,60.816555 239.954651,58.108887 239.997757,52.125427 
	C240.040817,46.144875 243.807022,43.749016 253.175522,43.746510 
	C259.968018,43.744694 266.760529,43.746155 273.364899,43.746155 
	C273.690155,43.032799 273.931732,42.747440 273.934875,42.459473 
	C273.984131,37.962734 274.031891,33.465591 274.021667,28.968674 
	C274.003632,21.011992 271.110626,18.060608 263.255646,18.047998 
	C248.091827,18.023659 232.927963,18.036789 217.764114,18.042843 
	C208.407654,18.046577 205.880569,20.537584 205.878983,29.808279 
	C205.872482,67.801208 205.878296,105.794144 205.878281,143.787079 
	C205.878250,257.099335 205.877197,370.411591 205.877991,483.723846 
	C205.878052,493.631531 208.243469,495.957306 218.303116,495.958435 
	C232.633774,495.960083 246.964447,495.960571 261.295105,495.958588 
	C271.853729,495.957123 274.025665,493.747040 274.027985,482.988983 
	C274.032410,462.492798 274.031464,441.996613 274.032745,420.500549 
z"/>
<path fill="#030303" opacity="1.000000" stroke="none" 
	d="
M336.468658,513.000000 
	C335.957153,512.838989 335.956085,512.566711 335.865540,512.532715 
	C320.586060,506.793549 316.562256,495.196411 316.625244,479.757477 
	C317.005920,386.455078 316.811218,293.150299 316.819885,199.846329 
	C316.821106,186.881104 322.379730,177.835876 332.855377,173.613190 
	C345.749115,168.415756 359.443695,173.779037 366.005157,186.824890 
	C378.613159,211.892853 391.104584,237.019470 403.636414,262.125732 
	C438.572784,332.117310 473.515015,402.105988 508.406006,472.120148 
	C509.947235,475.212860 511.006500,478.545715 512.645142,481.883362 
	C513.000000,485.361298 513.000000,488.722565 512.659912,492.668884 
	C510.188812,497.092133 508.800537,501.732483 505.739746,504.566498 
	C501.872375,508.147247 496.642273,510.256195 492.000000,513.000000 
	C440.312439,513.000000 388.624878,513.000000 336.468658,513.000000 
M349.835449,192.661072 
	C347.519928,189.087051 343.906891,187.826050 340.301147,189.261841 
	C337.849091,190.238235 334.515625,192.942596 334.364227,195.072449 
	C333.710388,204.268875 334.084473,213.538376 334.084473,222.929169 
	C336.941376,222.929169 339.264252,222.878784 341.584229,222.939255 
	C347.050476,223.081711 350.811249,226.483185 350.889771,231.291138 
	C350.967163,236.032791 347.158997,239.713776 341.803833,239.943344 
	C339.212830,240.054398 336.613159,239.962524 334.196075,239.962524 
	C334.196075,246.018967 334.196075,251.425507 334.196075,257.016937 
	C337.165558,257.016937 339.824402,256.888428 342.466278,257.045013 
	C347.218475,257.326721 350.751007,260.878448 350.882233,265.296844 
	C351.018555,269.886444 347.367035,273.718964 342.418488,273.985168 
	C339.654144,274.133881 336.875275,274.011902 334.160522,274.011902 
	C334.160522,280.029022 334.160522,285.440369 334.160522,290.825775 
	C347.085052,291.685242 351.131897,293.543579 350.775696,299.327576 
	C350.087891,310.497162 340.886902,307.557404 334.142822,308.282867 
	C334.142822,314.086060 334.142822,319.499969 334.142822,324.890289 
	C347.189453,325.874878 351.088379,327.660767 350.767029,333.421814 
	C350.140594,344.651489 340.871552,341.629639 334.137665,342.402771 
	C334.137665,348.249664 334.137665,353.675659 334.137665,359.078857 
	C347.235413,360.016449 351.114624,361.780975 350.776337,367.565033 
	C350.119995,378.787811 340.887360,375.861633 334.181091,376.554230 
	C334.181091,382.395294 334.181091,387.805847 334.181091,393.445465 
	C341.003967,394.043518 350.386383,391.435455 350.578156,401.779541 
	C350.781982,412.774506 340.921936,410.115509 334.192749,410.837067 
	C334.192749,416.607544 334.192749,422.008118 334.192749,427.628052 
	C341.016541,428.225098 350.418365,425.555511 350.580688,435.930450 
	C350.751678,446.860016 340.936523,444.328918 334.178040,444.971130 
	C334.178040,450.774292 334.178040,456.176331 334.178040,461.545227 
	C347.401245,462.680206 351.160980,464.390930 350.769531,470.013885 
	C350.002014,481.038147 340.955566,478.436371 334.235596,479.067474 
	C331.898956,494.831116 338.674988,497.652008 350.748566,495.259308 
	C351.440826,482.241272 353.076172,478.677460 359.128967,479.047455 
	C370.379730,479.735168 367.358337,488.924835 368.119415,495.731079 
	C373.834869,495.731079 379.245087,495.731079 385.001099,495.731079 
	C385.001099,493.048523 384.936066,490.580505 385.014252,488.117065 
	C385.190369,482.567627 388.509918,478.997345 393.449371,478.948212 
	C398.414673,478.898804 401.828400,482.447601 402.012299,487.958191 
	C402.099030,490.556885 402.027161,493.160919 402.027161,495.660858 
	C408.064575,495.660858 413.479309,495.660858 418.866516,495.660858 
	C419.615875,482.464539 421.307739,478.779541 427.297943,479.057312 
	C438.752319,479.588470 435.381439,488.951630 436.350067,495.733093 
	C441.996338,495.733093 447.407959,495.733093 453.231934,495.733093 
	C453.231934,492.713104 453.025269,489.895813 453.276794,487.120056 
	C453.739502,482.013214 457.464691,478.746582 462.219635,478.964172 
	C466.841949,479.175690 469.944733,482.404083 470.200928,487.474487 
	C470.340271,490.232910 470.225739,493.004181 470.225739,495.955719 
	C475.263702,495.955719 479.588135,495.960327 483.912537,495.954803 
	C494.841248,495.940857 498.474884,490.243347 493.656464,480.574097 
	C482.764984,458.717987 471.837646,436.879730 460.921478,415.035980 
	C423.993866,341.142029 387.064789,267.248840 349.835449,192.661072 
z"/>
<path fill="#030303" opacity="1.000000" stroke="none" 
	d="
M513.000000,127.531342 
	C512.505249,128.776550 511.849518,129.494019 511.539734,130.338409 
	C505.615265,146.486313 494.064880,154.619324 476.536560,154.659256 
	C447.039642,154.726471 417.542480,154.674042 388.045410,154.674026 
	C376.379913,154.674026 364.714172,154.730453 353.048981,154.671616 
	C331.056885,154.560684 316.873474,140.339539 316.823669,118.330986 
	C316.775391,96.999886 316.758575,75.668457 316.820251,54.337437 
	C316.883820,32.340752 331.146179,18.053249 353.031982,18.037762 
	C394.694458,18.008278 436.357117,17.980360 478.019501,18.056654 
	C495.413727,18.088505 508.870605,29.077415 512.648254,45.856186 
	C513.000000,73.020897 513.000000,100.041786 513.000000,127.531342 
M425.499725,137.561905 
	C426.832520,137.561920 428.165314,137.562012 429.498108,137.561920 
	C445.491425,137.560928 461.485504,137.656662 477.477753,137.525681 
	C488.583588,137.434708 495.856812,130.643326 495.917999,120.185257 
	C496.050568,97.528877 496.062164,74.870529 495.914246,52.214352 
	C495.850586,42.460804 488.532898,35.408279 478.722626,35.106297 
	C475.893127,35.019207 473.029022,35.340366 470.234650,35.013691 
	C466.974823,34.632599 465.070312,36.058414 463.171600,38.486019 
	C438.865540,69.563110 414.475739,100.574669 390.116516,131.610245 
	C388.749207,133.352325 387.463623,135.158615 385.672943,137.561874 
	C399.255859,137.561874 411.877777,137.561874 425.499725,137.561905 
M394.500000,35.076107 
	C380.168915,35.077084 365.837189,34.997292 351.506927,35.107368 
	C341.918701,35.181023 334.121643,41.851673 334.026947,50.726223 
	C333.774475,74.385735 333.811859,98.050705 334.005188,121.711288 
	C334.068878,129.503937 340.117401,135.969086 347.844177,137.084778 
	C351.445526,137.604782 355.166382,137.243484 358.799591,137.611862 
	C362.311096,137.967880 364.544006,136.723267 366.740570,133.899429 
	C385.450592,109.846581 404.336182,85.930321 423.163513,61.968662 
	C430.009735,53.255447 436.840485,44.530071 444.253967,35.076107 
	C427.352905,35.076107 411.426453,35.076107 394.500000,35.076107 
z"/>
<path fill="#FEFEFE" opacity="1.000000" stroke="none" 
	d="
M1.000000,407.468658 
	C4.775320,413.487427 9.246956,419.032532 18.031141,419.111359 
	C18.031141,435.070496 18.009504,450.857269 18.042934,466.643860 
	C18.054562,472.133453 17.599556,477.712708 18.402494,483.095154 
	C20.699036,498.489899 29.914425,508.021088 44.871098,512.653625 
	C30.376236,513.000000 15.752473,513.000000 1.000000,513.000000 
	C1.000000,477.979218 1.000000,442.958252 1.000000,407.468658 
z"/>
<path fill="#FAFAFA" opacity="1.000000" stroke="none" 
	d="
M492.468933,513.000000 
	C496.642273,510.256195 501.872375,508.147247 505.739746,504.566498 
	C508.800537,501.732483 510.188812,497.092133 512.659912,493.126953 
	C513.000000,499.594604 513.000000,506.189209 513.000000,513.000000 
	C506.314148,513.000000 499.626007,513.000000 492.468933,513.000000 
z"/>
<path fill="#FDFDFD" opacity="1.000000" stroke="none" 
	d="
M69.183517,269.005188 
	C69.174477,264.674866 69.284119,260.838318 69.126770,257.012726 
	C68.923050,252.059509 65.636131,248.712234 61.080395,248.541702 
	C56.510735,248.370651 52.858879,251.506821 52.217251,256.292114 
	C52.019447,257.767365 52.125916,259.286011 52.125664,260.784790 
	C52.121586,284.933441 52.122780,309.082062 52.122780,333.552979 
	C46.527039,333.552979 41.123684,333.552979 35.395210,333.552979 
	C35.395210,277.172089 35.395210,220.774185 35.395210,163.546005 
	C41.038635,167.643875 46.501129,171.470673 51.740955,175.581284 
	C52.443989,176.132812 52.106750,178.116837 52.109558,179.437820 
	C52.133629,190.766602 51.996529,202.097427 52.171185,213.423584 
	C52.288712,221.045349 59.527325,225.624557 65.046486,221.360107 
	C67.263893,219.646790 68.883942,215.872070 69.004372,212.962265 
	C69.458679,201.985474 69.318283,190.975983 69.104637,179.984482 
	C69.038124,176.562454 69.904633,174.188950 72.501694,171.811157 
	C77.151482,167.553970 81.314507,162.765137 86.744270,157.086548 
	C92.270317,163.059082 97.361275,168.451141 102.280525,173.995560 
	C103.028473,174.838562 103.258606,176.388031 103.259666,177.611130 
	C103.304146,228.924026 103.296242,280.236938 103.280952,331.549866 
	C103.280762,332.179138 103.100563,332.808380 102.972771,333.644470 
	C91.882545,333.644470 80.934113,333.644470 69.183517,333.644470 
	C69.183517,312.308014 69.183517,290.905914 69.183517,269.005188 
z"/>
<path fill="#FEFEFE" opacity="1.000000" stroke="none" 
	d="
M31.010048,402.030609 
	C26.539940,402.030609 22.568157,402.030609 18.043047,402.030609 
	C18.043047,393.352783 18.043047,384.926819 18.043047,376.500854 
	C18.043047,368.196808 18.043047,359.892761 18.043047,351.257690 
	C63.562515,351.257690 108.876457,351.257690 154.425339,351.257690 
	C154.425339,368.116638 154.425339,384.846313 154.425339,402.030609 
	C113.309883,402.030609 72.409126,402.030609 31.010048,402.030609 
z"/>
<path fill="#FCFCFC" opacity="1.000000" stroke="none" 
	d="
M35.076824,459.999878 
	C35.076824,446.209290 35.076824,432.918610 35.076824,419.351166 
	C69.278259,419.351166 103.151054,419.351166 137.336975,419.351166 
	C137.414047,420.890991 137.549515,422.352142 137.550827,423.813416 
	C137.566422,441.298340 137.595520,458.783386 137.551987,476.268188 
	C137.519501,489.310760 130.863617,495.949951 117.905991,495.958527 
	C96.757545,495.972565 75.609085,495.975128 54.460644,495.960022 
	C41.851955,495.951019 35.113853,489.169617 35.073750,476.486053 
	C35.056904,471.157379 35.074749,465.828552 35.076824,459.999878 
M68.648132,441.512329 
	C66.386841,437.454926 63.176590,435.228912 58.398415,436.639435 
	C53.673256,438.034332 52.100574,441.645691 52.113121,446.244263 
	C52.134029,453.907166 52.044270,461.571259 52.150707,469.232727 
	C52.226246,474.670074 54.984642,478.612518 59.770885,478.713776 
	C74.588493,479.027222 89.419724,479.006866 104.239082,478.744385 
	C108.902977,478.661743 112.181015,474.274597 111.912224,469.859711 
	C111.648827,465.533447 108.346802,462.232605 103.777451,461.945679 
	C101.121742,461.778931 98.448738,461.876465 95.783501,461.874756 
	C87.021965,461.869202 78.260429,461.872650 68.911537,461.872650 
	C68.911537,454.927490 68.911537,448.626617 68.648132,441.512329 
z"/>
<path fill="#FDFDFD" opacity="1.000000" stroke="none" 
	d="
M53.928165,104.942322 
	C57.512825,96.671906 60.875221,88.715919 64.526688,80.894882 
	C65.136383,79.588982 66.988091,78.030846 68.289719,78.009003 
	C81.103897,77.793892 93.923119,77.879082 106.902473,77.879082 
	C115.623322,97.797783 124.108093,117.641838 133.056854,137.274384 
	C135.168564,141.907227 134.952896,144.414276 130.478775,147.257080 
	C124.464478,151.078506 118.990761,155.750671 112.255478,160.834808 
	C108.130943,156.388184 104.113304,151.789581 99.811089,147.474716 
	C91.078018,138.715988 81.541489,138.812912 72.771126,147.570221 
	C68.647270,151.687943 64.560562,155.842865 60.044727,160.396683 
	C52.466755,154.726089 44.943638,149.096542 37.146351,143.261826 
	C42.747948,130.495850 48.275375,117.898918 53.928165,104.942322 
z"/>
<path fill="#F1F1F1" opacity="1.000000" stroke="none" 
	d="
M120.397629,186.052887 
	C119.054489,178.585648 121.344566,173.568039 127.868378,170.239319 
	C131.063049,168.609238 133.748779,165.981689 137.226395,163.386551 
	C137.226395,220.528961 137.226395,277.005127 137.226395,333.691193 
	C131.772079,333.691193 126.488564,333.691193 120.397614,333.691193 
	C120.397614,284.646454 120.397614,235.594864 120.397629,186.052887 
z"/>
<path fill="#F1F1F1" opacity="1.000000" stroke="none" 
	d="
M85.018593,60.842995 
	C81.065636,60.843025 77.605164,60.843025 73.210297,60.843025 
	C75.570274,55.453285 77.669029,50.663605 79.764862,45.872646 
	C81.820518,41.173519 83.873207,36.473095 86.327354,30.857597 
	C90.847420,41.166077 95.012512,50.665005 99.475342,60.842960 
	C94.349533,60.842960 89.930305,60.842960 85.018593,60.842995 
z"/>
<path fill="#FEFEFE" opacity="1.000000" stroke="none" 
	d="
M274.032745,421.000488 
	C274.031464,441.996613 274.032410,462.492798 274.027985,482.988983 
	C274.025665,493.747040 271.853729,495.957123 261.295105,495.958588 
	C246.964447,495.960571 232.633774,495.960083 218.303116,495.958435 
	C208.243469,495.957306 205.878052,493.631531 205.877991,483.723846 
	C205.877197,370.411591 205.878250,257.099335 205.878281,143.787079 
	C205.878296,105.794144 205.872482,67.801208 205.878983,29.808279 
	C205.880569,20.537584 208.407654,18.046577 217.764114,18.042843 
	C232.927963,18.036789 248.091827,18.023659 263.255646,18.047998 
	C271.110626,18.060608 274.003632,21.011992 274.021667,28.968674 
	C274.031891,33.465591 273.984131,37.962734 273.934875,42.459473 
	C273.931732,42.747440 273.690155,43.032799 273.364899,43.746155 
	C266.760529,43.746155 259.968018,43.744694 253.175522,43.746510 
	C243.807022,43.749016 240.040817,46.144875 239.997757,52.125427 
	C239.954651,58.108887 244.011414,60.816555 253.026886,60.818493 
	C259.838959,60.819958 266.651001,60.818787 273.747314,60.818787 
	C273.747314,66.445854 273.747314,71.860878 273.747314,77.892815 
	C271.009491,77.892815 268.234161,77.783394 265.470551,77.916878 
	C260.571411,78.153519 257.193756,81.467987 257.026123,86.016640 
	C256.862152,90.466225 260.148529,94.330826 264.859863,94.806168 
	C267.662476,95.088936 270.516937,94.857971 273.691986,94.857971 
	C273.691986,100.402618 273.691986,105.824730 273.691986,111.959267 
	C266.543823,111.959267 259.126862,111.950134 251.709991,111.966263 
	C250.046036,111.969879 248.340790,111.845497 246.726486,112.155106 
	C242.462158,112.972954 239.586349,117.038971 240.020798,121.341591 
	C240.449310,125.585365 243.826508,128.849121 248.481201,128.940109 
	C256.791473,129.102539 265.107239,128.985840 273.726196,128.985840 
	C273.726196,134.594528 273.726196,139.998993 273.726196,145.775360 
	C267.129913,146.757019 256.855774,143.651520 257.319489,155.155365 
	C257.734558,165.451843 267.164185,162.519989 273.813232,163.194122 
	C273.813232,168.884415 273.813232,174.292633 273.813232,180.124588 
	C265.524078,180.124588 257.404510,179.982071 249.292374,180.166168 
	C241.751526,180.337296 237.200882,187.653702 241.442032,193.137115 
	C243.087662,195.264740 246.629547,196.823837 249.412964,197.002701 
	C257.358215,197.513290 265.357544,197.182190 273.684357,197.182190 
	C273.684357,202.810364 273.684357,208.209473 273.684357,214.017853 
	C267.231445,214.952621 257.268066,211.956299 257.302917,222.930634 
	C257.337372,233.783920 267.137299,230.617767 273.815552,231.583359 
	C273.815552,237.236984 273.815552,242.658096 273.815552,248.437775 
	C265.477295,248.437775 257.352295,248.390656 249.228271,248.458771 
	C245.487778,248.490128 241.896301,249.697464 240.959549,253.558777 
	C240.326736,256.167267 240.378159,259.951874 241.870636,261.797821 
	C243.554138,263.880005 247.144806,265.228943 249.996887,265.402374 
	C257.796509,265.876678 265.643921,265.565704 273.752289,265.565704 
	C273.752289,271.148438 273.752289,276.591644 273.752289,282.700897 
	C271.038391,282.700897 268.255676,282.566711 265.490540,282.730194 
	C260.495789,283.025543 257.197540,286.268341 257.028381,290.817688 
	C256.861969,295.293304 260.016327,299.020233 264.861969,299.580048 
	C267.653809,299.902527 270.513367,299.638519 273.689301,299.638519 
	C273.689301,305.367371 273.689301,310.890564 273.689301,316.813538 
	C265.734131,316.813538 257.940796,316.772217 250.148117,316.826385 
	C243.699326,316.871185 240.014328,319.972015 239.992981,325.220337 
	C239.971725,330.445923 243.783173,333.799103 250.050125,333.859680 
	C257.857452,333.935211 265.666046,333.877808 273.752258,333.877808 
	C273.752258,339.525452 273.752258,344.937561 273.752258,350.941315 
	C271.017670,350.941315 268.241364,350.832458 265.476685,350.965363 
	C260.620758,351.198822 257.191650,354.568268 257.025421,359.084473 
	C256.853455,363.755920 260.333252,367.551361 265.345795,367.910583 
	C267.997406,368.100616 270.673828,367.944214 273.685822,367.944214 
	C273.685822,373.442230 273.685822,378.864868 273.685822,384.997467 
	C266.223694,384.997467 258.471436,384.956451 250.720215,385.028046 
	C248.919556,385.044678 246.979614,385.087921 245.351913,385.739105 
	C241.318985,387.352631 239.379227,390.618622 240.125626,394.890839 
	C240.905151,399.352570 243.878372,401.920044 248.470627,401.988647 
	C256.781158,402.112793 265.094879,402.023804 274.032745,402.023804 
	C274.032745,408.313843 274.032745,414.407196 274.032745,421.000488 
M264.907227,459.129822 
	C265.026825,458.138947 265.154724,457.148987 265.264709,456.157043 
	C266.466217,445.320129 260.899170,435.059692 251.223846,430.273254 
	C241.809814,425.616150 230.239670,427.355591 222.482468,434.594269 
	C214.697968,441.858429 212.197739,453.135742 216.194077,462.958038 
	C220.123123,472.614960 230.176743,479.200256 240.543396,478.907257 
	C251.753494,478.590454 260.545654,471.676697 264.907227,459.129822 
z"/>
<path fill="#FDFDFD" opacity="1.000000" stroke="none" 
	d="
M349.985840,193.008209 
	C387.064789,267.248840 423.993866,341.142029 460.921478,415.035980 
	C471.837646,436.879730 482.764984,458.717987 493.656464,480.574097 
	C498.474884,490.243347 494.841248,495.940857 483.912537,495.954803 
	C479.588135,495.960327 475.263702,495.955719 470.225739,495.955719 
	C470.225739,493.004181 470.340271,490.232910 470.200928,487.474487 
	C469.944733,482.404083 466.841949,479.175690 462.219635,478.964172 
	C457.464691,478.746582 453.739502,482.013214 453.276794,487.120056 
	C453.025269,489.895813 453.231934,492.713104 453.231934,495.733093 
	C447.407959,495.733093 441.996338,495.733093 436.350067,495.733093 
	C435.381439,488.951630 438.752319,479.588470 427.297943,479.057312 
	C421.307739,478.779541 419.615875,482.464539 418.866516,495.660858 
	C413.479309,495.660858 408.064575,495.660858 402.027161,495.660858 
	C402.027161,493.160919 402.099030,490.556885 402.012299,487.958191 
	C401.828400,482.447601 398.414673,478.898804 393.449371,478.948212 
	C388.509918,478.997345 385.190369,482.567627 385.014252,488.117065 
	C384.936066,490.580505 385.001099,493.048523 385.001099,495.731079 
	C379.245087,495.731079 373.834869,495.731079 368.119415,495.731079 
	C367.358337,488.924835 370.379730,479.735168 359.128967,479.047455 
	C353.076172,478.677460 351.440826,482.241272 350.748566,495.259308 
	C338.674988,497.652008 331.898956,494.831116 334.235596,479.067474 
	C340.955566,478.436371 350.002014,481.038147 350.769531,470.013885 
	C351.160980,464.390930 347.401245,462.680206 334.178040,461.545227 
	C334.178040,456.176331 334.178040,450.774292 334.178040,444.971130 
	C340.936523,444.328918 350.751678,446.860016 350.580688,435.930450 
	C350.418365,425.555511 341.016541,428.225098 334.192749,427.628052 
	C334.192749,422.008118 334.192749,416.607544 334.192749,410.837067 
	C340.921936,410.115509 350.781982,412.774506 350.578156,401.779541 
	C350.386383,391.435455 341.003967,394.043518 334.181091,393.445465 
	C334.181091,387.805847 334.181091,382.395294 334.181091,376.554230 
	C340.887360,375.861633 350.119995,378.787811 350.776337,367.565033 
	C351.114624,361.780975 347.235413,360.016449 334.137665,359.078857 
	C334.137665,353.675659 334.137665,348.249664 334.137665,342.402771 
	C340.871552,341.629639 350.140594,344.651489 350.767029,333.421814 
	C351.088379,327.660767 347.189453,325.874878 334.142822,324.890289 
	C334.142822,319.499969 334.142822,314.086060 334.142822,308.282867 
	C340.886902,307.557404 350.087891,310.497162 350.775696,299.327576 
	C351.131897,293.543579 347.085052,291.685242 334.160522,290.825775 
	C334.160522,285.440369 334.160522,280.029022 334.160522,274.011902 
	C336.875275,274.011902 339.654144,274.133881 342.418488,273.985168 
	C347.367035,273.718964 351.018555,269.886444 350.882233,265.296844 
	C350.751007,260.878448 347.218475,257.326721 342.466278,257.045013 
	C339.824402,256.888428 337.165558,257.016937 334.196075,257.016937 
	C334.196075,251.425507 334.196075,246.018967 334.196075,239.962524 
	C336.613159,239.962524 339.212830,240.054398 341.803833,239.943344 
	C347.158997,239.713776 350.967163,236.032791 350.889771,231.291138 
	C350.811249,226.483185 347.050476,223.081711 341.584229,222.939255 
	C339.264252,222.878784 336.941376,222.929169 334.084473,222.929169 
	C334.084473,213.538376 333.710388,204.268875 334.364227,195.072449 
	C334.515625,192.942596 337.849091,190.238235 340.301147,189.261841 
	C343.906891,187.826050 347.519928,189.087051 349.985840,193.008209 
M396.994415,364.542053 
	C393.085480,356.659546 389.178345,348.776093 385.267029,340.894775 
	C382.362885,335.042938 379.290558,333.065826 374.595154,334.016754 
	C370.126556,334.921783 367.970367,338.376648 367.968292,344.798950 
	C367.956940,380.110352 367.955841,415.421722 367.966187,450.733124 
	C367.968597,458.981750 370.814575,461.852570 379.058472,461.867584 
	C395.548187,461.897644 412.038025,461.904572 428.527679,461.872314 
	C438.720154,461.852356 442.298706,456.061951 437.760620,446.886353 
	C424.293732,419.657318 410.782745,392.450104 396.994415,364.542053 
z"/>
<path fill="#FCFCFC" opacity="1.000000" stroke="none" 
	d="
M424.999695,137.561890 
	C411.877777,137.561874 399.255859,137.561874 385.672943,137.561874 
	C387.463623,135.158615 388.749207,133.352325 390.116516,131.610245 
	C414.475739,100.574669 438.865540,69.563110 463.171600,38.486019 
	C465.070312,36.058414 466.974823,34.632599 470.234650,35.013691 
	C473.029022,35.340366 475.893127,35.019207 478.722626,35.106297 
	C488.532898,35.408279 495.850586,42.460804 495.914246,52.214352 
	C496.062164,74.870529 496.050568,97.528877 495.917999,120.185257 
	C495.856812,130.643326 488.583588,137.434708 477.477753,137.525681 
	C461.485504,137.656662 445.491425,137.560928 429.498108,137.561920 
	C428.165314,137.562012 426.832520,137.561920 424.999695,137.561890 
z"/>
<path fill="#FCFCFC" opacity="1.000000" stroke="none" 
	d="
M395.000000,35.076107 
	C411.426453,35.076107 427.352905,35.076107 444.253967,35.076107 
	C436.840485,44.530071 430.009735,53.255447 423.163513,61.968662 
	C404.336182,85.930321 385.450592,109.846581 366.740570,133.899429 
	C364.544006,136.723267 362.311096,137.967880 358.799591,137.611862 
	C355.166382,137.243484 351.445526,137.604782 347.844177,137.084778 
	C340.117401,135.969086 334.068878,129.503937 334.005188,121.711288 
	C333.811859,98.050705 333.774475,74.385735 334.026947,50.726223 
	C334.121643,41.851673 341.918701,35.181023 351.506927,35.107368 
	C365.837189,34.997292 380.168915,35.077084 395.000000,35.076107 
M370.785034,69.186401 
	C375.450867,69.179153 380.120300,69.283936 384.781616,69.134789 
	C389.989136,68.968147 393.439392,65.526665 393.457703,60.771507 
	C393.475983,56.023643 390.088501,52.328754 384.890259,52.192852 
	C376.397675,51.970825 367.890839,51.988434 359.397736,52.205902 
	C354.479614,52.331833 351.174957,55.625965 351.013092,60.370358 
	C350.808655,66.361931 350.793549,72.372528 351.024231,78.362312 
	C351.201599,82.968285 354.654633,86.056648 359.118439,86.184006 
	C363.536896,86.310081 367.210571,83.377617 367.824829,78.911346 
	C368.140167,76.618584 367.762085,74.232292 368.054321,71.933662 
	C368.178253,70.959152 369.219116,70.101234 370.785034,69.186401 
z"/>
<path fill="#040404" opacity="1.000000" stroke="none" 
	d="
M68.779831,441.919067 
	C68.911537,448.626617 68.911537,454.927490 68.911537,461.872650 
	C78.260429,461.872650 87.021965,461.869202 95.783501,461.874756 
	C98.448738,461.876465 101.121742,461.778931 103.777451,461.945679 
	C108.346802,462.232605 111.648827,465.533447 111.912224,469.859711 
	C112.181015,474.274597 108.902977,478.661743 104.239082,478.744385 
	C89.419724,479.006866 74.588493,479.027222 59.770885,478.713776 
	C54.984642,478.612518 52.226246,474.670074 52.150707,469.232727 
	C52.044270,461.571259 52.134029,453.907166 52.113121,446.244263 
	C52.100574,441.645691 53.673256,438.034332 58.398415,436.639435 
	C63.176590,435.228912 66.386841,437.454926 68.779831,441.919067 
z"/>
<path fill="#040404" opacity="1.000000" stroke="none" 
	d="
M264.804901,459.519653 
	C260.545654,471.676697 251.753494,478.590454 240.543396,478.907257 
	C230.176743,479.200256 220.123123,472.614960 216.194077,462.958038 
	C212.197739,453.135742 214.697968,441.858429 222.482468,434.594269 
	C230.239670,427.355591 241.809814,425.616150 251.223846,430.273254 
	C260.899170,435.059692 266.466217,445.320129 265.264709,456.157043 
	C265.154724,457.148987 265.026825,458.138947 264.804901,459.519653 
M245.899063,459.286896 
	C249.393448,454.081329 248.965714,449.206970 244.757858,446.282623 
	C240.922119,443.616791 235.525391,444.571503 232.956512,448.523621 
	C230.604858,452.141479 230.782486,455.874207 233.742462,458.973938 
	C237.193695,462.588074 241.230774,462.741089 245.899063,459.286896 
z"/>
<path fill="#030303" opacity="1.000000" stroke="none" 
	d="
M397.141724,364.888184 
	C410.782745,392.450104 424.293732,419.657318 437.760620,446.886353 
	C442.298706,456.061951 438.720154,461.852356 428.527679,461.872314 
	C412.038025,461.904572 395.548187,461.897644 379.058472,461.867584 
	C370.814575,461.852570 367.968597,458.981750 367.966187,450.733124 
	C367.955841,415.421722 367.956940,380.110352 367.968292,344.798950 
	C367.970367,338.376648 370.126556,334.921783 374.595154,334.016754 
	C379.290558,333.065826 382.362885,335.042938 385.267029,340.894775 
	C389.178345,348.776093 393.085480,356.659546 397.141724,364.888184 
M385.857666,444.749603 
	C396.145721,444.749603 406.433746,444.749603 417.589386,444.749603 
	C406.823792,422.972809 396.324707,401.735107 385.825623,380.497375 
	C385.602875,380.590332 385.380157,380.683258 385.157410,380.776184 
	C385.157410,401.888062 385.157410,422.999939 385.857666,444.749603 
z"/>
<path fill="#030303" opacity="1.000000" stroke="none" 
	d="
M370.314117,69.188370 
	C369.219116,70.101234 368.178253,70.959152 368.054321,71.933662 
	C367.762085,74.232292 368.140167,76.618584 367.824829,78.911346 
	C367.210571,83.377617 363.536896,86.310081 359.118439,86.184006 
	C354.654633,86.056648 351.201599,82.968285 351.024231,78.362312 
	C350.793549,72.372528 350.808655,66.361931 351.013092,60.370358 
	C351.174957,55.625965 354.479614,52.331833 359.397736,52.205902 
	C367.890839,51.988434 376.397675,51.970825 384.890259,52.192852 
	C390.088501,52.328754 393.475983,56.023643 393.457703,60.771507 
	C393.439392,65.526665 389.989136,68.968147 384.781616,69.134789 
	C380.120300,69.283936 375.450867,69.179153 370.314117,69.188370 
z"/>
<path fill="#FAFAFA" opacity="1.000000" stroke="none" 
	d="
M245.614746,459.557281 
	C241.230774,462.741089 237.193695,462.588074 233.742462,458.973938 
	C230.782486,455.874207 230.604858,452.141479 232.956512,448.523621 
	C235.525391,444.571503 240.922119,443.616791 244.757858,446.282623 
	C248.965714,449.206970 249.393448,454.081329 245.614746,459.557281 
z"/>
<path fill="#FAFAFA" opacity="1.000000" stroke="none" 
	d="
M385.507538,444.430725 
	C385.157410,422.999939 385.157410,401.888062 385.157410,380.776184 
	C385.380157,380.683258 385.602875,380.590332 385.825623,380.497375 
	C396.324707,401.735107 406.823792,422.972809 417.589386,444.749603 
	C406.433746,444.749603 396.145721,444.749603 385.507538,444.430725 
z"/>
</svg>