<svg version="1.1" id="Layer_1" xmlns="http://www.w3.org/2000/svg" xmlns:xlink="http://www.w3.org/1999/xlink" x="0px" y="0px"
	 width="100%" viewBox="0 0 100 100" enable-background="new 0 0 100 100" xml:space="preserve">
<path fill="none" opacity="1.000000" stroke="none" stroke-width="3.000000"
	d="
M15.000000,101.000000 
	C10.354264,101.000000 5.708528,101.000000 1.000000,101.000000 
	C1.000000,73.312469 1.000000,45.624889 1.324641,17.581936 
	C4.296484,22.372972 8.278972,25.423416 14.298769,24.904938 
	C19.104576,24.491018 23.189501,20.856474 24.558346,16.091173 
	C26.286797,10.073994 23.388369,4.963112 16.000000,1.000000 
	C44.229645,1.000000 72.459290,1.000000 101.000000,1.000000 
	C101.000000,12.352334 101.000000,23.707508 100.667282,35.345760 
	C97.516167,20.863134 85.649254,8.777385 71.001335,5.754666 
	C50.412666,1.506026 26.998055,17.338064 22.990513,38.066574 
	C21.634239,45.081730 21.608919,51.918194 23.954327,58.727634 
	C25.900805,64.378853 24.806570,69.053963 19.673218,72.711166 
	C15.751005,75.505516 12.048101,78.634628 8.430083,81.821930 
	C4.265354,85.490868 3.680608,89.273544 7.079718,93.663025 
	C9.253311,96.469925 12.328832,98.578407 15.000000,101.000000 
z"/>
<path fill="none" opacity="1.000000" stroke="none" stroke-width="3.000000"
	d="
M101.000000,49.000000 
	C101.000000,66.276123 101.000000,83.552254 101.000000,101.000000 
	C74.312683,101.000000 47.625000,101.000000 20.570633,100.668526 
	C21.862766,99.034790 23.749382,97.936234 25.133532,96.388359 
	C28.123302,93.044960 31.038052,89.602005 33.648277,85.959564 
	C37.226883,80.965790 41.678509,80.329788 47.238068,82.000053 
	C65.143578,87.379456 82.296684,81.515953 92.649742,66.025764 
	C96.131096,60.816986 98.255432,54.701221 101.000000,49.000000 
z"/>
<path fill="#101010" opacity="1.000000" stroke="none" 
	d="
M101.000000,48.536816 
	C98.255432,54.701221 96.131096,60.816986 92.649742,66.025764 
	C82.296684,81.515953 65.143578,87.379456 47.238068,82.000053 
	C41.678509,80.329788 37.226883,80.965790 33.648277,85.959564 
	C31.038052,89.602005 28.123302,93.044960 25.133532,96.388359 
	C23.749382,97.936234 21.862766,99.034790 20.101974,100.668526 
	C18.611111,101.000000 17.222221,101.000000 15.416667,101.000000 
	C12.328832,98.578407 9.253311,96.469925 7.079718,93.663025 
	C3.680608,89.273544 4.265354,85.490868 8.430083,81.821930 
	C12.048101,78.634628 15.751005,75.505516 19.673218,72.711166 
	C24.806570,69.053963 25.900805,64.378853 23.954327,58.727634 
	C21.608919,51.918194 21.634239,45.081730 22.990513,38.066574 
	C26.998055,17.338064 50.412666,1.506026 71.001335,5.754666 
	C85.649254,8.777385 97.516167,20.863134 100.667282,35.814419 
	C101.000000,40.024544 101.000000,44.049088 101.000000,48.536816 
M87.672539,66.104401 
	C89.066147,64.044487 90.646713,62.085518 91.822456,59.907974 
	C98.502960,47.535305 99.429451,35.140602 90.659874,23.398174 
	C82.074249,11.902059 70.738136,6.711486 56.223095,10.051940 
	C40.174770,13.745259 28.444223,26.465889 26.450033,42.774651 
	C26.249773,44.412411 27.075413,46.702911 28.239077,47.897270 
	C38.103462,58.021847 48.099407,68.021309 58.230709,77.878639 
	C59.417427,79.033264 61.740829,79.758858 63.404572,79.561966 
	C72.992889,78.427231 81.232925,74.566750 87.672539,66.104401 
M44.950283,70.549759 
	C39.078640,64.589371 33.206997,58.628990 27.335358,52.668610 
	C27.099167,55.178532 27.669582,57.011246 28.157061,58.865765 
	C29.869411,65.380081 28.952574,70.962601 22.972256,75.151917 
	C19.305992,77.720200 15.818574,80.601868 12.564866,83.675247 
	C11.054999,85.101440 8.916237,88.199135 9.440832,89.020935 
	C11.310232,91.949471 13.952282,94.607216 16.863873,96.505386 
	C17.681688,97.038544 20.651209,94.868546 22.228401,93.478508 
	C23.947725,91.963226 25.385933,90.033043 26.617506,88.076515 
	C32.671074,78.459579 40.576607,74.190628 51.809315,78.958031 
	C51.985394,79.032761 52.308075,78.762062 52.558018,78.654434 
	C52.520786,78.469078 52.544544,78.250717 52.447014,78.151070 
	C50.122643,75.776215 47.785255,73.414101 44.950283,70.549759 
z"/>
<path fill="#090909" opacity="1.000000" stroke="none" 
	d="
M15.571538,1.000000 
	C23.388369,4.963112 26.286797,10.073994 24.558346,16.091173 
	C23.189501,20.856474 19.104576,24.491018 14.298769,24.904938 
	C8.278972,25.423416 4.296484,22.372972 1.324641,17.113279 
	C1.000000,14.629442 1.000000,12.258885 1.327245,9.339452 
	C4.436327,6.193717 7.218164,3.596859 10.000000,1.000000 
	C11.714358,1.000000 13.428718,1.000000 15.571538,1.000000 
M19.406265,8.257814 
	C14.653839,3.992229 9.584056,3.959569 6.570006,8.310981 
	C4.190891,11.745732 4.347335,15.309764 7.169975,18.363003 
	C9.985066,21.408073 13.620584,22.034143 17.119623,19.757435 
	C21.178730,17.116312 22.059948,13.303103 19.406265,8.257814 
z"/>
<path fill="#F2F2F2" opacity="1.000000" stroke="none" 
	d="
M9.508951,1.000000 
	C7.218164,3.596859 4.436327,6.193717 1.327245,8.895288 
	C1.000000,6.411248 1.000000,3.822496 1.000000,1.000000 
	C3.670323,1.000000 6.344113,1.000000 9.508951,1.000000 
z"/>
<path fill="#FDFDFD" opacity="1.000000" stroke="none" 
	d="
M87.435272,66.373795 
	C81.232925,74.566750 72.992889,78.427231 63.404572,79.561966 
	C61.740829,79.758858 59.417427,79.033264 58.230709,77.878639 
	C48.099407,68.021309 38.103462,58.021847 28.239077,47.897270 
	C27.075413,46.702911 26.249773,44.412411 26.450033,42.774651 
	C28.444223,26.465889 40.174770,13.745259 56.223095,10.051940 
	C70.738136,6.711486 82.074249,11.902059 90.659874,23.398174 
	C99.429451,35.140602 98.502960,47.535305 91.822456,59.907974 
	C90.646713,62.085518 89.066147,64.044487 87.435272,66.373795 
z"/>
<path fill="#F8F8F8" opacity="1.000000" stroke="none" 
	d="
M45.200264,70.799713 
	C47.785255,73.414101 50.122643,75.776215 52.447014,78.151070 
	C52.544544,78.250717 52.520786,78.469078 52.558018,78.654434 
	C52.308075,78.762062 51.985394,79.032761 51.809315,78.958031 
	C40.576607,74.190628 32.671074,78.459579 26.617506,88.076515 
	C25.385933,90.033043 23.947725,91.963226 22.228401,93.478508 
	C20.651209,94.868546 17.681688,97.038544 16.863873,96.505386 
	C13.952282,94.607216 11.310232,91.949471 9.440832,89.020935 
	C8.916237,88.199135 11.054999,85.101440 12.564866,83.675247 
	C15.818574,80.601868 19.305992,77.720200 22.972256,75.151917 
	C28.952574,70.962601 29.869411,65.380081 28.157061,58.865765 
	C27.669582,57.011246 27.099167,55.178532 27.335358,52.668610 
	C33.206997,58.628990 39.078640,64.589371 45.200264,70.799713 
z"/>
<path fill="#F3F3F3" opacity="1.000000" stroke="none" 
	d="
M19.628933,8.577412 
	C22.059948,13.303103 21.178730,17.116312 17.119623,19.757435 
	C13.620584,22.034143 9.985066,21.408073 7.169975,18.363003 
	C4.347335,15.309764 4.190891,11.745732 6.570006,8.310981 
	C9.584056,3.959569 14.653839,3.992229 19.628933,8.577412 
z"/>
</svg>