<svg version="1.1" id="Layer_1" xmlns="http://www.w3.org/2000/svg" xmlns:xlink="http://www.w3.org/1999/xlink" x="0px" y="0px"
	 width="100%" viewBox="0 0 100 100" enable-background="new 0 0 100 100" xml:space="preserve">
<path fill="#FCFCFC" opacity="1.000000" stroke="none" 
	d="
M54.000000,101.000000 
	C36.000004,101.000000 18.500006,101.000000 1.000007,101.000000 
	C1.000005,67.666679 1.000005,34.333351 1.000002,1.000021 
	C34.333317,1.000014 67.666634,1.000014 100.999969,1.000007 
	C100.999977,34.333313 100.999977,67.666626 100.999985,100.999969 
	C85.500000,101.000000 70.000000,101.000000 54.000000,101.000000 
M36.404949,11.756737 
	C21.461775,17.466747 10.087555,31.746344 10.667273,45.223896 
	C12.068364,44.451210 13.625149,43.477791 14.001442,42.165794 
	C18.206472,27.504400 27.585428,18.201485 42.228649,13.985987 
	C43.520126,13.614197 44.402328,11.820703 45.474621,10.687535 
	C45.087746,10.293645 44.700871,9.899755 44.313995,9.505863 
	C41.914875,10.134527 39.515759,10.763191 36.404949,11.756737 
M27.665298,85.889763 
	C33.152927,88.336693 38.640553,90.783623 44.128181,93.230553 
	C44.615723,92.471344 45.103268,91.712135 45.590813,90.952927 
	C44.369720,89.917931 43.307636,88.348030 41.903000,87.930473 
	C27.483406,83.643982 18.229809,74.383026 14.007528,59.932213 
	C13.615226,58.589550 11.939228,57.621960 10.859274,56.480217 
	C10.440636,56.870781 10.021998,57.261341 9.603360,57.651901 
	C11.552240,69.315132 17.430944,78.551643 27.665298,85.889763 
M77.219513,83.745941 
	C85.522522,76.813683 90.820427,68.218185 91.575874,56.929855 
	C89.931442,57.543156 88.354340,58.496201 87.980598,59.795406 
	C83.763283,74.455917 74.444237,83.832520 59.742832,88.013268 
	C58.457924,88.378654 57.589485,90.208534 56.527603,91.358185 
	C57.111774,92.088814 57.695946,92.819450 58.280117,93.550087 
	C64.395325,90.415352 70.510536,87.280609 77.219513,83.745941 
M79.391045,20.100540 
	C73.075882,14.517765 65.937057,10.718759 56.930546,10.294754 
	C57.486511,11.865675 58.326714,13.609900 59.558491,13.954517 
	C74.392967,18.104811 83.815651,27.495251 88.027931,42.313793 
	C88.386688,43.575878 90.229065,44.416237 91.382225,45.452507 
	C90.935196,34.972931 86.627144,27.152002 79.391045,20.100540 
M49.003399,14.520548 
	C49.003399,22.598026 49.003399,30.675503 49.003399,38.781002 
	C50.534214,38.781002 51.598743,38.781002 52.829292,38.781002 
	C52.829292,26.867649 52.829292,15.163389 52.829292,3.048378 
	C51.500713,3.118486 50.337635,3.179861 49.003162,3.250280 
	C49.003162,6.930570 49.003162,10.229275 49.003399,14.520548 
M15.512880,52.995716 
	C23.259237,52.995716 31.005596,52.995716 38.781891,52.995716 
	C38.781891,51.466446 38.781891,50.401863 38.781891,49.169193 
	C26.869253,49.169193 15.165041,49.169193 3.049220,49.169193 
	C3.118505,50.499210 3.179094,51.662292 3.248556,52.995716 
	C7.260609,52.995716 10.890564,52.995716 15.512880,52.995716 
M63.075371,52.411091 
	C74.920563,52.411091 86.765747,52.411091 98.933586,52.411091 
	C98.860321,51.442368 98.772194,50.277050 98.675941,49.004330 
	C87.527191,49.004330 76.759727,48.938961 65.996078,49.111687 
	C64.988220,49.127861 64.004486,50.647552 63.075371,52.411091 
M49.007580,64.799744 
	C49.007580,76.045868 49.007580,87.292000 49.007580,98.959213 
	C50.495113,98.882904 51.659222,98.823181 52.760086,98.766708 
	C52.760086,86.659492 52.760086,74.949997 52.760086,62.652596 
	C51.270977,63.134148 50.159157,63.493690 49.007580,64.799744 
M47.674519,46.042740 
	C46.897430,48.370388 45.159813,50.884106 45.566303,52.982471 
	C46.190388,56.204082 49.220497,57.749805 52.555027,56.723515 
	C56.026596,55.655045 57.749039,52.897007 56.597008,49.367081 
	C55.321156,45.457745 52.416573,44.006145 47.674519,46.042740 
M43.857269,30.181894 
	C36.996014,32.828175 32.259212,37.471306 30.546598,45.120491 
	C32.370056,44.560173 33.913399,43.617489 35.212875,42.411938 
	C37.722889,40.083344 39.804420,37.159328 42.615479,35.330429 
	C44.924389,33.828228 45.524647,32.505493 43.857269,30.181894 
M57.029980,30.842470 
	C57.625366,32.194141 57.932873,33.804787 58.871243,34.847923 
	C61.470844,37.737759 64.245209,40.489040 67.135231,43.089821 
	C68.296959,44.135292 69.940575,44.645283 71.364868,45.398991 
	C69.272850,37.387478 64.913834,32.166916 57.029980,30.842470 
M30.823318,59.533775 
	C33.494610,65.816048 38.098766,69.901596 45.643978,72.293968 
	C44.811584,70.126320 44.615028,68.461708 43.699543,67.443497 
	C40.784607,64.201485 37.559776,61.240612 34.539906,58.089443 
	C32.883297,56.360809 31.552145,56.546669 30.823318,59.533775 
M61.120625,65.787666 
	C58.925892,67.210938 55.484814,67.873039 57.507423,71.981750 
	C64.751045,69.477371 69.533096,64.689850 71.384125,56.948132 
	C69.541603,57.357540 68.046837,58.214008 66.879730,59.394436 
	C65.039207,61.255955 63.418816,63.335121 61.120625,65.787666 
z"/>
<path fill="#101010" opacity="1.000000" stroke="none" 
	d="
M36.760796,11.574296 
	C39.515759,10.763191 41.914875,10.134527 44.313995,9.505863 
	C44.700871,9.899755 45.087746,10.293645 45.474621,10.687535 
	C44.402328,11.820703 43.520126,13.614197 42.228649,13.985987 
	C27.585428,18.201485 18.206472,27.504400 14.001442,42.165794 
	C13.625149,43.477791 12.068364,44.451210 10.667273,45.223896 
	C10.087555,31.746344 21.461775,17.466747 36.760796,11.574296 
z"/>
<path fill="#101010" opacity="1.000000" stroke="none" 
	d="
M27.375830,85.672874 
	C17.430944,78.551643 11.552240,69.315132 9.603360,57.651901 
	C10.021998,57.261341 10.440636,56.870781 10.859274,56.480217 
	C11.939228,57.621960 13.615226,58.589550 14.007528,59.932213 
	C18.229809,74.383026 27.483406,83.643982 41.903000,87.930473 
	C43.307636,88.348030 44.369720,89.917931 45.590813,90.952927 
	C45.103268,91.712135 44.615723,92.471344 44.128181,93.230553 
	C38.640553,90.783623 33.152927,88.336693 27.375830,85.672874 
z"/>
<path fill="#101010" opacity="1.000000" stroke="none" 
	d="
M76.922630,83.945908 
	C70.510536,87.280609 64.395325,90.415352 58.280117,93.550087 
	C57.695946,92.819450 57.111774,92.088814 56.527603,91.358185 
	C57.589485,90.208534 58.457924,88.378654 59.742832,88.013268 
	C74.444237,83.832520 83.763283,74.455917 87.980598,59.795406 
	C88.354340,58.496201 89.931442,57.543156 91.575874,56.929855 
	C90.820427,68.218185 85.522522,76.813683 76.922630,83.945908 
z"/>
<path fill="#101010" opacity="1.000000" stroke="none" 
	d="
M79.647491,20.343910 
	C86.627144,27.152002 90.935196,34.972931 91.382225,45.452507 
	C90.229065,44.416237 88.386688,43.575878 88.027931,42.313793 
	C83.815651,27.495251 74.392967,18.104811 59.558491,13.954517 
	C58.326714,13.609900 57.486511,11.865675 56.930546,10.294754 
	C65.937057,10.718759 73.075882,14.517765 79.647491,20.343910 
z"/>
<path fill="#000000" opacity="1.000000" stroke="none" 
	d="
M49.003281,14.024263 
	C49.003162,10.229275 49.003162,6.930570 49.003162,3.250280 
	C50.337635,3.179861 51.500713,3.118486 52.829292,3.048378 
	C52.829292,15.163389 52.829292,26.867649 52.829292,38.781002 
	C51.598743,38.781002 50.534214,38.781002 49.003399,38.781002 
	C49.003399,30.675503 49.003399,22.598026 49.003281,14.024263 
z"/>
<path fill="#000000" opacity="1.000000" stroke="none" 
	d="
M15.016700,52.995716 
	C10.890564,52.995716 7.260609,52.995716 3.248556,52.995716 
	C3.179094,51.662292 3.118505,50.499210 3.049220,49.169193 
	C15.165041,49.169193 26.869253,49.169193 38.781891,49.169193 
	C38.781891,50.401863 38.781891,51.466446 38.781891,52.995716 
	C31.005596,52.995716 23.259237,52.995716 15.016700,52.995716 
z"/>
<path fill="#000000" opacity="1.000000" stroke="none" 
	d="
M63.042465,51.940125 
	C64.004486,50.647552 64.988220,49.127861 65.996078,49.111687 
	C76.759727,48.938961 87.527191,49.004330 98.675941,49.004330 
	C98.772194,50.277050 98.860321,51.442368 98.933586,52.411091 
	C86.765747,52.411091 74.920563,52.411091 63.042465,51.940125 
z"/>
<path fill="#000000" opacity="1.000000" stroke="none" 
	d="
M49.027458,64.326492 
	C50.159157,63.493690 51.270977,63.134148 52.760086,62.652596 
	C52.760086,74.949997 52.760086,86.659492 52.760086,98.766708 
	C51.659222,98.823181 50.495113,98.882904 49.007580,98.959213 
	C49.007580,87.292000 49.007580,76.045868 49.027458,64.326492 
z"/>
<path fill="#0A0A0A" opacity="1.000000" stroke="none" 
	d="
M48.023438,45.860397 
	C52.416573,44.006145 55.321156,45.457745 56.597008,49.367081 
	C57.749039,52.897007 56.026596,55.655045 52.555027,56.723515 
	C49.220497,57.749805 46.190388,56.204082 45.566303,52.982471 
	C45.159813,50.884106 46.897430,48.370388 48.023438,45.860397 
z"/>
<path fill="#0D0D0D" opacity="1.000000" stroke="none" 
	d="
M44.242790,30.171288 
	C45.524647,32.505493 44.924389,33.828228 42.615479,35.330429 
	C39.804420,37.159328 37.722889,40.083344 35.212875,42.411938 
	C33.913399,43.617489 32.370056,44.560173 30.546598,45.120491 
	C32.259212,37.471306 36.996014,32.828175 44.242790,30.171288 
z"/>
<path fill="#0E0E0E" opacity="1.000000" stroke="none" 
	d="
M57.204803,30.500877 
	C64.913834,32.166916 69.272850,37.387478 71.364868,45.398991 
	C69.940575,44.645283 68.296959,44.135292 67.135231,43.089821 
	C64.245209,40.489040 61.470844,37.737759 58.871243,34.847923 
	C57.932873,33.804787 57.625366,32.194141 57.204803,30.500877 
z"/>
<path fill="#0E0E0E" opacity="1.000000" stroke="none" 
	d="
M30.649372,59.193165 
	C31.552145,56.546669 32.883297,56.360809 34.539906,58.089443 
	C37.559776,61.240612 40.784607,64.201485 43.699543,67.443497 
	C44.615028,68.461708 44.811584,70.126320 45.643978,72.293968 
	C38.098766,69.901596 33.494610,65.816048 30.649372,59.193165 
z"/>
<path fill="#0E0E0E" opacity="1.000000" stroke="none" 
	d="
M61.412933,65.554909 
	C63.418816,63.335121 65.039207,61.255955 66.879730,59.394436 
	C68.046837,58.214008 69.541603,57.357540 71.384125,56.948132 
	C69.533096,64.689850 64.751045,69.477371 57.507423,71.981750 
	C55.484814,67.873039 58.925892,67.210938 61.412933,65.554909 
z"/>
</svg>