<svg version="1.1" id="Layer_1" xmlns="http://www.w3.org/2000/svg" xmlns:xlink="http://www.w3.org/1999/xlink" x="0px" y="0px"
	 width="100%" viewBox="0 0 100 100" enable-background="new 0 0 100 100" xml:space="preserve">
<path fill="#FBFBFB" opacity="1.000000" stroke="none" 
	d="
M101.000000,37.000000 
	C101.000000,58.666660 101.000000,79.833321 101.000000,100.999985 
	C67.666679,100.999992 34.333366,100.999992 1.000036,101.000000 
	C1.000024,67.666695 1.000024,34.333385 1.000012,1.000059 
	C34.333298,1.000039 67.666595,1.000039 100.999947,1.000020 
	C101.000000,12.833333 101.000000,24.666666 101.000000,37.000000 
M15.884034,60.659576 
	C17.829111,66.503548 15.773262,70.881744 10.926789,74.255455 
	C10.523185,74.536407 10.176115,74.923660 9.868728,75.313530 
	C8.270727,77.340340 6.694121,79.384010 5.110066,81.421814 
	C7.670304,82.284676 10.185006,83.655243 12.801584,83.889915 
	C16.607513,84.231262 17.878757,85.983772 18.107767,89.562469 
	C18.272951,92.143761 19.235601,94.674026 19.842567,97.227058 
	C20.520924,97.447113 21.199282,97.667168 21.877640,97.887222 
	C25.100809,94.354553 28.168667,90.657829 31.632059,87.378899 
	C32.831528,86.243317 35.089916,85.486305 36.733219,85.678711 
	C47.970581,86.994446 59.264393,88.138351 70.354408,90.292938 
	C77.715508,91.723053 86.261032,89.441872 92.248405,96.342361 
	C92.730965,96.898521 95.344162,96.508728 96.027534,95.731865 
	C96.699539,94.967926 96.374817,93.114372 96.136734,91.802605 
	C95.418808,87.847031 93.946159,83.940147 93.826027,79.982155 
	C93.549164,70.860107 94.761810,61.623482 93.765358,52.610767 
	C92.604004,42.106564 88.937553,32.254028 78.558739,26.165457 
	C80.706291,24.219612 83.009338,20.468294 85.046310,20.607603 
	C90.571472,20.985466 91.920403,17.309483 93.651543,13.862891 
	C94.913979,11.349468 95.522346,8.507527 96.422302,5.812041 
	C93.605438,6.669342 90.586174,7.144130 88.031105,8.496169 
	C85.679268,9.740666 82.131447,11.881716 82.080971,13.709840 
	C81.945015,18.633684 78.469055,20.349003 75.818581,23.159788 
	C72.363968,17.274984 68.120697,14.071272 60.403210,11.064951 
	C48.006092,6.235692 35.267811,7.439610 22.434443,8.313711 
	C18.423748,8.586886 14.288021,6.690492 10.175451,5.986225 
	C8.770339,5.745602 7.261000,6.113608 5.799282,6.203533 
	C6.033156,7.816146 6.009284,9.523141 6.557622,11.020604 
	C7.528509,13.672009 9.487274,16.095034 9.912637,18.790380 
	C12.065122,32.429764 13.856865,46.126076 15.884034,60.659576 
z"/>
<path fill="#0C0C0C" opacity="1.000000" stroke="none" 
	d="
M15.829559,60.231003 
	C13.856865,46.126076 12.065122,32.429764 9.912637,18.790380 
	C9.487274,16.095034 7.528509,13.672009 6.557622,11.020604 
	C6.009284,9.523141 6.033156,7.816146 5.799282,6.203533 
	C7.261000,6.113608 8.770339,5.745602 10.175451,5.986225 
	C14.288021,6.690492 18.423748,8.586886 22.434443,8.313711 
	C35.267811,7.439610 48.006092,6.235692 60.403210,11.064951 
	C68.120697,14.071272 72.363968,17.274984 75.818581,23.159788 
	C78.469055,20.349003 81.945015,18.633684 82.080971,13.709840 
	C82.131447,11.881716 85.679268,9.740666 88.031105,8.496169 
	C90.586174,7.144130 93.605438,6.669342 96.422302,5.812040 
	C95.522346,8.507527 94.913979,11.349468 93.651543,13.862891 
	C91.920403,17.309483 90.571472,20.985466 85.046310,20.607603 
	C83.009338,20.468294 80.706291,24.219612 78.558739,26.165457 
	C88.937553,32.254028 92.604004,42.106564 93.765358,52.610767 
	C94.761810,61.623482 93.549164,70.860107 93.826027,79.982155 
	C93.946159,83.940147 95.418808,87.847031 96.136734,91.802605 
	C96.374817,93.114372 96.699539,94.967926 96.027534,95.731865 
	C95.344162,96.508728 92.730965,96.898521 92.248405,96.342361 
	C86.261032,89.441872 77.715508,91.723053 70.354408,90.292938 
	C59.264393,88.138351 47.970581,86.994446 36.733219,85.678711 
	C35.089916,85.486305 32.831528,86.243317 31.632059,87.378899 
	C28.168667,90.657829 25.100809,94.354553 21.877640,97.887222 
	C21.199282,97.667168 20.520924,97.447113 19.842567,97.227058 
	C19.235601,94.674026 18.272951,92.143761 18.107767,89.562469 
	C17.878757,85.983772 16.607513,84.231262 12.801584,83.889915 
	C10.185006,83.655243 7.670304,82.284676 5.110065,81.421814 
	C6.694121,79.384010 8.270727,77.340340 9.868728,75.313530 
	C10.176115,74.923660 10.523185,74.536407 10.926789,74.255455 
	C15.773262,70.881744 17.829111,66.503548 15.829559,60.231003 
M46.274078,18.068956 
	C35.850273,13.044662 24.853916,14.964935 13.612498,15.266362 
	C15.730454,30.414318 18.170980,45.340263 19.733080,60.357582 
	C20.311657,65.919762 22.026733,68.707993 27.635771,68.278427 
	C29.244303,68.155243 31.210997,67.751022 32.306149,66.722519 
	C37.640881,61.712440 42.710255,56.421127 47.921936,51.278393 
	C54.767654,44.523232 61.658611,37.813911 68.838661,30.782722 
	C61.049519,26.335670 54.026516,22.326031 46.274078,18.068956 
M82.655708,52.997356 
	C78.907921,46.672955 75.160141,40.348549 71.067284,33.441841 
	C58.707451,45.907497 46.489845,57.879562 34.844898,70.384895 
	C33.257660,72.089401 34.167953,76.519562 34.688236,79.556427 
	C34.856449,80.538292 37.405731,81.482880 38.990379,81.779808 
	C43.228313,82.573898 47.533733,83.007866 51.812405,83.584457 
	C63.429165,85.149933 75.045959,86.715172 86.699440,88.285446 
	C87.359276,76.228035 88.578575,64.587769 82.655708,52.997356 
M70.028564,21.796028 
	C62.270947,14.818319 53.189529,11.709620 43.799538,11.990170 
	C50.714970,16.039772 58.140121,20.458359 65.653931,24.720669 
	C66.954239,25.458290 68.630089,25.533892 70.132469,25.915281 
	C70.256310,24.745358 70.380150,23.575436 70.028564,21.796028 
M84.340195,37.225109 
	C83.035240,35.530487 81.934402,33.597122 80.343498,32.236938 
	C79.483864,31.501965 77.786888,31.746342 76.467667,31.548893 
	C76.457657,32.764397 75.984612,34.249287 76.510414,35.153061 
	C80.975571,42.827938 85.622566,50.397026 90.215034,57.997837 
	C90.573769,57.918495 90.932503,57.839157 91.291237,57.759815 
	C89.117012,51.119511 86.942787,44.479206 84.340195,37.225109 
M14.057544,76.715958 
	C13.330961,77.631187 12.604378,78.546417 11.704214,79.680298 
	C18.981770,80.976730 22.140833,79.216103 25.730251,72.424385 
	C20.659115,69.533989 17.545862,72.674713 14.057544,76.715958 
M22.549515,82.195679 
	C22.272087,84.751991 21.994659,87.308304 21.594107,90.999123 
	C31.557438,82.762810 31.557438,82.762810 28.779272,74.868164 
	C26.641756,77.425468 24.862316,79.554375 22.549515,82.195679 
z"/>
<path fill="#FBFBFB" opacity="1.000000" stroke="none" 
	d="
M46.638794,18.192675 
	C54.026516,22.326031 61.049519,26.335670 68.838661,30.782722 
	C61.658611,37.813911 54.767654,44.523232 47.921936,51.278393 
	C42.710255,56.421127 37.640881,61.712440 32.306149,66.722519 
	C31.210997,67.751022 29.244303,68.155243 27.635771,68.278427 
	C22.026733,68.707993 20.311657,65.919762 19.733080,60.357582 
	C18.170980,45.340263 15.730454,30.414318 13.612498,15.266362 
	C24.853916,14.964935 35.850273,13.044662 46.638794,18.192675 
z"/>
<path fill="#FBFBFB" opacity="1.000000" stroke="none" 
	d="
M82.804359,53.350647 
	C88.578575,64.587769 87.359276,76.228035 86.699440,88.285446 
	C75.045959,86.715172 63.429165,85.149933 51.812405,83.584457 
	C47.533733,83.007866 43.228313,82.573898 38.990379,81.779808 
	C37.405731,81.482880 34.856449,80.538292 34.688236,79.556427 
	C34.167953,76.519562 33.257660,72.089401 34.844898,70.384895 
	C46.489845,57.879562 58.707451,45.907497 71.067284,33.441841 
	C75.160141,40.348549 78.907921,46.672955 82.804359,53.350647 
z"/>
<path fill="#EEEEEE" opacity="1.000000" stroke="none" 
	d="
M70.266273,22.100771 
	C70.380150,23.575436 70.256310,24.745358 70.132477,25.915283 
	C68.630089,25.533892 66.954239,25.458290 65.653931,24.720669 
	C58.140121,20.458359 50.714970,16.039772 43.799538,11.990170 
	C53.189529,11.709620 62.270947,14.818319 70.266273,22.100771 
z"/>
<path fill="#EDEDED" opacity="1.000000" stroke="none" 
	d="
M84.554382,37.532005 
	C86.942787,44.479206 89.117012,51.119511 91.291237,57.759815 
	C90.932503,57.839157 90.573769,57.918495 90.215034,57.997837 
	C85.622566,50.397026 80.975571,42.827938 76.510414,35.153061 
	C75.984612,34.249287 76.457657,32.764397 76.467667,31.548893 
	C77.786888,31.746342 79.483864,31.501965 80.343498,32.236938 
	C81.934402,33.597122 83.035240,35.530487 84.554382,37.532005 
z"/>
<path fill="#E6E6E6" opacity="1.000000" stroke="none" 
	d="
M14.309814,76.451126 
	C17.545862,72.674713 20.659115,69.533989 25.730251,72.424385 
	C22.140833,79.216103 18.981770,80.976730 11.704214,79.680298 
	C12.604378,78.546417 13.330961,77.631187 14.309814,76.451126 
z"/>
<path fill="#E6E6E6" opacity="1.000000" stroke="none" 
	d="
M22.816195,81.939484 
	C24.862316,79.554375 26.641756,77.425468 28.779272,74.868164 
	C31.557438,82.762810 31.557438,82.762810 21.594107,90.999123 
	C21.994659,87.308304 22.272087,84.751991 22.816195,81.939484 
z"/>
</svg>