<svg version="1.1" id="Layer_1" xmlns="http://www.w3.org/2000/svg" xmlns:xlink="http://www.w3.org/1999/xlink" x="0px" y="0px"
	 width="100%" viewBox="0 0 100 100" enable-background="new 0 0 100 100" xml:space="preserve">
<path fill="#FDFDFD" opacity="1.000000" stroke="none" 
	d="
M101.000000,38.000000 
	C101.000000,59.333328 101.000000,80.166656 101.000000,100.999985 
	C67.666679,100.999992 34.333366,100.999992 1.000036,101.000000 
	C1.000024,67.666695 1.000024,34.333385 1.000012,1.000059 
	C34.333298,1.000039 67.666595,1.000039 100.999947,1.000020 
	C101.000000,13.166667 101.000000,25.333334 101.000000,38.000000 
M79.859894,53.520222 
	C83.399223,50.255501 87.130013,47.172825 90.440895,43.690872 
	C99.281616,34.393368 99.217163,20.693134 90.494873,11.788189 
	C81.659714,2.768010 67.990509,2.907991 58.145439,11.518536 
	C48.785030,19.705193 43.282398,28.939383 45.177876,42.026722 
	C46.197117,49.064056 44.536789,55.962570 38.322083,60.841953 
	C32.536068,65.384750 28.662767,71.631996 20.636265,74.305954 
	C14.698507,76.284058 10.296166,83.317284 5.743590,88.561813 
	C4.996940,89.421944 6.468672,93.214996 7.909635,94.662590 
	C9.164426,95.923149 13.037368,96.834869 13.672207,96.100822 
	C19.124887,89.795967 28.470041,86.465408 29.185116,76.401123 
	C29.252138,75.457825 30.414593,74.525337 31.198011,73.712746 
	C33.392029,71.437035 35.965809,69.458817 37.833076,66.949059 
	C44.569901,57.894222 53.665615,56.007534 64.330276,56.666161 
	C69.220108,56.968143 74.255829,54.907845 79.859894,53.520222 
M27.331860,35.954929 
	C30.928247,28.967226 34.520020,21.977142 38.123047,14.992867 
	C39.818726,11.705883 39.148911,8.809212 36.393612,6.551336 
	C33.584530,4.249389 30.679317,4.575725 27.745123,6.673784 
	C25.374874,8.368603 22.901882,9.987713 20.289200,11.259930 
	C16.131817,13.284319 11.866649,15.111170 7.556891,16.790089 
	C4.870780,17.836494 4.575790,19.546370 5.402165,21.906166 
	C8.318423,30.233822 14.373751,35.480125 22.358408,38.517708 
	C23.517965,38.958839 25.461535,37.339104 27.331860,35.954929 
z"/>
<path fill="currentColor" opacity="1.000000" stroke="currentColor" stroke-width="3.000000"
	d="
M79.542648,53.719521 
	C74.255829,54.907845 69.220108,56.968143 64.330276,56.666161 
	C53.665615,56.007534 44.569901,57.894222 37.833076,66.949059 
	C35.965809,69.458817 33.392029,71.437035 31.198011,73.712746 
	C30.414593,74.525337 29.252138,75.457825 29.185116,76.401123 
	C28.470041,86.465408 19.124887,89.795967 13.672207,96.100822 
	C13.037368,96.834869 9.164426,95.923149 7.909635,94.662590 
	C6.468672,93.214996 4.996940,89.421944 5.743590,88.561813 
	C10.296166,83.317284 14.698507,76.284058 20.636265,74.305954 
	C28.662767,71.631996 32.536068,65.384750 38.322083,60.841953 
	C44.536789,55.962570 46.197117,49.064056 45.177876,42.026722 
	C43.282398,28.939383 48.785030,19.705193 58.145439,11.518536 
	C67.990509,2.907991 81.659714,2.768010 90.494873,11.788189 
	C99.217163,20.693134 99.281616,34.393368 90.440895,43.690872 
	C87.130013,47.172825 83.399223,50.255501 79.542648,53.719521 
M79.061935,16.108976 
	C77.954430,14.265319 76.846931,12.421662 75.419563,10.045535 
	C73.853264,11.745780 72.895653,12.785277 71.245071,13.966105 
	C70.074661,14.036428 68.904259,14.106751 67.268951,13.860265 
	C63.780674,10.365693 62.085526,13.717204 59.990417,15.579985 
	C60.654453,17.144735 61.247917,18.543190 61.245228,19.941786 
	C60.851086,19.902069 60.456947,19.862352 59.783669,19.201637 
	C57.092007,16.251034 56.196526,19.661919 54.936802,20.815550 
	C54.557678,21.162741 55.489098,22.940990 55.962704,24.782661 
	C55.948212,25.511663 55.933716,26.240667 55.217228,27.243931 
	C52.606155,29.692638 55.038593,35.409622 49.548077,35.992409 
	C49.941410,38.283581 50.334743,40.574749 50.750675,42.997547 
	C53.209976,41.445621 55.089355,40.259647 57.033199,39.729992 
	C56.635185,40.466152 56.237171,41.202312 55.214741,42.224110 
	C50.703979,45.810619 54.524139,47.246647 56.973209,49.556877 
	C58.173664,48.237988 59.117920,47.200573 60.670658,46.246868 
	C60.405045,47.803356 60.139431,49.359848 59.839619,51.116734 
	C62.761932,52.682072 65.531471,53.169739 69.303391,50.605793 
	C71.792427,48.913872 73.438652,44.246449 78.216667,46.792271 
	C79.389587,46.782665 81.211990,47.229340 81.604103,46.671192 
	C82.499565,45.396561 82.694908,43.630070 83.976128,42.063732 
	C84.950432,41.813213 85.924728,41.562691 87.421562,41.007648 
	C88.313454,39.894550 89.205353,38.781452 90.541428,37.114010 
	C88.720108,36.347633 87.359688,35.775192 85.443375,34.986141 
	C85.638252,34.349785 85.833122,33.713425 86.694557,32.787392 
	C92.165230,29.603832 91.958351,25.991335 86.759323,21.291576 
	C85.517403,20.174620 84.275482,19.057665 83.001663,17.998224 
	C83.001663,17.998224 83.059189,17.966370 82.852646,17.346577 
	C81.591797,17.179277 80.330940,17.011978 79.061935,16.108976 
M13.920583,85.527786 
	C12.981072,86.455292 11.866951,87.267784 11.156603,88.346230 
	C10.575066,89.229111 10.474661,90.428909 10.160966,91.488213 
	C11.337726,91.288994 12.885626,91.497063 13.627717,90.820839 
	C17.042772,87.708862 20.298750,84.411797 23.460442,81.039238 
	C24.315855,80.126778 24.641756,78.717911 25.732849,76.453003 
	C19.802551,78.022957 17.758017,82.355469 13.920583,85.527786 
z"/>
<path fill="currentColor" opacity="1.000000" stroke="currentColor" stroke-width="3.000000"
	d="
M27.187084,36.313972 
	C25.461535,37.339104 23.517965,38.958839 22.358408,38.517708 
	C14.373751,35.480125 8.318423,30.233822 5.402165,21.906166 
	C4.575790,19.546370 4.870780,17.836494 7.556891,16.790089 
	C11.866649,15.111170 16.131817,13.284319 20.289200,11.259930 
	C22.901882,9.987713 25.374874,8.368603 27.745123,6.673784 
	C30.679317,4.575725 33.584530,4.249389 36.393612,6.551336 
	C39.148911,8.809212 39.818726,11.705883 38.123047,14.992867 
	C34.520020,21.977142 30.928247,28.967226 27.187084,36.313972 
M23.393257,34.135361 
	C27.777252,26.404327 27.538527,26.624674 20.976017,19.514835 
	C16.338604,14.490652 13.506769,19.787729 9.777084,20.311716 
	C12.167665,27.589235 15.391870,30.993097 23.393257,34.135361 
M24.036789,17.191700 
	C25.336758,18.854271 26.636724,20.516842 28.336689,22.690981 
	C29.549040,20.405214 30.768677,19.173407 30.597763,18.181108 
	C30.332359,16.640219 29.407341,14.903863 28.207373,13.942773 
	C27.420605,13.312629 25.558250,13.635495 24.372908,14.067454 
	C23.829962,14.265312 23.757149,15.753253 24.036789,17.191700 
z"/>
<path fill="currentColor" opacity="1.000000" stroke="currentColor" stroke-width="3.000000"
	d="
M83.033562,17.940708 
	C84.275482,19.057665 85.517403,20.174620 86.852448,21.964869 
	C86.025398,24.116043 85.105225,25.593925 84.585312,26.428961 
	C85.160416,29.079142 85.594200,31.078104 86.027992,33.077065 
	C85.833122,33.713425 85.638252,34.349785 85.672531,35.439304 
	C84.760712,37.970181 82.816261,40.195747 86.899033,41.312168 
	C85.924728,41.562691 84.950432,41.813213 83.193359,42.049911 
	C80.920036,43.415081 79.429482,44.794075 77.938927,46.173065 
	C73.438652,44.246449 71.792427,48.913872 69.303391,50.605793 
	C65.531471,53.169739 62.761932,52.682072 59.839619,51.116734 
	C60.139431,49.359848 60.405045,47.803356 60.322258,45.843533 
	C58.595631,44.272957 57.217396,43.105717 55.839161,41.938477 
	C56.237171,41.202312 56.635185,40.466152 57.143997,39.106308 
	C58.016331,37.951500 58.777874,37.420372 58.744648,37.443542 
	C61.925072,40.881371 64.698624,44.064960 67.736961,46.971783 
	C68.215324,47.429447 69.892601,46.633949 71.015541,46.417877 
	C70.710320,45.185524 70.437531,42.896519 70.094818,42.886005 
	C67.025612,42.791824 67.167717,40.003021 65.903954,38.417393 
	C62.936871,34.694630 59.861172,31.058203 56.806129,27.406324 
	C56.612778,27.175201 56.219494,27.111343 55.919220,26.969669 
	C55.933716,26.240667 55.948212,25.511663 56.253952,24.376732 
	C57.717739,22.588079 58.890270,21.205359 60.062805,19.822638 
	C60.456947,19.862352 60.851086,19.902069 61.931480,19.958046 
	C63.783772,20.423183 65.479401,20.536333 66.016640,21.383820 
	C67.634560,23.936039 69.652878,23.791279 71.953339,23.322971 
	C69.902000,27.547993 73.020531,31.828728 77.997391,32.336037 
	C77.999367,33.110851 77.999985,33.553650 77.892670,34.216110 
	C77.585663,34.709797 77.324791,34.898300 76.671692,34.857849 
	C73.255775,33.010624 72.840477,35.308899 72.849678,37.340950 
	C72.855911,38.719654 73.729118,40.094433 74.214600,41.470963 
	C75.476501,40.314781 76.738403,39.158600 78.376366,38.000389 
	C79.832962,37.329903 80.913506,36.661457 82.133316,35.706966 
	C82.514557,33.948570 82.756516,32.476223 82.994492,30.639462 
	C82.888351,26.095078 80.191841,27.599527 77.963905,27.646675 
	C75.951775,25.863804 73.976036,24.431786 71.995956,22.634884 
	C70.744202,20.604870 69.496803,18.939741 68.249405,17.274611 
	C67.871941,17.490505 67.494476,17.706400 67.117012,17.922295 
	C67.322624,16.673887 67.528229,15.425481 67.733841,14.177074 
	C68.904259,14.106751 70.074661,14.036428 71.640114,14.269356 
	C72.536270,15.921969 73.037376,17.271334 73.683090,19.010069 
	C75.611382,18.234961 77.340736,17.539820 79.070091,16.844679 
	C80.330940,17.011978 81.591797,17.179277 82.585045,17.669884 
	C81.541718,18.213455 80.464371,18.194153 80.057014,18.707010 
	C79.347206,19.600634 78.575577,20.900827 78.737671,21.880373 
	C78.857231,22.602875 80.980705,23.769493 81.242714,23.555012 
	C82.242180,22.736839 83.031555,21.512966 83.526199,20.289726 
	C83.775253,19.673834 83.223305,18.734037 83.033562,17.940708 
M61.064190,28.584597 
	C61.691399,29.648611 62.318611,30.712624 62.945820,31.776638 
	C63.379353,31.797964 63.812889,31.819290 64.246422,31.840616 
	C64.670456,29.972466 65.352654,28.107269 65.374077,26.234514 
	C65.381264,25.605988 63.705616,24.958216 62.799160,24.319239 
	C62.077713,25.554241 61.356266,26.789242 61.064190,28.584597 
M70.970596,31.510956 
	C68.936531,29.247837 67.377472,30.459797 66.565575,32.485298 
	C66.296967,33.155422 67.662338,34.480499 68.280632,35.506123 
	C69.322952,34.353107 70.365273,33.200092 70.970596,31.510956 
z"/>
<path fill="currentColor" opacity="1.000000" stroke="currentColor" stroke-width="3.000000"
	d="
M55.568222,27.106800 
	C56.219494,27.111343 56.612778,27.175201 56.806129,27.406324 
	C59.861172,31.058203 62.936871,34.694630 65.903954,38.417393 
	C67.167717,40.003021 67.025612,42.791824 70.094818,42.886005 
	C70.437531,42.896519 70.710320,45.185524 71.015541,46.417877 
	C69.892601,46.633949 68.215324,47.429447 67.736961,46.971783 
	C64.698624,44.064960 61.925072,40.881371 58.744648,37.443542 
	C58.777874,37.420372 58.016331,37.951500 57.111763,38.778149 
	C55.089355,40.259647 53.209976,41.445621 50.750675,42.997547 
	C50.334743,40.574749 49.941410,38.283581 49.548080,35.992409 
	C55.038593,35.409622 52.606155,29.692638 55.568222,27.106800 
z"/>
<path fill="#F5F5F5" opacity="1.000000" stroke="none" 
	d="
M14.171052,85.263199 
	C17.758017,82.355469 19.802551,78.022957 25.732849,76.453003 
	C24.641756,78.717911 24.315855,80.126778 23.460442,81.039238 
	C20.298750,84.411797 17.042772,87.708862 13.627717,90.820839 
	C12.885626,91.497063 11.337726,91.288994 10.160966,91.488213 
	C10.474661,90.428909 10.575066,89.229111 11.156603,88.346230 
	C11.866951,87.267784 12.981072,86.455292 14.171052,85.263199 
z"/>
<path fill="#EAEAEA" opacity="1.000000" stroke="none" 
	d="
M67.501396,14.018669 
	C67.528229,15.425481 67.322624,16.673887 67.117012,17.922295 
	C67.494476,17.706400 67.871941,17.490505 68.249405,17.274611 
	C69.496803,18.939741 70.744202,20.604870 71.995804,22.634998 
	C72.000000,23.000000 71.999695,23.000229 71.999695,23.000229 
	C69.652878,23.791279 67.634560,23.936039 66.016640,21.383820 
	C65.479401,20.536333 63.783772,20.423183 62.229561,19.957977 
	C61.247917,18.543190 60.654453,17.144735 59.990417,15.579985 
	C62.085526,13.717204 63.780674,10.365693 67.501396,14.018669 
z"/>
<path fill="#EAEAEA" opacity="1.000000" stroke="none" 
	d="
M86.361275,32.932228 
	C85.594200,31.078104 85.160416,29.079142 84.585312,26.428961 
	C85.105225,25.593925 86.025398,24.116043 86.985092,22.285040 
	C91.958351,25.991335 92.165230,29.603832 86.361275,32.932228 
z"/>
<path fill="#EAEAEA" opacity="1.000000" stroke="none" 
	d="
M79.066010,16.476828 
	C77.340736,17.539820 75.611382,18.234961 73.683090,19.010069 
	C73.037376,17.271334 72.536270,15.921969 71.986603,14.198690 
	C72.895653,12.785277 73.853264,11.745780 75.419563,10.045535 
	C76.846931,12.421662 77.954430,14.265319 79.066010,16.476828 
z"/>
<path fill="#F3F3F3" opacity="1.000000" stroke="none" 
	d="
M55.526951,42.081291 
	C57.217396,43.105717 58.595631,44.272957 60.018021,45.801678 
	C59.117920,47.200573 58.173664,48.237988 56.973209,49.556877 
	C54.524139,47.246647 50.703979,45.810619 55.526951,42.081291 
z"/>
<path fill="#EAEAEA" opacity="1.000000" stroke="none" 
	d="
M59.923237,19.512138 
	C58.890270,21.205359 57.717739,22.588079 56.182682,24.017239 
	C55.489098,22.940990 54.557678,21.162741 54.936802,20.815550 
	C56.196526,19.661919 57.092007,16.251034 59.923237,19.512138 
z"/>
<path fill="#EAEAEA" opacity="1.000000" stroke="none" 
	d="
M78.077797,46.482666 
	C79.429482,44.794075 80.920036,43.415081 82.792618,42.049732 
	C82.694908,43.630070 82.499565,45.396561 81.604103,46.671192 
	C81.211990,47.229340 79.389587,46.782665 78.077797,46.482666 
z"/>
<path fill="#EAEAEA" opacity="1.000000" stroke="none" 
	d="
M87.160294,41.159908 
	C82.816261,40.195747 84.760712,37.970181 85.950470,35.547611 
	C87.359688,35.775192 88.720108,36.347633 90.541428,37.114010 
	C89.205353,38.781452 88.313454,39.894550 87.160294,41.159908 
z"/>
<path fill="#F5F5F5" opacity="1.000000" stroke="none" 
	d="
M23.005276,34.107841 
	C15.391870,30.993097 12.167665,27.589235 9.777084,20.311716 
	C13.506769,19.787729 16.338604,14.490652 20.976017,19.514835 
	C27.538527,26.624674 27.777252,26.404327 23.005276,34.107841 
z"/>
<path fill="#E1E1E1" opacity="1.000000" stroke="none" 
	d="
M23.753960,16.923916 
	C23.757149,15.753253 23.829962,14.265312 24.372908,14.067454 
	C25.558250,13.635495 27.420605,13.312629 28.207373,13.942773 
	C29.407341,14.903863 30.332359,16.640219 30.597763,18.181108 
	C30.768677,19.173407 29.549040,20.405214 28.336689,22.690981 
	C26.636724,20.516842 25.336758,18.854271 23.753960,16.923916 
z"/>
<path fill="#EAEAEA" opacity="1.000000" stroke="none" 
	d="
M72.000153,22.999886 
	C73.976036,24.431786 75.951775,25.863804 77.964142,28.046867 
	C78.000893,29.864769 78.001007,30.931620 78.000534,31.999271 
	C77.999939,32.000072 77.996033,32.004021 77.996033,32.004021 
	C73.020531,31.828728 69.902000,27.547993 71.953339,23.322971 
	C71.999695,23.000229 72.000000,23.000000 72.000153,22.999886 
z"/>
<path fill="#EAEAEA" opacity="1.000000" stroke="none" 
	d="
M78.000305,38.002422 
	C76.738403,39.158600 75.476501,40.314781 74.214600,41.470963 
	C73.729118,40.094433 72.855911,38.719654 72.849678,37.340950 
	C72.840477,35.308899 73.255775,33.010624 76.672966,35.195877 
	C77.336548,36.452370 77.668427,37.227394 78.000305,38.002422 
z"/>
<path fill="#EAEAEA" opacity="1.000000" stroke="none" 
	d="
M60.849503,28.304420 
	C61.356266,26.789242 62.077713,25.554241 62.799160,24.319239 
	C63.705616,24.958216 65.381264,25.605988 65.374077,26.234514 
	C65.352654,28.107269 64.670456,29.972466 64.246422,31.840616 
	C63.812889,31.819290 63.379353,31.797964 62.945820,31.776638 
	C62.318611,30.712624 61.691399,29.648611 60.849503,28.304420 
z"/>
<path fill="#EAEAEA" opacity="1.000000" stroke="none" 
	d="
M83.017609,17.969467 
	C83.223305,18.734037 83.775253,19.673834 83.526199,20.289726 
	C83.031555,21.512966 82.242180,22.736839 81.242714,23.555012 
	C80.980705,23.769493 78.857231,22.602875 78.737671,21.880373 
	C78.575577,20.900827 79.347206,19.600634 80.057014,18.707010 
	C80.464371,18.194153 81.541718,18.213455 82.688316,17.979778 
	C83.059189,17.966370 83.001663,17.998224 83.017609,17.969467 
z"/>
<path fill="#EAEAEA" opacity="1.000000" stroke="none" 
	d="
M71.189087,31.779016 
	C70.365273,33.200092 69.322952,34.353107 68.280632,35.506123 
	C67.662338,34.480499 66.296967,33.155422 66.565575,32.485298 
	C67.377472,30.459797 68.936531,29.247837 71.189087,31.779016 
z"/>
<path fill="#EAEAEA" opacity="1.000000" stroke="none" 
	d="
M82.998474,31.003876 
	C82.756516,32.476223 82.514557,33.948570 81.808304,35.679569 
	C80.229546,35.290962 79.115067,34.643707 78.000595,33.996452 
	C77.999985,33.553650 77.999367,33.110851 77.997391,32.336037 
	C77.996033,32.004021 77.999939,32.000072 78.288239,31.863674 
	C80.050514,31.486141 81.524490,31.245008 82.998474,31.003876 
z"/>
<path fill="#EDEDED" opacity="1.000000" stroke="none" 
	d="
M82.994492,30.639462 
	C81.524490,31.245008 80.050514,31.486141 78.288826,31.862873 
	C78.001007,30.931620 78.000893,29.864769 78.000542,28.397724 
	C80.191841,27.599527 82.888351,26.095078 82.994492,30.639462 
z"/>
<path fill="#EDEDED" opacity="1.000000" stroke="none" 
	d="
M77.892662,34.216110 
	C79.115067,34.643707 80.229546,35.290962 81.669029,35.965614 
	C80.913506,36.661457 79.832962,37.329903 78.376366,38.000389 
	C77.668427,37.227394 77.336548,36.452370 77.003387,35.339317 
	C77.324791,34.898300 77.585663,34.709797 77.892662,34.216110 
z"/>
</svg>