<svg version="1.1" id="Layer_1" xmlns="http://www.w3.org/2000/svg" xmlns:xlink="http://www.w3.org/1999/xlink" x="0px" y="0px"
	 width="100%" viewBox="0 0 1020 800" enable-background="new 0 0 1020 800" xml:space="preserve">
<path fill="currentColor" opacity="1.000000" stroke="currentColor" stroke-width="6.000000"
	d="
M636.000000,1.000000 
	C655.020874,1.000000 674.041809,1.000000 693.831299,1.173790 
	C706.733765,6.224344 710.334351,11.449522 710.365295,24.394537 
	C710.401123,39.392864 710.446655,54.391682 710.350464,69.389404 
	C710.328857,72.758186 711.200806,74.810257 714.641174,76.242447 
	C743.456604,88.238144 759.299438,112.136688 759.324341,143.282288 
	C759.344849,168.946213 759.331482,194.610153 759.332214,220.274094 
	C759.332275,222.777618 759.079529,225.322357 761.958252,226.715454 
	C777.272095,234.126312 785.326660,247.558075 791.297058,262.570770 
	C807.487976,303.283234 813.351501,346.061066 816.229675,389.391968 
	C816.834900,398.504211 816.508179,398.525879 825.359741,399.518677 
	C837.740906,400.907379 845.100037,409.085938 845.285278,421.583038 
	C845.455811,433.082520 843.810425,430.790771 854.722229,435.479248 
	C855.027771,435.610474 855.352966,435.695526 855.661499,435.820618 
	C897.484619,452.782684 937.948547,472.328705 973.768188,500.203918 
	C995.071777,516.782593 1014.658508,535.063354 1025.000000,561.000000 
	C1025.000000,576.354248 1025.000000,591.708435 1024.932129,607.895142 
	C1019.653564,628.500183 1014.377136,648.255798 1009.260925,668.052795 
	C1006.810364,677.535278 1002.155090,685.569763 994.756775,692.019592 
	C988.600891,697.386353 981.244202,707.172485 977.833252,714.378845 
	C965.236938,740.991272 932.783020,751.742310 905.465149,738.046204 
	C891.014893,730.801331 876.519775,723.702148 861.484802,717.745544 
	C858.985229,716.755310 856.713257,715.940735 853.932495,717.579407 
	C847.306946,721.483887 840.272888,721.352783 833.260254,718.567688 
	C827.999023,716.478210 822.860046,714.075562 817.572571,712.058777 
	C810.523010,709.369934 804.296387,705.832397 801.146362,698.462158 
	C800.841553,697.748901 800.172729,696.924805 799.485535,696.681702 
	C790.747986,693.590332 782.259766,686.807556 772.692261,694.794189 
	C771.456848,695.825378 769.481995,696.119202 769.549988,698.223938 
	C769.621826,700.447083 771.215698,701.231079 773.099060,701.817932 
	C778.202087,703.408081 781.007751,707.081055 782.197937,712.155640 
	C784.325439,721.226807 786.434387,730.302551 788.607849,739.362793 
	C790.771179,748.381104 787.803772,754.134888 779.019836,757.440063 
	C768.734131,761.310303 758.262451,764.615906 747.719543,767.725403 
	C700.841431,781.551636 653.015381,790.745178 604.662720,797.516174 
	C596.113281,798.713379 587.405701,798.775146 579.000000,801.000000 
	C507.312439,801.000000 435.624878,801.000000 363.144775,800.808838 
	C360.900818,800.252502 359.469025,799.734985 357.995026,799.545227 
	C339.650635,797.183228 321.648193,793.075989 303.701172,788.754395 
	C283.325562,783.847961 263.310303,777.434143 242.517868,774.275635 
	C235.151382,773.156616 234.714676,773.332886 234.900421,780.759644 
	C235.098572,788.682129 234.558487,796.170959 227.000000,801.000000 
	C154.645767,801.000000 82.291542,801.000000 9.217388,800.779419 
	C5.343328,799.121216 2.994366,796.763306 1.000000,794.000000 
	C1.000000,767.312439 1.000000,740.624878 1.279756,713.282776 
	C3.877112,710.511719 6.070124,708.177063 9.223979,707.311890 
	C12.104623,706.521729 12.266400,704.517944 11.458629,702.287598 
	C6.142694,687.610168 3.456020,672.333313 1.000000,657.000000 
	C1.000000,645.979126 1.000000,634.958191 1.058878,623.089355 
	C2.792311,618.672974 2.465613,614.742188 3.125073,610.991211 
	C8.963082,577.785034 20.806517,546.558655 34.444530,515.932190 
	C39.888550,503.706818 46.822292,501.016846 59.314129,506.123810 
	C96.675201,521.397827 135.024261,532.615845 175.648346,534.407959 
	C182.676514,534.718018 189.802048,535.479675 196.656723,533.449219 
	C196.856537,530.478333 195.377594,528.730530 194.451309,526.846069 
	C188.171768,514.070618 185.087738,500.425903 184.790665,486.360962 
	C184.322937,464.216095 184.565231,442.053711 184.695969,419.899902 
	C184.748398,411.013977 189.299301,404.887360 197.360565,401.238831 
	C200.638275,399.755371 204.114243,399.301575 207.590454,399.296021 
	C211.926910,399.289062 213.760803,397.626434 214.032242,393.118805 
	C214.781631,380.673248 215.970551,368.260712 217.577530,355.882111 
	C221.681427,324.269470 228.197723,293.241516 239.916245,263.501801 
	C245.018539,250.552979 251.182190,238.088333 263.263824,230.016937 
	C266.630920,227.767487 267.725189,225.260986 267.705658,221.376633 
	C267.574982,195.391357 267.632141,169.405106 267.643005,143.419159 
	C267.656036,112.289543 284.431274,87.552597 313.506012,76.224014 
	C317.451111,74.686874 318.764709,72.565826 318.712128,68.459595 
	C318.516022,53.137074 318.685425,37.810287 318.614258,22.485582 
	C318.573669,13.749659 322.614777,7.601777 330.125122,3.511970 
	C331.730103,2.637975 333.374023,1.835446 335.000000,0.999996 
	C354.020905,1.000000 373.041779,1.000000 392.844788,1.164915 
	C406.041473,5.603477 410.317719,11.562279 410.336151,24.697002 
	C410.355072,38.190777 410.373199,51.684719 410.320496,65.178307 
	C410.308167,68.338326 410.682739,70.829247 414.763580,70.786339 
	C423.258545,70.696999 431.755157,70.749481 440.251038,70.774506 
	C442.764252,70.781906 444.202606,69.769386 444.818878,67.177032 
	C445.663452,63.624142 446.639618,60.064121 447.980225,56.673538 
	C459.785614,26.816303 493.750549,7.658433 525.716858,13.497571 
	C556.345093,19.092295 577.638611,35.707912 585.240051,67.110138 
	C585.958313,70.077263 587.560364,70.797890 590.178589,70.789764 
	C598.341370,70.764420 606.510315,70.609070 614.664856,70.874397 
	C619.275330,71.024406 620.788269,69.269676 620.725159,64.740067 
	C620.527954,50.582741 620.712891,36.420528 620.640930,22.260767 
	C620.617981,17.760595 621.890564,13.729185 624.262695,9.997538 
	C627.071594,5.578793 631.668030,3.453059 636.000000,1.000000 
M489.501740,280.536255 
	C505.492767,280.616425 521.483948,280.673065 537.474609,280.799652 
	C540.187073,280.821167 541.694885,279.440521 542.957703,277.235413 
	C546.597839,270.879272 551.586304,265.742859 558.061340,262.330170 
	C561.673767,260.426239 562.793640,257.889557 562.764709,253.924484 
	C562.610291,232.761719 562.664185,211.597046 562.721191,190.433243 
	C562.759705,176.119751 571.226135,167.217743 585.503601,166.850723 
	C596.494690,166.568176 607.503418,166.599533 618.496338,166.845612 
	C633.002014,167.170303 641.203308,175.789062 641.221313,190.302292 
	C641.247803,211.632843 641.311768,232.963715 641.204102,254.293686 
	C641.185303,258.012054 642.025269,260.598785 645.715210,262.212799 
	C649.559692,263.894440 653.504089,266.360596 655.297852,269.987213 
	C660.704224,280.917969 669.821594,282.082367 680.252747,280.804016 
	C681.238159,280.683228 682.251404,280.809570 683.250244,280.775909 
	C699.967468,280.211884 713.060608,273.487732 721.358398,258.484924 
	C727.863159,246.724091 732.228271,234.945419 731.520935,220.703644 
	C730.216309,194.436172 731.047913,168.062134 731.008423,141.732468 
	C730.968994,115.488693 712.866516,97.389450 686.706543,97.390327 
	C570.557434,97.394203 454.408264,97.384537 338.259125,97.367775 
	C318.784241,97.364967 300.111969,112.666580 296.334900,131.778870 
	C295.655121,135.218704 295.310150,138.669296 295.316772,142.192093 
	C295.369080,170.021759 295.339264,197.851562 295.362976,225.681290 
	C295.366486,229.783798 294.368988,233.919067 296.466736,237.924576 
	C299.632904,243.970139 302.374451,250.238754 305.561432,256.272614 
	C312.651550,269.696167 323.934357,277.584930 338.752808,280.219391 
	C346.487366,281.594452 354.388275,280.496796 362.204102,280.834564 
	C365.402954,280.972778 367.433838,279.815430 369.028381,276.954803 
	C372.591125,270.563293 377.644623,265.465576 384.165436,262.109436 
	C387.599884,260.341766 388.769287,258.022339 388.741425,254.195847 
	C388.583618,232.533142 388.639191,210.868561 388.687286,189.204788 
	C388.715424,176.535492 396.820129,167.487808 409.515961,166.954147 
	C421.490753,166.450806 433.527771,166.432739 445.495819,167.032410 
	C458.682312,167.693130 466.307800,176.423615 466.318817,189.602936 
	C466.334961,208.933777 466.615875,228.271011 466.188263,247.592331 
	C466.018463,255.263214 466.683075,261.228058 474.808807,264.895752 
	C481.322693,267.835907 484.267059,274.951263 489.501740,280.536255 
M472.684937,616.119812 
	C459.863922,641.172729 447.046143,666.227295 434.220276,691.277771 
	C429.267487,700.951172 422.954987,703.222168 412.821503,699.200500 
	C399.667450,693.979980 386.577515,688.569092 373.264496,683.783997 
	C348.203644,674.776489 322.615814,668.043823 295.633636,670.389282 
	C271.535187,672.483887 252.627014,682.703979 243.027863,706.286987 
	C240.713394,711.973328 240.922119,712.381775 246.788391,713.594666 
	C260.495209,716.428711 274.113983,719.666199 287.356506,724.196228 
	C342.588654,743.089905 399.594574,751.062439 457.725769,751.509338 
	C501.731567,751.847656 545.578552,748.713318 589.143921,742.491638 
	C639.966187,735.233582 690.075989,724.625000 738.996460,708.824341 
	C741.070496,708.154480 744.307678,708.251587 744.081543,705.098694 
	C743.835022,701.662109 742.922302,698.564575 738.688782,697.065369 
	C723.468140,691.675842 708.399353,685.856812 693.281738,680.177307 
	C685.987915,677.437073 679.424316,673.426697 674.412903,667.464233 
	C671.482788,663.977966 668.244446,663.083740 663.950806,663.245239 
	C642.267273,664.060852 620.729553,662.923157 599.325623,658.898376 
	C557.347107,651.004883 518.818481,634.679565 482.705078,612.210999 
	C480.815002,611.035156 479.132477,609.165771 476.119385,609.431335 
	C475.125214,611.367065 474.072113,613.417542 472.684937,616.119812 
M383.095001,612.432007 
	C363.459778,596.185181 343.766907,580.007080 324.246368,563.623657 
	C321.013306,560.910156 318.553162,560.814636 314.967651,562.895935 
	C304.160736,569.169006 292.941223,574.682861 281.315033,579.290649 
	C230.461151,599.445496 178.195465,600.811279 125.136230,590.725159 
	C99.005264,585.757874 74.074440,576.948853 49.680683,566.510132 
	C43.864090,564.021118 43.663296,564.071167 41.575150,570.096252 
	C38.465710,579.068115 36.102608,588.255310 33.774662,597.459534 
	C25.002371,632.143433 25.907717,666.315552 38.489727,700.038269 
	C40.327110,704.962830 42.790943,706.783264 48.255871,706.817139 
	C102.052315,707.150024 155.864273,705.377991 209.642548,707.817566 
	C213.602173,707.997070 215.353348,706.442261 216.477676,702.942993 
	C219.459656,693.662415 223.883865,685.068115 230.081696,677.532288 
	C252.931061,649.750244 283.516357,642.550110 317.591400,645.157837 
	C336.776917,646.626038 355.353821,651.209045 373.563660,657.276367 
	C376.878998,658.380981 378.363525,657.293091 379.688141,654.345032 
	C382.758575,647.511658 386.241272,640.864014 389.337311,634.041443 
	C395.743073,619.925598 397.222260,624.212463 384.773560,613.873413 
	C384.389099,613.554138 384.014130,613.223511 383.095001,612.432007 
M574.215332,376.496368 
	C566.537048,371.792419 563.225708,364.756531 563.205505,355.943207 
	C563.189453,348.944275 563.072144,341.944855 563.134277,334.946808 
	C563.161926,331.833740 562.279846,329.629272 559.274963,328.103546 
	C551.630554,324.222046 545.761902,318.421051 541.997864,310.662933 
	C540.820984,308.237183 539.111877,307.305176 536.465759,307.316864 
	C521.968018,307.381042 507.469727,307.385254 492.972168,307.307983 
	C490.315796,307.293823 488.623444,308.228424 487.432556,310.627960 
	C483.600250,318.349976 477.652893,324.081970 470.061707,328.016205 
	C467.078186,329.562439 466.213470,331.713959 466.275452,334.862732 
	C466.416412,342.025604 466.376038,349.193756 466.303406,356.358734 
	C466.178253,368.708923 458.657471,377.857513 446.376190,379.372009 
	C433.802094,380.922607 421.085083,380.877136 408.493652,379.365814 
	C396.905334,377.974884 388.986542,368.830383 388.717651,357.203979 
	C388.552002,350.042053 388.490112,342.866638 388.746552,335.710358 
	C388.888916,331.737793 387.691620,329.243439 384.022369,327.360260 
	C377.510071,324.018066 372.259521,319.004242 369.003113,312.445129 
	C366.976715,308.363586 364.368134,307.057190 359.979309,307.260010 
	C347.108856,307.854797 334.342255,307.130066 322.005585,302.847504 
	C315.802216,300.694061 315.363007,300.997101 315.361694,307.356964 
	C315.349701,365.848877 315.351410,424.340759 315.389038,482.832642 
	C315.390137,484.557831 314.747345,486.564056 317.003571,488.122589 
	C328.618958,483.164032 336.303040,469.707092 351.795166,471.748291 
	C351.795166,464.746765 351.680481,458.442230 351.817719,452.143158 
	C352.163910,436.252838 359.409454,424.544464 373.412781,417.014923 
	C381.369904,412.736389 389.892578,410.898926 398.889313,410.900452 
	C453.215057,410.909760 507.541138,410.786621 561.866211,410.975464 
	C571.501221,411.008942 580.797729,410.873260 588.919800,404.790924 
	C589.825928,404.112305 591.037781,403.836456 592.116089,403.393921 
	C611.830017,395.304260 632.625000,392.775818 653.650635,391.804291 
	C671.830933,390.964294 689.919067,392.624298 707.966125,394.768890 
	C713.750427,395.456238 714.104980,394.982056 714.124207,388.966644 
	C714.212402,361.305847 714.290039,333.645050 714.362549,305.984253 
	C714.366882,304.333099 714.455017,302.636627 713.153870,301.371094 
	C712.759521,301.278046 712.380127,301.050262 712.131592,301.149597 
	C697.589478,306.961182 682.392517,308.007782 666.970032,307.342712 
	C664.132874,307.220337 662.889587,308.908417 661.706421,311.104492 
	C657.816162,318.325562 652.315063,324.056458 645.003784,327.817535 
	C642.019470,329.352722 641.115356,331.489471 641.174988,334.640869 
	C641.304199,341.470642 641.225891,348.304962 641.186035,355.137146 
	C641.105652,368.913788 633.084167,378.411407 619.324402,379.671112 
	C607.562012,380.748016 595.700684,380.561768 583.888428,379.594940 
	C580.675659,379.331940 577.683105,378.431824 574.215332,376.496368 
M698.641174,456.670288 
	C743.493408,463.511078 786.484741,476.901093 828.426392,493.851379 
	C865.284302,508.747070 900.850952,526.137390 932.734009,550.233459 
	C952.567444,565.222961 970.394348,582.098511 981.371094,604.986694 
	C982.725342,607.810425 984.572937,607.243835 986.730225,606.317688 
	C998.437744,601.291260 1004.584534,589.552429 1002.301575,576.964844 
	C1000.044373,564.519531 993.413879,554.440796 985.252563,545.258728 
	C966.537415,524.202881 943.710205,508.337494 919.452881,494.518372 
	C867.464417,464.901184 812.034729,443.795654 754.076416,429.332153 
	C714.646851,419.492493 674.773804,413.306305 633.948792,418.349548 
	C620.516724,420.008911 607.326416,422.785431 595.119202,428.943054 
	C588.002808,432.532715 586.483948,436.651947 589.420471,444.102814 
	C591.380798,449.076752 594.225830,453.602783 597.239746,458.011688 
	C598.741394,460.208405 600.528015,460.813232 603.237976,460.021362 
	C634.444885,450.901794 666.047058,452.078705 698.641174,456.670288 
M739.436279,529.695007 
	C760.531738,535.909546 781.400085,542.906982 801.242493,552.355957 
	C812.441467,557.688843 819.594421,567.595032 821.235718,580.056824 
	C822.183472,587.253540 825.447937,590.577209 832.010010,591.893250 
	C833.949890,592.282288 835.813538,593.117859 837.664368,593.866638 
	C839.468323,594.596375 841.098267,594.507812 842.949707,593.792053 
	C854.978516,589.141907 883.672119,597.423523 891.826782,607.803711 
	C892.032471,608.065552 892.241394,608.330383 892.405518,608.618408 
	C893.571777,610.665649 895.341797,611.428345 897.669617,611.847717 
	C915.487061,615.057739 933.445374,615.352051 951.457153,614.719910 
	C953.234619,614.657593 955.173096,614.885437 956.687256,612.928101 
	C955.146118,607.839355 951.624146,603.799072 948.413086,599.633972 
	C933.196472,579.896423 913.453247,565.458008 892.426392,552.693176 
	C848.395874,525.963562 800.934509,507.197113 751.505981,493.291809 
	C714.994263,483.020294 677.991821,475.708130 639.725281,478.349243 
	C633.213501,478.798676 626.590881,478.980103 620.262268,481.353241 
	C621.068115,484.155518 623.068359,485.230530 624.678528,486.574493 
	C647.682373,505.774841 673.013489,521.440247 699.278076,535.699707 
	C701.632263,536.977844 703.499207,536.836304 705.782898,535.604248 
	C716.040039,530.070435 726.918091,527.673096 739.436279,529.695007 
M172.499847,776.633179 
	C182.831848,776.630676 193.164902,776.542969 203.495300,776.669922 
	C207.347565,776.717285 208.993881,775.187073 208.820099,771.331543 
	C208.670242,768.006409 208.732697,764.664490 208.853653,761.335571 
	C209.189682,752.088562 215.850113,746.015930 224.961044,746.971558 
	C244.525620,749.023560 263.961334,751.984314 282.867096,757.549805 
	C336.723328,773.403748 391.799744,781.185669 447.821075,782.540649 
	C480.485138,783.330688 513.070618,781.489441 545.636963,778.908203 
	C583.183472,775.932312 620.400146,770.717285 657.354126,763.571106 
	C690.556641,757.150330 723.483032,749.578430 755.679749,739.082153 
	C759.262512,737.914246 762.392822,737.033508 760.629150,732.029724 
	C758.884827,727.080994 755.800293,729.794617 753.346069,730.595764 
	C728.792664,738.610901 703.922241,745.483643 678.746948,751.213928 
	C625.072266,763.430969 570.774109,771.257385 515.795166,774.497009 
	C477.986938,776.724915 440.255585,776.872131 402.490967,773.498352 
	C360.840912,769.777527 320.271027,761.266663 280.543854,748.269836 
	C252.764496,739.181641 224.384750,732.452515 194.971436,732.272095 
	C140.982132,731.940918 86.989746,732.134399 32.998943,731.993469 
	C28.433584,731.981567 26.752987,733.769592 26.762913,738.191040 
	C26.786474,748.685547 26.524546,759.180420 26.456625,769.675659 
	C26.412542,776.487122 26.597673,776.628784 33.521614,776.629761 
	C79.514351,776.636108 125.507080,776.633057 172.499847,776.633179 
M286.914490,549.365173 
	C295.269684,544.862305 303.627502,540.364319 311.979279,535.855042 
	C319.015198,532.056274 325.739258,532.400391 331.983765,537.525635 
	C360.567596,560.986389 389.148743,584.450562 417.670685,607.986389 
	C423.442169,612.748901 424.572968,618.069885 421.438812,624.902710 
	C416.162964,636.404846 410.761841,647.849854 405.355347,659.291443 
	C401.142487,668.207031 401.119354,668.142700 410.664093,671.495911 
	C413.387543,672.452698 415.255371,672.342834 416.764465,669.388855 
	C430.780853,641.951294 444.902496,614.567505 459.003052,587.173035 
	C460.758453,583.762695 460.603912,580.918213 457.141388,578.533081 
	C454.267029,576.553162 451.472839,574.397095 448.928375,572.014404 
	C446.306793,569.559509 444.457245,570.186157 442.238525,572.548157 
	C438.591339,576.430847 434.871582,580.278625 430.874023,583.790039 
	C426.333099,587.778748 419.811768,587.734253 415.751007,584.133606 
	C411.553864,580.412048 411.197632,574.562500 414.943787,569.209473 
	C415.891571,567.855164 417.076599,566.655945 418.225006,565.454712 
	C428.995514,554.188354 429.086029,557.566528 416.364807,547.673218 
	C414.208710,545.996399 412.647156,546.126282 410.795197,548.042908 
	C407.092072,551.875427 403.405762,555.748779 399.427460,559.284546 
	C394.595367,563.579224 387.772797,563.318481 383.598877,559.050720 
	C379.569550,554.930847 379.579163,549.331604 383.888031,544.191528 
	C386.559326,541.004883 389.467896,538.005920 392.405518,535.057739 
	C394.526642,532.929016 394.518433,531.425720 392.086060,529.393188 
	C381.963898,520.935059 382.020020,520.869507 372.799927,530.035034 
	C371.618713,531.209229 370.504608,532.467529 369.223419,533.521545 
	C364.492523,537.413696 357.824066,537.270752 353.719604,533.265991 
	C349.692352,529.336487 349.616760,523.316162 353.449829,518.293335 
	C356.113159,514.803345 360.266357,512.524963 362.265167,507.730255 
	C357.944244,504.849487 353.817383,502.095520 349.687622,499.345856 
	C347.644775,497.985687 345.898468,498.853180 344.191772,500.078125 
	C340.268250,502.894165 336.354340,505.724121 332.407837,508.507690 
	C309.862396,524.409790 286.207214,538.263672 259.983948,547.273560 
	C214.868286,562.774414 169.063507,562.176697 122.977722,552.682129 
	C101.570862,548.271851 80.875565,541.401123 60.595802,533.292664 
	C57.454552,532.036743 55.275799,532.272705 53.755146,535.709167 
	C52.209137,539.202942 54.050758,540.392212 56.811264,541.654846 
	C92.091423,557.791443 128.738358,568.418518 167.679214,571.044739 
	C209.082718,573.837097 248.674973,567.684143 286.914490,549.365173 
M556.362427,510.037170 
	C555.511353,517.716187 558.179138,524.450012 562.031982,530.833740 
	C566.716431,538.595398 572.713745,545.289185 579.302856,551.447510 
	C603.781860,574.325989 631.555603,592.615417 660.293945,609.574036 
	C663.581848,611.514282 665.273254,610.974915 666.707336,607.494568 
	C672.920959,592.414856 679.228455,577.373169 685.607971,562.362854 
	C686.993835,559.102051 686.221497,557.171448 683.112000,555.514832 
	C676.796753,552.150269 670.547180,548.643494 664.421509,544.945312 
	C633.665100,526.376953 604.228271,506.132080 580.937683,478.223633 
	C578.019897,474.727264 575.343140,471.029724 571.978699,466.680908 
	C566.580688,481.457672 561.514954,495.324982 556.362427,510.037170 
M288.673615,501.183655 
	C288.680298,477.865814 288.613434,454.547485 288.761078,431.230530 
	C288.787811,427.008118 287.528564,425.226562 283.083740,425.255280 
	C260.947937,425.398285 238.810410,425.389679 216.674347,425.271881 
	C212.520996,425.249786 211.092377,426.908173 211.125656,430.915375 
	C211.284683,450.067902 210.856308,469.236237 211.496964,488.370148 
	C211.944962,501.749939 216.649643,514.055786 224.360870,525.121338 
	C226.781143,528.594360 229.422882,530.053955 234.022995,528.940857 
	C251.794357,524.640503 268.529327,517.855591 284.617584,509.278137 
	C287.685486,507.642426 289.084656,505.482391 288.673615,501.183655 
M743.024963,585.745605 
	C740.386230,584.897888 738.029663,583.677124 734.908630,584.976196 
	C729.427734,587.257751 724.437866,585.461060 721.950989,581.059204 
	C719.367615,576.486450 720.466309,570.844543 725.004089,567.164185 
	C730.666870,562.571472 737.052246,561.927795 743.827393,564.406921 
	C759.625854,570.187805 775.420410,575.979553 791.233154,581.721313 
	C793.009949,582.366577 794.750366,583.674683 797.060425,582.596313 
	C796.140625,577.066589 792.721436,573.410339 787.941833,571.534485 
	C771.358032,565.025879 754.882629,558.141846 737.810608,553.020813 
	C725.304932,549.269531 713.940002,554.883545 708.377808,566.634705 
	C705.955811,571.751831 703.656799,576.936157 701.531921,582.183105 
	C695.784912,596.374146 688.801147,610.118347 684.989929,625.021545 
	C681.664429,638.025696 688.300476,652.112122 700.628845,657.434998 
	C715.302612,663.770630 730.281616,669.410217 745.212341,675.132141 
	C748.654053,676.451050 752.449768,677.551147 756.655396,674.842529 
	C753.999329,673.566406 751.816772,672.448608 749.579468,671.454163 
	C734.662415,664.823364 719.772156,658.130066 704.790771,651.647583 
	C698.330688,648.852295 694.831482,644.046753 693.896118,637.270996 
	C693.348206,633.301453 695.138550,629.772278 696.579102,626.232239 
	C698.763977,620.862976 700.431091,615.840271 699.211792,609.510315 
	C697.015808,598.110168 705.493896,586.245605 716.690735,585.664917 
	C729.166138,585.017883 740.208252,590.269165 749.454224,598.792664 
	C750.378540,599.644714 750.878723,601.034973 751.380188,602.255737 
	C756.963257,615.847107 746.168823,632.073853 731.512146,632.150391 
	C727.934265,632.169067 724.658691,630.883423 721.378113,629.677917 
	C719.264771,628.901428 717.511719,628.789795 716.472168,631.315979 
	C715.406128,633.906555 716.839111,634.922119 718.915405,635.792664 
	C723.677429,637.789062 728.390503,639.901794 733.143066,641.921143 
	C755.369568,651.364990 777.246033,661.634705 799.886719,670.103210 
	C807.710815,673.029785 807.703247,673.150879 810.908997,665.225098 
	C816.591919,651.174500 822.057678,637.032349 827.987915,623.087402 
	C829.893127,618.607361 828.606140,617.004211 824.443359,615.503296 
	C797.497253,605.787720 770.622253,595.874817 743.024963,585.745605 
M546.544861,465.156891 
	C549.826782,456.330200 553.108765,447.503479 556.475891,438.447540 
	C550.773682,436.807526 545.616943,437.801178 540.506470,437.793793 
	C492.343933,437.724152 444.181396,437.674469 396.018921,437.582642 
	C387.448334,437.566315 379.792542,442.189819 379.462616,448.950317 
	C378.862396,461.251129 379.138000,473.596039 379.122589,485.922607 
	C379.120361,487.701691 379.923462,489.741119 382.037628,488.944122 
	C386.843475,487.132446 391.400574,487.836578 395.659119,489.845978 
	C396.818939,488.206085 396.130463,487.056305 396.120392,485.931915 
	C396.041809,477.154480 399.166016,473.954285 407.994385,473.808807 
	C408.660767,473.797821 409.327576,473.818390 409.994202,473.818573 
	C451.658600,473.829407 493.322968,473.843445 534.987366,473.846680 
	C543.403809,473.847351 543.403809,473.828430 546.544861,465.156891 
M464.500183,499.358643 
	C451.171356,499.359192 437.838867,499.547974 424.514984,499.291443 
	C416.201996,499.131409 407.647827,501.064545 399.862610,496.680634 
	C398.065216,501.304840 399.110870,504.422852 403.348969,506.414215 
	C404.679932,507.039642 405.871826,508.053253 406.972687,509.058563 
	C410.040222,511.859985 412.827148,512.642883 417.164032,510.699066 
	C425.484619,506.969666 434.213562,514.020081 432.286377,522.734924 
	C431.422516,526.641418 432.470764,528.649353 435.527893,530.483337 
	C437.231628,531.505371 438.808319,532.782776 440.299225,534.106262 
	C442.862000,536.381165 445.221558,537.050842 448.822998,535.674438 
	C457.076752,532.519897 464.931061,539.106934 463.638519,547.884277 
	C463.204163,550.833740 464.151489,552.534668 466.218445,554.315125 
	C468.593872,556.361328 471.279022,556.558838 474.160309,556.549377 
	C496.978027,556.474365 519.795959,556.455200 542.613403,556.337341 
	C544.349792,556.328369 546.277466,556.852112 547.933167,555.513306 
	C547.900024,553.065063 545.904419,551.780151 544.716187,550.071045 
	C534.997375,536.091675 528.603333,521.258179 532.839844,503.739014 
	C533.841736,499.596130 531.540222,499.335052 528.478760,499.340393 
	C507.485992,499.377075 486.493073,499.359192 464.500183,499.358643 
M741.316406,378.499451 
	C741.326477,384.162384 741.393494,389.826019 741.321777,395.487915 
	C741.287842,398.167664 742.284485,399.521118 745.103943,399.482727 
	C758.424011,399.301392 771.744751,399.153625 785.065674,399.051208 
	C788.363770,399.025848 789.406250,397.500153 789.062927,394.315338 
	C788.510376,389.190002 788.258423,384.032928 787.840637,378.892395 
	C785.299194,347.618530 779.818909,316.890961 770.624207,286.863800 
	C767.597412,276.979370 764.192017,267.235413 758.667847,258.400818 
	C757.713074,256.874023 756.699158,254.952240 754.699158,254.915512 
	C752.376526,254.872879 752.154236,257.284882 751.452332,258.845215 
	C748.852295,264.625153 746.155212,270.368774 742.520935,275.559631 
	C740.088989,279.033264 738.915894,282.301819 740.124451,286.677307 
	C741.355713,291.134796 741.373535,295.864685 741.358459,300.550995 
	C741.276062,326.200348 741.317200,351.850037 741.316406,378.499451 
M288.698181,348.499878 
	C288.725739,330.339294 287.666504,312.084564 289.227875,294.056824 
	C290.039185,284.689606 288.660156,277.521851 283.193848,270.287537 
	C279.952301,265.997528 277.834442,260.858429 274.899872,255.536270 
	C270.228180,260.117096 268.307373,265.424316 266.290131,270.598907 
	C255.837875,297.410736 249.626968,325.310669 245.485016,353.695099 
	C243.539886,367.025116 241.984726,380.416931 241.275589,393.889832 
	C241.087234,397.468292 241.955612,399.622620 246.158829,399.532349 
	C258.314514,399.271271 270.475464,399.083984 282.632690,399.154907 
	C287.163544,399.181305 288.817474,397.536926 288.758270,392.985199 
	C288.569794,378.492249 288.692810,363.995300 288.698181,348.499878 
M899.972412,707.433533 
	C906.191589,710.618103 912.378357,713.868103 918.636658,716.973816 
	C932.315796,723.761841 948.921814,717.953674 955.422058,704.173645 
	C962.844543,688.438538 957.009888,672.024292 940.823608,663.889343 
	C925.058899,655.966248 908.804138,649.133484 892.359375,642.741089 
	C889.299683,641.551758 887.545410,641.791382 886.195435,645.132690 
	C880.339050,659.627625 874.339172,674.065552 868.257263,688.467590 
	C866.871521,691.748962 867.314453,693.443909 870.883057,694.878174 
	C880.447083,698.722168 889.839355,702.993530 899.972412,707.433533 
M519.852783,604.542480 
	C562.776733,626.746948 639.020874,645.091614 656.645935,637.307861 
	C655.610474,636.579163 654.711487,635.857788 653.732117,635.270325 
	C627.708557,619.660767 602.270752,603.192444 578.678101,584.026306 
	C576.723328,582.438293 574.542053,582.040894 572.154053,582.040649 
	C545.658203,582.037659 519.162292,582.003174 492.666534,582.048828 
	C490.811981,582.052063 488.594330,581.436951 486.705414,584.535522 
	C497.110657,591.801392 507.959686,598.303040 519.852783,604.542480 
M523.986572,39.450706 
	C518.372681,38.447884 512.791077,38.216663 507.125061,39.341702 
	C491.609741,42.422401 479.701172,50.214092 473.122314,65.022194 
	C471.054565,69.676476 471.766418,70.771393 476.631317,70.780258 
	C502.128418,70.826752 527.625671,70.838676 553.122742,70.802475 
	C558.878479,70.794304 559.566895,69.572571 556.946350,64.173347 
	C550.364075,50.611343 539.356323,42.786606 523.986572,39.450706 
M459.167511,305.764435 
	C465.288635,300.602356 466.879852,296.054688 464.454254,290.655304 
	C461.808228,284.765228 455.049072,281.465607 448.527252,281.869568 
	C434.565521,282.734406 420.556305,283.004211 406.606201,281.813934 
	C399.581757,281.214630 392.300385,285.189606 390.093689,291.870575 
	C388.221252,297.539520 391.665222,303.903809 398.321136,307.112854 
	C400.770203,308.293671 403.320374,308.751434 406.053497,308.737976 
	C420.048248,308.669098 434.043915,308.641449 448.038391,308.729614 
	C451.808533,308.753357 455.318939,308.161957 459.167511,305.764435 
M638.341125,289.399597 
	C634.517395,283.875305 629.501953,281.668701 622.575195,282.021423 
	C608.787903,282.723480 594.939880,283.019958 581.160828,281.884857 
	C573.037048,281.215607 564.999695,286.405579 564.181763,293.744965 
	C563.395020,300.805634 569.990479,308.432037 577.974243,308.591309 
	C593.948792,308.909943 609.941772,308.943085 625.913391,308.544586 
	C635.956848,308.293976 641.812012,299.313507 638.341125,289.399597 
M383.810883,60.440575 
	C383.802612,51.299267 383.633209,42.154064 383.853699,33.018280 
	C383.964905,28.411423 382.065704,26.828024 377.647247,26.909405 
	C368.841644,27.071585 360.026093,27.093504 351.223511,26.851089 
	C346.852631,26.730722 345.319000,28.468086 345.369995,32.696487 
	C345.502380,43.664135 345.479004,54.636005 345.325439,65.603493 
	C345.270752,69.509560 346.864288,70.918724 350.680481,70.842026 
	C358.655151,70.681755 366.635315,70.803490 374.613159,70.789391 
	C383.789429,70.773178 383.789398,70.763786 383.810883,60.440575 
M681.764160,70.472534 
	C684.047913,69.482948 684.086670,67.426918 684.099976,65.414467 
	C684.172119,54.447819 684.204773,43.480911 684.272583,32.514229 
	C684.294739,28.923964 682.884705,26.924883 678.968323,26.968231 
	C670.161682,27.065708 661.352844,27.041574 652.545593,26.976511 
	C648.878845,26.949425 646.999268,28.392841 647.020691,32.271763 
	C647.082336,43.405727 647.060120,54.540890 646.961426,65.674614 
	C646.926758,69.584320 648.776001,70.897537 652.501160,70.830574 
	C661.970215,70.660362 671.443115,70.702637 681.764160,70.472534 
M436.829651,193.316528 
	C431.333374,193.277313 425.835114,193.315277 420.341583,193.171463 
	C416.731506,193.076950 415.296600,194.599396 415.316895,198.244247 
	C415.416168,216.071411 415.419739,233.899765 415.319336,251.726898 
	C415.298157,255.487259 416.972748,256.746124 420.477844,256.656128 
	C425.139862,256.536346 429.811798,256.505829 434.471130,256.671417 
	C438.399139,256.811005 439.711243,255.064438 439.685364,251.263443 
	C439.565094,233.603119 439.617523,215.941605 439.617889,198.280518 
	C439.617920,196.410919 439.639893,194.558792 436.829651,193.316528 
M614.334839,196.403503 
	C613.852295,193.994873 612.181702,193.214203 609.950745,193.215500 
	C604.789185,193.218491 599.627502,193.253448 594.466125,193.223801 
	C591.249084,193.205322 590.051392,194.934113 590.052673,197.935791 
	C590.060120,215.919189 590.059631,233.902634 590.014893,251.885941 
	C590.006470,255.276123 591.610840,256.696747 594.923889,256.637421 
	C599.418274,256.556915 603.928589,256.399170 608.407227,256.676086 
	C612.904846,256.954193 614.687744,255.320602 614.638184,250.697861 
	C614.446960,232.883316 614.514404,215.066010 614.334839,196.403503 
M841.280151,649.663391 
	C837.160339,659.646301 832.939514,669.588989 828.946655,679.622498 
	C824.140442,691.699402 822.828552,689.296814 835.422363,694.842834 
	C839.636719,696.698730 841.454651,695.608215 843.115112,691.383118 
	C850.954773,671.435303 859.104248,651.609070 867.184814,631.756409 
	C871.656433,620.770081 871.641785,620.906677 860.710083,616.289490 
	C857.160706,614.790405 855.372131,615.279236 853.912048,619.000854 
	C849.968628,629.052185 845.696716,638.974609 841.280151,649.663391 
M961.527039,647.903198 
	C969.641357,653.674377 975.270630,661.586609 980.730530,670.289307 
	C987.484863,658.172485 989.195374,644.850769 993.548035,630.802002 
	C978.349854,636.578186 964.189880,638.795471 948.532532,639.729553 
	C953.435364,642.787048 957.193970,645.131042 961.527039,647.903198 
M589.362976,335.001068 
	C589.362000,339.661133 589.447876,344.323334 589.330872,348.980499 
	C589.247253,352.311188 590.602539,353.939148 594.010864,353.901398 
	C599.335815,353.842377 604.662109,353.864746 609.987427,353.907806 
	C613.009338,353.932220 614.688721,352.727081 614.645752,349.491333 
	C614.581726,344.665710 614.596375,339.838409 614.637695,335.012329 
	C614.663696,331.968323 613.351562,330.307953 610.190918,330.317535 
	C604.699585,330.334229 599.208069,330.309448 593.716980,330.347900 
	C591.235046,330.365295 589.557129,331.408752 589.362976,335.001068 
M434.204407,353.897217 
	C437.073914,353.936554 439.677612,353.637268 439.668182,349.809845 
	C439.655426,344.648376 439.673431,339.486786 439.659241,334.325317 
	C439.651855,331.635406 438.156128,330.366760 435.583771,330.350342 
	C430.260132,330.316315 424.935516,330.313019 419.612274,330.376160 
	C416.590332,330.412018 415.019379,332.043793 415.002716,335.077759 
	C414.976196,339.905823 414.981750,344.734070 414.976105,349.562256 
	C414.972290,352.789276 416.838959,353.929352 419.788879,353.916016 
	C424.284454,353.895691 428.780151,353.908112 434.204407,353.897217 
M732.673340,612.310974 
	C733.799255,610.730347 734.039429,608.925415 732.187988,608.037842 
	C728.611877,606.323547 724.866638,604.940918 721.128418,603.596313 
	C719.694885,603.080750 718.574280,603.977539 717.904846,605.293274 
	C717.224487,606.630371 717.245911,608.274963 718.482178,608.889832 
	C722.779358,611.027283 726.752380,614.568115 732.673340,612.310974 
z"/>
<path fill="currentColor" opacity="1.000000" stroke="currentColor" stroke-width="16.000000" 
	d="
M658.291992,570.084045 
	C658.059204,575.038147 655.655212,578.033203 651.345459,579.070435 
	C647.199890,580.068115 643.377014,579.098877 640.768738,575.385071 
	C638.531738,572.200012 638.552917,568.817261 640.673462,565.606262 
	C642.905457,562.226440 646.258057,560.968323 650.176819,561.569397 
	C654.776855,562.275024 657.618469,564.933716 658.291992,570.084045 
z"/>
<path fill="currentColor" opacity="1.000000" stroke="currentColor" stroke-width="16.000000" 
	d="
M622.652222,547.005737 
	C622.153503,552.659912 618.933960,555.391541 613.990234,556.119019 
	C609.491577,556.780945 604.836487,553.376709 603.849060,549.075745 
	C602.856934,544.754333 605.255981,540.403076 609.574524,538.691284 
	C614.116882,536.890869 619.481567,538.672729 621.597168,542.827148 
	C622.181396,543.974304 622.307861,545.354492 622.652222,547.005737 
z"/>
<path fill="currentColor" opacity="1.000000" stroke="currentColor" stroke-width="6.000000" 
	d="
M776.662109,629.102173 
	C779.155151,624.474670 782.765930,622.517822 787.553772,623.388794 
	C791.438538,624.095581 794.237000,626.408325 795.125061,630.404053 
	C796.039490,634.518311 794.804443,638.019104 791.269226,640.430908 
	C787.588013,642.942200 783.674011,642.965942 780.097656,640.364380 
	C776.416626,637.686768 774.806885,634.055908 776.662109,629.102173 
z"/>
</svg>