<svg version="1.1" id="Layer_1" xmlns="http://www.w3.org/2000/svg" xmlns:xlink="http://www.w3.org/1999/xlink" x="0px" y="0px"
	 width="100%" viewBox="0 0 100 100" enable-background="new 0 0 100 100" xml:space="preserve">
<path fill="#FEFEFE" opacity="1.000000" stroke="none" 
	d="
M61.000000,101.000000 
	C40.666672,101.000000 20.833340,101.000000 1.000008,101.000000 
	C1.000005,67.666679 1.000005,34.333351 1.000003,1.000021 
	C34.333317,1.000014 67.666634,1.000014 100.999969,1.000007 
	C100.999977,34.333313 100.999977,67.666626 100.999985,100.999969 
	C87.833336,101.000000 74.666664,101.000000 61.000000,101.000000 
M48.970505,64.430740 
	C65.435699,53.770824 79.655983,40.511608 93.001900,26.261650 
	C98.188713,20.723484 98.402695,13.575896 93.769165,8.759229 
	C88.871681,3.668169 81.510590,3.582361 75.983208,9.008909 
	C63.993118,20.780272 52.153271,32.611969 42.233047,46.375477 
	C34.099152,57.660606 24.470737,67.877480 15.329446,78.415771 
	C14.239501,79.672287 12.106355,80.373901 10.352992,80.634445 
	C6.293263,81.237740 3.757024,85.664276 6.197704,89.098778 
	C8.088104,91.758942 10.580324,94.184387 13.272274,96.034195 
	C16.812052,98.466599 21.089876,95.937408 21.585335,91.693481 
	C21.757010,90.222977 22.148891,88.375755 23.141695,87.466858 
	C31.474380,79.838417 39.970284,72.388252 48.970505,64.430740 
M42.118088,21.297466 
	C44.215050,13.843128 41.138161,7.616979 34.319622,5.517113 
	C28.065641,3.591112 21.439342,7.252980 19.480301,13.717714 
	C17.812965,19.219831 20.564329,25.254560 25.915173,27.831688 
	C31.784357,30.658463 37.569885,28.561325 42.118088,21.297466 
z"/>
<path fill="currentColor" opacity="1.000000" stroke="currentColor" stroke-width="3.000000"
	d="
M48.693771,64.657578 
	C39.970284,72.388252 31.474380,79.838417 23.141695,87.466858 
	C22.148891,88.375755 21.757010,90.222977 21.585335,91.693481 
	C21.089876,95.937408 16.812052,98.466599 13.272274,96.034195 
	C10.580324,94.184387 8.088104,91.758942 6.197704,89.098778 
	C3.757024,85.664276 6.293263,81.237740 10.352992,80.634445 
	C12.106355,80.373901 14.239501,79.672287 15.329446,78.415771 
	C24.470737,67.877480 34.099152,57.660606 42.233047,46.375477 
	C52.153271,32.611969 63.993118,20.780272 75.983208,9.008909 
	C81.510590,3.582361 88.871681,3.668169 93.769165,8.759229 
	C98.402695,13.575896 98.188713,20.723484 93.001900,26.261650 
	C79.655983,40.511608 65.435699,53.770824 48.693771,64.657578 
M72.513947,41.018776 
	C78.388519,35.130962 84.345665,29.322527 90.108421,23.327238 
	C93.905945,19.376492 93.953484,14.689763 90.591675,11.361163 
	C87.204666,8.007612 82.661438,8.132987 78.688133,12.033854 
	C66.589912,23.911520 54.711594,35.902729 44.769180,49.829052 
	C37.082474,60.595798 27.787958,70.210419 19.320564,80.430305 
	C18.419426,81.517952 18.272297,83.230324 17.775375,84.652878 
	C19.079889,84.101532 20.608479,83.821396 21.654516,82.957191 
	C33.037067,73.553268 44.313984,64.021568 55.684757,54.603249 
	C61.055035,50.155087 66.565735,45.876465 72.513947,41.018776 
M9.223268,86.070740 
	C11.072535,88.150108 12.816882,90.344040 14.858320,92.213554 
	C15.273730,92.593979 17.570541,91.941727 17.693874,91.442719 
	C18.231312,89.268188 12.089848,84.883102 9.223268,86.070740 
z"/>
<path fill="currentColor" opacity="1.000000" stroke="currentColor" stroke-width="3.000000"

	d="
M42.002438,21.669884 
	C37.569885,28.561325 31.784357,30.658463 25.915173,27.831688 
	C20.564329,25.254560 17.812965,19.219831 19.480301,13.717714 
	C21.439342,7.252980 28.065641,3.591112 34.319622,5.517113 
	C41.138161,7.616979 44.215050,13.843128 42.002438,21.669884 
M26.909456,23.800236 
	C27.728760,23.615734 28.828167,23.705458 29.321365,23.201693 
	C32.259056,20.201056 35.056694,17.063303 38.749622,13.049656 
	C37.699280,11.828088 36.273384,10.169741 34.847488,8.511394 
	C34.970573,9.467280 35.093662,10.423168 35.216747,11.379055 
	C31.848633,14.639754 28.480516,17.900454 25.112400,21.161154 
	C24.563459,20.790730 24.014519,20.420303 23.465576,20.049879 
	C24.404045,21.148602 25.342512,22.247322 26.909456,23.800236 
z"/>
<path fill="none" opacity="1.000000" stroke="none" 
	d="
M72.263382,41.269901 
	C66.565735,45.876465 61.055035,50.155087 55.684757,54.603249 
	C44.313984,64.021568 33.037067,73.553268 21.654516,82.957191 
	C20.608479,83.821396 19.079889,84.101532 17.775375,84.652878 
	C18.272297,83.230324 18.419426,81.517952 19.320564,80.430305 
	C27.787958,70.210419 37.082474,60.595798 44.769180,49.829052 
	C54.711594,35.902729 66.589912,23.911520 78.688133,12.033854 
	C82.661438,8.132987 87.204666,8.007612 90.591675,11.361163 
	C93.953484,14.689763 93.905945,19.376492 90.108421,23.327238 
	C84.345665,29.322527 78.388519,35.130962 72.263382,41.269901 
z"/>
<path fill="currentColor" opacity="1.000000" stroke="currentColor" stroke-width="3.000000"
	d="
M9.296967,85.696571 
	C12.089848,84.883102 18.231312,89.268188 17.693874,91.442719 
	C17.570541,91.941727 15.273730,92.593979 14.858320,92.213554 
	C12.816882,90.344040 11.072535,88.150108 9.296967,85.696571 
z"/>
<path fill="#F1F1F1" opacity="1.000000" stroke="none" 
	d="
M26.595219,23.573139 
	C25.342512,22.247322 24.404045,21.148602 23.465576,20.049879 
	C24.014519,20.420303 24.563459,20.790730 25.112400,21.161154 
	C28.480516,17.900454 31.848633,14.639754 35.216747,11.379055 
	C35.093662,10.423168 34.970573,9.467280 34.847488,8.511394 
	C36.273384,10.169741 37.699280,11.828088 38.749622,13.049656 
	C35.056694,17.063303 32.259056,20.201056 29.321365,23.201693 
	C28.828167,23.705458 27.728760,23.615734 26.595219,23.573139 
z"/>
</svg>