<svg version="1.1" id="Layer_1" xmlns="http://www.w3.org/2000/svg" xmlns:xlink="http://www.w3.org/1999/xlink" x="0px" y="0px"
	 width="100%" viewBox="0 0 512 512" enable-background="new 0 0 512 512" xml:space="preserve">
<path fill="#000000" opacity="1.000000" stroke="none" 
	d="
M374.657959,487.473602 
	C365.225922,487.910797 357.879669,484.336395 352.112762,477.779663 
	C349.208832,474.478027 347.333588,474.738464 343.995056,477.276978 
	C322.525513,493.601807 297.767365,500.860474 271.252197,503.512207 
	C241.800110,506.457611 213.899719,501.555450 187.465164,488.293732 
	C180.905487,485.002869 174.578400,481.272858 168.707413,476.870758 
	C166.237183,475.018585 164.484482,474.809784 162.453918,477.330078 
	C155.563202,485.882965 146.241333,488.155273 135.720932,488.028229 
	C117.893250,487.812927 100.059860,487.928864 82.230217,488.072296 
	C71.668694,488.157227 64.390594,482.602936 58.312595,474.798676 
	C48.252144,461.880890 42.335346,446.788391 36.030449,431.922729 
	C19.675949,393.362305 15.975870,352.846161 17.815512,311.536438 
	C19.257509,279.156036 32.396194,251.461151 52.180664,226.412415 
	C58.578255,218.312546 64.474136,209.814362 70.542168,201.456741 
	C78.446861,190.569458 77.581955,178.155930 76.196518,165.862198 
	C74.502899,150.833817 67.868774,137.164001 63.519371,122.862816 
	C58.613174,106.730850 56.943909,90.607544 63.816746,74.568108 
	C72.387695,54.565723 96.016785,40.963875 116.906998,42.175224 
	C137.455246,43.366749 161.541824,57.890182 167.029556,84.432838 
	C169.621216,96.967972 167.921326,109.238441 164.536942,121.409119 
	C160.749115,135.030746 155.039902,148.035599 152.014755,161.917725 
	C148.603210,177.572861 150.191864,192.349152 158.394608,206.218292 
	C162.187088,212.630630 166.197113,218.914307 170.456589,225.820679 
	C180.183899,218.059845 191.582306,213.994690 200.853149,206.706497 
	C212.206711,197.780991 218.459229,185.607346 219.780228,171.120102 
	C221.325974,154.168198 215.313995,138.669632 210.299377,122.994560 
	C205.783035,108.876991 201.347580,94.769234 201.672882,79.667480 
	C202.281036,51.433990 225.107452,28.041744 253.460220,26.734903 
	C283.016846,25.372574 307.656586,45.844238 311.474701,74.170288 
	C313.434204,88.707588 310.197906,102.272827 306.066589,115.846436 
	C302.194794,128.567352 296.962921,140.881409 294.837036,154.121292 
	C291.632477,174.079559 297.262665,191.341751 310.791595,206.103836 
	C315.298798,211.021927 321.775482,212.902313 327.484894,215.946060 
	C329.467590,217.003052 330.655579,215.963593 331.580017,214.402084 
	C340.572113,199.213196 351.285461,184.974335 358.622894,168.897659 
	C366.238434,152.211639 363.487915,135.025772 358.314575,118.144821 
	C354.807343,106.700562 349.523865,95.838737 347.179199,84.006584 
	C343.561829,65.752304 343.786499,47.970585 356.032959,32.695778 
	C370.358063,14.828333 389.273346,7.047172 411.858032,11.958353 
	C432.859711,16.525303 447.230377,29.613363 452.714508,50.732033 
	C456.986267,67.182205 453.827087,83.354927 448.641632,99.280823 
	C444.375946,112.381836 439.133087,125.176201 437.064423,138.987198 
	C435.463196,149.677811 437.627808,159.523346 441.865631,169.055359 
	C448.458923,183.885468 458.422668,196.777817 466.403870,210.822342 
	C481.301514,237.037674 491.157806,264.829437 494.489349,294.951782 
	C497.063904,318.229919 497.386505,341.557922 495.043396,364.730591 
	C491.064667,404.078918 478.144562,440.544189 456.566406,473.862823 
	C450.709900,482.905792 442.823608,487.153534 432.057556,487.489960 
	C413.068115,488.083313 394.096008,488.236145 374.657959,487.473602 
M345.212891,454.708710 
	C383.703552,419.017822 398.671783,374.815796 389.255219,323.637939 
	C381.276733,280.275909 355.262421,249.165070 316.185303,229.124725 
	C295.925690,218.734787 273.961090,217.200714 251.585815,217.020935 
	C225.297379,216.809738 202.162003,224.611267 180.505859,239.366302 
	C125.178406,277.062775 106.378784,348.121002 134.422836,409.337524 
	C155.525391,455.401642 203.668655,490.769623 262.976013,487.010498 
	C293.836151,485.054443 321.072815,475.110413 345.212891,454.708710 
M408.930237,356.137604 
	C408.748444,357.457214 408.467987,358.771729 408.399384,360.097198 
	C407.000519,387.127289 398.666992,411.905182 384.492035,434.877258 
	C379.019501,443.746124 371.686829,451.051483 365.242279,459.101990 
	C364.104767,460.522980 361.719849,461.992188 363.540375,464.199646 
	C366.346985,467.602844 368.895844,470.958984 374.420135,470.851501 
	C392.245361,470.504761 410.097443,470.338257 427.907257,470.983429 
	C435.120514,471.244659 439.279510,468.649628 442.990265,462.947632 
	C456.298584,442.497742 465.665619,420.388336 471.735077,396.828796 
	C479.494232,366.710632 481.432556,336.121765 478.568024,305.230713 
	C476.890259,287.138000 473.551514,269.370453 467.196289,252.219986 
	C459.256775,230.793869 446.802460,211.861801 435.377136,192.301361 
	C431.545715,185.741867 427.262238,184.943573 420.787048,185.513901 
	C405.510437,186.859467 390.173676,186.536377 374.883118,185.609558 
	C371.360474,185.396042 369.325012,186.142395 367.541229,189.125458 
	C361.299988,199.563141 354.845734,209.873230 348.510468,220.255020 
	C344.822540,226.298492 344.882599,226.283569 350.574677,230.768661 
	C390.827637,262.486115 409.521667,304.338196 408.930237,356.137604 
M72.346199,465.184448 
	C74.544632,467.580933 76.094566,470.749023 80.121391,470.738739 
	C100.946228,470.685547 121.771263,470.701752 142.596222,470.713318 
	C147.006424,470.715759 148.991821,467.307343 150.899918,464.341553 
	C152.810913,461.371307 149.181305,460.203766 147.909973,458.300476 
	C147.269012,457.340881 146.364365,456.559357 145.593811,455.684204 
	C106.832687,411.662109 96.235550,361.152893 111.376953,304.982574 
	C118.148666,279.861420 132.597839,259.292572 151.102768,241.330231 
	C157.805603,234.823975 155.422134,235.985138 152.470566,229.373627 
	C148.143997,219.682098 142.350845,216.715332 131.489273,217.625336 
	C116.140587,218.911301 100.533104,218.514221 85.069847,217.237579 
	C81.897324,216.975647 79.877556,217.964630 78.022995,220.663956 
	C74.065865,226.423538 69.807640,231.990540 65.445671,237.455154 
	C49.218567,257.784241 37.266430,280.226562 35.609722,306.519043 
	C33.797928,335.272766 33.984852,364.095795 41.326893,392.342407 
	C47.979256,417.935638 56.936901,442.543793 72.346199,465.184448 
M254.972794,43.460968 
	C253.664825,43.710354 252.360458,43.980747 251.048340,44.205933 
	C235.049561,46.951626 223.174271,57.675865 220.045303,73.453072 
	C216.856857,89.530090 221.337021,104.763626 226.832581,119.709198 
	C227.540009,121.633118 229.281342,121.699844 231.004807,121.698723 
	C248.322693,121.687408 265.640564,121.680336 282.958466,121.689491 
	C284.892426,121.690514 286.670746,121.487259 287.375946,119.296219 
	C291.453064,106.628906 295.590637,94.026543 294.948395,80.380051 
	C293.940216,58.958233 277.386963,43.134296 254.972794,43.460968 
M404.044556,27.475439 
	C383.080261,26.817966 368.141846,37.680630 363.774384,56.692913 
	C361.436218,66.871544 362.816101,76.818993 365.291534,86.756699 
	C365.917175,89.268410 367.454559,89.864395 369.649719,89.864586 
	C389.810211,89.866310 409.970703,89.862984 430.131195,89.885643 
	C432.367462,89.888161 433.972839,89.207764 434.635529,86.846573 
	C437.220795,77.635818 439.044373,68.235809 437.118958,58.773018 
	C433.542358,41.194851 422.393799,31.007229 404.044556,27.475439 
M137.670547,67.817986 
	C118.340424,50.168530 83.828575,61.099098 77.800079,87.684982 
	C75.515732,97.759026 76.557381,107.420967 79.338081,117.156570 
	C80.336983,120.653839 82.157196,121.820686 85.756050,121.783783 
	C102.230499,121.614807 118.707565,121.697769 135.183685,121.694183 
	C147.998978,121.691391 148.216370,121.729202 150.289017,108.942505 
	C152.785110,93.543442 150.413223,79.405769 137.670547,67.817986 
M412.491821,107.296967 
	C399.429260,107.296967 386.366699,107.296967 373.099945,107.296967 
	C373.486389,111.516685 375.254608,114.431824 376.057770,117.618523 
	C376.661377,120.013527 378.102722,120.801140 380.394287,120.797791 
	C393.724426,120.778320 407.054657,120.799026 420.384857,120.816933 
	C422.381439,120.819618 424.016937,120.317322 424.614624,118.133369 
	C425.526154,114.802429 426.835419,111.557274 427.074615,107.298492 
	C422.364197,107.298492 417.925629,107.298492 412.491821,107.296967 
M112.501129,152.753754 
	C117.825195,152.791473 123.149231,152.834457 128.473328,152.865662 
	C136.725296,152.914032 136.725311,152.910629 138.719467,145.126526 
	C140.140305,139.580368 139.773483,138.931549 134.195526,138.939026 
	C119.887207,138.958191 105.579002,139.110748 91.270996,139.238449 
	C90.145897,139.248489 88.912781,139.065430 87.643356,140.508530 
	C88.229874,142.711105 89.058212,145.200897 89.534126,147.756332 
	C90.226357,151.473267 92.092278,153.022644 96.032639,152.779678 
	C101.170082,152.462921 106.343384,152.727722 112.501129,152.753754 
M128.241013,186.120621 
	C118.089081,186.150391 107.937035,186.217529 97.785309,186.183746 
	C95.236595,186.175262 93.100769,186.496674 92.556892,189.499466 
	C91.943985,192.883377 91.330055,196.267105 90.747818,199.478577 
	C92.555855,201.185272 94.482658,200.635117 96.240807,200.645386 
	C107.058304,200.708603 117.876266,200.694550 128.694077,200.700623 
	C136.851120,200.705185 136.854950,200.700836 135.531418,192.873230 
	C135.420883,192.219467 135.091782,191.586868 135.067734,190.936905 
	C134.924377,187.062561 132.750885,185.739853 128.241013,186.120621 
M386.608185,168.736954 
	C398.374512,168.736954 410.140869,168.736954 422.500458,168.736954 
	C421.784760,164.293991 421.145355,160.734680 420.657867,157.154678 
	C420.330353,154.749588 418.762421,154.266022 416.753082,154.268250 
	C405.590607,154.280670 394.428131,154.291199 383.265656,154.313278 
	C381.486298,154.316803 379.689941,154.685226 379.548370,156.794937 
	C379.294983,160.571320 377.694946,164.194427 378.172241,168.091934 
	C380.676849,169.175385 383.196472,168.622223 386.608185,168.736954 
M279.129486,181.765396 
	C278.727631,179.818787 277.932648,177.858505 277.999786,175.928207 
	C278.180023,170.748077 275.348145,170.080994 271.042877,170.230057 
	C263.248749,170.499863 255.437408,170.221863 247.635559,170.333237 
	C235.822021,170.501892 238.246338,168.460968 235.740128,180.310196 
	C235.018982,183.719711 236.054642,184.914246 239.363449,184.900421 
	C251.483231,184.849762 263.603424,184.897827 275.723206,184.844589 
	C277.293396,184.837708 279.274811,185.084274 279.129486,181.765396 
M254.501099,152.943130 
	C259.497253,152.966660 264.493378,152.996002 269.489563,153.012421 
	C278.075134,153.040634 277.817474,152.972427 279.976837,144.392181 
	C281.089050,139.972916 279.577332,139.186691 275.675568,139.233368 
	C263.187897,139.382736 250.697556,139.296371 238.208435,139.346588 
	C236.781219,139.352325 235.160522,138.961929 234.058426,140.527252 
	C233.796951,143.035583 235.003555,145.356644 235.227905,147.796097 
	C235.597351,151.813095 237.629684,153.202484 241.514114,152.977966 
	C245.497513,152.747726 249.505142,152.936966 254.501099,152.943130 
z"/>
<path fill="#000000" opacity="1.000000" stroke="none" 
	d="
M130.076691,337.456360 
	C133.675201,308.131348 144.980927,282.918304 165.609772,262.189728 
	C174.234711,253.523117 183.766052,245.980011 195.162811,241.193970 
	C200.018555,239.154846 203.235214,240.400421 205.625290,244.721359 
	C208.089981,249.177155 207.453964,252.069550 202.519058,255.157333 
	C187.980209,264.254242 174.717407,274.693573 165.084274,289.165985 
	C149.798752,312.130371 143.559448,337.336365 147.246338,364.672577 
	C152.487671,403.533905 172.296555,432.458710 207.361740,450.534912 
	C216.778381,455.389252 226.971069,457.833466 237.355164,459.560150 
	C238.338593,459.723663 239.367737,459.768982 240.292572,460.100769 
	C244.251236,461.521118 247.957413,463.465179 247.187744,468.499390 
	C246.477844,473.142700 242.947433,475.047729 238.593658,475.393188 
	C231.344604,475.968353 224.323029,474.495239 217.456497,472.423187 
	C175.607956,459.795013 149.842636,431.001312 135.813019,390.636200 
	C129.874115,373.549225 128.696991,355.842010 130.076691,337.456360 
z"/>
<path fill="#000000" opacity="1.000000" stroke="none" 
	d="
M199.721558,371.587402 
	C187.470963,364.353760 183.929932,349.567352 191.405548,338.100494 
	C197.874863,328.177185 212.593811,325.607208 222.345062,332.698303 
	C231.245773,339.170837 234.412445,353.205719 229.178391,362.831360 
	C224.655029,371.150055 212.185822,377.398376 199.721558,371.587402 
M206.191696,347.663910 
	C204.254974,349.647675 203.495209,351.913696 205.305084,354.267029 
	C206.960770,356.419830 209.142670,357.369568 211.744614,355.631317 
	C213.994507,354.128235 215.545029,352.100464 214.199249,349.425873 
	C212.633194,346.313507 209.965500,345.520203 206.191696,347.663910 
z"/>
<path fill="#000000" opacity="1.000000" stroke="none" 
	d="
M282.458374,311.484192 
	C264.896362,312.654938 254.426620,297.073517 258.350433,282.158508 
	C261.174133,271.425293 272.429138,264.851593 283.595703,266.870514 
	C294.806946,268.897583 302.634857,279.521606 301.643524,291.364960 
	C300.729584,302.283142 294.394836,309.047302 282.458374,311.484192 
M274.384369,290.172241 
	C274.510834,291.425568 275.224762,292.349945 276.205139,293.008118 
	C279.040100,294.911316 281.569183,294.369934 283.591492,291.739227 
	C285.266998,289.559631 285.030762,287.228577 283.002625,285.522217 
	C280.430084,283.357788 277.797760,283.822388 275.542572,286.278046 
	C274.729095,287.163818 274.308228,288.229187 274.384369,290.172241 
z"/>
<path fill="#000000" opacity="1.000000" stroke="none" 
	d="
M222.101959,240.392914 
	C228.136642,231.058548 237.556366,227.278397 246.687134,230.263962 
	C256.036224,233.320908 263.034485,243.140808 262.708527,252.745132 
	C262.404755,261.697784 255.192337,270.614929 245.648483,272.491028 
	C237.474365,274.097900 230.014191,271.508423 224.618042,265.031067 
	C218.505173,257.693451 217.931625,249.374847 222.101959,240.392914 
M241.683395,254.958405 
	C244.196091,253.214890 246.972321,251.429764 244.164566,247.969528 
	C243.002060,246.536850 241.095947,245.884109 239.245728,246.971878 
	C237.463531,248.019669 236.069366,249.536575 236.484406,251.788925 
	C236.929947,254.206757 238.501373,255.453995 241.683395,254.958405 
z"/>
<path fill="#000000" opacity="1.000000" stroke="none" 
	d="
M191.633698,274.562012 
	C199.723694,268.507812 208.025528,267.312103 216.621384,272.263092 
	C223.838501,276.419983 227.917496,285.873901 226.542007,294.160614 
	C224.914108,303.967987 219.193161,309.632843 208.753067,311.775330 
	C201.347046,313.295197 192.383453,309.487152 188.347809,303.106476 
	C183.165131,294.912262 183.391479,284.502625 188.948441,277.334137 
	C189.657974,276.418823 190.547302,275.642883 191.633698,274.562012 
M208.572876,293.196381 
	C210.133896,291.042480 209.829117,289.149872 207.660538,287.656647 
	C206.264069,286.695068 204.745102,285.980011 203.066422,287.130676 
	C201.295975,288.344208 200.930847,290.108978 201.570923,291.961517 
	C202.232193,293.875275 203.787506,294.850952 205.850250,294.612701 
	C206.622314,294.523529 207.347778,294.030823 208.572876,293.196381 
z"/>
</svg>