<svg version="1.1" id="Layer_1" xmlns="http://www.w3.org/2000/svg" xmlns:xlink="http://www.w3.org/1999/xlink" x="0px" y="0px"
	 width="100%" viewBox="0 0 100 100" enable-background="new 0 0 100 100" xml:space="preserve">
<path fill="#FDFDFD" opacity="1.000000" stroke="none" 
	d="
M43.000000,101.000000 
	C29.033363,101.000000 15.066726,101.000000 1.050044,101.000000 
	C1.050044,67.779526 1.050044,34.558960 1.050044,1.000000 
	C14.685702,1.000000 28.374193,1.000000 42.358177,1.345987 
	C26.744593,4.760695 23.529461,8.844018 21.370384,28.722458 
	C11.180296,30.272228 5.970043,35.148422 7.182972,44.210796 
	C9.068038,58.295021 15.146391,70.560966 27.454123,78.620857 
	C30.113979,80.362701 31.644514,81.992867 31.905855,84.998634 
	C32.553009,92.441864 34.785717,98.797821 43.000000,101.000000 
z"/>
<path fill="#0E0E0E" opacity="1.000000" stroke="none" 
	d="
M43.468655,101.000000 
	C34.785717,98.797821 32.553009,92.441864 31.905855,84.998634 
	C31.644514,81.992867 30.113979,80.362701 27.454123,78.620857 
	C15.146391,70.560966 9.068038,58.295021 7.182972,44.210796 
	C5.970043,35.148422 11.180296,30.272228 21.370384,28.722458 
	C23.529461,8.844018 26.744593,4.760695 42.826836,1.345987 
	C51.020901,1.000000 59.041798,1.000000 67.694717,1.368366 
	C83.964561,3.212295 90.718033,10.517529 90.996841,26.267315 
	C91.020355,27.595293 90.922165,28.930338 91.022545,30.251307 
	C92.623077,51.312840 83.000771,70.658340 81.679863,91.290466 
	C81.341003,96.583313 77.851997,99.504448 72.500305,100.083153 
	C71.643837,100.175766 70.832306,100.683937 70.000000,101.000000 
	C61.312435,101.000000 52.624874,101.000000 43.468655,101.000000 
M25.976528,32.251762 
	C26.985106,39.153557 28.080473,46.044571 28.939783,52.964901 
	C29.148388,54.644878 28.579504,56.421398 28.368126,58.153526 
	C27.224932,56.620827 25.424471,55.229259 25.059481,53.529461 
	C23.876005,48.017891 22.968533,42.416729 22.443249,36.804356 
	C22.065882,32.772392 20.078152,32.587132 17.076567,33.627182 
	C12.337123,35.269398 9.413794,40.965679 11.553109,46.984203 
	C14.030560,53.954002 17.196741,60.815796 21.045145,67.126068 
	C25.627346,74.639572 33.137867,78.796280 41.844959,79.118996 
	C50.762337,79.449486 59.727154,78.444038 68.673264,78.072952 
	C76.008980,77.768669 80.014748,73.774963 82.026352,66.912666 
	C86.242928,52.528385 87.501648,37.822758 86.727394,22.977274 
	C86.181961,12.519183 81.174644,7.441660 70.493706,6.155328 
	C63.586426,5.323466 56.546131,4.969728 49.596855,5.232473 
	C30.145145,5.967920 24.948282,11.894486 25.976528,32.251762 
M47.139858,96.635818 
	C55.444885,96.426804 63.761555,96.397850 72.045464,95.862289 
	C73.776894,95.750359 76.392296,94.082710 76.859055,92.588150 
	C78.094818,88.631332 78.376808,84.376640 78.850052,81.417732 
	C64.304787,82.360298 50.343296,83.265038 36.251022,84.178253 
	C35.905151,92.775475 37.774200,95.321693 47.139858,96.635818 
z"/>
<path fill="#FDFDFD" opacity="1.000000" stroke="none" 
	d="
M70.468658,101.000000 
	C70.832306,100.683937 71.643837,100.175766 72.500305,100.083153 
	C77.851997,99.504448 81.341003,96.583313 81.679863,91.290466 
	C83.000771,70.658340 92.623077,51.312840 91.022545,30.251307 
	C90.922165,28.930338 91.020355,27.595293 90.996841,26.267315 
	C90.718033,10.517529 83.964561,3.212295 68.163376,1.368366 
	C78.970581,1.000000 89.941154,1.000000 100.955872,1.000000 
	C100.955872,34.214706 100.955872,67.429482 100.955872,101.000000 
	C90.981911,101.000000 80.959618,101.000000 70.468658,101.000000 
z"/>
<path fill="#FDFDFD" opacity="1.000000" stroke="none" 
	d="
M25.958958,31.779417 
	C24.948282,11.894486 30.145145,5.967920 49.596855,5.232473 
	C56.546131,4.969728 63.586426,5.323466 70.493706,6.155328 
	C81.174644,7.441660 86.181961,12.519183 86.727394,22.977274 
	C87.501648,37.822758 86.242928,52.528385 82.026352,66.912666 
	C80.014748,73.774963 76.008980,77.768669 68.673264,78.072952 
	C59.727154,78.444038 50.762337,79.449486 41.844959,79.118996 
	C33.137867,78.796280 25.627346,74.639572 21.045145,67.126068 
	C17.196741,60.815796 14.030560,53.954002 11.553109,46.984203 
	C9.413794,40.965679 12.337123,35.269398 17.076567,33.627182 
	C20.078152,32.587132 22.065882,32.772392 22.443249,36.804356 
	C22.968533,42.416729 23.876005,48.017891 25.059481,53.529461 
	C25.424471,55.229259 27.224932,56.620827 28.368126,58.153526 
	C28.579504,56.421398 29.148388,54.644878 28.939783,52.964901 
	C28.080473,46.044571 26.985106,39.153557 25.958958,31.779417 
z"/>
<path fill="#F8F8F8" opacity="1.000000" stroke="none" 
	d="
M46.701385,96.565475 
	C37.774200,95.321693 35.905151,92.775475 36.251022,84.178253 
	C50.343296,83.265038 64.304787,82.360298 78.850052,81.417732 
	C78.376808,84.376640 78.094818,88.631332 76.859055,92.588150 
	C76.392296,94.082710 73.776894,95.750359 72.045464,95.862289 
	C63.761555,96.397850 55.444885,96.426804 46.701385,96.565475 
z"/>
</svg>