<svg version="1.1" id="Layer_1" xmlns="http://www.w3.org/2000/svg" xmlns:xlink="http://www.w3.org/1999/xlink" x="0px" y="0px"
	 width="100%" viewBox="0 0 100 100" enable-background="new 0 0 100 100" xml:space="preserve">
<path fill="#FEFEFE" opacity="1.000000" stroke="none" 
	d="
M54.000000,1.000000 
	C69.624817,1.000000 85.249626,1.000000 100.937225,1.000000 
	C100.937225,34.333313 100.937225,67.666641 100.937225,101.000000 
	C95.242493,101.000000 89.590958,101.000000 83.372070,100.624687 
	C88.466095,93.923370 81.497963,90.259254 79.736557,85.458839 
	C84.547310,79.678719 83.932167,74.257973 77.836090,71.849625 
	C70.943489,69.126587 67.919685,62.768417 63.714363,58.575176 
	C65.019463,55.626450 66.159546,53.494671 66.910873,51.233704 
	C67.736656,48.748718 67.867699,45.999340 68.894608,43.621300 
	C71.480537,37.632946 72.071251,31.675617 68.691948,25.960058 
	C66.431252,22.136457 63.450069,18.742506 60.854782,15.110921 
	C60.032890,13.960851 58.621933,12.496091 58.840683,11.463475 
	C59.868237,6.612844 57.239277,3.724838 54.000000,1.000000 
z"/>
<path fill="#FEFEFE" opacity="1.000000" stroke="none" 
	d="
M19.000000,101.000000 
	C13.015948,101.000000 7.031897,101.000000 1.023923,101.000000 
	C1.023923,67.771233 1.023923,34.542442 1.023923,1.000000 
	C16.352804,1.000000 31.707743,1.000000 47.458237,1.346584 
	C44.495396,3.293981 43.144619,5.980883 42.939396,9.665329 
	C42.834770,11.543767 42.045483,13.572525 41.005791,15.168637 
	C39.203136,17.936045 36.823002,20.321358 34.937641,23.041960 
	C29.885714,30.331963 29.533987,37.794880 34.467751,45.347836 
	C34.989788,46.147011 35.516113,47.052307 35.662079,47.968647 
	C36.187443,51.266766 36.550636,54.590721 36.975101,57.904915 
	C37.610413,58.052929 38.245724,58.200943 38.881035,58.348957 
	C34.827682,62.575443 31.467876,68.081184 26.564402,70.739609 
	C18.465286,75.130562 16.796795,78.400284 22.159309,85.803795 
	C16.036114,94.468468 15.793165,95.637047 19.000000,101.000000 
z"/>
<path fill="#090909" opacity="1.000000" stroke="none" 
	d="
M19.468658,101.000000 
	C15.793165,95.637047 16.036114,94.468468 22.159309,85.803795 
	C16.796795,78.400284 18.465286,75.130562 26.564402,70.739609 
	C31.467876,68.081184 34.827682,62.575443 38.881035,58.348957 
	C38.245724,58.200943 37.610413,58.052929 36.975101,57.904915 
	C36.550636,54.590721 36.187443,51.266766 35.662079,47.968647 
	C35.516113,47.052307 34.989788,46.147011 34.467751,45.347836 
	C29.533987,37.794880 29.885714,30.331963 34.937641,23.041960 
	C36.823002,20.321358 39.203136,17.936045 41.005791,15.168637 
	C42.045483,13.572525 42.834770,11.543767 42.939396,9.665329 
	C43.144619,5.980883 44.495396,3.293981 47.926895,1.346584 
	C49.714359,1.000000 51.428715,1.000000 53.571537,1.000000 
	C57.239277,3.724838 59.868237,6.612844 58.840683,11.463475 
	C58.621933,12.496091 60.032890,13.960851 60.854782,15.110921 
	C63.450069,18.742506 66.431252,22.136457 68.691948,25.960058 
	C72.071251,31.675617 71.480537,37.632946 68.894608,43.621300 
	C67.867699,45.999340 67.736656,48.748718 66.910873,51.233704 
	C66.159546,53.494671 65.019463,55.626450 63.714363,58.575176 
	C67.919685,62.768417 70.943489,69.126587 77.836090,71.849625 
	C83.932167,74.257973 84.547310,79.678719 79.736557,85.458839 
	C81.497963,90.259254 88.466095,93.923370 82.902359,100.624687 
	C61.979103,101.000000 40.958210,101.000000 19.468658,101.000000 
M41.394958,20.894253 
	C40.324783,22.370403 39.166977,23.791517 38.199429,25.332119 
	C33.734596,32.441353 33.935543,37.872688 38.457336,43.510452 
	C46.995544,43.510452 55.181267,43.510452 63.973553,43.510452 
	C64.029716,43.430950 64.567818,42.813900 64.946548,42.110985 
	C69.438187,33.774403 65.672592,27.147377 60.473557,20.853304 
	C55.257011,14.538041 47.264626,14.337320 41.394958,20.894253 
M70.185349,87.015045 
	C57.190983,87.014702 44.196617,87.010239 31.202253,87.015915 
	C25.565105,87.018379 21.778307,90.843483 21.512079,96.671173 
	C41.225914,96.671173 60.943386,96.671173 80.742851,96.671173 
	C78.825272,89.696320 76.257668,87.187271 70.185349,87.015045 
M28.959455,75.012604 
	C25.861216,74.953049 22.651655,75.700104 23.354805,79.342850 
	C23.651627,80.880562 27.155977,82.752930 29.259890,82.826447 
	C39.537815,83.185570 49.835163,82.991432 60.125641,82.987610 
	C64.938782,82.985825 69.785492,83.288925 74.546127,82.784760 
	C76.127235,82.617332 77.487274,80.362320 78.948372,79.061699 
	C77.525871,77.721680 76.242935,76.162048 74.623055,75.132622 
	C73.790894,74.603790 72.357574,75.012077 71.195915,75.011955 
	C57.419964,75.010475 43.644016,75.011833 28.959455,75.012604 
M46.802567,59.011536 
	C45.236801,59.242493 43.051521,58.901203 42.215530,59.806248 
	C39.068939,63.212776 36.361801,67.025223 33.496929,70.676895 
	C45.314320,70.676895 56.959297,70.676895 69.247574,70.676895 
	C67.376785,68.836807 65.470955,67.715256 64.686569,66.061729 
	C61.093262,58.486839 54.621372,58.356678 46.802567,59.011536 
M39.663334,52.871895 
	C40.297760,53.387287 40.917969,54.329922 41.568817,54.351578 
	C47.668972,54.554520 53.783913,54.798279 59.869373,54.505791 
	C60.951363,54.453785 62.829037,51.878735 62.687881,50.659992 
	C62.537678,49.363140 60.488628,47.377750 59.157784,47.285049 
	C53.707088,46.905380 48.180897,46.810490 42.760361,47.367912 
	C41.432003,47.504509 40.398178,50.505211 39.663334,52.871895 
M50.603939,5.025877 
	C47.447487,5.889871 46.018623,7.918773 47.652348,10.872375 
	C48.258865,11.968901 50.455883,12.949087 51.692551,12.719013 
	C52.930042,12.488786 54.950314,10.355779 54.731041,9.628971 
	C54.213608,7.913860 52.568413,6.538985 50.603939,5.025877 
z"/>
<path fill="#FBFBFB" opacity="1.000000" stroke="none" 
	d="
M41.633209,20.619335 
	C47.264626,14.337320 55.257011,14.538041 60.473557,20.853304 
	C65.672592,27.147377 69.438187,33.774403 64.946548,42.110985 
	C64.567818,42.813900 64.029716,43.430950 63.973553,43.510452 
	C55.181267,43.510452 46.995544,43.510452 38.457336,43.510452 
	C33.935543,37.872688 33.734596,32.441353 38.199429,25.332119 
	C39.166977,23.791517 40.324783,22.370403 41.633209,20.619335 
z"/>
<path fill="#FEFEFE" opacity="1.000000" stroke="none" 
	d="
M70.640739,87.015015 
	C76.257668,87.187271 78.825272,89.696320 80.742851,96.671173 
	C60.943386,96.671173 41.225914,96.671173 21.512079,96.671173 
	C21.778307,90.843483 25.565105,87.018379 31.202253,87.015915 
	C44.196617,87.010239 57.190983,87.014702 70.640739,87.015015 
z"/>
<path fill="#FCFCFC" opacity="1.000000" stroke="none" 
	d="
M29.413761,75.012527 
	C43.644016,75.011833 57.419964,75.010475 71.195915,75.011955 
	C72.357574,75.012077 73.790894,74.603790 74.623055,75.132622 
	C76.242935,76.162048 77.525871,77.721680 78.948372,79.061699 
	C77.487274,80.362320 76.127235,82.617332 74.546127,82.784760 
	C69.785492,83.288925 64.938782,82.985825 60.125641,82.987610 
	C49.835163,82.991432 39.537815,83.185570 29.259890,82.826447 
	C27.155977,82.752930 23.651627,80.880562 23.354805,79.342850 
	C22.651655,75.700104 25.861216,74.953049 29.413761,75.012527 
z"/>
<path fill="#FDFDFD" opacity="1.000000" stroke="none" 
	d="
M47.265862,59.011562 
	C54.621372,58.356678 61.093262,58.486839 64.686569,66.061729 
	C65.470955,67.715256 67.376785,68.836807 69.247574,70.676895 
	C56.959297,70.676895 45.314320,70.676895 33.496929,70.676895 
	C36.361801,67.025223 39.068939,63.212776 42.215530,59.806248 
	C43.051521,58.901203 45.236801,59.242493 47.265862,59.011562 
z"/>
<path fill="#F9F9F9" opacity="1.000000" stroke="none" 
	d="
M39.446136,52.530514 
	C40.398178,50.505211 41.432003,47.504509 42.760361,47.367912 
	C48.180897,46.810490 53.707088,46.905380 59.157784,47.285049 
	C60.488628,47.377750 62.537678,49.363140 62.687881,50.659992 
	C62.829037,51.878735 60.951363,54.453785 59.869373,54.505791 
	C53.783913,54.798279 47.668972,54.554520 41.568817,54.351578 
	C40.917969,54.329922 40.297760,53.387287 39.446136,52.530514 
z"/>
<path fill="#EFEFEF" opacity="1.000000" stroke="none" 
	d="
M50.991638,5.026189 
	C52.568413,6.538985 54.213608,7.913860 54.731041,9.628971 
	C54.950314,10.355779 52.930042,12.488786 51.692551,12.719013 
	C50.455883,12.949087 48.258865,11.968901 47.652348,10.872375 
	C46.018623,7.918773 47.447487,5.889871 50.991638,5.026189 
z"/>
</svg>