<svg version="1.1" id="Layer_1" xmlns="http://www.w3.org/2000/svg" xmlns:xlink="http://www.w3.org/1999/xlink" x="0px" y="0px"
	 width="100%" viewBox="0 0 96 96" enable-background="new 0 0 96 96" xml:space="preserve">
<path fill="#000000" opacity="1.000000" stroke="none" 
	d="
M39.458069,97.000000 
	C37.120731,94.988205 34.426476,95.018539 32.065823,94.546234 
	C23.380785,92.808548 19.827145,89.069687 18.836384,80.107933 
	C18.729570,79.141777 18.657627,77.712471 18.049343,77.334007 
	C13.349280,74.409569 12.698333,69.732674 12.043299,64.868645 
	C11.584786,61.463905 9.106977,59.286041 6.135272,57.904926 
	C1.994407,55.980434 1.995930,53.208447 4.053512,49.783489 
	C6.882260,45.074890 10.434346,40.869873 13.274740,36.140049 
	C15.291167,32.782291 19.791887,33.386925 22.913870,32.196514 
	C24.123138,30.460484 22.941772,29.091820 22.815741,27.659264 
	C22.537346,24.494934 23.556818,21.565197 26.727390,21.020754 
	C30.128290,20.436764 30.828646,18.321669 31.777689,15.750430 
	C34.747330,7.704803 42.126591,2.641956 50.584080,2.638302 
	C59.991528,2.634238 67.069847,7.372038 70.259758,15.955043 
	C71.203270,18.493738 71.737427,21.177074 75.422813,20.841223 
	C76.075035,20.781790 77.171211,21.445616 77.446861,22.054232 
	C79.799370,27.248222 83.745010,26.202044 87.905434,25.023329 
	C90.703461,24.230606 93.521744,24.602577 96.601379,25.892975 
	C97.000000,31.688040 97.000000,37.376080 96.709015,43.451286 
	C93.811394,44.188023 90.420120,44.551483 90.663994,47.733585 
	C91.004944,52.182224 91.997551,56.888359 97.000000,59.000000 
	C97.000000,60.714359 97.000000,62.428715 96.799088,64.841568 
	C93.947044,70.145531 91.361366,74.790443 88.619469,79.341232 
	C87.052155,81.942551 86.282272,84.367104 88.249817,87.151985 
	C90.028488,89.669548 89.091522,91.793365 86.939369,93.686462 
	C85.839241,94.654167 84.972321,95.887001 84.000000,97.000000 
	C79.310745,97.000000 74.621490,97.000000 69.273010,96.724167 
	C65.506126,93.679268 61.564041,92.381905 57.994373,90.427734 
	C55.510258,89.067833 53.619450,89.649384 52.352146,92.181107 
	C51.552094,93.779396 50.782993,95.393173 50.000000,97.000000 
	C46.638714,97.000000 43.277424,97.000000 39.458069,97.000000 
M72.032135,26.101477 
	C67.941818,37.110325 62.132538,47.140797 54.775818,56.277142 
	C51.580627,60.245270 50.254074,60.285805 47.156387,56.147156 
	C40.761478,47.603268 34.626705,38.890484 31.278854,28.572540 
	C30.963438,27.600439 30.945028,26.111980 29.255470,26.197649 
	C28.482403,28.670849 28.482403,28.670849 28.821136,30.747427 
	C29.695559,36.107979 28.016407,38.138226 22.596642,38.238724 
	C20.774769,38.272511 18.655584,37.862404 17.526243,39.621235 
	C14.672713,44.065308 10.923068,47.939339 8.555863,53.310535 
	C14.811419,56.348904 17.534309,61.489433 17.707340,68.185974 
	C17.740173,69.456757 18.426811,70.793610 19.678766,71.521782 
	C23.305393,73.631119 24.108389,77.070610 24.298742,80.890724 
	C24.523071,85.392616 27.832418,88.899727 32.213909,89.647522 
	C35.317406,90.177193 38.436104,90.725433 41.461987,91.572639 
	C44.615711,92.455635 46.525967,91.847000 48.360764,88.790344 
	C51.758984,83.129135 53.953342,82.703064 59.915852,85.568085 
	C64.714493,87.873871 69.458931,90.301361 74.149483,92.819969 
	C77.063072,94.384430 79.097900,93.052704 81.391426,91.411987 
	C83.784599,89.699982 82.652199,88.126816 81.865868,86.255531 
	C80.893448,83.941391 81.467163,81.671768 82.639961,79.544601 
	C84.729607,75.754509 86.632980,71.840813 88.995499,68.228127 
	C91.219246,64.827644 91.987541,62.143936 88.925972,58.530857 
	C85.718384,54.745453 85.291321,49.655788 85.442482,44.771164 
	C85.564278,40.835354 89.613503,41.008633 91.814072,39.229969 
	C94.172539,37.323692 94.541817,34.510162 93.828247,31.981169 
	C93.156631,29.600857 90.462883,29.725479 88.662102,30.362423 
	C82.285492,32.617863 76.889732,32.179478 73.086990,25.847364 
	C73.040504,25.769953 72.768967,25.827692 72.032135,26.101477 
M58.096859,42.612480 
	C61.217796,37.511318 64.315849,32.403473 65.804771,26.515968 
	C67.415138,20.148272 64.998703,14.020784 59.310474,10.166247 
	C54.136543,6.660217 47.442261,6.703548 42.512760,10.274981 
	C36.808510,14.407721 34.348579,20.388004 36.298656,26.728294 
	C39.014870,35.559517 43.946609,43.243992 49.551575,50.505074 
	C49.911423,50.971241 50.623146,51.165791 51.196857,51.501736 
	C54.302288,49.310272 55.680290,46.006462 58.096859,42.612480 
z"/>
<path fill="#000000" opacity="1.000000" stroke="none" 
	d="
M35.173729,65.220497 
	C31.539167,64.196152 30.220461,61.932186 30.885422,58.745560 
	C31.408730,56.237770 33.156609,54.743050 35.827988,54.756302 
	C38.894958,54.771519 40.953255,56.336052 41.194145,59.410366 
	C41.493549,63.231468 39.472424,65.240547 35.173729,65.220497 
z"/>
<path fill="#000000" opacity="1.000000" stroke="none" 
	d="
M43.242249,26.217476 
	C42.312397,19.525249 44.555393,15.527453 49.422020,14.781456 
	C53.466995,14.161409 56.798443,15.547462 58.534214,19.321455 
	C60.324093,23.213068 59.529846,26.885111 56.104187,29.613579 
	C52.804821,32.241455 49.275631,31.911932 45.964806,29.585312 
	C44.927456,28.856335 44.259617,27.601540 43.242249,26.217476 
M48.477184,25.083124 
	C50.246868,26.963350 51.926369,26.648432 53.522926,24.856382 
	C54.530296,23.725660 54.715748,22.525337 53.673683,21.309500 
	C52.790657,20.279222 51.756523,19.232756 50.307003,19.891008 
	C48.359692,20.775316 46.981152,22.133999 48.477184,25.083124 
z"/>
</svg>