<svg version="1.1" id="Layer_1" xmlns="http://www.w3.org/2000/svg" xmlns:xlink="http://www.w3.org/1999/xlink" x="0px" y="0px"
	 width="100%" viewBox="0 0 100 100" enable-background="new 0 0 100 100" xml:space="preserve">
<path fill="#FCFCFC" opacity="1.000000" stroke="none" 
	d="
M50.000000,101.000000 
	C33.697655,101.000000 17.395311,101.000000 1.046483,101.000000 
	C1.046483,67.760948 1.046483,34.521824 1.046483,1.000000 
	C28.020237,1.000000 55.041462,1.000000 82.473396,1.376797 
	C81.622673,6.381012 80.318245,10.997499 79.136520,15.645183 
	C78.903618,16.561209 79.113510,17.599255 79.171318,18.577950 
	C79.328003,21.231066 80.085648,23.997494 79.580780,26.513472 
	C77.950813,34.636345 75.938400,42.686321 73.927933,50.728031 
	C71.355812,61.016315 68.874359,71.337410 65.887566,81.507423 
	C64.483360,86.288773 60.952396,89.269661 55.494919,89.220947 
	C50.191734,89.173599 46.274815,86.980629 43.774071,82.242065 
	C42.428745,79.692863 42.325573,77.793297 45.253204,76.089783 
	C47.040676,75.049706 48.525169,73.247498 49.699543,71.489525 
	C50.360146,70.500648 50.113842,68.905937 50.276108,67.584152 
	C48.994415,68.138939 47.304260,68.347992 46.495708,69.303253 
	C40.075306,76.888649 33.904373,76.895226 27.516161,69.321510 
	C26.699013,68.352722 25.014372,68.115631 23.731607,67.539574 
	C23.975391,69.003220 23.806940,70.742195 24.558140,71.866951 
	C25.728765,73.619728 27.552702,74.927689 29.041727,76.479851 
	C29.786160,77.255844 30.884235,78.092567 31.002991,79.008102 
	C32.501415,90.560020 39.726494,97.077065 50.000000,101.000000 
M27.744850,54.287880 
	C28.321497,54.886959 28.890799,55.493313 29.475910,56.084007 
	C36.078381,62.749462 37.636967,62.569988 44.594250,56.182991 
	C46.521713,54.413517 49.653950,53.723724 52.362492,53.091209 
	C56.628975,52.094872 62.009758,52.911793 65.136841,50.575726 
	C73.021317,44.685688 67.320732,36.447933 66.916885,29.211601 
	C66.666855,24.731392 63.442471,21.980091 59.191612,21.144728 
	C44.661762,18.289364 30.084291,18.050341 15.548607,21.189198 
	C10.423231,22.295980 7.487262,25.441359 6.951141,30.813030 
	C6.621306,34.117813 5.977494,37.392815 5.433296,40.674328 
	C4.193059,48.152943 8.131145,52.788185 15.814670,53.044403 
	C19.576345,53.169846 23.329342,53.555576 27.744850,54.287880 
z"/>
<path fill="#FDFDFD" opacity="1.000000" stroke="none" 
	d="
M96.000000,1.000000 
	C97.661659,1.000000 99.323311,1.000000 100.988724,0.999999 
	C100.992485,34.228134 100.992485,67.456276 100.992485,101.000000 
	C87.647430,101.000000 74.292374,101.000000 60.634052,100.670036 
	C71.541801,97.999367 76.329018,89.649406 78.778061,79.716797 
	C84.852440,55.080997 90.587769,30.361288 96.358643,5.651774 
	C96.695862,4.207861 96.140160,2.555407 96.000000,1.000000 
z"/>
<path fill="#0F0F0F" opacity="1.000000" stroke="none" 
	d="
M95.536819,1.000000 
	C96.140160,2.555407 96.695862,4.207861 96.358643,5.651774 
	C90.587769,30.361288 84.852440,55.080997 78.778061,79.716797 
	C76.329018,89.649406 71.541801,97.999367 60.165394,100.670036 
	C56.969406,101.000000 53.938812,101.000000 50.454109,101.000000 
	C39.726494,97.077065 32.501415,90.560020 31.002991,79.008102 
	C30.884235,78.092567 29.786160,77.255844 29.041727,76.479851 
	C27.552702,74.927689 25.728765,73.619728 24.558140,71.866951 
	C23.806940,70.742195 23.975391,69.003220 23.731607,67.539574 
	C25.014372,68.115631 26.699013,68.352722 27.516161,69.321510 
	C33.904373,76.895226 40.075306,76.888649 46.495708,69.303253 
	C47.304260,68.347992 48.994415,68.138939 50.276108,67.584152 
	C50.113842,68.905937 50.360146,70.500648 49.699543,71.489525 
	C48.525169,73.247498 47.040676,75.049706 45.253204,76.089783 
	C42.325573,77.793297 42.428745,79.692863 43.774071,82.242065 
	C46.274815,86.980629 50.191734,89.173599 55.494919,89.220947 
	C60.952396,89.269661 64.483360,86.288773 65.887566,81.507423 
	C68.874359,71.337410 71.355812,61.016315 73.927933,50.728031 
	C75.938400,42.686321 77.950813,34.636345 79.580780,26.513472 
	C80.085648,23.997494 79.328003,21.231066 79.171318,18.577950 
	C79.113510,17.599255 78.903618,16.561209 79.136520,15.645183 
	C80.318245,10.997499 81.622673,6.381012 82.942055,1.376797 
	C87.024544,1.000000 91.049088,1.000000 95.536819,1.000000 
M40.949310,85.389740 
	C38.439751,84.004753 40.903469,77.827461 35.214916,79.317238 
	C37.495155,89.964104 44.546326,96.508514 54.105820,96.975700 
	C63.633705,97.441330 71.037865,92.523453 73.821030,82.009354 
	C79.469406,60.671288 84.351974,39.130508 89.406456,18.266655 
	C87.959763,16.932632 86.963722,16.014172 85.967690,15.095706 
	C87.607803,13.928774 89.247917,12.761842 90.591026,11.806230 
	C89.437447,10.917562 88.249268,10.002240 87.061089,9.086918 
	C88.725929,7.988576 90.390770,6.890236 92.691048,5.372682 
	C90.070435,5.372682 88.082802,5.372682 85.912781,5.372682 
	C85.289703,7.744465 84.329559,10.118408 84.091537,12.562672 
	C83.536392,18.263578 84.046623,24.154099 82.845535,29.690161 
	C79.217857,46.410915 75.122658,63.035522 70.908035,79.620956 
	C69.295593,85.966232 66.039322,91.530785 58.870094,92.886108 
	C51.743595,94.233360 45.717522,92.053833 40.949310,85.389740 
z"/>
<path fill="#0D0D0D" opacity="1.000000" stroke="none" 
	d="
M27.415558,54.055687 
	C23.329342,53.555576 19.576345,53.169846 15.814670,53.044403 
	C8.131145,52.788185 4.193059,48.152943 5.433296,40.674328 
	C5.977494,37.392815 6.621306,34.117813 6.951141,30.813030 
	C7.487262,25.441359 10.423231,22.295980 15.548607,21.189198 
	C30.084291,18.050341 44.661762,18.289364 59.191612,21.144728 
	C63.442471,21.980091 66.666855,24.731392 66.916885,29.211601 
	C67.320732,36.447933 73.021317,44.685688 65.136841,50.575726 
	C62.009758,52.911793 56.628975,52.094872 52.362492,53.091209 
	C49.653950,53.723724 46.521713,54.413517 44.594250,56.182991 
	C37.636967,62.569988 36.078381,62.749462 29.475910,56.084007 
	C28.890799,55.493313 28.321497,54.886959 27.415558,54.055687 
M46.885143,23.435318 
	C38.089573,23.699554 29.252617,23.527489 20.510637,24.356707 
	C12.543593,25.112419 11.994925,26.172428 10.587329,34.126053 
	C10.094919,36.908413 9.250201,39.716705 9.350076,42.484882 
	C9.417800,44.361984 10.598739,47.594475 11.718698,47.796280 
	C16.546230,48.666176 21.567841,49.070522 26.446577,48.698158 
	C28.056379,48.575287 29.664679,45.750408 30.901773,43.910896 
	C35.263927,37.424545 39.024578,37.100216 42.765053,43.684689 
	C45.146156,47.876228 47.921013,49.741997 52.665276,49.035789 
	C54.783497,48.720486 56.993202,49.081764 59.148384,48.939320 
	C63.166607,48.673737 65.578461,46.384544 64.881805,42.414360 
	C61.889420,25.360819 65.631874,25.482431 46.885143,23.435318 
M42.673206,52.054829 
	C40.988354,48.949738 39.303501,45.844646 37.165478,41.904381 
	C34.519634,45.886688 32.654846,48.693420 30.850189,51.409649 
	C36.818314,58.199371 36.818314,58.199371 42.673206,52.054829 
z"/>
<path fill="#ECECEC" opacity="1.000000" stroke="none" 
	d="
M41.139839,85.712067 
	C45.717522,92.053833 51.743595,94.233360 58.870094,92.886108 
	C66.039322,91.530785 69.295593,85.966232 70.908035,79.620956 
	C75.122658,63.035522 79.217857,46.410915 82.845535,29.690161 
	C84.046623,24.154099 83.536392,18.263578 84.091537,12.562672 
	C84.329559,10.118408 85.289703,7.744465 85.912781,5.372682 
	C88.082802,5.372682 90.070435,5.372682 92.691048,5.372682 
	C90.390770,6.890236 88.725929,7.988576 87.061089,9.086918 
	C88.249268,10.002240 89.437447,10.917562 90.591026,11.806230 
	C89.247917,12.761842 87.607803,13.928774 85.967690,15.095707 
	C86.963722,16.014172 87.959763,16.932632 89.406456,18.266655 
	C84.351974,39.130508 79.469406,60.671288 73.821030,82.009354 
	C71.037865,92.523453 63.633705,97.441330 54.105820,96.975700 
	C44.546326,96.508514 37.495155,89.964104 35.214916,79.317238 
	C40.903469,77.827461 38.439751,84.004753 41.139839,85.712067 
z"/>
<path fill="#FBFBFB" opacity="1.000000" stroke="none" 
	d="
M47.334488,23.504629 
	C65.631874,25.482431 61.889420,25.360819 64.881805,42.414360 
	C65.578461,46.384544 63.166607,48.673737 59.148384,48.939320 
	C56.993202,49.081764 54.783497,48.720486 52.665276,49.035789 
	C47.921013,49.741997 45.146156,47.876228 42.765053,43.684689 
	C39.024578,37.100216 35.263927,37.424545 30.901773,43.910896 
	C29.664679,45.750408 28.056379,48.575287 26.446577,48.698158 
	C21.567841,49.070522 16.546230,48.666176 11.718698,47.796280 
	C10.598739,47.594475 9.417800,44.361984 9.350076,42.484882 
	C9.250201,39.716705 10.094919,36.908413 10.587329,34.126053 
	C11.994925,26.172428 12.543593,25.112419 20.510637,24.356707 
	C29.252617,23.527489 38.089573,23.699554 47.334488,23.504629 
z"/>
<path fill="#F5F5F5" opacity="1.000000" stroke="none" 
	d="
M42.421791,52.316360 
	C36.818314,58.199371 36.818314,58.199371 30.850189,51.409649 
	C32.654846,48.693420 34.519634,45.886688 37.165478,41.904381 
	C39.303501,45.844646 40.988354,48.949738 42.421791,52.316360 
z"/>
</svg>