<svg version="1.1" id="Layer_1" xmlns="http://www.w3.org/2000/svg" xmlns:xlink="http://www.w3.org/1999/xlink" x="0px" y="0px"
	 width="100%" viewBox="0 0 512 512" enable-background="new 0 0 512 512" xml:space="preserve">
<path fill="currentColor" opacity="1.000000" stroke="currentColor" stroke-width="5.000000" d="
M62.018066,350.018982 
	C95.707275,314.431335 129.081406,279.032318 162.691010,243.858276 
	C166.905960,239.447128 168.412216,235.021347 168.892944,228.958939 
	C170.449615,209.328110 162.661835,191.766037 158.019058,173.492172 
	C154.910751,161.258011 149.975754,149.447433 148.618347,136.820343 
	C146.296570,115.222481 154.495102,98.078484 172.028915,85.534447 
	C175.429749,83.101425 176.836502,80.728821 176.749237,76.602425 
	C176.502640,64.943085 176.623947,53.274921 176.677170,41.610584 
	C176.723877,31.372766 183.351425,24.752066 193.553497,24.668346 
	C198.385635,24.628693 203.218521,24.636850 208.050812,24.666679 
	C218.555145,24.731520 225.285217,31.348547 225.334351,41.756229 
	C225.389420,53.420555 225.461655,65.087097 225.278030,76.748764 
	C225.226608,80.014458 226.248840,81.967735 229.140701,83.498535 
	C232.811264,85.441559 236.226608,87.866219 239.754883,90.078621 
	C250.806808,97.008736 261.872314,97.125031 273.239899,90.620888 
	C288.591888,81.837006 288.656982,81.950935 288.661255,64.304420 
	C288.663086,56.639126 288.615082,48.973404 288.680237,41.308643 
	C288.764465,31.399899 295.430328,24.765865 305.351471,24.669809 
	C310.516724,24.619799 315.683563,24.606155 320.848419,24.674152 
	C330.348450,24.799223 337.246185,31.598543 337.320526,41.065762 
	C337.415985,53.229515 337.442139,65.395752 337.287811,77.558250 
	C337.245605,80.884727 338.166382,82.997536 341.098175,84.912086 
	C360.633850,97.669502 370.044586,120.958359 364.230927,143.639191 
	C358.946442,164.255569 352.936920,184.690369 346.999298,205.133255 
	C344.037445,215.330719 345.902069,225.654831 345.444946,235.913330 
	C345.345520,238.143524 347.285492,239.384659 348.625946,240.801712 
	C374.502716,268.156738 400.413513,295.479523 426.307281,322.818481 
	C440.972565,338.302246 455.691315,353.736267 470.253174,369.316833 
	C482.427948,382.343292 479.570984,400.446960 463.860962,408.903900 
	C456.988617,412.603363 449.647278,415.432892 442.512207,418.642609 
	C439.958862,419.791229 437.385712,420.895813 434.703339,422.072357 
	C435.990906,425.687714 437.527283,428.841187 438.224945,432.170441 
	C440.667328,443.825836 435.541901,454.121796 424.760406,459.401367 
	C403.398651,469.862030 380.825592,476.649750 357.563202,481.309296 
	C314.151855,490.004761 270.201233,490.315582 226.249725,488.969299 
	C189.573730,487.845917 153.325012,483.091797 118.322311,471.270630 
	C108.849518,468.071472 99.560318,464.415070 90.552666,460.061157 
	C76.288559,453.166443 71.589737,440.080078 78.146309,425.516632 
	C78.550705,424.618378 78.881363,423.686920 79.508522,422.112823 
	C74.310333,419.754211 69.216904,417.434967 64.116478,415.131226 
	C59.260807,412.938049 54.286736,410.976288 49.558949,408.536407 
	C35.562057,401.313171 31.924284,382.963593 42.280689,371.045135 
	C48.503864,363.883331 55.259068,357.183868 62.018066,350.018982 
M100.916374,423.384766 
	C98.881569,426.023407 96.833023,428.651611 94.814781,431.302856 
	C90.530457,436.930969 91.491539,441.579071 97.854431,444.615265 
	C112.771721,451.733551 128.268204,457.205261 144.385635,460.989777 
	C147.713379,461.771149 149.171600,460.998596 150.561172,458.080292 
	C169.034790,419.282990 187.592072,380.525543 206.144318,341.765686 
	C212.544403,328.394470 218.905640,315.003479 225.457367,301.706635 
	C227.717834,297.118988 232.120163,295.619080 236.305496,297.450745 
	C240.723114,299.384094 242.455261,303.805389 240.685349,308.728363 
	C240.348480,309.665344 239.875107,310.554565 239.445496,311.456665 
	C219.968491,352.353790 200.485504,393.248108 181.013092,434.147430 
	C176.165298,444.329620 171.350723,454.527618 165.946472,465.930328 
	C227.057434,474.847565 287.063843,474.891113 346.960449,466.041077 
	C347.245667,463.167847 346.304413,461.922485 345.677185,460.595764 
	C337.776123,443.883240 329.882080,427.167297 321.930359,410.478851 
	C306.097473,377.250061 290.199921,344.052063 274.403015,310.806244 
	C271.382568,304.449493 272.580048,299.926483 277.481689,297.544708 
	C282.244812,295.230194 286.689667,297.353180 289.670776,303.575836 
	C299.889191,324.905304 310.048767,346.263000 320.235565,367.607666 
	C334.654938,397.820892 349.086578,428.028320 363.484680,458.251678 
	C364.586548,460.564667 365.744873,462.111755 368.796478,461.312958 
	C385.097137,457.045868 401.086060,451.900482 416.289734,444.567719 
	C422.388275,441.626373 423.380402,437.040039 419.281738,431.605530 
	C411.657104,421.496002 403.951843,411.447144 396.259857,401.388580 
	C369.744324,366.714966 343.219604,332.048370 316.701447,297.376801 
	C316.094421,296.583099 315.507385,295.773041 314.937561,294.952209 
	C311.570923,290.102539 312.066681,285.155151 316.208984,282.176575 
	C320.154236,279.339691 324.913879,280.237915 328.409088,284.855774 
	C344.194641,305.711700 359.896790,326.630829 375.622375,347.532166 
	C390.045593,366.702545 404.451019,385.886292 418.894073,405.041687 
	C420.230865,406.814667 421.232086,409.146057 424.412079,407.713013 
	C434.734283,403.061249 445.219604,398.765259 455.478424,393.981262 
	C461.335754,391.249725 462.167358,386.318268 458.144012,381.291016 
	C457.210327,380.124390 456.099945,379.099030 455.068970,378.010437 
	C415.427155,336.154297 375.769501,294.313171 336.189026,252.399063 
	C334.186523,250.278503 332.198395,249.301102 329.277435,249.305008 
	C281.119873,249.369385 232.962143,249.366486 184.804581,249.294327 
	C181.873016,249.289917 179.902328,250.305603 177.910675,252.422516 
	C153.137604,278.753632 128.287384,305.012238 103.419312,331.253784 
	C88.177353,347.337585 72.815887,363.308441 57.618183,379.433777 
	C50.950684,386.508270 51.981640,391.086243 60.796734,395.021698 
	C69.464760,398.891571 78.216805,402.582581 86.790359,406.650543 
	C90.782669,408.544800 93.076492,407.938354 95.835632,404.238464 
	C125.015686,365.108948 154.403214,326.134125 183.759552,287.136230 
	C185.053543,285.417267 186.394318,283.623810 188.070221,282.325897 
	C191.168427,279.926514 194.662262,279.951172 197.818130,282.213898 
	C201.167633,284.615448 202.194382,288.057220 200.753922,291.935425 
	C200.129807,293.615784 199.029343,295.170288 197.925476,296.613892 
	C165.748154,338.694153 133.543015,380.753143 100.916374,423.384766 
M247.499908,200.658615 
	C273.164337,200.658737 298.829315,200.576782 324.492706,200.738815 
	C328.829773,200.766205 331.017303,199.622772 332.188110,195.107285 
	C335.318176,183.035706 339.306000,171.186554 342.437714,159.115326 
	C345.093994,148.876648 349.460205,139.000031 348.740631,127.986710 
	C347.174469,104.016090 321.617981,85.599113 298.670197,96.176704 
	C293.646118,98.492500 289.054199,101.484444 284.381378,104.370293 
	C275.819763,109.657761 266.578156,112.395813 256.451843,112.357491 
	C245.188599,112.314880 235.339615,108.330086 226.117950,102.260338 
	C219.540604,97.931091 212.698410,93.949806 204.664185,93.359451 
	C180.078094,91.552872 160.043396,115.079964 166.152405,139.023499 
	C171.001175,158.027664 176.843140,176.776672 181.979324,195.710785 
	C183.001968,199.480682 184.637878,200.765778 188.505768,200.732193 
	C207.835907,200.564392 227.168289,200.657120 247.499908,200.658615 
M289.499939,232.660278 
	C299.496643,232.661438 309.493469,232.688766 319.490051,232.656403 
	C329.526215,232.623901 328.330322,233.593872 328.776245,223.556427 
	C329.011810,218.253830 327.017517,217.239395 322.161804,217.258347 
	C279.509766,217.424774 236.856796,217.336685 194.204102,217.348663 
	C184.238342,217.351471 185.410995,216.475082 185.360641,226.167740 
	C185.326996,232.645416 185.367508,232.658691 192.031464,232.659576 
	C224.187607,232.663803 256.343750,232.660416 289.499939,232.660278 
M320.654999,46.782825 
	C321.196136,42.743690 319.635681,40.843044 315.383148,41.326298 
	C313.409973,41.550529 311.389008,41.413273 309.392151,41.355331 
	C306.774689,41.279388 305.328888,42.254887 305.346252,45.109028 
	C305.401001,54.102318 305.375702,63.096203 305.351013,72.089783 
	C305.345276,74.175095 305.830688,75.709641 308.349945,75.687004 
	C312.277069,75.651711 316.204773,75.677666 320.655975,75.677666 
	C320.655975,66.295059 320.655975,57.005089 320.654999,46.782825 
M194.102783,75.833740 
	C197.556854,75.796722 201.021805,75.573914 204.461914,75.775269 
	C207.859528,75.974136 208.759491,74.429718 208.695374,71.340515 
	C208.561234,64.876907 208.741394,58.407177 208.638046,51.942429 
	C208.451935,40.302814 210.900726,41.434074 197.554306,41.338272 
	C194.670105,41.317574 193.285721,42.375698 193.335480,45.414169 
	C193.498184,55.352417 193.538254,65.292671 194.102783,75.833740 
z"/>
</svg>