<svg version="1.1" id="Layer_1" xmlns="http://www.w3.org/2000/svg" xmlns:xlink="http://www.w3.org/1999/xlink" x="0px" y="0px"
	 width="100%" viewBox="0 0 100 100" enable-background="new 0 0 100 100" xml:space="preserve">
<path fill="#FEFEFE" opacity="1.000000" stroke="none" 
	d="
M56.000000,101.000000 
	C37.333336,101.000000 19.166674,101.000000 1.000007,101.000000 
	C1.000005,67.666679 1.000005,34.333351 1.000002,1.000021 
	C34.333317,1.000014 67.666634,1.000014 100.999969,1.000007 
	C100.999977,34.333313 100.999977,67.666626 100.999985,100.999969 
	C86.166664,101.000000 71.333336,101.000000 56.000000,101.000000 
M40.986755,83.387947 
	C40.986885,84.721100 40.964615,86.054703 40.991158,87.387337 
	C41.088280,92.262947 43.229740,94.966103 46.984898,94.980408 
	C50.735767,94.994698 52.955616,92.273529 53.000069,87.413940 
	C53.054947,81.415161 53.459190,75.371918 52.878273,69.429436 
	C52.375748,64.288895 54.286465,61.283512 58.710766,59.384525 
	C59.894329,58.876514 61.091820,58.367538 62.328453,58.021969 
	C70.646019,55.697666 79.000832,53.502842 87.290215,51.083260 
	C90.927452,50.021580 93.669479,47.843498 92.759453,43.494389 
	C91.996506,39.848186 88.558357,38.434204 83.956596,39.655422 
	C76.425476,41.654041 68.908287,43.705151 61.540749,45.692173 
	C59.446621,39.156334 61.774364,35.157047 67.609322,31.965481 
	C75.030800,27.906124 82.000435,23.002201 89.055443,18.298273 
	C93.303833,15.465665 94.243019,11.541436 91.873352,8.082006 
	C89.451302,4.546099 85.667320,3.953075 81.356102,6.671668 
	C73.899216,11.373870 66.590210,16.315117 59.055672,20.886614 
	C57.067116,22.093145 54.488930,22.856924 52.166283,22.894960 
	C40.170940,23.091396 28.170628,22.971642 16.172100,22.992069 
	C10.358978,23.001965 7.104252,25.472982 7.021257,29.849865 
	C6.934443,34.428165 10.264990,36.994736 16.384539,37.008720 
	C24.491051,37.027241 32.597637,37.013283 40.986755,37.013283 
	C40.986755,52.482876 40.986755,67.449547 40.986755,83.387947 
M77.811798,65.014160 
	C73.408157,58.909821 67.931129,57.319973 62.449165,60.554752 
	C57.441135,63.509872 55.574310,69.681610 58.125389,74.849197 
	C60.581043,79.823502 66.437660,82.193085 71.600365,80.301155 
	C77.674835,78.075111 80.099182,72.634155 77.811798,65.014160 
z"/>
<path fill="#080808" opacity="1.000000" stroke="none" 
	d="
M40.986755,82.902084 
	C40.986755,67.449547 40.986755,52.482876 40.986755,37.013283 
	C32.597637,37.013283 24.491051,37.027241 16.384539,37.008720 
	C10.264990,36.994736 6.934443,34.428165 7.021257,29.849865 
	C7.104252,25.472982 10.358978,23.001965 16.172100,22.992069 
	C28.170628,22.971642 40.170940,23.091396 52.166283,22.894960 
	C54.488930,22.856924 57.067116,22.093145 59.055672,20.886614 
	C66.590210,16.315117 73.899216,11.373870 81.356102,6.671668 
	C85.667320,3.953075 89.451302,4.546099 91.873352,8.082006 
	C94.243019,11.541436 93.303833,15.465665 89.055443,18.298273 
	C82.000435,23.002201 75.030800,27.906124 67.609322,31.965481 
	C61.774364,35.157047 59.446621,39.156334 61.540749,45.692173 
	C68.908287,43.705151 76.425476,41.654041 83.956596,39.655422 
	C88.558357,38.434204 91.996506,39.848186 92.759453,43.494389 
	C93.669479,47.843498 90.927452,50.021580 87.290215,51.083260 
	C79.000832,53.502842 70.646019,55.697666 62.328453,58.021969 
	C61.091820,58.367538 59.894329,58.876514 58.710766,59.384525 
	C54.286465,61.283512 52.375748,64.288895 52.878273,69.429436 
	C53.459190,75.371918 53.054947,81.415161 53.000069,87.413940 
	C52.955616,92.273529 50.735767,94.994698 46.984898,94.980408 
	C43.229740,94.966103 41.088280,92.262947 40.991158,87.387337 
	C40.964615,86.054703 40.986885,84.721100 40.986755,82.902084 
M68.620041,52.094650 
	C74.240761,50.652264 79.898468,49.333893 85.455086,47.676586 
	C86.774254,47.283134 87.754692,45.754021 88.890938,44.747280 
	C87.375259,44.399502 85.734276,43.493935 84.365768,43.801342 
	C78.700912,45.073853 73.113533,46.695171 67.506798,48.221802 
	C56.987003,51.086189 57.175476,51.091167 56.904408,40.280556 
	C56.798122,36.041649 57.789925,33.312183 61.696163,31.028982 
	C70.008720,26.170277 78.043266,20.816645 85.993973,15.376785 
	C87.346184,14.451605 87.714203,12.087964 88.536919,10.388881 
	C86.656113,10.386735 84.346756,9.671158 82.965584,10.500794 
	C75.277756,15.118701 67.886681,20.228983 60.226288,24.895365 
	C58.239956,26.105350 55.660255,26.875578 53.338577,26.911621 
	C40.854351,27.105436 28.363407,26.894579 15.880928,27.138271 
	C14.263458,27.169849 12.681539,29.022409 11.083152,30.031471 
	C12.704446,31.018549 14.295192,32.794109 15.952240,32.858307 
	C23.765882,33.161034 31.607452,33.229221 39.419163,32.903641 
	C43.746174,32.723297 45.182884,33.925598 45.107327,38.437057 
	C44.839706,54.416218 44.953033,70.403030 45.086761,86.385567 
	C45.099342,87.889313 46.270294,89.383369 46.903439,90.881920 
	C47.600975,89.447441 48.839409,88.035515 48.900314,86.574493 
	C49.135899,80.923431 48.995983,75.256729 48.996101,69.595848 
	C48.996296,60.222027 51.084370,57.338261 60.158405,54.412479 
	C62.682590,53.598602 65.275017,52.996387 68.620041,52.094650 
z"/>
<path fill="#0E0E0E" opacity="1.000000" stroke="none" 
	d="
M77.947540,65.382881 
	C80.099182,72.634155 77.674835,78.075111 71.600365,80.301155 
	C66.437660,82.193085 60.581043,79.823502 58.125389,74.849197 
	C55.574310,69.681610 57.441135,63.509872 62.449165,60.554752 
	C67.931129,57.319973 73.408157,58.909821 77.947540,65.382881 
M61.097271,71.138130 
	C63.381104,76.246750 66.727402,78.151756 70.600624,76.398979 
	C73.850136,74.928459 75.542984,72.290092 74.806183,68.759346 
	C74.042747,65.100960 71.532516,62.818024 67.687477,63.097408 
	C63.432262,63.406601 61.179714,66.042664 61.097271,71.138130 
z"/>
<path fill="#F9F9F9" opacity="1.000000" stroke="none" 
	d="
M68.228088,52.195862 
	C65.275017,52.996387 62.682590,53.598602 60.158405,54.412479 
	C51.084370,57.338261 48.996296,60.222027 48.996101,69.595848 
	C48.995983,75.256729 49.135899,80.923431 48.900314,86.574493 
	C48.839409,88.035515 47.600975,89.447441 46.903435,90.881920 
	C46.270294,89.383369 45.099342,87.889313 45.086761,86.385567 
	C44.953033,70.403030 44.839706,54.416218 45.107327,38.437057 
	C45.182884,33.925598 43.746174,32.723297 39.419163,32.903641 
	C31.607452,33.229221 23.765882,33.161034 15.952240,32.858307 
	C14.295192,32.794109 12.704446,31.018549 11.083151,30.031471 
	C12.681539,29.022409 14.263458,27.169849 15.880928,27.138271 
	C28.363407,26.894579 40.854351,27.105436 53.338577,26.911621 
	C55.660255,26.875578 58.239956,26.105350 60.226288,24.895365 
	C67.886681,20.228983 75.277756,15.118701 82.965584,10.500794 
	C84.346756,9.671158 86.656113,10.386735 88.536919,10.388880 
	C87.714203,12.087964 87.346184,14.451605 85.993973,15.376785 
	C78.043266,20.816645 70.008720,26.170277 61.696163,31.028982 
	C57.789925,33.312183 56.798122,36.041649 56.904408,40.280556 
	C57.175476,51.091167 56.987003,51.086189 67.506798,48.221802 
	C73.113533,46.695171 78.700912,45.073853 84.365768,43.801342 
	C85.734276,43.493935 87.375259,44.399502 88.890938,44.747284 
	C87.754692,45.754021 86.774254,47.283134 85.455086,47.676586 
	C79.898468,49.333893 74.240761,50.652264 68.228088,52.195862 
z"/>
<path fill="#F6F6F6" opacity="1.000000" stroke="none" 
	d="
M61.063343,70.750488 
	C61.179714,66.042664 63.432262,63.406601 67.687477,63.097408 
	C71.532516,62.818024 74.042747,65.100960 74.806183,68.759346 
	C75.542984,72.290092 73.850136,74.928459 70.600624,76.398979 
	C66.727402,78.151756 63.381104,76.246750 61.063343,70.750488 
z"/>
</svg>