<svg version="1.1" id="Layer_1" xmlns="http://www.w3.org/2000/svg" xmlns:xlink="http://www.w3.org/1999/xlink" x="0px" y="0px"
	 width="100%" viewBox="0 0 752 624" enable-background="new 0 0 752 624" xml:space="preserve">
<path fill="#000000" opacity="1.000000" stroke="none" 
	d="
M132.999985,500.217896 
	C120.001709,500.219879 107.503441,500.213135 95.005196,500.229980 
	C92.659332,500.233124 90.311272,500.235748 88.150818,499.185883 
	C85.110664,497.708496 83.678841,495.123352 84.044968,491.860870 
	C84.414955,488.563934 86.402397,486.323547 89.795113,485.848358 
	C91.925934,485.549927 94.116730,485.625214 96.280624,485.625336 
	C161.771332,485.629303 227.262039,485.644379 292.752747,485.659729 
	C295.736145,485.660431 298.724091,485.730133 302.237823,484.761810 
	C294.609283,480.787659 287.250458,477.335754 280.406586,472.943207 
	C252.417938,454.979248 229.632690,432.072449 213.607224,402.744781 
	C203.102493,383.520416 200.216919,363.157349 205.339157,341.866852 
	C210.743729,319.402832 208.811920,297.948792 197.478943,277.618073 
	C190.529907,265.151855 179.923462,255.927063 169.465637,246.617249 
	C152.033661,231.098923 134.024384,216.251541 115.079544,202.637039 
	C99.714294,191.594971 91.387329,177.657120 95.779411,158.573730 
	C100.386749,138.555023 113.327545,125.492424 132.976532,119.906357 
	C149.234238,115.284409 164.644852,121.332214 174.648773,135.326477 
	C190.348984,157.289154 206.457550,178.932587 223.386459,199.970490 
	C233.929276,213.072281 245.641556,224.677628 260.669861,232.691864 
	C274.248260,239.932922 288.659210,242.141953 303.731018,240.526947 
	C319.130035,238.876892 333.642487,241.883926 347.200134,248.921143 
	C374.941589,263.320587 398.066528,283.522339 418.271515,307.152039 
	C437.264771,329.364563 451.176361,354.377350 458.601807,382.769745 
	C463.858459,402.869537 465.418060,423.084106 459.533752,443.382812 
	C454.820404,459.642212 445.708740,472.798706 431.855011,482.610199 
	C431.176971,483.090454 430.505096,483.583679 429.869598,484.117554 
	C429.637482,484.312531 429.519623,484.643524 429.034393,485.411133 
	C440.528168,485.472656 451.645294,487.058777 462.343933,481.424652 
	C471.649689,476.524078 481.826202,474.822845 492.395844,476.558685 
	C494.503723,476.904846 496.648132,477.028503 498.717072,477.248535 
	C500.625946,475.054565 499.911743,472.614532 499.912659,470.390961 
	C499.959900,352.574219 500.017944,234.757416 499.866547,116.940887 
	C499.854004,107.174927 503.742889,100.483032 512.422180,96.811409 
	C528.231506,90.123535 544.128052,89.906525 559.756958,97.576202 
	C566.966370,101.114098 570.467896,106.661827 570.457214,115.115845 
	C570.307922,232.932556 570.355652,350.749512 570.356079,468.566406 
	C570.356140,476.573547 570.355774,476.539551 578.178162,475.824921 
	C585.121643,475.190582 591.953979,475.994934 598.099487,479.296875 
	C607.347046,484.265533 617.088806,486.222504 627.471680,485.611908 
	C630.204346,485.451202 632.798401,485.844055 634.639282,488.268982 
	C638.347534,493.153870 635.294189,499.640381 628.644958,500.068115 
	C618.278503,500.734924 607.845032,500.494598 598.451599,495.294708 
	C585.380310,488.058868 573.214722,489.525360 560.770813,497.203552 
	C542.438477,508.515045 523.863098,506.301514 505.763367,496.307648 
	C494.931366,490.326721 483.278534,487.713959 472.265320,493.186188 
	C457.765686,500.390747 442.785736,500.264465 427.454437,500.253845 
	C329.469666,500.185822 231.484818,500.218048 132.999985,500.217896 
M138.688568,201.764496 
	C145.011047,206.926788 151.391830,212.019577 157.644135,217.265503 
	C171.681122,229.043076 186.376007,240.227692 198.398605,254.086395 
	C220.919037,280.046143 227.445038,310.229706 219.838806,343.634155 
	C217.990555,351.751190 216.810989,359.904724 217.689209,368.355255 
	C219.616699,386.902283 229.430420,401.687073 239.704224,416.341980 
	C241.401154,418.762543 242.999557,418.838593 244.933044,416.873169 
	C249.019638,412.718903 253.075333,408.534302 257.150330,404.368591 
	C293.615082,367.092468 330.086914,329.823242 366.534302,292.530151 
	C368.956940,290.051331 371.592407,287.716644 373.324829,284.355560 
	C372.644745,283.610474 372.075043,282.790405 371.326385,282.195557 
	C360.865601,273.883484 349.908875,266.312775 337.778931,260.618317 
	C327.665588,255.870544 317.041138,253.311890 305.807739,254.688187 
	C286.505768,257.053040 268.420258,253.616608 251.360626,244.224426 
	C235.115494,235.280670 222.516525,222.338104 211.016205,208.156952 
	C194.326950,187.577271 178.374146,166.442703 163.186264,144.722961 
	C155.100937,133.160370 143.629852,129.887405 131.726501,135.454010 
	C124.136497,139.003479 118.116287,144.435684 113.927299,151.728622 
	C105.781494,165.910339 108.423866,178.691452 121.437759,188.598251 
	C127.004608,192.835999 132.564377,197.083023 138.688568,201.764496 
M434.756195,359.704376 
	C427.853271,345.076355 419.296906,331.526459 408.450867,318.454773 
	C364.533295,363.374695 321.082611,407.817078 277.634583,452.256744 
	C278.213959,453.097229 278.426849,453.558350 278.772064,453.875336 
	C279.505493,454.548920 280.266785,455.207581 281.087799,455.768127 
	C314.345154,478.476807 350.615082,489.269501 391.077972,483.741455 
	C425.612976,479.023285 448.552429,453.014069 448.675934,418.136200 
	C448.747894,397.813263 443.953918,378.608337 434.756195,359.704376 
M514.904358,392.518280 
	C514.796997,422.002502 514.724121,451.487000 514.523193,480.970581 
	C514.505371,483.589661 515.549011,485.028717 517.717529,485.996552 
	C528.765930,490.927368 539.794983,491.650909 550.966980,486.221832 
	C554.575256,484.468414 555.881165,482.136322 555.877380,478.038574 
	C555.772095,364.079865 555.803833,250.121017 555.785156,136.162186 
	C555.784851,134.397690 556.306030,132.486084 554.610352,130.497101 
	C548.381836,131.775772 541.972900,133.375717 535.278931,133.380585 
	C528.436951,133.385544 521.922302,131.372116 514.901672,130.419632 
	C514.901672,217.793228 514.901672,304.660187 514.904358,392.518280 
M279.265533,429.757477 
	C307.453033,400.938110 335.643463,372.121613 363.826477,343.297882 
	C374.308105,332.577972 384.786804,321.855133 395.229309,311.097137 
	C396.811981,309.466614 398.935944,307.808441 396.640442,305.188263 
	C393.254700,301.323608 389.518799,297.851837 385.050812,294.396790 
	C340.726959,339.914246 296.648071,385.180145 252.355438,430.665527 
	C256.151154,434.432190 259.484497,437.663727 262.725647,440.985229 
	C264.652405,442.959686 266.298279,442.901855 268.203033,440.904816 
	C271.651520,437.289246 275.235535,433.802887 279.265533,429.757477 
M554.199402,113.895706 
	C555.215820,110.471718 552.344238,110.018204 550.368347,109.276184 
	C540.181946,105.450966 529.931030,105.448097 519.752075,109.346329 
	C517.992065,110.020378 515.892273,110.565331 515.518005,112.916084 
	C520.628174,119.269775 542.847778,121.167580 554.199402,113.895706 
z"/>
<path fill="#000000" opacity="1.000000" stroke="none" 
	d="
M192.245300,525.757202 
	C190.375412,524.063171 188.579071,522.774414 187.216721,521.126770 
	C184.882477,518.303650 185.188446,515.193970 187.282272,512.384521 
	C189.486389,509.427094 192.488022,508.957855 195.735672,510.523041 
	C199.250198,512.216858 202.098267,514.809326 204.478073,517.845215 
	C205.925247,519.691467 207.233963,520.109314 209.555527,519.221130 
	C221.559372,514.628723 234.261139,519.841797 238.190567,530.869385 
	C239.086456,533.383667 240.855743,533.256409 242.978973,533.250610 
	C276.956116,533.156860 310.933411,533.115723 344.910675,533.098633 
	C380.886261,533.080566 416.861847,533.102295 452.837433,533.103333 
	C480.825195,533.104187 508.813141,533.038940 536.800659,533.118286 
	C557.105347,533.175842 577.409363,533.443848 597.713928,533.574768 
	C607.867737,533.640198 618.016479,532.412231 628.176636,533.479370 
	C633.387207,534.026611 636.095276,536.366516 636.224609,540.550720 
	C636.354614,544.753662 633.199219,547.706177 628.001099,548.152527 
	C626.510925,548.280396 625.003296,548.221313 623.503662,548.221252 
	C448.016815,548.212708 272.529968,548.203613 97.043106,548.171753 
	C94.556801,548.171326 92.000298,548.197327 89.600533,547.658691 
	C85.897278,546.827332 83.921501,544.130432 84.045357,540.365845 
	C84.171257,536.539124 86.426102,534.311462 90.226212,533.655029 
	C93.047348,533.167664 95.866356,533.515442 98.690826,533.503906 
	C111.851006,533.450256 125.010292,533.205811 138.170410,533.083130 
	C140.610901,533.060425 142.040680,532.100586 143.166229,529.820618 
	C147.250961,521.546326 154.141357,517.527954 163.306992,517.632202 
	C172.314392,517.734680 178.777328,522.034729 182.822144,530.065186 
	C184.826294,534.044128 188.785385,534.661621 195.246170,532.042419 
	C195.643433,529.457642 194.131241,527.706482 192.245300,525.757202 
z"/>
<path fill="#000000" opacity="1.000000" stroke="none" 
	d="
M501.278778,504.500214 
	C503.519257,506.009644 505.611633,507.138947 507.292145,508.709045 
	C510.608185,511.807312 511.013214,515.965210 508.319214,518.962585 
	C505.410980,522.198303 501.861816,522.118591 498.384583,519.997375 
	C495.841949,518.446228 493.586731,516.515747 490.550934,515.773926 
	C486.005920,514.663269 482.448242,516.565247 478.969574,519.000732 
	C474.277466,522.285767 469.731689,522.000366 467.117706,518.256592 
	C464.615570,514.673035 465.696686,510.479462 470.340179,507.165283 
	C479.948425,500.307709 490.180145,499.213531 501.278778,504.500214 
z"/>
<path fill="#000000" opacity="1.000000" stroke="none" 
	d="
M580.880798,519.520264 
	C578.589844,519.621521 577.205078,520.896057 575.624084,521.779907 
	C572.253235,523.664307 569.167419,523.148193 566.718872,520.202576 
	C564.298767,517.291199 564.287781,514.166077 566.557678,511.078644 
	C572.472351,503.033539 589.098022,503.119385 594.736511,511.290924 
	C596.802612,514.285278 597.223206,517.516296 594.611389,520.433044 
	C592.084778,523.254700 589.058594,523.795776 585.676514,521.769287 
	C584.262878,520.922241 582.724426,520.283386 580.880798,519.520264 
z"/>
</svg>