<svg version="1.1" id="Layer_1" xmlns="http://www.w3.org/2000/svg" xmlns:xlink="http://www.w3.org/1999/xlink" x="0px" y="0px"
	 width="100%" viewBox="0 0 512 512" enable-background="new 0 0 512 512" xml:space="preserve">
<path fill="currentColor" opacity="1.000000" stroke="none" 
	d="
M73.691681,242.999939 
	C73.690659,222.173050 73.731377,201.846024 73.651390,181.519470 
	C73.636833,177.819336 74.023376,174.191544 74.870575,170.639328 
	C76.354836,164.415955 79.205238,159.223022 85.553055,156.487289 
	C92.582718,153.457703 99.391205,149.915207 106.418694,146.880142 
	C118.484871,141.668976 128.841156,134.456863 135.584625,122.859398 
	C137.000885,120.423691 139.021713,119.234314 141.688431,119.227280 
	C159.179535,119.181129 176.670837,119.179794 194.162003,119.210587 
	C197.020844,119.215614 199.165070,120.458481 200.668411,123.062553 
	C207.296326,134.543411 217.617325,141.586411 229.459488,146.784958 
	C235.709030,149.528412 241.813095,152.626663 248.151810,155.138336 
	C258.719391,159.325653 262.210114,167.749512 262.303375,178.139191 
	C262.455933,195.132416 262.344482,212.128006 262.344421,229.122604 
	C262.344421,230.782837 262.344452,232.443054 262.344452,234.730927 
	C264.799042,233.155548 265.397827,230.903061 266.461334,229.054230 
	C270.366272,222.265717 274.094330,215.379303 276.795471,208.003662 
	C280.245178,198.583923 279.390808,189.943146 273.067719,181.676193 
	C267.205658,174.012024 261.854462,165.911392 261.613495,155.617355 
	C261.462860,149.182541 264.109711,144.516647 270.109436,142.371735 
	C273.829041,141.041977 274.828735,138.859406 274.682983,135.243195 
	C274.475128,130.086929 274.649109,124.915489 274.649109,119.750526 
	C274.649109,116.777138 275.443848,114.189240 278.969788,114.331329 
	C282.266266,114.464157 283.349854,116.856506 283.334747,119.907997 
	C283.309174,125.072807 283.454468,130.241257 283.302643,135.401535 
	C283.222412,138.128143 283.969849,139.814743 286.836456,140.432632 
	C295.675140,142.337753 303.290649,146.749069 310.105896,152.504944 
	C312.572815,154.588425 314.174438,154.196289 316.520020,152.376358 
	C323.533020,146.934982 331.031616,142.302826 339.891266,140.421814 
	C342.601440,139.846405 343.737640,138.319489 343.664032,135.486496 
	C343.525665,130.158890 343.660767,124.824532 343.655090,119.493011 
	C343.652100,116.661308 344.617950,114.307816 347.722992,114.266411 
	C350.986389,114.222900 352.309509,116.497833 352.312103,119.603294 
	C352.316742,125.101486 352.468567,130.604401 352.282928,136.096024 
	C352.179047,139.169678 353.191284,140.839142 356.101959,142.186478 
	C364.647491,146.142181 367.112457,152.285202 364.574036,161.468292 
	C362.626282,168.514282 359.092438,174.790283 354.570190,180.328094 
	C346.078613,190.726608 346.300507,201.328247 351.955994,212.855850 
	C360.181946,229.622849 369.375183,245.846619 378.873901,261.894196 
	C398.302124,294.716949 417.957367,327.405334 437.523132,360.146667 
	C441.400452,366.634979 441.411407,367.213593 435.615540,372.208832 
	C426.761475,379.839874 417.279785,386.607727 406.959991,392.141052 
	C396.804749,397.586060 386.096344,400.348328 374.419037,400.277679 
	C334.766418,400.037628 295.107819,399.874298 255.459335,400.342865 
	C240.556137,400.519012 227.254089,396.731598 214.701645,389.169067 
	C205.969849,383.908417 197.880035,377.803986 190.077209,371.268219 
	C186.724548,368.459991 185.920319,365.624359 188.339386,361.740662 
	C190.172668,358.797394 192.355331,355.991119 193.516220,351.962891 
	C183.016968,346.135712 174.260590,338.218628 168.689453,326.849121 
	C166.494186,328.310455 165.839722,330.410736 164.714340,332.123962 
	C154.449875,347.749878 140.030975,356.017090 121.292725,356.290710 
	C108.040977,356.484222 94.784088,356.345428 81.529556,356.320251 
	C74.790390,356.307465 73.709518,355.254120 73.704811,348.467438 
	C73.680527,313.478271 73.692596,278.489105 73.691681,242.999939 
M253.917587,369.717010 
	C251.927902,370.584595 250.250427,369.914795 249.011688,368.388062 
	C245.816025,364.449463 250.451599,360.884125 249.729599,356.940918 
	C249.276245,356.763855 248.846008,356.479919 248.392319,356.435425 
	C234.024353,355.027008 219.592422,357.346954 205.187958,355.521576 
	C200.370209,354.911041 200.042816,360.458313 198.072159,363.447357 
	C196.471390,365.875366 199.098465,366.889465 200.551468,368.069427 
	C207.677139,373.856140 215.141739,379.161407 223.201538,383.582855 
	C231.326141,388.039856 239.742065,390.904877 249.300903,390.853271 
	C292.292480,390.621094 335.286011,390.749908 378.278839,390.721924 
	C381.430267,390.719879 384.569397,390.793945 387.702637,389.964081 
	C402.585327,386.022369 414.649689,377.198456 426.532990,367.969604 
	C429.370483,365.765900 429.503357,364.004211 427.628204,360.939545 
	C416.065186,342.041290 404.624756,323.065948 393.342072,303.998749 
	C376.210205,275.046631 358.613312,246.357590 343.777863,216.101395 
	C336.944550,202.165207 336.879395,189.022614 346.586334,176.248489 
	C350.194489,171.500244 353.538544,166.436661 355.500763,160.690689 
	C358.004608,153.358551 355.318970,149.628906 347.571899,149.186722 
	C335.403595,148.492172 326.903931,155.423599 318.757416,162.979736 
	C313.945007,167.443390 312.932037,167.421356 308.149963,162.889969 
	C300.432892,155.577393 292.143677,149.224396 280.735748,149.234451 
	C271.319489,149.242737 268.272461,153.725037 271.975891,162.337387 
	C274.558105,168.342239 278.443054,173.583710 282.093933,178.959229 
	C286.956055,186.118195 289.079315,193.846512 287.571350,202.600769 
	C285.511230,214.560684 279.924133,225.038361 273.446533,234.869141 
	C265.080994,247.565216 260.958832,260.741669 262.111267,276.149048 
	C263.167633,290.271698 262.335510,304.535645 262.335510,319.845032 
	C263.106995,318.329102 263.386993,317.915771 263.539459,317.459808 
	C272.566193,290.461884 281.573761,263.457611 290.619781,236.466156 
	C291.196075,234.746552 291.840546,232.971512 292.853882,231.497650 
	C293.970337,229.873703 295.793945,229.332489 297.745880,230.084991 
	C299.496399,230.759857 300.212158,232.144730 300.295990,233.995743 
	C300.397705,236.241531 299.540405,238.245422 298.862396,240.286163 
	C291.305664,263.030579 283.583008,285.721039 276.195160,308.520020 
	C271.431519,323.220642 266.140106,337.740723 261.880341,352.630219 
	C260.273956,358.244995 258.901855,364.595123 253.917587,369.717010 
M112.013062,252.754929 
	C112.085030,263.254089 112.355118,273.757385 112.135925,284.250458 
	C112.042244,288.735321 113.649033,290.167084 117.941597,289.885101 
	C122.423012,289.590729 126.937279,289.781403 131.437149,289.788086 
	C134.933609,289.793304 138.856827,290.121552 138.761032,294.562012 
	C138.666290,298.954132 134.691330,299.138123 131.233200,299.159515 
	C126.233475,299.190430 121.233109,299.248749 116.234016,299.197754 
	C113.560928,299.170502 112.239059,300.226990 112.247322,303.021637 
	C112.287735,316.687775 112.285286,330.354187 112.240059,344.020325 
	C112.231636,346.563843 113.342300,347.509674 115.845528,347.622162 
	C140.967102,348.750732 159.084320,333.087250 162.733917,312.193054 
	C164.840103,300.135010 163.079834,287.919647 163.714035,275.797699 
	C164.002609,270.281738 162.599640,265.450256 160.158234,260.525421 
	C147.432922,234.855606 135.018539,209.031784 122.344574,183.336227 
	C120.468056,179.531723 120.225929,176.461090 123.625153,173.551636 
	C124.345490,172.935104 124.815285,172.025848 125.267815,171.427048 
	C125.069977,169.811737 124.129257,169.003387 123.174049,168.418915 
	C118.072739,165.297440 118.022713,161.287155 120.641441,156.471558 
	C121.837875,154.271439 123.132759,151.958176 123.274689,148.910400 
	C113.995186,153.133804 105.236397,157.156357 96.442596,161.100861 
	C93.749794,162.308762 93.002647,163.864334 94.617523,166.553589 
	C102.941002,180.414581 105.672859,195.983597 108.448135,211.580231 
	C110.818962,224.903915 110.973671,238.385483 112.013062,252.754929 
M240.702530,161.504623 
	C231.842636,157.488556 222.982727,153.472488 213.701508,149.265457 
	C213.141373,154.161011 216.620895,157.129089 217.243561,160.968567 
	C218.095474,166.221695 212.876053,167.528244 210.408188,171.367844 
	C218.159210,176.396866 214.598740,182.101974 211.603531,188.161728 
	C199.137970,213.381454 186.888855,238.708145 174.548950,263.990082 
	C173.301407,266.546021 172.272705,269.073395 172.307617,272.055542 
	C172.428497,282.380188 172.199829,292.710052 172.391006,303.032593 
	C172.878754,329.369751 193.025543,348.452637 219.201660,347.725037 
	C222.609573,347.630310 223.978561,346.538269 223.954803,343.083252 
	C223.864365,329.926605 223.893768,316.768555 223.984940,303.611725 
	C224.007050,300.419098 222.708679,299.102325 219.527878,299.155731 
	C214.033920,299.247955 208.534317,299.230103 203.041718,299.084229 
	C200.118073,299.006622 197.728149,297.850800 197.730194,294.412048 
	C197.732285,290.908264 200.223495,289.936005 203.117981,289.865448 
	C208.111633,289.743683 213.127701,289.551422 218.101318,289.883545 
	C222.815643,290.198395 224.045975,288.270966 224.018723,283.807953 
	C223.889740,262.677887 224.058380,241.540039 226.657379,220.525986 
	C229.010330,201.501312 231.994415,182.617325 242.073715,165.760376 
	C243.075485,164.084976 243.576477,162.739487 240.702530,161.504623 
M253.650711,228.500092 
	C253.649658,212.842834 253.696472,197.185318 253.614441,181.528473 
	C253.593506,177.530472 253.465500,173.457184 250.901016,169.368927 
	C249.701691,171.209122 248.775726,172.390762 248.108475,173.703873 
	C246.753723,176.369904 245.387024,179.047073 244.290573,181.824387 
	C236.028900,202.751190 234.214401,224.898376 233.569321,246.956192 
	C232.673752,277.578796 233.285873,308.245972 233.289612,338.894043 
	C233.290359,345.089874 235.466599,347.319122 241.563660,347.592804 
	C243.392227,347.674927 245.227493,347.612762 247.059677,347.607758 
	C253.627487,347.589813 253.645340,347.588379 253.646484,340.932861 
	C253.652863,303.788605 253.649857,266.644379 253.650711,228.500092 
M83.424553,173.410156 
	C82.434319,179.020645 82.931465,184.668472 82.936798,190.310822 
	C82.983162,239.412903 82.969177,288.515015 82.996574,337.617126 
	C83.002800,348.777893 81.671989,347.617920 93.246651,347.585144 
	C100.694862,347.564087 102.915176,345.397278 102.825478,338.136810 
	C102.381538,302.203461 104.149002,266.238708 101.621796,230.338638 
	C100.357475,212.378296 97.244492,194.725006 90.549255,177.883057 
	C89.406776,175.009140 88.254410,172.033112 85.873451,170.028397 
	C84.102371,170.349152 84.141533,171.747910 83.424553,173.410156 
M160.530365,205.734848 
	C160.632263,215.453079 165.078308,223.903519 168.080002,232.868011 
	C171.121216,224.705688 175.546646,216.915192 175.443268,208.484741 
	C175.282852,195.398865 173.572784,182.330292 172.463531,169.259140 
	C172.236343,166.582153 170.923676,165.193542 167.906693,165.216660 
	C164.966309,165.239212 164.179230,166.729050 163.976456,169.174149 
	C163.798294,171.322449 163.520432,173.462326 163.328079,175.609634 
	C162.454163,185.365692 161.594910,195.123047 160.530365,205.734848 
M203.675827,183.426712 
	C205.422958,180.859955 205.153336,178.837540 202.826569,176.479858 
	C197.144775,170.722534 197.385117,169.655869 203.666000,164.319611 
	C205.091675,163.108337 207.678772,162.134766 206.796112,159.743347 
	C205.132858,155.236938 202.981308,150.910767 201.032745,146.509674 
	C196.469940,177.518387 186.255402,206.554138 178.034241,236.101700 
	C186.482635,218.759338 194.931030,201.416977 203.675827,183.426712 
M131.334137,180.462830 
	C140.144104,198.821289 148.954071,217.179764 157.764038,235.538223 
	C149.795547,206.246170 139.782990,177.599091 136.160965,146.096451 
	C132.724655,151.098068 130.452667,155.382492 129.604294,159.981094 
	C128.975113,163.391510 133.143723,164.346085 135.154099,166.385223 
	C137.758560,169.026932 137.769470,171.505356 135.515518,174.301636 
	C134.079605,176.083054 131.825546,177.243134 131.334137,180.462830 
M185.784607,141.258347 
	C190.603745,142.978363 191.389038,139.193893 191.434280,136.287918 
	C191.480316,133.331223 194.122406,128.276184 187.484177,128.288467 
	C174.504395,128.312485 161.524033,128.353592 148.545090,128.245789 
	C145.502563,128.220535 144.184158,129.391800 144.494080,132.353821 
	C144.684097,134.169998 144.730301,136.074036 145.340714,137.757477 
	C146.443832,140.799759 147.960892,142.499313 151.570267,139.943207 
	C162.390121,132.280746 174.826141,132.743210 185.784607,141.258347 
M167.586578,143.397278 
	C163.376801,144.047760 159.050064,144.451187 156.386993,148.451508 
	C162.282455,157.090286 170.376129,157.991608 177.886200,151.195435 
	C179.983398,149.297577 179.724365,147.940369 177.700882,146.453613 
	C174.938919,144.424271 171.732285,143.713348 167.586578,143.397278 
M152.462738,181.840622 
	C152.737869,181.940521 153.008728,182.061508 153.292435,182.119080 
	C153.338486,182.128418 153.496719,181.861755 153.510315,181.714127 
	C153.935318,177.104599 153.602753,172.266129 154.926361,167.933197 
	C157.341476,160.027145 151.798294,157.603210 146.365173,153.528900 
	C147.612106,163.595901 149.484192,172.539246 152.462738,181.840622 
M186.150192,173.692337 
	C187.477188,167.366196 189.317062,161.115952 189.556900,154.048157 
	C184.729172,157.308914 179.994904,159.539871 181.194977,166.201797 
	C182.097717,171.213181 182.232758,176.362869 182.709549,181.450989 
	C183.101486,181.464996 183.493408,181.479019 183.885345,181.493027 
	C184.564819,179.149200 185.244278,176.805374 186.150192,173.692337 
z"/>
<path fill="#000000" opacity="1.000000" stroke="none" 
	d="
M378.196106,362.058441 
	C379.493988,365.587921 379.621460,368.634155 375.822693,369.808014 
	C371.863190,371.031494 370.661285,367.927185 369.671326,364.958466 
	C355.827026,323.441284 341.981110,281.924652 328.162964,240.398743 
	C327.535889,238.514343 327.007233,236.567078 326.722290,234.606995 
	C326.405060,232.424377 327.207916,230.559769 329.503571,229.930756 
	C331.658234,229.340363 333.522125,230.081177 334.562836,232.117203 
	C335.313721,233.586227 335.832458,235.184006 336.358124,236.756638 
	C350.275665,278.392853 364.180664,320.033264 378.196106,362.058441 
z"/>
</svg>