<svg version="1.1" id="Layer_1" xmlns="http://www.w3.org/2000/svg" xmlns:xlink="http://www.w3.org/1999/xlink" x="0px" y="0px"
	 width="100%" viewBox="0 0 512 512" enable-background="new 0 0 512 512" xml:space="preserve">
<path fill="#000000" opacity="1.000000" stroke="none" 
	d="
M67.178345,403.891479 
	C44.067940,386.152893 32.536396,362.953949 32.789513,334.230347 
	C33.148205,293.525543 65.744888,258.199402 106.180252,253.510864 
	C123.884995,251.457947 140.325760,254.695038 155.858582,262.900177 
	C159.811310,264.988190 162.157532,264.435059 164.731781,261.157684 
	C166.989456,258.283356 169.513275,255.584457 172.159348,253.059372 
	C174.311325,251.005798 174.707657,249.332062 172.995804,246.637436 
	C162.901291,230.747543 152.942368,214.770630 143.064819,198.744705 
	C141.352783,195.966980 139.279678,194.916321 136.088562,195.139435 
	C131.379379,195.468689 126.803680,194.398087 122.337753,193.008026 
	C117.327339,191.448502 113.558647,188.309479 111.252670,183.551819 
	C108.321579,177.504456 106.683487,171.056412 105.699577,164.451355 
	C104.974533,159.584106 107.036636,156.449112 111.955612,155.272934 
	C130.551849,150.826416 149.086945,146.107391 167.749847,141.962936 
	C178.153748,139.652557 185.490250,143.473206 189.289383,151.993240 
	C193.800446,162.109909 191.809662,169.585892 182.745178,176.568726 
	C175.715805,181.983780 175.724365,181.977982 180.704330,189.370148 
	C183.310745,193.239075 186.074844,197.019806 188.413101,201.046310 
	C190.766281,205.098434 193.005981,204.842438 196.206085,201.967575 
	C208.972214,190.498917 221.891815,179.201309 234.702652,167.782089 
	C239.632858,163.387451 244.944809,159.379501 249.247742,154.465485 
	C246.968857,149.974197 243.914017,149.304001 239.548325,150.401535 
	C224.185410,154.263718 222.661942,153.218796 219.005585,137.883804 
	C215.394348,122.738052 215.629868,122.360641 230.794876,117.817627 
	C243.451462,114.026054 255.708374,109.275978 266.645020,101.711365 
	C272.175781,97.885880 277.247131,93.460274 278.647278,86.369713 
	C279.405396,82.530724 278.628723,78.805916 277.445862,75.076645 
	C275.184967,67.948807 277.537720,62.142574 284.025543,58.633465 
	C287.681030,56.656311 291.410675,54.753563 295.269623,53.229073 
	C302.112854,50.525612 307.583160,52.876667 310.016998,59.842682 
	C319.416809,86.746452 318.222900,107.589973 290.321075,128.865570 
	C288.748627,130.064575 287.124298,131.195496 285.663239,132.257034 
	C285.632477,135.014618 287.652313,135.972137 289.029022,137.270325 
	C300.060730,147.672867 311.273651,157.886902 322.150757,168.447418 
	C325.465973,171.666138 328.009369,172.057678 332.112061,169.781647 
	C365.038696,151.515152 405.199829,156.586517 431.610077,183.168335 
	C454.628265,206.336105 462.120880,234.667786 452.912842,265.903351 
	C443.461212,297.965393 421.358002,318.048798 388.305725,324.337555 
	C340.209015,333.488739 295.422699,300.304779 289.928314,251.836502 
	C288.136261,236.028198 290.373047,220.529984 297.835297,206.221481 
	C299.776459,202.499390 299.287537,200.194382 296.151917,197.742218 
	C292.412445,194.817810 289.567139,190.776199 284.903503,188.460098 
	C282.328979,192.563965 281.892303,197.105438 280.756531,201.347198 
	C274.561157,224.484604 268.631989,247.693512 262.383423,270.816254 
	C261.324860,274.733429 262.093048,277.026794 265.166016,279.759186 
	C278.903107,291.973816 279.683594,313.517731 267.210785,326.797791 
	C253.986832,340.877655 232.806564,341.744354 219.498230,328.350586 
	C216.274490,325.106171 213.557846,324.207275 209.536652,326.111328 
	C207.450928,327.098969 205.127670,327.595673 202.895966,328.261383 
	C200.501984,328.975494 199.563690,330.244019 199.723343,333.005920 
	C202.055023,373.346100 172.383789,410.846771 132.425552,418.296082 
	C108.763626,422.707306 87.166779,417.773895 67.178345,403.891479 
M251.600113,255.209595 
	C258.686981,228.194153 265.694550,201.157532 272.906219,174.175446 
	C275.248993,165.410065 280.862823,163.969635 287.572876,170.123245 
	C296.410309,178.227859 305.189697,186.395782 313.987152,194.543900 
	C329.382874,208.803238 344.781799,223.059158 360.155701,237.342041 
	C362.137421,239.183121 363.804321,240.451538 366.509338,238.105194 
	C371.020081,234.192612 371.096649,233.861465 365.977325,229.081268 
	C336.031219,201.118927 306.089691,173.151718 276.174286,145.156540 
	C270.080261,139.453674 269.190979,139.351395 261.831512,144.528015 
	C261.840485,145.842545 262.902710,146.494247 263.666077,147.333084 
	C269.301849,153.526169 269.219849,156.398209 263.174744,161.880371 
	C259.475311,165.235306 255.741028,168.552078 252.001099,171.861938 
	C233.670471,188.084564 215.360550,204.330811 196.981491,220.498413 
	C190.989746,225.769211 187.400558,225.192398 182.781845,218.436401 
	C176.955353,209.913696 171.063416,201.430557 165.468140,192.757187 
	C162.744263,188.534821 160.028961,188.618057 156.683594,191.483749 
	C156.391647,193.543884 157.690918,194.778412 158.544403,196.147049 
	C168.413223,211.972839 178.323425,227.772812 188.210266,243.587372 
	C192.558151,250.542084 192.586700,252.099777 187.164673,258.014618 
	C165.895920,281.216522 144.622864,304.416321 123.107796,327.388733 
	C119.539658,331.198547 119.183670,334.215637 122.477280,338.206024 
	C123.703117,337.937195 125.016632,337.756989 126.261284,337.360565 
	C162.721970,325.747894 199.165741,314.082001 235.648178,302.538208 
	C238.846710,301.526123 239.986389,299.452606 240.741730,296.524780 
	C244.230469,283.001831 247.842773,269.510742 251.600113,255.209595 
M405.510406,275.006317 
	C422.489532,256.778290 423.350433,230.250656 407.913910,212.365295 
	C393.657959,195.847794 368.067047,192.565536 356.298706,200.782745 
	C358.218811,202.358322 360.085938,203.732834 361.772583,205.301437 
	C369.575500,212.558334 377.382751,219.812210 385.079468,227.181000 
	C390.085754,231.974014 389.998749,235.952698 384.962372,240.769501 
	C380.029572,245.487289 375.068695,250.178085 370.030090,254.782181 
	C365.677399,258.759552 362.161530,258.812317 357.728638,254.800491 
	C349.951782,247.762344 342.327637,240.555710 334.588470,233.475449 
	C333.052551,232.070312 331.787018,230.126160 329.360596,230.042999 
	C322.737061,245.866699 330.140503,268.102509 344.732239,278.931305 
	C363.666931,292.983093 387.319305,291.745148 405.510406,275.006317 
M132.930878,293.801361 
	C124.644028,289.817047 115.995407,289.531342 107.142624,291.258789 
	C84.411774,295.694275 69.125443,315.997925 70.351723,340.138153 
	C71.472916,362.209717 90.747032,381.386169 114.095261,382.476288 
	C135.619141,383.481201 155.727158,369.723938 161.277374,346.490051 
	C161.614456,345.079041 162.179855,343.603729 160.753922,341.979095 
	C159.299820,342.375549 157.706039,342.755280 156.146469,343.244110 
	C144.402527,346.924774 132.677414,350.665863 120.920715,354.305054 
	C115.446213,355.999664 112.437996,354.535767 110.327103,349.188782 
	C108.739235,345.166687 107.712456,340.885590 105.794655,337.039581 
	C102.488998,330.410278 104.529198,325.704803 109.383659,320.649170 
	C117.545738,312.148743 126.006622,303.869629 132.930878,293.801361 
M329.618134,284.879974 
	C312.710480,266.572418 308.389038,245.443832 316.041016,221.943283 
	C317.715057,216.802048 315.477692,215.001099 311.653534,213.330643 
	C300.594727,228.034668 298.690735,267.216797 325.215790,292.382812 
	C352.958374,318.704010 396.768097,317.672546 423.120331,289.812317 
	C449.191010,262.249695 447.928986,218.361252 420.300018,192.237183 
	C394.750122,168.078949 356.502869,169.684860 339.356995,183.529587 
	C341.485992,187.183167 343.724335,189.098083 348.521057,186.977432 
	C359.555450,182.099060 371.086090,180.724274 383.175873,182.644043 
	C406.334625,186.321487 426.263123,204.804276 431.984863,228.586395 
	C437.468384,251.378311 428.052856,277.491547 409.544037,290.824524 
	C384.007202,309.220215 353.989899,307.166321 329.618134,284.879974 
M132.904831,394.684601 
	C124.780342,396.711761 116.678497,397.529816 108.217110,396.485748 
	C73.235306,392.169403 48.604473,356.478821 57.329796,322.310059 
	C66.690277,285.653931 104.188705,266.525757 139.488312,280.400482 
	C145.633270,282.815826 146.449203,282.473114 149.055893,276.382233 
	C128.709335,262.595123 92.768661,263.427368 68.526237,286.486938 
	C43.675560,310.125061 40.333984,349.570618 60.756222,377.141846 
	C81.568634,405.239838 120.192734,413.623779 149.987213,396.510803 
	C172.713318,383.457672 190.598709,350.932922 183.834534,334.959137 
	C177.517349,335.728088 177.425690,335.782593 176.519836,342.596191 
	C173.035431,368.804840 158.586899,385.940918 132.904831,394.684601 
M159.236969,158.895660 
	C147.911942,161.602066 136.609711,164.410477 125.247467,166.950363 
	C122.000526,167.676193 121.210953,168.860992 122.252792,172.080353 
	C124.518059,179.080154 128.760757,181.642212 137.931458,180.533142 
	C151.742188,178.862946 163.505783,172.398911 174.566589,164.411865 
	C176.596161,162.946289 177.093994,161.031540 176.150421,158.696381 
	C175.224579,156.405075 173.347198,155.883026 171.244034,156.261124 
	C167.483734,156.937134 163.763428,157.835800 159.236969,158.895660 
M293.014984,70.365532 
	C291.021759,71.894539 292.272980,73.764305 292.620850,75.416878 
	C294.686707,85.231018 293.225800,94.245010 286.997803,102.328667 
	C283.293671,107.136429 278.830444,111.072655 273.825958,114.454971 
	C262.383942,122.188187 249.659439,127.064056 236.610260,131.222504 
	C234.786957,131.803543 232.889191,132.429626 233.555618,134.898956 
	C234.095230,136.898407 235.728729,136.541748 237.251328,136.149658 
	C254.964111,131.588272 271.979218,125.451881 286.270905,113.543159 
	C299.829407,102.245399 303.753296,88.404602 298.584076,71.910431 
	C297.586639,68.727844 296.121887,68.343689 293.014984,70.365532 
M253.329010,305.576599 
	C252.532791,311.094940 249.028976,313.748932 243.898468,315.239441 
	C240.213287,316.310028 236.092926,316.680481 233.053574,319.652313 
	C239.632965,325.592102 251.126343,323.744202 257.442963,315.951843 
	C263.096191,308.977875 263.009705,298.454315 257.075439,294.002960 
	C255.021164,297.344269 254.815842,301.269714 253.329010,305.576599 
z"/>
<path fill="#000000" opacity="1.000000" stroke="none" 
	d="
M233.000000,462.141052 
	C202.838165,462.148071 173.176346,462.157074 143.514511,462.154755 
	C141.683243,462.154633 139.830887,462.223877 138.025223,461.983673 
	C134.582047,461.525635 132.181702,459.729065 131.371124,456.164246 
	C130.601608,452.780151 131.944962,450.218414 134.686798,448.472290 
	C140.868301,444.535583 147.137375,440.735596 153.392151,436.914886 
	C197.891281,409.732788 242.389542,382.549194 286.905151,355.394104 
	C293.859528,351.151794 295.969269,351.443146 301.667175,357.243530 
	C310.774750,366.514832 320.019135,375.662720 328.824982,385.213806 
	C332.185913,388.859192 334.630737,389.115234 338.770660,386.454651 
	C372.687561,364.657867 406.743561,343.077454 440.760834,321.436859 
	C449.756622,315.714050 458.778564,310.032196 467.759735,304.286591 
	C470.979309,302.226898 474.234558,300.486267 477.890289,303.110046 
	C481.345886,305.590118 481.370758,309.016785 480.788544,312.949493 
	C476.846436,339.577484 473.119202,366.237152 469.282288,392.880798 
	C466.322418,413.434357 463.278656,433.975800 460.329712,454.530914 
	C459.622284,459.462036 456.733490,461.812531 451.962555,462.142303 
	C450.469574,462.245544 448.964264,462.176117 447.464600,462.175873 
	C376.143066,462.164764 304.821533,462.152557 233.000000,462.141052 
M428.497681,447.645508 
	C432.828400,447.645111 437.177643,447.396423 441.484283,447.718201 
	C445.348206,448.006897 446.955292,446.291901 447.438599,442.771820 
	C448.477478,435.205078 449.572845,427.646027 450.658417,420.085754 
	C453.844177,397.898315 457.046844,375.713287 460.221222,353.524231 
	C461.577179,344.046143 462.879364,334.560303 464.256012,324.720581 
	C460.691650,325.452789 458.552673,327.390137 456.213379,328.874634 
	C417.130981,353.675934 378.081696,378.529449 339.002838,403.336334 
	C332.291748,407.596466 330.346619,407.325256 324.735382,401.639893 
	C315.609711,392.393463 306.311401,383.303223 297.520996,373.746918 
	C293.875610,369.783936 291.245453,369.522217 286.674011,372.352264 
	C248.732956,395.840820 210.616364,419.045776 172.589874,442.396759 
	C170.415573,443.731903 167.682388,444.415741 165.874191,447.644958 
	C253.427582,447.644958 340.463135,447.644958 428.497681,447.645508 
z"/>
<path fill="#000000" opacity="1.000000" stroke="none" 
	d="
M236.801605,269.629639 
	C236.229523,271.614258 235.811081,273.222473 235.345673,274.816956 
	C234.488113,277.754974 232.733459,279.799713 229.599319,280.382812 
	C226.287567,280.998962 223.741791,279.794220 221.860153,277.054657 
	C214.418549,266.220062 207.004822,255.366119 199.514343,244.565399 
	C196.902893,240.799850 197.235703,237.239929 200.363251,234.196228 
	C214.673737,220.269409 229.076920,206.437607 243.487427,192.614029 
	C246.078598,190.128387 249.221710,189.908798 252.237152,191.626495 
	C256.167816,193.865570 256.026886,197.708710 255.090927,201.358917 
	C252.449890,211.658646 249.552048,221.892258 246.798874,232.163574 
	C243.487198,244.518448 240.220322,256.885345 236.801605,269.629639 
M229.769455,239.438599 
	C231.136627,234.172791 233.010971,229.006332 232.692230,222.998871 
	C226.880005,227.921692 221.809433,233.355515 216.730667,238.781677 
	C215.606613,239.982590 215.051132,241.266647 216.090652,242.787292 
	C218.762543,246.695953 220.989716,250.948990 224.834686,254.466339 
	C227.751587,249.914093 227.973709,244.828171 229.769455,239.438599 
z"/>
<path fill="#000000" opacity="1.000000" stroke="none" 
	d="
M192.078888,267.755859 
	C197.747192,264.501404 200.918579,265.050323 204.299255,269.906982 
	C208.106293,275.376160 211.836838,280.906525 215.383606,286.546753 
	C219.006332,292.307709 217.617950,296.604095 211.227066,299.257904 
	C194.156036,306.346680 177.032272,313.308655 159.917480,320.291687 
	C156.074905,321.859497 152.243103,322.219421 149.746674,318.143799 
	C147.399948,314.312561 148.638290,310.827179 151.690170,307.803253 
	C165.066101,294.549957 178.423462,281.277954 192.078888,267.755859 
M197.721573,288.778748 
	C198.801895,286.879761 197.534500,285.443665 196.110977,285.706329 
	C193.180893,286.246918 191.451019,288.532288 189.681595,291.692963 
	C193.078156,291.204956 195.174576,290.267456 197.721573,288.778748 
z"/>
</svg>