<svg version="1.1" id="Layer_1" xmlns="http://www.w3.org/2000/svg" xmlns:xlink="http://www.w3.org/1999/xlink" x="0px" y="0px"
	 width="100%" viewBox="0 0 100 100" enable-background="new 0 0 100 100" xml:space="preserve">
<path fill="#FAFAFA" opacity="1.000000" stroke="none" 
	d="
M1.000000,89.000000 
	C1.000000,59.748623 1.000000,30.497246 1.000000,1.000000 
	C23.686970,1.000000 46.374825,1.000000 69.334595,1.329419 
	C64.998291,3.441775 60.341225,5.114174 55.826607,7.108967 
	C55.008446,7.470476 54.774071,9.153213 54.270187,10.225995 
	C55.454403,10.355337 56.809536,10.918141 57.790268,10.531428 
	C60.552975,9.442062 63.073566,7.729210 65.847588,6.679724 
	C74.577019,3.377139 82.586090,4.801228 89.430794,11.188043 
	C96.228241,17.530779 98.370056,25.315033 95.953957,34.367882 
	C91.881775,49.625919 72.585854,66.686050 56.954853,68.752892 
	C45.149185,70.313911 34.701900,62.646553 33.271976,51.105476 
	C32.931160,48.354710 33.665417,45.485271 33.609982,42.676243 
	C33.592056,41.767979 32.630699,40.878334 32.100899,39.980175 
	C31.328424,40.642342 30.124247,41.172562 29.873156,41.994080 
	C29.347124,43.715164 29.255501,45.584080 29.105944,47.402195 
	C28.738523,51.868706 28.896011,56.435555 27.993668,60.786015 
	C26.935637,65.887100 26.667788,72.113220 18.932068,72.257393 
	C18.145149,72.272057 17.309559,73.348297 16.614868,74.049179 
	C11.693820,79.014061 6.803654,84.009544 1.677714,88.992920 
	C1.451785,88.990570 1.000000,89.000000 1.000000,89.000000 
M20.288794,27.850178 
	C24.925173,36.437050 32.483604,40.478725 40.559017,38.689140 
	C48.538620,36.920788 54.560104,30.226244 54.956444,22.335379 
	C55.341209,14.674829 52.128712,8.742154 45.361835,5.121712 
	C38.551590,1.478064 31.753691,2.174693 25.810659,6.987634 
	C19.354969,12.215751 17.530052,19.122293 20.288794,27.850178 
M88.273849,27.565779 
	C85.977325,43.482029 75.325333,52.698517 61.817661,58.737373 
	C49.482353,64.252106 41.318222,57.971043 41.800640,44.566273 
	C41.840958,43.446091 40.685524,42.282875 40.085640,41.139648 
	C39.357208,42.082851 38.223686,42.926064 37.962402,43.984573 
	C35.039322,55.826717 43.979675,66.241241 56.040321,64.283401 
	C72.902031,61.546192 83.853813,50.700005 90.726997,35.789829 
	C94.945831,26.637796 91.531212,16.924053 83.715393,12.173054 
	C74.861542,6.791067 64.084984,10.758839 57.359573,16.235083 
	C56.766060,16.718361 56.948586,18.154701 56.770668,19.148384 
	C57.788246,19.198204 58.967724,19.607374 59.794952,19.234688 
	C63.106453,17.742777 66.157837,15.526154 69.580109,14.455715 
	C79.013222,11.505172 86.872147,16.827864 88.273849,27.565779 
z"/>
<path fill="#FEFEFE" opacity="1.000000" stroke="none" 
	d="
M101.000000,33.000000 
	C101.000000,55.602924 101.000000,78.205849 101.000000,101.000000 
	C71.979385,101.000000 42.958351,101.000000 13.470682,100.774635 
	C13.004048,100.549271 13.006655,100.098526 13.266138,99.884384 
	C18.374073,94.880928 23.243759,90.112740 28.049915,85.281349 
	C28.843866,84.483238 29.957563,83.374420 29.906004,82.467010 
	C29.593922,76.974464 33.688477,75.865265 37.493153,74.990501 
	C41.987240,73.957230 46.646400,73.061081 51.225609,73.099709 
	C60.777416,73.180305 69.156479,70.206955 76.821617,64.816933 
	C88.247513,56.782398 96.622986,46.403893 101.000000,33.000000 
z"/>
<path fill="#0F0F0F" opacity="1.000000" stroke="none" 
	d="
M101.000000,32.545891 
	C96.622986,46.403893 88.247513,56.782398 76.821617,64.816933 
	C69.156479,70.206955 60.777416,73.180305 51.225609,73.099709 
	C46.646400,73.061081 41.987240,73.957230 37.493153,74.990501 
	C33.688477,75.865265 29.593922,76.974464 29.906004,82.467010 
	C29.957563,83.374420 28.843866,84.483238 28.049915,85.281349 
	C23.243759,90.112740 18.374073,94.880928 12.862093,99.868637 
	C5.242532,99.696289 1.981183,96.188843 1.903643,88.995277 
	C6.803654,84.009544 11.693820,79.014061 16.614868,74.049179 
	C17.309559,73.348297 18.145149,72.272057 18.932068,72.257393 
	C26.667788,72.113220 26.935637,65.887100 27.993668,60.786015 
	C28.896011,56.435555 28.738523,51.868706 29.105944,47.402195 
	C29.255501,45.584080 29.347124,43.715164 29.873156,41.994080 
	C30.124247,41.172562 31.328424,40.642342 32.100899,39.980175 
	C32.630699,40.878334 33.592056,41.767979 33.609982,42.676243 
	C33.665417,45.485271 32.931160,48.354710 33.271976,51.105476 
	C34.701900,62.646553 45.149185,70.313911 56.954853,68.752892 
	C72.585854,66.686050 91.881775,49.625919 95.953957,34.367882 
	C98.370056,25.315033 96.228241,17.530779 89.430794,11.188043 
	C82.586090,4.801228 74.577019,3.377139 65.847588,6.679724 
	C63.073566,7.729210 60.552975,9.442062 57.790268,10.531428 
	C56.809536,10.918141 55.454403,10.355337 54.270187,10.225995 
	C54.774071,9.153213 55.008446,7.470476 55.826607,7.108967 
	C60.341225,5.114174 64.998291,3.441775 69.803253,1.329419 
	C72.370560,1.000000 74.741112,1.000000 77.717941,1.349237 
	C82.378189,3.391279 86.742699,4.588664 90.414925,6.890482 
	C96.239777,10.541593 98.679779,16.824709 101.000000,23.000000 
	C101.000000,26.030594 101.000000,29.061188 101.000000,32.545891 
M5.953860,91.520432 
	C7.405332,93.989647 8.725059,97.968437 12.324296,94.992859 
	C17.385004,90.809044 21.742609,85.774765 25.922764,81.583580 
	C24.168554,79.246696 22.728058,77.327736 21.847399,76.154564 
	C16.235556,81.336014 11.121361,86.057983 5.953860,91.520432 
M32.191742,72.555450 
	C33.758030,71.868263 35.324314,71.181084 36.890602,70.493896 
	C32.415928,71.432030 32.085602,68.267380 31.817980,64.554924 
	C29.975367,68.477844 28.525440,71.564728 26.574062,75.719208 
	C29.000608,74.346390 30.264261,73.631485 32.191742,72.555450 
z"/>
<path fill="#F7F7F7" opacity="1.000000" stroke="none" 
	d="
M101.000000,22.531218 
	C98.679779,16.824709 96.239777,10.541593 90.414925,6.890482 
	C86.742699,4.588664 82.378189,3.391279 78.162109,1.349237 
	C85.591278,1.000000 93.182564,1.000000 101.000000,1.000000 
	C101.000000,8.019200 101.000000,15.040817 101.000000,22.531218 
z"/>
<path fill="#F2F2F2" opacity="1.000000" stroke="none" 
	d="
M1.677714,88.992920 
	C1.981183,96.188843 5.242532,99.696289 12.602610,100.082779 
	C13.006655,100.098526 13.004048,100.549271 13.002024,100.774635 
	C9.078017,101.000000 5.156034,101.000000 1.000000,101.000000 
	C1.000000,97.321404 1.000000,93.639877 1.000000,89.479172 
	C1.000000,89.000000 1.451785,88.990570 1.677714,88.992920 
z"/>
<path fill="#101010" opacity="1.000000" stroke="none" 
	d="
M20.158930,27.474918 
	C17.530052,19.122293 19.354969,12.215751 25.810659,6.987634 
	C31.753691,2.174693 38.551590,1.478064 45.361835,5.121712 
	C52.128712,8.742154 55.341209,14.674829 54.956444,22.335379 
	C54.560104,30.226244 48.538620,36.920788 40.559017,38.689140 
	C32.483604,40.478725 24.925173,36.437050 20.158930,27.474918 
M31.701416,8.101744 
	C28.872532,10.552960 26.043648,13.004178 22.510691,16.065474 
	C32.700840,19.652786 38.330147,25.741327 42.043869,35.245300 
	C45.303665,31.789692 47.941353,28.993563 51.031334,25.717970 
	C41.179920,22.377436 35.837429,16.189535 31.701416,8.101744 
M46.414303,19.281858 
	C47.793667,19.902548 49.173031,20.523237 50.833355,21.270353 
	C49.927113,12.111156 45.295017,7.612872 36.077000,8.343551 
	C39.305882,11.869365 42.534760,15.395179 46.414303,19.281858 
M32.642616,26.902323 
	C29.733141,24.748455 26.823664,22.594585 23.188808,19.903723 
	C23.887964,29.800865 29.575253,35.204815 37.497166,34.244411 
	C35.950489,31.849016 34.531502,29.651377 32.642616,26.902323 
z"/>
<path fill="#121212" opacity="1.000000" stroke="none" 
	d="
M88.266281,27.134476 
	C86.872147,16.827864 79.013222,11.505172 69.580109,14.455715 
	C66.157837,15.526154 63.106453,17.742777 59.794952,19.234688 
	C58.967724,19.607374 57.788246,19.198204 56.770668,19.148384 
	C56.948586,18.154701 56.766060,16.718361 57.359573,16.235083 
	C64.084984,10.758839 74.861542,6.791067 83.715393,12.173054 
	C91.531212,16.924053 94.945831,26.637796 90.726997,35.789829 
	C83.853813,50.700005 72.902031,61.546192 56.040321,64.283401 
	C43.979675,66.241241 35.039322,55.826717 37.962402,43.984573 
	C38.223686,42.926064 39.357208,42.082851 40.085640,41.139648 
	C40.685524,42.282875 41.840958,43.446091 41.800640,44.566273 
	C41.318222,57.971043 49.482353,64.252106 61.817661,58.737373 
	C75.325333,52.698517 85.977325,43.482029 88.266281,27.134476 
z"/>
<path fill="#FBFBFB" opacity="1.000000" stroke="none" 
	d="
M5.980514,91.150192 
	C11.121361,86.057983 16.235556,81.336014 21.847399,76.154564 
	C22.728058,77.327736 24.168554,79.246696 25.922764,81.583580 
	C21.742609,85.774765 17.385004,90.809044 12.324296,94.992859 
	C8.725059,97.968437 7.405332,93.989647 5.980514,91.150192 
z"/>
<path fill="#EBEBEB" opacity="1.000000" stroke="none" 
	d="
M31.859827,72.736008 
	C30.264261,73.631485 29.000608,74.346390 26.574062,75.719208 
	C28.525440,71.564728 29.975367,68.477844 31.817980,64.554924 
	C32.085602,68.267380 32.415928,71.432030 36.890602,70.493896 
	C35.324314,71.181084 33.758030,71.868263 31.859827,72.736008 
z"/>
<path fill="#F7F7F7" opacity="1.000000" stroke="none" 
	d="
M32.070324,8.082411 
	C35.837429,16.189535 41.179920,22.377436 51.031334,25.717970 
	C47.941353,28.993563 45.303665,31.789692 42.043869,35.245300 
	C38.330147,25.741327 32.700840,19.652786 22.510691,16.065474 
	C26.043648,13.004178 28.872532,10.552960 32.070324,8.082411 
z"/>
<path fill="#F5F5F5" opacity="1.000000" stroke="none" 
	d="
M46.088974,19.101425 
	C42.534760,15.395179 39.305882,11.869365 36.077000,8.343551 
	C45.295017,7.612872 49.927113,12.111156 50.833355,21.270353 
	C49.173031,20.523237 47.793667,19.902548 46.088974,19.101425 
z"/>
<path fill="#F5F5F5" opacity="1.000000" stroke="none" 
	d="
M32.877563,27.178032 
	C34.531502,29.651377 35.950489,31.849016 37.497166,34.244411 
	C29.575253,35.204815 23.887964,29.800865 23.188808,19.903723 
	C26.823664,22.594585 29.733141,24.748455 32.877563,27.178032 
z"/>
</svg>