<svg version="1.1" id="Layer_1" xmlns="http://www.w3.org/2000/svg" xmlns:xlink="http://www.w3.org/1999/xlink" x="0px" y="0px"
	 width="100%" viewBox="0 0 100 100" enable-background="new 0 0 100 100" xml:space="preserve">
<path fill="#010101" opacity="1.000000" stroke="none" 
	d="
M101.000000,18.000000 
	C101.000000,41.354229 101.000000,64.708458 100.571625,88.360138 
	C99.492043,88.770302 98.843513,88.961372 98.189232,88.983688 
	C90.997749,89.228928 90.996925,89.221802 90.995796,82.193169 
	C90.994888,76.577850 90.995613,70.962532 90.995613,65.208542 
	C64.168175,65.208542 37.772743,65.208542 10.992649,65.208542 
	C10.992649,72.032249 11.107966,78.657486 10.890923,85.271812 
	C10.849762,86.526138 9.562689,88.722954 8.726265,88.784042 
	C6.183494,88.969757 3.579907,88.322754 1.000000,88.000000 
	C1.000000,64.645775 1.000000,41.291542 1.428190,17.632122 
	C5.538054,17.438120 10.297815,14.540663 11.549328,20.911781 
	C37.954235,20.911781 64.157867,20.911781 90.329948,20.911781 
	C91.938728,16.435465 94.698540,15.702802 101.000000,18.000000 
M6.999407,46.500008 
	C6.999407,38.005836 6.999407,29.511665 6.999407,21.017492 
	C6.524007,21.044041 6.048607,21.070587 5.573207,21.097134 
	C5.573207,42.368771 5.573207,63.640411 5.573207,84.912048 
	C6.048601,84.915291 6.523994,84.918533 6.999388,84.921776 
	C6.999388,72.447853 6.999388,59.973927 6.999407,46.500008 
M96.998177,60.499992 
	C96.998177,47.348526 96.998177,34.197056 96.998177,21.045588 
	C96.515022,21.062344 96.031860,21.079100 95.548706,21.095856 
	C95.548706,42.369808 95.548706,63.643764 95.548706,84.917717 
	C96.031670,84.926552 96.514641,84.935387 96.997604,84.944221 
	C96.997604,77.129471 96.997604,69.314720 96.998177,60.499992 
M13.604997,50.999664 
	C15.346237,50.999664 17.087477,50.999664 18.746725,50.999664 
	C18.746725,48.707363 18.746725,46.983906 18.746725,45.211594 
	C16.103718,45.211594 13.717109,45.211594 10.123453,45.211594 
	C11.141607,47.512539 11.912382,49.254429 13.604997,50.999664 
M85.600746,55.000370 
	C80.536110,55.167404 84.039284,58.715141 82.830338,60.680931 
	C85.899406,60.680931 88.405136,60.680931 91.063965,60.680931 
	C90.961189,58.626865 90.874825,56.900837 90.779709,55.000061 
	C89.125381,55.000061 87.832359,55.000061 85.600746,55.000370 
M18.995291,59.387276 
	C18.919655,57.981277 18.844019,56.575283 18.772545,55.246635 
	C16.022345,55.246635 13.636454,55.246635 11.212831,55.246635 
	C11.212831,57.218102 11.212831,58.940353 11.212831,61.246117 
	C13.957358,60.917633 16.448322,60.619499 18.995291,59.387276 
M87.460373,51.000008 
	C92.998611,51.595543 90.432434,47.721359 91.012054,45.341423 
	C88.060562,45.341423 85.559891,45.341423 82.991714,45.341423 
	C83.305832,48.054955 81.497208,51.762875 87.460373,51.000008 
M83.004288,39.386768 
	C85.457870,40.136028 87.911453,40.885292 90.667709,41.726986 
	C90.667709,38.782532 90.667709,36.949600 90.667709,34.369530 
	C88.112099,36.723568 82.790573,31.523092 83.004288,39.386768 
M11.747596,35.054100 
	C11.462301,36.969639 11.177007,38.885178 10.903921,40.718742 
	C14.054762,40.718742 16.441711,40.718742 18.750536,40.718742 
	C18.750536,38.710514 18.750536,36.987206 18.750536,35.003120 
	C16.564127,35.003120 14.624080,35.003120 11.747596,35.054100 
M12.683230,30.996943 
	C14.747413,30.996943 16.811594,30.996943 19.060270,30.996943 
	C18.957371,28.658655 18.881496,26.934528 18.806448,25.229137 
	C16.065319,25.229137 13.679973,25.229137 10.714224,25.229137 
	C11.095441,27.337259 11.421859,29.142345 12.683230,30.996943 
M83.000259,27.534445 
	C83.124908,34.783924 88.238380,29.273912 90.807663,31.253012 
	C90.807663,28.818293 90.807663,27.095497 90.807663,24.231031 
	C87.911591,25.114973 85.458038,25.863848 83.000259,27.534445 
M53.004242,49.369843 
	C54.765198,50.111683 56.526157,50.853523 58.678932,51.760426 
	C58.678932,48.787037 58.678932,46.947472 58.678932,44.956108 
	C56.054768,45.400150 52.300915,43.365700 53.004242,49.369843 
M28.307138,25.059250 
	C26.579741,25.059250 24.852343,25.059250 22.941481,25.059250 
	C23.043322,27.356409 23.119923,29.084249 23.194378,30.763668 
	C25.280195,30.763668 27.001547,30.763668 28.943478,30.763668 
	C28.943478,28.923182 28.943478,27.316370 28.307138,25.059250 
M78.296913,60.941833 
	C78.555382,59.011021 78.813850,57.080208 79.104691,54.907558 
	C76.588966,55.033314 74.862022,55.119644 73.260063,55.199722 
	C73.260063,57.321857 73.260063,59.045532 73.260063,60.995903 
	C74.802277,60.995903 76.086670,60.995903 78.296913,60.941833 
M68.295677,60.941296 
	C68.554405,59.010887 68.813133,57.080479 69.104294,54.908096 
	C66.591896,55.033680 64.863693,55.120064 63.259766,55.200237 
	C63.259766,57.322910 63.259766,59.046597 63.259766,60.995781 
	C64.801353,60.995781 66.085648,60.995781 68.295677,60.941296 
M55.534138,55.000935 
	C50.582253,55.301365 54.013680,58.734386 52.888783,60.654594 
	C55.269119,60.654594 57.106697,60.654594 59.573639,60.654594 
	C57.870342,58.651474 61.259098,54.920464 55.534138,55.000935 
M43.000385,58.465836 
	C43.300732,63.418751 46.733692,59.986500 48.654545,61.110886 
	C48.654545,58.723824 48.654545,56.892265 48.654545,54.425220 
	C46.651474,56.129723 42.919689,52.740368 43.000385,58.465836 
M38.996181,56.629826 
	C37.235222,55.887829 35.474262,55.145832 33.321472,54.238735 
	C33.321472,57.221481 33.321472,59.056828 33.321472,61.043163 
	C35.946217,60.599480 39.700489,62.635536 38.996181,56.629826 
M26.461620,55.000908 
	C20.831596,54.468296 23.608717,58.356197 23.002459,60.804916 
	C25.187084,60.804916 26.910948,60.804916 29.814684,60.804916 
	C28.854361,58.525574 28.112625,56.765049 26.461620,55.000908 
M36.461800,25.001589 
	C30.833210,24.470278 33.607933,28.356844 33.002659,30.806030 
	C35.190258,30.806030 36.913456,30.806030 39.815632,30.806030 
	C38.855057,28.526627 38.113052,26.765875 36.461800,25.001589 
M43.692478,30.941942 
	C45.419899,30.941942 47.147320,30.941942 49.058819,30.941942 
	C48.956406,28.645643 48.879353,26.917879 48.804432,25.238016 
	C46.725590,25.238016 45.000816,25.238016 43.055706,25.238016 
	C43.055706,27.078463 43.055706,28.685217 43.692478,30.941942 
M77.370171,50.996140 
	C78.112175,49.235191 78.854179,47.474239 79.761223,45.321617 
	C76.787849,45.321617 74.948296,45.321617 72.956879,45.321617 
	C73.399742,47.946686 71.364876,51.700310 77.370171,50.996140 
M65.533691,45.000488 
	C60.583157,45.301567 64.013184,48.734402 62.887993,50.654564 
	C65.268486,50.654564 67.106232,50.654564 69.572350,50.654564 
	C67.871445,48.650906 71.257042,44.921230 65.533691,45.000488 
M46.465824,50.999626 
	C51.418335,50.699200 47.987476,47.266716 49.110725,45.345589 
	C46.730385,45.345589 44.892712,45.345589 41.755112,45.345589 
	C44.379856,47.232021 40.610928,51.140564 46.465824,50.999626 
M34.630299,50.996243 
	C36.038002,50.920925 37.445709,50.845604 38.745472,50.776062 
	C38.745472,48.687218 38.745472,46.963409 38.745472,45.217739 
	C36.765659,45.217739 35.042698,45.217739 32.737190,45.217739 
	C33.089783,47.303078 33.397579,49.123466 34.630299,50.996243 
M25.533686,45.000488 
	C20.583157,45.301575 24.013187,48.734406 22.887999,50.654564 
	C25.268494,50.654564 27.106237,50.654564 30.150452,50.654564 
	C27.620703,48.767639 31.396807,44.856140 25.533686,45.000488 
M57.370472,30.996773 
	C58.112267,29.235729 58.854061,27.474686 59.760994,25.321598 
	C56.787189,25.321598 54.947521,25.321598 52.956001,25.321598 
	C53.400963,27.945522 51.364899,31.700756 57.370472,30.996773 
M63.000404,27.538918 
	C62.467197,33.170345 66.356110,30.391514 68.805008,30.998493 
	C68.805008,28.810707 68.805008,27.087528 68.805008,24.185358 
	C66.525688,25.145729 64.764885,25.887630 63.000404,27.538918 
M76.462074,34.999760 
	C70.830757,34.466961 73.609131,38.355766 73.002632,40.804680 
	C75.190071,40.804680 76.913185,40.804680 79.815491,40.804680 
	C78.855110,38.524998 78.113304,36.764153 76.462074,34.999760 
M63.058041,35.691933 
	C63.058041,37.419613 63.058041,39.147289 63.058041,41.058834 
	C65.355408,40.956829 67.083321,40.880104 68.762909,40.805527 
	C68.762909,38.725590 68.762909,37.000431 68.762909,35.055328 
	C66.922272,35.055328 65.315285,35.055328 63.058041,35.691933 
M58.999702,37.533382 
	C58.699722,32.579628 55.265274,36.013927 53.345161,34.887138 
	C53.345161,37.268551 53.345161,39.106678 53.345161,42.324547 
	C55.222694,39.600983 59.142624,43.393284 58.999702,37.533382 
M43.703331,35.057476 
	C43.444702,36.988258 43.186073,38.919041 42.894997,41.092049 
	C45.411465,40.966228 47.138325,40.879887 48.740166,40.799797 
	C48.740166,38.676384 48.740166,36.952511 48.740166,35.003323 
	C47.198357,35.003323 45.913830,35.003323 43.703331,35.057476 
M35.534016,34.999542 
	C30.581308,35.300167 34.014496,38.734306 32.888035,40.654266 
	C35.268787,40.654266 37.106571,40.654266 39.573292,40.654266 
	C37.871254,38.650429 41.259937,34.919472 35.534016,34.999542 
M23.702929,35.057259 
	C23.444561,36.988331 23.186193,38.919399 22.895452,41.092415 
	C25.407644,40.966995 27.136145,40.880699 28.740145,40.800621 
	C28.740145,38.677204 28.740145,36.953190 28.740145,35.003250 
	C27.203386,35.003250 25.916170,35.003250 23.702929,35.057259 
M78.941750,30.308313 
	C78.941750,28.580912 78.941750,26.853512 78.941750,24.942314 
	C76.641136,25.044640 74.914772,25.121426 73.237129,25.196043 
	C73.237129,27.275721 73.237129,29.000586 73.237129,30.944479 
	C75.077606,30.944479 76.684395,30.944479 78.941750,30.308313 
z"/>
<path fill="#FFFFFF" opacity="1.000000" stroke="none" 
	d="
M1.000000,88.476662 
	C3.579907,88.322754 6.183494,88.969757 8.726265,88.784042 
	C9.562689,88.722954 10.849762,86.526138 10.890923,85.271812 
	C11.107966,78.657486 10.992649,72.032249 10.992649,65.208542 
	C37.772743,65.208542 64.168175,65.208542 90.995613,65.208542 
	C90.995613,70.962532 90.994888,76.577850 90.995796,82.193169 
	C90.996925,89.221802 90.997749,89.228928 98.189232,88.983688 
	C98.843513,88.961372 99.492043,88.770302 100.571625,88.828796 
	C101.000000,92.985435 101.000000,96.970871 100.999992,100.955551 
	C67.666641,100.954803 34.333298,100.954803 1.000000,100.954803 
	C1.000000,96.924187 1.000000,92.938751 1.000000,88.476662 
z"/>
<path fill="#FFFFFF" opacity="1.000000" stroke="none" 
	d="
M101.000000,17.529547 
	C94.698540,15.702802 91.938728,16.435465 90.329948,20.911781 
	C64.157867,20.911781 37.954235,20.911781 11.549328,20.911781 
	C10.297815,14.540663 5.538054,17.438120 1.428190,17.163464 
	C1.000000,11.684414 1.000000,6.368827 1.000015,1.054706 
	C34.333374,1.056170 67.666718,1.056170 101.000000,1.056170 
	C101.000000,6.427925 101.000000,11.743509 101.000000,17.529547 
z"/>
<path fill="#FFFFFF" opacity="1.000000" stroke="none" 
	d="
M6.999397,47.000004 
	C6.999388,59.973927 6.999388,72.447853 6.999388,84.921776 
	C6.523994,84.918533 6.048601,84.915291 5.573207,84.912048 
	C5.573207,63.640411 5.573207,42.368771 5.573207,21.097134 
	C6.048607,21.070587 6.524007,21.044041 6.999407,21.017492 
	C6.999407,29.511665 6.999407,38.005836 6.999397,47.000004 
z"/>
<path fill="#FEFEFE" opacity="1.000000" stroke="none" 
	d="
M96.997894,60.999977 
	C96.997604,69.314720 96.997604,77.129471 96.997604,84.944221 
	C96.514641,84.935387 96.031670,84.926552 95.548706,84.917717 
	C95.548706,63.643764 95.548706,42.369808 95.548706,21.095856 
	C96.031860,21.079100 96.515022,21.062344 96.998177,21.045588 
	C96.998177,34.197056 96.998177,47.348526 96.997894,60.999977 
z"/>
<path fill="#FEFEFE" opacity="1.000000" stroke="none" 
	d="
M13.144077,50.997993 
	C11.912382,49.254429 11.141607,47.512539 10.123453,45.211594 
	C13.717109,45.211594 16.103718,45.211594 18.746725,45.211594 
	C18.746725,46.983906 18.746725,48.707363 18.746725,50.999664 
	C17.087477,50.999664 15.346237,50.999664 13.144077,50.997993 
z"/>
<path fill="#FEFEFE" opacity="1.000000" stroke="none" 
	d="
M86.070038,55.000214 
	C87.832359,55.000061 89.125381,55.000061 90.779709,55.000061 
	C90.874825,56.900837 90.961189,58.626865 91.063965,60.680931 
	C88.405136,60.680931 85.899406,60.680931 82.830338,60.680931 
	C84.039284,58.715141 80.536110,55.167404 86.070038,55.000214 
z"/>
<path fill="#FEFEFE" opacity="1.000000" stroke="none" 
	d="
M18.967289,59.854317 
	C16.448322,60.619499 13.957358,60.917633 11.212831,61.246117 
	C11.212831,58.940353 11.212831,57.218102 11.212831,55.246635 
	C13.636454,55.246635 16.022345,55.246635 18.772545,55.246635 
	C18.844019,56.575283 18.919655,57.981277 18.967289,59.854317 
z"/>
<path fill="#FEFEFE" opacity="1.000000" stroke="none" 
	d="
M86.999634,50.999977 
	C81.497208,51.762875 83.305832,48.054955 82.991714,45.341423 
	C85.559891,45.341423 88.060562,45.341423 91.012054,45.341423 
	C90.432434,47.721359 92.998611,51.595543 86.999634,50.999977 
z"/>
<path fill="#FEFEFE" opacity="1.000000" stroke="none" 
	d="
M83.002243,38.925892 
	C82.790573,31.523092 88.112099,36.723568 90.667709,34.369530 
	C90.667709,36.949600 90.667709,38.782532 90.667709,41.726986 
	C87.911453,40.885292 85.457870,40.136028 83.002243,38.925892 
z"/>
<path fill="#FEFEFE" opacity="1.000000" stroke="none" 
	d="
M12.215814,35.028610 
	C14.624080,35.003120 16.564127,35.003120 18.750536,35.003120 
	C18.750536,36.987206 18.750536,38.710514 18.750536,40.718742 
	C16.441711,40.718742 14.054762,40.718742 10.903921,40.718742 
	C11.177007,38.885178 11.462301,36.969639 12.215814,35.028610 
z"/>
<path fill="#FEFEFE" opacity="1.000000" stroke="none" 
	d="
M12.215754,30.972187 
	C11.421859,29.142345 11.095441,27.337259 10.714224,25.229137 
	C13.679973,25.229137 16.065319,25.229137 18.806448,25.229137 
	C18.881496,26.934528 18.957371,28.658655 19.060270,30.996943 
	C16.811594,30.996943 14.747413,30.996943 12.215754,30.972187 
z"/>
<path fill="#FEFEFE" opacity="1.000000" stroke="none" 
	d="
M83.002373,27.073584 
	C85.458038,25.863848 87.911591,25.114973 90.807663,24.231031 
	C90.807663,27.095497 90.807663,28.818293 90.807663,31.253012 
	C88.238380,29.273912 83.124908,34.783924 83.002373,27.073584 
z"/>
<path fill="#FEFEFE" opacity="1.000000" stroke="none" 
	d="
M53.002510,48.915260 
	C52.300915,43.365700 56.054768,45.400150 58.678932,44.956108 
	C58.678932,46.947472 58.678932,48.787037 58.678932,51.760426 
	C56.526157,50.853523 54.765198,50.111683 53.002510,48.915260 
z"/>
<path fill="#FEFEFE" opacity="1.000000" stroke="none" 
	d="
M28.625309,25.384403 
	C28.943478,27.316370 28.943478,28.923182 28.943478,30.763668 
	C27.001547,30.763668 25.280195,30.763668 23.194378,30.763668 
	C23.119923,29.084249 23.043322,27.356409 22.941481,25.059250 
	C24.852343,25.059250 26.579741,25.059250 28.625309,25.384403 
z"/>
<path fill="#FEFEFE" opacity="1.000000" stroke="none" 
	d="
M77.833984,60.968868 
	C76.086670,60.995903 74.802277,60.995903 73.260063,60.995903 
	C73.260063,59.045532 73.260063,57.321857 73.260063,55.199722 
	C74.862022,55.119644 76.588966,55.033314 79.104691,54.907558 
	C78.813850,57.080208 78.555382,59.011021 77.833984,60.968868 
z"/>
<path fill="#FEFEFE" opacity="1.000000" stroke="none" 
	d="
M67.832809,60.968536 
	C66.085648,60.995781 64.801353,60.995781 63.259766,60.995781 
	C63.259766,59.046597 63.259766,57.322910 63.259766,55.200237 
	C64.863693,55.120064 66.591896,55.033680 69.104294,54.908096 
	C68.813133,57.080479 68.554405,59.010887 67.832809,60.968536 
z"/>
<path fill="#FEFEFE" opacity="1.000000" stroke="none" 
	d="
M55.997833,55.000893 
	C61.259098,54.920464 57.870342,58.651474 59.573639,60.654594 
	C57.106697,60.654594 55.269119,60.654594 52.888783,60.654594 
	C54.013680,58.734386 50.582253,55.301365 55.997833,55.000893 
z"/>
<path fill="#FEFEFE" opacity="1.000000" stroke="none" 
	d="
M43.000366,58.002083 
	C42.919689,52.740368 46.651474,56.129723 48.654545,54.425220 
	C48.654545,56.892265 48.654545,58.723824 48.654545,61.110886 
	C46.733692,59.986500 43.300732,63.418751 43.000366,58.002083 
z"/>
<path fill="#FEFEFE" opacity="1.000000" stroke="none" 
	d="
M38.997910,57.084480 
	C39.700489,62.635536 35.946217,60.599480 33.321472,61.043163 
	C33.321472,59.056828 33.321472,57.221481 33.321472,54.238735 
	C35.474262,55.145832 37.235222,55.887829 38.997910,57.084480 
z"/>
<path fill="#FEFEFE" opacity="1.000000" stroke="none" 
	d="
M26.916254,55.002716 
	C28.112625,56.765049 28.854361,58.525574 29.814684,60.804916 
	C26.910948,60.804916 25.187084,60.804916 23.002459,60.804916 
	C23.608717,58.356197 20.831596,54.468296 26.916254,55.002716 
z"/>
<path fill="#FEFEFE" opacity="1.000000" stroke="none" 
	d="
M36.916424,25.003357 
	C38.113052,26.765875 38.855057,28.526627 39.815632,30.806030 
	C36.913456,30.806030 35.190258,30.806030 33.002659,30.806030 
	C33.607933,28.356844 30.833210,24.470278 36.916424,25.003357 
z"/>
<path fill="#FEFEFE" opacity="1.000000" stroke="none" 
	d="
M43.374092,30.616957 
	C43.055706,28.685217 43.055706,27.078463 43.055706,25.238016 
	C45.000816,25.238016 46.725590,25.238016 48.804432,25.238016 
	C48.879353,26.917879 48.956406,28.645643 49.058819,30.941942 
	C47.147320,30.941942 45.419899,30.941942 43.374092,30.616957 
z"/>
<path fill="#FEFEFE" opacity="1.000000" stroke="none" 
	d="
M76.915527,50.997879 
	C71.364876,51.700310 73.399742,47.946686 72.956879,45.321617 
	C74.948296,45.321617 76.787849,45.321617 79.761223,45.321617 
	C78.854179,47.474239 78.112175,49.235191 76.915527,50.997879 
z"/>
<path fill="#FEFEFE" opacity="1.000000" stroke="none" 
	d="
M65.997375,45.000492 
	C71.257042,44.921230 67.871445,48.650906 69.572350,50.654564 
	C67.106232,50.654564 65.268486,50.654564 62.887993,50.654564 
	C64.013184,48.734402 60.583157,45.301567 65.997375,45.000492 
z"/>
<path fill="#FEFEFE" opacity="1.000000" stroke="none" 
	d="
M46.002071,50.999626 
	C40.610928,51.140564 44.379856,47.232021 41.755112,45.345589 
	C44.892712,45.345589 46.730385,45.345589 49.110725,45.345589 
	C47.987476,47.266716 51.418335,50.699200 46.002071,50.999626 
z"/>
<path fill="#FEFEFE" opacity="1.000000" stroke="none" 
	d="
M34.167839,50.970047 
	C33.397579,49.123466 33.089783,47.303078 32.737190,45.217739 
	C35.042698,45.217739 36.765659,45.217739 38.745472,45.217739 
	C38.745472,46.963409 38.745472,48.687218 38.745472,50.776062 
	C37.445709,50.845604 36.038002,50.920925 34.167839,50.970047 
z"/>
<path fill="#FEFEFE" opacity="1.000000" stroke="none" 
	d="
M25.997372,45.000492 
	C31.396807,44.856140 27.620703,48.767639 30.150452,50.654564 
	C27.106237,50.654564 25.268494,50.654564 22.887999,50.654564 
	C24.013187,48.734406 20.583157,45.301575 25.997372,45.000492 
z"/>
<path fill="#FEFEFE" opacity="1.000000" stroke="none" 
	d="
M56.915787,30.998455 
	C51.364899,31.700756 53.400963,27.945522 52.956001,25.321598 
	C54.947521,25.321598 56.787189,25.321598 59.760994,25.321598 
	C58.854061,27.474686 58.112267,29.235729 56.915787,30.998455 
z"/>
<path fill="#FEFEFE" opacity="1.000000" stroke="none" 
	d="
M63.002239,27.084225 
	C64.764885,25.887630 66.525688,25.145729 68.805008,24.185358 
	C68.805008,27.087528 68.805008,28.810707 68.805008,30.998493 
	C66.356110,30.391514 62.467197,33.170345 63.002239,27.084225 
z"/>
<path fill="#FEFEFE" opacity="1.000000" stroke="none" 
	d="
M76.916786,35.001534 
	C78.113304,36.764153 78.855110,38.524998 79.815491,40.804680 
	C76.913185,40.804680 75.190071,40.804680 73.002632,40.804680 
	C73.609131,38.355766 70.830757,34.466961 76.916786,35.001534 
z"/>
<path fill="#FEFEFE" opacity="1.000000" stroke="none" 
	d="
M63.383171,35.373631 
	C65.315285,35.055328 66.922272,35.055328 68.762909,35.055328 
	C68.762909,37.000431 68.762909,38.725590 68.762909,40.805527 
	C67.083321,40.880104 65.355408,40.956829 63.058041,41.058834 
	C63.058041,39.147289 63.058041,37.419613 63.383171,35.373631 
z"/>
<path fill="#FEFEFE" opacity="1.000000" stroke="none" 
	d="
M58.999664,37.997185 
	C59.142624,43.393284 55.222694,39.600983 53.345161,42.324547 
	C53.345161,39.106678 53.345161,37.268551 53.345161,34.887138 
	C55.265274,36.013927 58.699722,32.579628 58.999664,37.997185 
z"/>
<path fill="#FEFEFE" opacity="1.000000" stroke="none" 
	d="
M44.166317,35.030399 
	C45.913830,35.003323 47.198357,35.003323 48.740166,35.003323 
	C48.740166,36.952511 48.740166,38.676384 48.740166,40.799797 
	C47.138325,40.879887 45.411465,40.966228 42.894997,41.092049 
	C43.186073,38.919041 43.444702,36.988258 44.166317,35.030399 
z"/>
<path fill="#FEFEFE" opacity="1.000000" stroke="none" 
	d="
M35.997803,34.999645 
	C41.259937,34.919472 37.871254,38.650429 39.573292,40.654266 
	C37.106571,40.654266 35.268787,40.654266 32.888035,40.654266 
	C34.014496,38.734306 30.581308,35.300167 35.997803,34.999645 
z"/>
<path fill="#FEFEFE" opacity="1.000000" stroke="none" 
	d="
M24.165941,35.030254 
	C25.916170,35.003250 27.203386,35.003250 28.740145,35.003250 
	C28.740145,36.953190 28.740145,38.677204 28.740145,40.800621 
	C27.136145,40.880699 25.407644,40.966995 22.895452,41.092415 
	C23.186193,38.919399 23.444561,36.988331 24.165941,35.030254 
z"/>
<path fill="#FEFEFE" opacity="1.000000" stroke="none" 
	d="
M78.616463,30.626396 
	C76.684395,30.944479 75.077606,30.944479 73.237129,30.944479 
	C73.237129,29.000586 73.237129,27.275721 73.237129,25.196043 
	C74.914772,25.121426 76.641136,25.044640 78.941750,24.942314 
	C78.941750,26.853512 78.941750,28.580912 78.616463,30.626396 
z"/>
</svg>