<svg xmlns="http://www.w3.org/2000/svg" xmlns:xlink="http://www.w3.org/1999/xlink" width="378" zoomAndPan="magnify" viewBox="0 0 283.5 283.500005" height="378" preserveAspectRatio="xMidYMid meet" version="1.0"><defs><clipPath id="eedb98927f"><path d="M 0 0 L 283 0 L 283 283 L 0 283 Z M 0 0 " clip-rule="nonzero"/></clipPath><clipPath id="6c84e1b961"><path d="M 18.367188 18.792969 L 264.742188 18.792969 L 264.742188 264.207031 L 18.367188 264.207031 Z M 18.367188 18.792969 " clip-rule="nonzero"/></clipPath><clipPath id="4f6e936ddb"><path d="M 252.113281 264.207031 L 30.886719 264.207031 C 23.988281 264.207031 18.367188 258.585938 18.367188 251.6875 L 18.367188 31.316406 C 18.367188 24.414062 23.988281 18.792969 30.886719 18.792969 L 252.113281 18.792969 C 259.011719 18.792969 264.636719 24.414062 264.636719 31.316406 L 264.636719 251.6875 C 264.636719 258.585938 259.011719 264.207031 252.113281 264.207031 Z M 252.113281 264.207031 " clip-rule="nonzero"/></clipPath><clipPath id="4de5588da5"><path d="M 0.367188 0.792969 L 246.734375 0.792969 L 246.734375 246.207031 L 0.367188 246.207031 Z M 0.367188 0.792969 " clip-rule="nonzero"/></clipPath><clipPath id="b2f312763f"><path d="M 234.113281 246.207031 L 12.886719 246.207031 C 5.988281 246.207031 0.367188 240.585938 0.367188 233.6875 L 0.367188 13.316406 C 0.367188 6.414062 5.988281 0.792969 12.886719 0.792969 L 234.113281 0.792969 C 241.011719 0.792969 246.636719 6.414062 246.636719 13.316406 L 246.636719 233.6875 C 246.636719 240.585938 241.011719 246.207031 234.113281 246.207031 Z M 234.113281 246.207031 " clip-rule="nonzero"/></clipPath><clipPath id="1015ef6d71"><rect x="0" width="247" y="0" height="247"/></clipPath><clipPath id="6a78aa3714"><path d="M 218.175781 138.152344 L 224.914062 138.152344 L 224.914062 144.890625 L 218.175781 144.890625 Z M 218.175781 138.152344 " clip-rule="nonzero"/></clipPath><clipPath id="4a69db2882"><path d="M 28.300781 28.324219 L 158.585938 28.324219 L 158.585938 205.011719 L 28.300781 205.011719 Z M 28.300781 28.324219 " clip-rule="nonzero"/></clipPath><clipPath id="b27b2539af"><path d="M 113.425781 24.953125 L 257.9375 24.953125 L 257.9375 201.660156 L 113.425781 201.660156 Z M 113.425781 24.953125 " clip-rule="nonzero"/></clipPath><clipPath id="215ff71a35"><rect x="0" width="283" y="0" height="283"/></clipPath></defs><path fill="#ffffff" d="M 0 0 L 283 0 L 283 283 L 0 283 Z M 0 0 " fill-opacity="1" fill-rule="nonzero"/><g transform="matrix(1, 0, 0, 1, 0, 0.000000000000005262)"><g clip-path="url(#215ff71a35)"><g clip-path="url(#eedb98927f)"><rect x="-62.37" width="408.24" fill="#ffffff" height="408.240007" y="-62.370001" fill-opacity="1"/></g><g clip-path="url(#6c84e1b961)"><g clip-path="url(#4f6e936ddb)"><g transform="matrix(1, 0, 0, 1, 18, 18)"><g clip-path="url(#1015ef6d71)"><g clip-path="url(#4de5588da5)"><g clip-path="url(#b2f312763f)"><path fill="#ffffff" d="M 0.367188 0.792969 L 246.742188 0.792969 L 246.742188 246.207031 L 0.367188 246.207031 Z M 0.367188 0.792969 " fill-opacity="1" fill-rule="nonzero"/></g></g></g></g></g></g><g clip-path="url(#6a78aa3714)"><path fill="#b1d4e0" d="M 221.503906 144.851562 C 221.464844 144.851562 221.433594 144.839844 221.40625 144.8125 L 218.207031 141.609375 C 218.136719 141.542969 218.136719 141.476562 218.207031 141.410156 L 221.40625 138.210938 C 221.472656 138.144531 221.539062 138.144531 221.605469 138.210938 L 224.808594 141.414062 C 224.875 141.480469 224.875 141.546875 224.808594 141.613281 L 221.605469 144.8125 C 221.578125 144.839844 221.542969 144.851562 221.503906 144.851562 Z M 221.503906 144.851562 " fill-opacity="1" fill-rule="nonzero"/></g><path fill="#0248ac" d="M 133.425781 134.617188 C 134.800781 137.746094 136.175781 140.875 137.550781 144.003906 C 138.851562 146.96875 143.1875 144.40625 141.894531 141.464844 C 140.523438 138.335938 139.144531 135.207031 137.773438 132.078125 C 136.46875 129.113281 132.132812 131.675781 133.425781 134.617188 " fill-opacity="1" fill-rule="nonzero"/><g clip-path="url(#4a69db2882)"><path fill="#0248ac" d="M 81.574219 199.476562 C 77.292969 198.859375 73.0625 197.941406 68.894531 196.761719 C 69.023438 195.566406 69.152344 194.371094 69.28125 193.171875 C 73.71875 194.378906 78.339844 195.054688 82.867188 195.582031 C 94.605469 196.941406 106.621094 196.148438 118.042969 193.121094 C 118.175781 194.363281 118.3125 195.605469 118.445312 196.847656 C 106.625 200.21875 94.191406 201.292969 81.574219 199.476562 Z M 35.261719 180.414062 C 34.972656 180.203125 34.6875 179.992188 34.402344 179.78125 C 34.324219 179.71875 34.023438 179.492188 33.847656 179.359375 C 34.472656 177.9375 35.097656 176.515625 35.722656 175.09375 C 41.972656 179.292969 48.457031 183.398438 55.292969 186.535156 C 54.632812 188.011719 53.972656 189.492188 53.316406 190.972656 C 47.75 188.390625 42.398438 185.34375 37.355469 181.890625 C 36.648438 181.410156 35.953125 180.914062 35.261719 180.414062 Z M 64.097656 194.585938 C 62.21875 194.257812 60.347656 193.769531 58.652344 192.933594 C 58.53125 192.875 58.300781 192.738281 58.070312 192.59375 C 60.820312 186.414062 63.566406 180.234375 66.316406 174.054688 C 65.578125 180.894531 64.839844 187.738281 64.097656 194.585938 Z M 129.269531 192.609375 C 129.1875 192.65625 129.105469 192.707031 129.03125 192.75 C 127.292969 193.738281 125.25 194.261719 123.234375 194.59375 C 122.492188 187.75 121.753906 180.898438 121.015625 174.050781 C 123.769531 180.238281 126.519531 186.421875 129.269531 192.609375 Z M 153.066406 179.316406 C 147.0625 183.839844 140.675781 187.753906 134 190.941406 C 133.296875 189.351562 132.589844 187.765625 131.882812 186.175781 C 138.617188 183.117188 145 179.066406 151.117188 174.882812 C 151.765625 176.359375 152.417969 177.839844 153.066406 179.316406 Z M 51.457031 32.097656 C 57.546875 32.097656 63.640625 32.097656 69.730469 32.097656 C 69.996094 34.378906 71.125 36.738281 72.160156 38.570312 C 76.664062 46.5625 85.195312 52.03125 93.039062 56.261719 C 94.8125 57.21875 97.878906 54.964844 99.417969 54.15625 C 101.6875 52.96875 103.851562 51.546875 105.859375 49.953125 C 109.097656 47.398438 111.882812 44.394531 114.117188 40.921875 C 115.808594 38.300781 117.253906 35.230469 117.90625 32.097656 C 123.765625 32.097656 129.621094 32.097656 135.476562 32.097656 C 135.054688 36.542969 134.628906 40.988281 134.203125 45.433594 C 111.011719 54.691406 87.820312 63.949219 64.628906 73.207031 C 61.660156 74.386719 58.699219 75.574219 55.730469 76.757812 C 54.660156 65.582031 53.59375 54.40625 52.519531 43.230469 C 52.164062 39.519531 51.8125 35.808594 51.457031 32.097656 Z M 59.070312 111.597656 C 82 111.597656 104.933594 111.597656 127.867188 111.597656 C 127.730469 113.039062 127.589844 114.480469 127.453125 115.921875 C 104.929688 115.921875 82.410156 115.921875 59.890625 115.921875 C 59.753906 115.921875 59.617188 115.921875 59.480469 115.921875 C 59.34375 114.480469 59.207031 113.039062 59.070312 111.597656 Z M 132.433594 63.910156 C 132.199219 63.910156 131.960938 63.949219 131.734375 64.039062 C 128.851562 65.175781 125.972656 66.3125 123.089844 67.449219 C 121.816406 67.953125 120.9375 69.113281 121.332031 70.546875 C 121.667969 71.761719 123.148438 72.804688 124.425781 72.304688 C 126.921875 71.316406 129.417969 70.332031 131.910156 69.347656 C 130.765625 81.324219 129.617188 93.304688 128.472656 105.28125 C 128.429688 105.710938 128.390625 106.136719 128.347656 106.566406 C 105.300781 106.566406 82.25 106.566406 59.199219 106.566406 C 59.101562 106.566406 59.003906 106.566406 58.902344 106.566406 C 58.792969 106.566406 58.691406 106.570312 58.585938 106.582031 C 58.332031 103.914062 58.078125 101.246094 57.820312 98.578125 C 57.898438 98.554688 57.980469 98.527344 58.0625 98.496094 C 77.800781 90.707031 97.539062 82.914062 117.277344 75.125 C 120.261719 73.945312 118.964844 69.078125 115.941406 70.269531 C 96.402344 77.980469 76.863281 85.691406 57.324219 93.40625 C 56.957031 89.566406 56.589844 85.726562 56.222656 81.882812 C 56.398438 81.855469 56.585938 81.804688 56.773438 81.726562 C 80.039062 72.441406 103.300781 63.15625 126.5625 53.871094 C 128.929688 52.925781 131.296875 51.980469 133.664062 51.035156 C 133.253906 55.328125 132.84375 59.617188 132.433594 63.910156 Z M 158.316406 178.839844 C 153.875 168.726562 149.429688 158.613281 144.988281 148.5 C 143.683594 145.535156 139.351562 148.097656 140.640625 151.039062 C 143.449219 157.429688 146.257812 163.816406 149.0625 170.207031 C 142.949219 174.402344 136.574219 178.484375 129.847656 181.597656 C 126.226562 173.460938 122.605469 165.320312 118.988281 157.179688 C 117.988281 154.933594 114.035156 156.011719 114.300781 158.453125 C 115.363281 168.320312 116.429688 178.1875 117.496094 188.058594 C 106.429688 191.078125 94.964844 191.792969 83.546875 190.621094 C 78.976562 190.152344 74.285156 189.402344 69.828125 188.109375 C 70.898438 178.222656 71.964844 168.335938 73.035156 158.453125 C 73.296875 156.011719 69.339844 154.933594 68.34375 157.179688 C 64.671875 165.4375 61 173.699219 57.328125 181.953125 C 50.503906 178.765625 44.023438 174.632812 37.777344 170.421875 C 45.019531 153.933594 52.265625 137.445312 59.511719 120.957031 C 82.023438 120.957031 104.535156 120.957031 127.046875 120.957031 C 127.171875 120.957031 127.296875 120.957031 127.425781 120.957031 C 128.316406 122.984375 129.207031 125.015625 130.097656 127.046875 C 131.402344 130.007812 135.738281 127.445312 134.445312 124.503906 C 133.371094 122.058594 132.296875 119.613281 131.222656 117.167969 C 131.195312 117.109375 131.15625 117.054688 131.125 116.996094 C 133.476562 92.40625 135.832031 67.820312 138.1875 43.230469 C 138.601562 38.890625 139.019531 34.550781 139.433594 30.210938 C 139.53125 29.183594 138.5 28.324219 137.546875 28.324219 C 130.46875 28.324219 123.390625 28.324219 116.3125 28.324219 C 115.339844 28.324219 114.761719 28.929688 114.570312 29.65625 C 114.511719 29.792969 114.472656 29.945312 114.445312 30.105469 C 114.449219 30.074219 114.441406 30.117188 114.382812 30.441406 C 114.277344 31.027344 114.132812 31.609375 113.972656 32.1875 C 113.382812 34.324219 112.449219 36.328125 111.339844 38.238281 C 107.464844 44.890625 101.011719 49.449219 94.097656 52.542969 C 86.976562 48.640625 79.601562 43.800781 75.417969 36.664062 C 74.230469 34.640625 73.234375 32.199219 73.5 30.210938 C 73.636719 29.1875 72.539062 28.324219 71.613281 28.324219 C 64.207031 28.324219 56.796875 28.324219 49.386719 28.324219 C 48.433594 28.324219 47.402344 29.183594 47.5 30.210938 C 49.898438 55.234375 52.292969 80.257812 54.691406 105.28125 C 55.0625 109.1875 55.4375 113.09375 55.8125 116.996094 C 55.777344 117.054688 55.738281 117.109375 55.714844 117.167969 C 48.027344 134.667969 40.339844 152.164062 32.648438 169.660156 C 32.421875 169.980469 32.257812 170.355469 32.171875 170.746094 C 30.988281 173.441406 29.804688 176.140625 28.617188 178.832031 C 28.617188 178.835938 28.617188 178.835938 28.617188 178.839844 C 28.183594 179.828125 28.089844 181.101562 29.007812 181.886719 C 36.453125 188.265625 45.484375 193.125 54.449219 196.933594 C 73.972656 205.234375 95.46875 207.726562 116.210938 202.828125 C 131.550781 199.207031 145.542969 191.484375 157.921875 181.886719 C 158.875 181.152344 158.734375 179.78125 158.316406 178.839844 " fill-opacity="1" fill-rule="nonzero"/></g><g clip-path="url(#b27b2539af)"><path fill="#ffffff" d="M 149.664062 87.273438 L 139.011719 94.890625 C 138.300781 95.398438 137.324219 95.324219 136.707031 94.710938 L 114.1875 72.4375 C 113.503906 71.757812 113.476562 70.664062 114.125 69.953125 C 114.125 69.953125 139.808594 41.867188 145.632812 36.695312 C 150.921875 32.003906 157.519531 26.773438 168.121094 24.984375 C 168.3125 24.949219 168.5 24.949219 168.679688 24.976562 C 168.761719 24.964844 168.851562 24.957031 168.9375 24.957031 L 202.628906 24.957031 C 202.71875 24.957031 202.804688 24.964844 202.886719 24.976562 C 203.070312 24.949219 203.257812 24.949219 203.445312 24.984375 C 214.046875 26.773438 220.644531 32.003906 225.933594 36.695312 C 231.757812 41.867188 257.441406 69.953125 257.441406 69.953125 C 258.09375 70.664062 258.066406 71.757812 257.378906 72.4375 L 234.863281 94.710938 C 234.242188 95.324219 233.269531 95.398438 232.558594 94.890625 L 221.933594 87.292969 C 221.828125 89.148438 221.722656 91.019531 221.621094 92.894531 L 221.621094 130.714844 C 221.621094 131.027344 221.539062 131.320312 221.402344 131.578125 C 222.324219 141.433594 226.429688 199.503906 226.429688 199.503906 C 226.464844 199.996094 226.296875 200.480469 225.960938 200.84375 C 225.628906 201.207031 225.160156 201.417969 224.667969 201.425781 L 190.492188 201.964844 C 189.578125 201.976562 188.800781 201.304688 188.683594 200.394531 L 185.785156 177.515625 L 182.882812 200.394531 C 182.769531 201.304688 181.988281 201.976562 181.078125 201.964844 L 146.898438 201.425781 C 146.40625 201.417969 145.941406 201.207031 145.605469 200.84375 C 145.273438 200.480469 145.105469 199.996094 145.136719 199.503906 C 145.136719 199.503906 149.242188 141.433594 150.167969 131.578125 C 150.027344 131.320312 149.945312 131.027344 149.945312 130.714844 C 149.945312 130.628906 149.953125 130.542969 149.964844 130.457031 C 149.953125 130.371094 149.945312 130.285156 149.945312 130.199219 L 149.945312 92.378906 C 149.855469 90.667969 149.757812 88.964844 149.664062 87.273438 Z M 149.664062 87.273438 " fill-opacity="1" fill-rule="evenodd"/><path fill="#0248ac" d="M 149.664062 87.273438 L 139.011719 94.890625 C 138.300781 95.398438 137.324219 95.324219 136.707031 94.710938 L 114.1875 72.4375 C 113.503906 71.757812 113.476562 70.664062 114.125 69.953125 C 114.125 69.953125 139.808594 41.867188 145.632812 36.695312 C 150.921875 32.003906 157.519531 26.773438 168.121094 24.984375 C 168.3125 24.949219 168.5 24.949219 168.679688 24.976562 C 168.761719 24.964844 168.851562 24.957031 168.9375 24.957031 L 202.628906 24.957031 C 202.71875 24.957031 202.804688 24.964844 202.886719 24.976562 C 203.070312 24.949219 203.257812 24.949219 203.445312 24.984375 C 214.046875 26.773438 220.644531 32.003906 225.933594 36.695312 C 231.757812 41.867188 257.441406 69.953125 257.441406 69.953125 C 258.09375 70.664062 258.066406 71.757812 257.378906 72.4375 L 234.863281 94.710938 C 234.242188 95.324219 233.269531 95.398438 232.558594 94.890625 L 221.933594 87.292969 C 221.828125 89.148438 221.722656 91.019531 221.621094 92.894531 L 221.621094 130.714844 C 221.621094 131.027344 221.539062 131.320312 221.402344 131.578125 C 222.324219 141.433594 226.429688 199.503906 226.429688 199.503906 C 226.464844 199.996094 226.296875 200.480469 225.960938 200.84375 C 225.628906 201.207031 225.160156 201.417969 224.667969 201.425781 L 190.492188 201.964844 C 189.578125 201.976562 188.800781 201.304688 188.683594 200.394531 L 185.785156 177.515625 L 182.882812 200.394531 C 182.769531 201.304688 181.988281 201.976562 181.078125 201.964844 L 146.898438 201.425781 C 146.40625 201.417969 145.941406 201.207031 145.605469 200.84375 C 145.273438 200.480469 145.105469 199.996094 145.136719 199.503906 C 145.136719 199.503906 149.242188 141.433594 150.167969 131.578125 C 150.027344 131.320312 149.945312 131.027344 149.945312 130.714844 C 149.945312 130.628906 149.953125 130.542969 149.964844 130.457031 C 149.953125 130.371094 149.945312 130.285156 149.945312 130.199219 L 149.945312 92.378906 C 149.855469 90.667969 149.757812 88.964844 149.664062 87.273438 Z M 156.417969 33.015625 C 153.46875 34.761719 151 36.769531 148.785156 38.703125 C 150.738281 49.652344 152.019531 66.207031 153.078125 84.210938 C 155.390625 79.183594 158.3125 71.601562 159.269531 62.894531 C 160.597656 50.804688 157.507812 37.269531 156.417969 33.015625 Z M 145.640625 41.644531 C 140.066406 47.175781 129.15625 58.917969 122.460938 66.179688 L 143.894531 86.988281 L 149 83.335938 C 149.132812 83.242188 149.273438 83.167969 149.417969 83.113281 C 148.460938 67 147.316406 52.152344 145.640625 41.644531 Z M 199.832031 28.546875 L 171.734375 28.546875 L 185.785156 40.964844 Z M 222.179688 83.125 C 222.3125 83.175781 222.445312 83.246094 222.566406 83.335938 L 227.675781 86.988281 L 249.105469 66.179688 C 242.441406 58.949219 231.597656 47.273438 225.996094 41.714844 C 224.300781 52.140625 223.144531 66.980469 222.179688 83.125 Z M 222.863281 38.773438 C 220.628906 36.816406 218.132812 34.78125 215.152344 33.015625 C 214.058594 37.269531 210.96875 50.804688 212.296875 62.894531 C 213.261719 71.632812 216.203125 79.242188 218.515625 84.269531 C 219.585938 66.199219 220.878906 49.625 222.863281 38.773438 Z M 218.035156 128.921875 L 218.035156 123.035156 L 153.535156 123.035156 L 153.535156 128.921875 Z M 218.035156 119.449219 L 218.035156 92.042969 C 218.035156 91.871094 218.058594 91.703125 218.101562 91.546875 C 218.101562 91.535156 218.101562 91.519531 218.101562 91.503906 C 218.101562 91.503906 218.101562 91.5 218.101562 91.496094 C 217.699219 90.074219 210.386719 78.308594 208.734375 63.285156 C 207.859375 55.359375 208.800781 46.835938 209.90625 40.488281 C 203.046875 52.585938 194.574219 66.152344 187.3125 73.5 C 187.308594 73.503906 187.300781 73.507812 187.296875 73.515625 C 186.597656 74.203125 185.472656 74.203125 184.773438 73.515625 C 184.769531 73.507812 184.765625 73.503906 184.761719 73.5 C 177.496094 66.152344 168.578125 52.574219 161.660156 40.472656 C 162.761719 46.820312 163.707031 55.351562 162.835938 63.285156 C 161.234375 77.835938 154.324219 89.332031 153.523438 91.332031 C 153.53125 91.394531 153.535156 91.457031 153.535156 91.523438 L 153.535156 119.449219 Z M 153.683594 132.507812 C 152.789062 142.4375 149.550781 187.996094 148.851562 197.867188 L 179.527344 198.351562 L 183.871094 164.070312 C 183.992188 163.117188 184.839844 162.433594 185.785156 162.503906 C 186.726562 162.433594 187.574219 163.117188 187.695312 164.070312 L 192.042969 198.351562 C 198.5625 198.25 222.71875 197.867188 222.71875 197.867188 C 222.015625 187.996094 218.78125 142.4375 217.882812 132.507812 Z M 178.464844 47.039062 L 171.890625 48.6875 C 171.476562 48.789062 171.046875 48.738281 170.675781 48.5625 C 172.933594 52.171875 175.28125 55.726562 177.621094 59.023438 L 179.277344 50.226562 C 178.769531 49.371094 178.488281 48.320312 178.464844 47.039062 Z M 189.433594 46.121094 L 185.785156 45.207031 L 182.082031 46.136719 C 181.953125 47.226562 182.011719 48.058594 182.53125 48.621094 C 183.207031 49.351562 184.433594 49.527344 186.210938 49.542969 C 186.757812 49.546875 187.648438 49.558594 188.117188 49.253906 C 188.78125 48.820312 189.015625 48.148438 189.183594 47.472656 C 189.289062 47.023438 189.363281 46.566406 189.433594 46.121094 Z M 201.082031 48.457031 C 200.667969 48.71875 200.164062 48.808594 199.675781 48.6875 L 192.910156 46.992188 C 192.722656 48.015625 192.488281 49.070312 192.023438 50.023438 L 194.058594 59.335938 C 196.425781 55.921875 198.792969 52.21875 201.082031 48.457031 Z M 180.523438 62.984375 C 182.410156 65.464844 184.261719 67.71875 186.035156 69.636719 C 187.742188 67.777344 189.503906 65.597656 191.289062 63.203125 C 191.222656 63.074219 191.175781 62.9375 191.144531 62.789062 L 188.945312 52.75 C 188.03125 53.023438 186.953125 53.136719 186.179688 53.128906 C 184.710938 53.117188 183.484375 52.9375 182.480469 52.613281 Z M 189.523438 42.445312 L 199.453125 44.933594 L 210.222656 31.957031 L 204.019531 29.628906 Z M 182.042969 42.445312 L 167.546875 29.628906 L 161.34375 31.957031 L 172.113281 44.933594 Z M 140.929688 89.109375 L 120.03125 68.820312 C 119.1875 69.738281 118.476562 70.511719 117.9375 71.101562 L 138.152344 91.09375 Z M 251.535156 68.820312 L 230.640625 89.109375 L 233.414062 91.09375 L 253.632812 71.101562 C 253.089844 70.511719 252.378906 69.738281 251.535156 68.820312 Z M 251.535156 68.820312 " fill-opacity="1" fill-rule="evenodd"/></g></g></g></svg>