<svg version="1.1" id="Layer_1" xmlns="http://www.w3.org/2000/svg" xmlns:xlink="http://www.w3.org/1999/xlink" x="0px" y="0px"
	 width="100%" viewBox="0 0 496 496" enable-background="new 0 0 512 512" xml:space="preserve">
<path fill="currentColor" opacity="1.000000" stroke="currentColor" stroke-width="5.000000"
	d="
M29.588987,227.467407 
	C26.200191,225.290649 23.079388,223.362488 20.064779,221.280548 
	C15.298928,217.989166 14.265529,213.821213 17.150429,208.745010 
	C31.801455,182.965378 46.489677,157.206757 61.227039,131.476395 
	C68.594589,118.613182 75.944305,105.735550 83.576439,93.029221 
	C91.595337,79.678986 103.937920,72.343697 118.780258,68.724098 
	C135.095795,64.745224 151.389435,60.676048 167.714905,56.738663 
	C171.125931,55.915985 173.635880,54.248375 175.712631,51.341751 
	C181.425262,43.346306 187.500381,35.610229 193.233124,27.628632 
	C195.599762,24.333611 198.510178,22.811058 202.506180,22.815256 
	C235.005890,22.849411 267.505646,22.842932 300.005402,22.817400 
	C303.791351,22.814426 306.684723,24.218380 308.953461,27.318329 
	C314.955505,35.519318 321.169525,43.566032 327.114471,51.807415 
	C328.885895,54.263123 330.961121,55.736084 333.862091,56.446747 
	C350.014771,60.403759 366.073700,64.774773 382.304993,68.371254 
	C400.633026,72.432335 413.664673,82.902710 422.726562,99.056839 
	C434.869385,120.703194 447.251282,142.215485 459.538788,163.780624 
	C467.868530,178.399719 476.239807,192.995239 484.537964,207.632248 
	C488.331543,214.323730 487.367889,218.371689 481.005554,222.366287 
	C458.572815,236.450623 436.116730,250.497849 413.651489,264.530334 
	C406.039368,269.285126 402.199890,268.217316 398.016876,260.386566 
	C392.367065,249.809891 386.686981,239.249374 381.006348,228.689224 
	C380.780731,228.269791 380.415558,227.925400 379.138367,226.311096 
	C379.138367,230.076813 379.138184,232.608917 379.138397,235.141022 
	C379.144409,298.973602 379.154266,362.806183 379.141113,426.638763 
	C379.140656,428.962280 379.168915,431.334290 378.737823,433.598785 
	C377.921692,437.885956 375.299133,440.323639 370.738770,440.294037 
	C369.905518,440.288605 369.072174,440.305664 368.238861,440.305664 
	C290.572815,440.304474 212.906738,440.305786 135.240677,440.296967 
	C125.605103,440.295898 123.636414,438.289307 123.636612,428.514191 
	C123.637955,363.348053 123.647293,298.181915 123.653984,233.015793 
	C123.654198,230.907898 123.654015,228.800003 123.654015,226.343002 
	C121.527367,227.429062 121.161469,229.128815 120.421623,230.509720 
	C114.914375,240.788849 109.489899,251.112427 103.962204,261.380493 
	C100.461662,267.882996 95.936333,269.111328 89.572266,265.134888 
	C69.652191,252.688339 49.789520,240.149887 29.588987,227.467407 
M219.088699,118.866020 
	C215.289764,117.640060 212.556808,115.010231 210.005646,112.089279 
	C199.487091,100.046196 188.848587,88.106270 178.458511,75.953705 
	C175.711090,72.740219 173.132828,71.935402 168.950592,73.042015 
	C154.808731,76.783951 140.576660,80.210030 126.305618,83.431419 
	C113.230278,86.382904 102.435822,92.258125 95.572304,104.358360 
	C76.099510,138.688492 56.522522,172.959869 36.852448,207.177261 
	C34.950668,210.485550 35.651531,211.936371 38.702152,213.827942 
	C55.686768,224.359451 72.537003,235.107635 89.443649,245.765121 
	C90.394958,246.364807 91.306572,247.260818 93.154221,246.528564 
	C94.005974,245.058975 95.135742,243.233566 96.147217,241.344772 
	C103.772507,227.105789 111.287399,212.806763 119.027672,198.630707 
	C122.029808,193.132385 124.227028,187.684448 123.775673,181.165771 
	C123.417030,175.986053 126.899834,172.743469 131.549377,172.733337 
	C136.497406,172.722549 139.502609,176.004181 139.511963,181.556763 
	C139.577530,220.538254 139.681351,259.519806 139.662140,298.501312 
	C139.642365,338.640198 139.570358,378.779541 139.310654,418.917297 
	C139.279312,423.759430 141.116028,424.743011 145.482376,424.722321 
	C175.803177,424.578552 206.125748,424.538330 236.445679,424.756165 
	C241.478821,424.792358 242.999908,423.385376 242.978424,418.295776 
	C242.799911,375.979736 242.856873,333.662537 242.950882,291.345917 
	C242.958130,288.087738 241.956039,285.651825 239.766815,283.324799 
	C234.745819,277.987732 230.117722,272.268158 224.934387,267.100830 
	C220.931061,263.109863 220.248016,258.638397 220.909012,253.398285 
	C221.968719,244.997467 222.811005,236.567322 223.628876,228.138275 
	C225.522766,208.619400 227.309357,189.090057 229.214279,169.572281 
	C230.279404,158.658981 231.603821,147.770355 232.605774,136.851746 
	C233.374451,128.475281 226.994446,119.793800 219.088699,118.866020 
M306.499939,424.649750 
	C322.659180,424.646301 338.818390,424.643555 354.977631,424.639099 
	C362.658447,424.636963 362.671692,424.635498 362.671875,417.064941 
	C362.673706,339.765747 362.667480,262.466583 362.685059,185.167389 
	C362.685608,182.692490 362.388733,180.190323 363.447174,177.779388 
	C364.867096,174.544998 367.226318,172.739182 370.762634,172.745270 
	C374.485596,172.751678 377.171295,174.498093 378.285339,178.118240 
	C378.815399,179.840591 379.260986,181.731323 379.112976,183.492691 
	C378.702972,188.371140 380.237946,192.568130 382.514923,196.780228 
	C390.986023,212.450333 399.264526,228.224487 407.646576,243.942886 
	C408.319122,245.204071 408.674561,246.841415 410.865479,247.193741 
	C429.589935,235.360474 448.542633,223.382996 467.532196,211.382202 
	C467.122070,210.251770 466.984375,209.594330 466.667664,209.039017 
	C446.703430,174.037750 426.804626,138.998718 406.696381,104.080315 
	C400.970123,94.136513 392.439392,87.613510 381.036072,84.919769 
	C365.349487,81.214226 349.668549,77.450394 334.119476,73.218056 
	C329.309967,71.908951 326.449280,72.965370 323.367249,76.611176 
	C313.155243,88.691109 302.641541,100.515755 292.264526,112.456573 
	C289.347809,115.812843 285.962158,118.412849 281.488007,119.216316 
	C276.706482,120.074997 269.308624,128.963638 269.701843,133.869888 
	C270.538055,144.304321 271.520691,154.728104 272.548462,165.145874 
	C274.097229,180.844299 275.735565,196.533920 277.336578,212.227188 
	C278.550171,224.122543 279.514404,236.050476 281.060791,247.902435 
	C282.236938,256.916870 281.741211,264.825836 273.896759,271.219635 
	C269.307343,274.960358 265.866547,280.090118 261.770172,284.464935 
	C259.920868,286.439941 259.279083,288.580200 259.282501,291.233490 
	C259.337402,334.047821 259.378113,376.862427 259.251526,419.676422 
	C259.239380,423.783295 260.740082,424.763489 264.518829,424.717590 
	C278.177429,424.551575 291.839294,424.650665 306.499939,424.649750 
M245.198074,265.290894 
	C247.238312,267.186890 248.610977,269.798615 251.586243,271.272308 
	C254.185898,268.493042 256.581848,265.492096 259.421082,262.995209 
	C264.126373,258.857269 265.684753,253.922729 264.709045,247.824493 
	C263.974731,243.235092 263.672852,238.574646 263.228210,233.941055 
	C261.353699,214.407013 259.556061,194.865402 257.612885,175.338242 
	C256.493622,164.091125 255.152985,152.866013 253.904495,141.631821 
	C253.713776,139.915726 253.477570,138.206268 251.109390,138.311859 
	C248.901505,138.410309 248.496735,139.919373 248.325806,141.732162 
	C247.685883,148.518723 247.002869,155.301300 246.317581,162.083511 
	C244.763092,177.468109 243.169342,192.848785 241.644760,208.236343 
	C240.185760,222.962021 238.806198,237.695541 237.361496,252.422668 
	C237.101257,255.075531 237.739090,257.283569 239.714783,259.197815 
	C241.503845,260.931213 243.059296,262.905792 245.198074,265.290894 
M202.121765,78.385674 
	C208.382599,85.502586 214.630417,92.631035 220.914764,99.727127 
	C222.243073,101.227005 223.698654,103.050087 225.823914,100.868004 
	C230.309998,96.262016 234.705460,91.567772 239.469971,86.561020 
	C227.063339,72.564697 214.574509,58.475643 201.670609,43.918339 
	C197.284348,49.771660 193.544891,54.831360 189.722061,59.827274 
	C188.302002,61.683071 188.838745,63.120541 190.205414,64.672455 
	C194.051682,69.040070 197.834747,73.463348 202.121765,78.385674 
M270.996521,95.508331 
	C272.665375,97.129265 274.319672,98.765488 276.007019,100.366959 
	C277.796021,102.064934 279.547791,101.983269 281.166779,100.120964 
	C291.631622,88.083313 302.088837,76.039024 312.549042,63.997326 
	C313.521667,62.877644 313.864868,61.648247 312.939758,60.371510 
	C309.076813,55.040421 305.180267,49.733730 301.394043,44.552238 
	C298.741211,45.592693 297.578369,47.271706 296.283386,48.740883 
	C287.494904,58.711624 278.763092,68.732315 269.989441,78.716194 
	C262.593048,87.132851 262.579010,87.120499 270.996521,95.508331 
M239.058640,61.457222 
	C243.004852,65.872437 246.951080,70.287651 251.275848,75.126404 
	C261.885986,63.073063 271.983582,51.601986 282.811615,39.301079 
	C261.237030,39.301079 241.154434,39.301079 219.691116,39.301079 
	C226.618973,47.232960 232.601532,54.082550 239.058640,61.457222 
M243.618668,118.007370 
	C246.115631,121.475739 251.464233,123.033089 255.432098,121.447105 
	C257.501068,120.620132 262.776276,112.808266 262.405243,110.907745 
	C262.257416,110.150688 261.732941,109.375015 261.177307,108.805511 
	C258.619934,106.184410 255.998657,103.625298 253.382782,101.061829 
	C252.664871,100.358299 251.727310,99.467987 250.780731,100.113777 
	C246.769974,102.850075 243.031662,106.092804 240.359024,110.051537 
	C238.428436,112.911156 242.467545,114.796570 243.618668,118.007370 
z"/>
<path fill="currentColor" opacity="1.000000" stroke="currentColor" stroke-width="5.000000"
	d="
M350.218567,204.686432 
	C348.888855,208.573898 346.415863,210.934402 343.227570,212.650024 
	C337.656921,215.647598 332.048035,218.577835 326.538361,221.683777 
	C322.817078,223.781586 319.314392,223.728622 315.710571,221.478073 
	C310.342804,218.125946 304.907715,214.881836 299.526733,211.550598 
	C295.680634,209.169540 293.727295,205.633408 293.711212,201.145187 
	C293.662354,187.484314 293.572998,173.821747 293.738007,160.162720 
	C293.827332,152.767670 299.075836,147.768295 306.545441,147.691223 
	C316.873444,147.584671 327.203888,147.604385 337.532349,147.687225 
	C344.796600,147.745514 349.403748,151.597275 350.492249,158.909882 
	C351.796997,167.675446 350.882721,176.533875 350.947601,185.348999 
	C350.994080,191.661301 351.578705,198.013611 350.218567,204.686432 
M330.601898,200.977203 
	C333.592834,199.831528 334.807190,197.820755 334.725037,194.472443 
	C334.509247,185.676422 334.557526,176.870224 334.695190,168.071136 
	C334.748322,164.674973 333.551941,163.234772 330.060516,163.363007 
	C325.085358,163.545761 320.084778,163.637482 315.120911,163.338715 
	C311.013702,163.091537 309.978149,164.873672 310.074371,168.608170 
	C310.266754,176.076080 310.607758,183.590530 310.000427,191.013214 
	C309.486359,197.296127 312.090149,200.459717 317.243042,203.548004 
	C322.723022,206.832336 325.898529,202.936386 330.601898,200.977203 
z"/>
</svg>