<svg version="1.1" id="Layer_1" xmlns="http://www.w3.org/2000/svg" xmlns:xlink="http://www.w3.org/1999/xlink" x="0px" y="0px"
	 width="100%" viewBox="0 0 100 100" enable-background="new 0 0 100 100" xml:space="preserve">
<path fill="#FCFCFC" opacity="1.000000" stroke="none" 
	d="
M1.000000,41.000000 
	C1.000000,27.333338 1.000000,14.166675 1.000000,1.000009 
	C34.333321,1.000006 67.666641,1.000006 100.999969,1.000003 
	C100.999985,34.333309 100.999985,67.666618 100.999992,100.999954 
	C67.666702,100.999969 34.333401,100.999969 1.000051,100.999985 
	C1.000000,81.166664 1.000000,61.333332 1.000000,41.000000 
M78.394669,14.068478 
	C67.269920,6.082423 55.005726,3.295905 41.537083,5.976657 
	C16.565069,10.946998 0.376850,36.340836 6.144868,61.503525 
	C11.845455,86.372047 38.049564,102.319695 62.514725,95.502914 
	C80.191635,90.577560 91.757195,78.978516 95.760590,61.117863 
	C99.959320,42.385708 93.822075,26.710182 78.394669,14.068478 
z"/>
<path fill="#0F0F0F" opacity="1.000000" stroke="none" 
	d="
M78.677353,14.289921 
	C93.822075,26.710182 99.959320,42.385708 95.760590,61.117863 
	C91.757195,78.978516 80.191635,90.577560 62.514725,95.502914 
	C38.049564,102.319695 11.845455,86.372047 6.144868,61.503525 
	C0.376850,36.340836 16.565069,10.946998 41.537083,5.976657 
	C55.005726,3.295905 67.269920,6.082423 78.677353,14.289921 
M60.113819,10.044467 
	C59.619347,9.973768 59.121540,9.921009 58.630882,9.829782 
	C40.126961,6.389331 21.661091,15.606739 13.374492,32.423336 
	C5.144904,49.124233 8.886468,69.291992 22.535570,81.803391 
	C36.470078,94.576393 57.028049,96.775536 72.872322,86.724274 
	C87.537750,77.420845 94.574364,63.651829 92.577827,46.486309 
	C90.382439,27.611261 79.234306,15.532620 60.113819,10.044467 
z"/>
<path fill="#FDFDFD" opacity="1.000000" stroke="none" 
	d="
M60.525478,10.113859 
	C79.234306,15.532620 90.382439,27.611261 92.577827,46.486309 
	C94.574364,63.651829 87.537750,77.420845 72.872322,86.724274 
	C57.028049,96.775536 36.470078,94.576393 22.535570,81.803391 
	C8.886468,69.291992 5.144904,49.124233 13.374492,32.423336 
	C21.661091,15.606739 40.126961,6.389331 58.630882,9.829782 
	C59.121540,9.921009 59.619347,9.973768 60.525478,10.113859 
M55.170517,23.383945 
	C52.625412,22.750294 49.911613,21.235968 47.573662,21.683790 
	C43.811283,22.404457 42.098179,26.924738 43.460930,30.387196 
	C44.881287,33.996017 48.886898,35.886776 52.326668,34.572060 
	C56.551670,32.957222 57.814705,28.975878 55.170517,23.383945 
M44.061295,45.339954 
	C45.628616,40.396294 44.187893,36.545055 40.060097,35.348083 
	C36.151852,34.214779 33.234615,35.829906 31.588636,39.433624 
	C30.057121,42.786739 31.246557,45.683781 34.072090,47.663750 
	C37.655464,50.174778 40.922615,49.164566 44.061295,45.339954 
z"/>
<path fill="#0C0C0C" opacity="1.000000" stroke="none" 
	d="
M55.429466,23.679543 
	C57.814705,28.975878 56.551670,32.957222 52.326668,34.572060 
	C48.886898,35.886776 44.881287,33.996017 43.460930,30.387196 
	C42.098179,26.924738 43.811283,22.404457 47.573662,21.683790 
	C49.911613,21.235968 52.625412,22.750294 55.429466,23.679543 
M52.977528,27.615086 
	C51.973949,25.259144 50.359394,23.849035 48.174248,25.964586 
	C47.459259,26.656805 47.462479,29.333830 48.179359,30.029936 
	C50.364796,32.152023 51.976139,30.738190 52.977528,27.615086 
z"/>
<path fill="#0B0B0B" opacity="1.000000" stroke="none" 
	d="
M43.873409,45.679733 
	C40.922615,49.164566 37.655464,50.174778 34.072090,47.663750 
	C31.246557,45.683781 30.057121,42.786739 31.588636,39.433624 
	C33.234615,35.829906 36.151852,34.214779 40.060097,35.348083 
	C44.187893,36.545055 45.628616,40.396294 43.873409,45.679733 
M39.139313,39.237408 
	C37.764530,40.033588 36.294445,40.719379 35.112911,41.739403 
	C34.925602,41.901112 35.829662,44.102177 36.603352,44.405323 
	C37.566963,44.782887 39.778423,44.435501 39.934795,43.931099 
	C40.331089,42.652817 39.880611,41.112019 39.139313,39.237408 
z"/>
<path fill="#D8D8D8" opacity="1.000000" stroke="none" 
	d="
M52.977936,27.998581 
	C51.976139,30.738190 50.364796,32.152023 48.179359,30.029936 
	C47.462479,29.333830 47.459259,26.656805 48.174248,25.964586 
	C50.359394,23.849035 51.973949,25.259144 52.977936,27.998581 
z"/>
<path fill="#D8D8D8" opacity="1.000000" stroke="none" 
	d="
M39.454281,39.456879 
	C39.880611,41.112019 40.331089,42.652817 39.934795,43.931099 
	C39.778423,44.435501 37.566963,44.782887 36.603352,44.405323 
	C35.829662,44.102177 34.925602,41.901112 35.112911,41.739403 
	C36.294445,40.719379 37.764530,40.033588 39.454281,39.456879 
z"/>
</svg>