<svg version="1.1" id="Layer_1" xmlns="http://www.w3.org/2000/svg" xmlns:xlink="http://www.w3.org/1999/xlink" x="0px" y="0px"
	 width="100%" viewBox="0 0 100 100" enable-background="new 0 0 100 100" xml:space="preserve">
<path fill="#FDFDFD" opacity="1.000000" stroke="none" 
	d="
M1.000000,61.000000 
	C1.000000,41.038105 1.000000,21.076210 1.000000,1.057158 
	C34.231640,1.057158 67.463394,1.057158 101.000000,1.057158 
	C101.000000,24.019997 101.000000,47.041340 100.681435,70.767570 
	C91.420647,66.004570 81.748207,62.930599 71.211670,62.832260 
	C70.740005,59.730202 70.303246,56.857662 70.232101,53.900303 
	C71.256523,54.562870 71.840904,55.395935 72.586372,56.043583 
	C77.027199,59.901714 82.819374,59.996437 87.123871,56.332310 
	C91.266579,52.805904 92.199982,47.026398 89.382462,42.347378 
	C86.465103,37.502563 80.613457,35.670712 75.505760,38.003292 
	C70.407845,40.331409 68.041328,45.612141 69.521439,51.264706 
	C69.761604,52.181908 69.824165,53.145618 69.670090,54.370358 
	C63.886410,46.353371 58.419544,38.041821 52.909878,29.758741 
	C49.463242,24.577164 46.818375,23.849703 41.132839,26.609865 
	C34.110214,30.019144 27.113865,33.484348 20.147945,37.007992 
	C15.313692,39.453346 13.745682,43.173893 15.737080,47.064140 
	C17.759462,51.014912 21.443409,51.952488 26.440321,49.672997 
	C32.108810,47.087154 37.739483,44.418415 43.444359,41.758785 
	C44.993362,44.344730 46.250504,46.443436 47.686466,48.840672 
	C38.455544,54.481682 29.263288,59.822697 20.395332,65.656662 
	C16.933018,67.934418 14.205984,67.738853 10.892447,65.846207 
	C7.710416,64.028679 4.306445,62.599712 1.000000,61.000000 
z"/>
<path fill="#FEFEFE" opacity="1.000000" stroke="none" 
	d="
M101.000000,75.000000 
	C101.000000,83.643196 101.000000,92.286392 101.000000,100.964798 
	C67.780434,100.964798 34.560822,100.964798 1.000000,100.964798 
	C1.000000,89.314651 1.000000,77.625984 1.309053,65.233887 
	C7.368389,67.380203 12.878289,70.973228 18.918446,72.926689 
	C31.931959,77.135422 44.913204,75.170021 57.377945,70.268356 
	C70.576477,65.078133 82.995659,66.852402 95.229584,73.143578 
	C97.002449,74.055260 99.069229,74.395386 101.000000,75.000000 
z"/>
<path fill="#0F0F0F" opacity="1.000000" stroke="none" 
	d="
M101.000000,74.600006 
	C99.069229,74.395386 97.002449,74.055260 95.229584,73.143578 
	C82.995659,66.852402 70.576477,65.078133 57.377945,70.268356 
	C44.913204,75.170021 31.931959,77.135422 18.918446,72.926689 
	C12.878289,70.973228 7.368389,67.380203 1.309053,64.765228 
	C1.000000,63.933331 1.000000,62.866661 1.000000,61.399994 
	C4.306445,62.599712 7.710416,64.028679 10.892447,65.846207 
	C14.205984,67.738853 16.933018,67.934418 20.395332,65.656662 
	C29.263288,59.822697 38.455544,54.481682 47.686466,48.840672 
	C46.250504,46.443436 44.993362,44.344730 43.444359,41.758785 
	C37.739483,44.418415 32.108810,47.087154 26.440321,49.672997 
	C21.443409,51.952488 17.759462,51.014912 15.737080,47.064140 
	C13.745682,43.173893 15.313692,39.453346 20.147945,37.007992 
	C27.113865,33.484348 34.110214,30.019144 41.132839,26.609865 
	C46.818375,23.849703 49.463242,24.577164 52.909878,29.758741 
	C58.419544,38.041821 63.886410,46.353371 69.645905,54.343292 
	C69.920441,54.033699 69.866486,53.985123 69.866486,53.985123 
	C70.303246,56.857662 70.740005,59.730202 71.211670,62.832260 
	C81.748207,62.930599 91.420647,66.004570 100.681435,71.236229 
	C101.000000,72.066673 101.000000,73.133339 101.000000,74.600006 
M53.408207,38.096832 
	C51.979279,35.855675 50.868366,33.284073 49.006760,31.492510 
	C47.816544,30.347076 45.098801,29.414934 43.783562,30.000137 
	C36.210918,33.369530 28.792261,37.108017 21.484337,41.025341 
	C20.346792,41.635113 20.046000,43.805874 19.358273,45.254795 
	C20.934744,45.592979 22.752367,46.604145 24.042055,46.142006 
	C27.773499,44.804913 31.291771,42.873482 34.895233,41.178570 
	C45.214695,36.324734 45.093369,36.398754 51.089043,46.334183 
	C52.952084,49.421421 52.315071,50.957314 49.445721,52.644390 
	C41.288513,57.440540 33.233551,62.411030 25.158216,67.345421 
	C24.171638,67.948265 23.306179,68.749321 21.509405,70.132011 
	C26.656471,70.460960 30.757544,71.477333 34.567474,70.816124 
	C43.674702,69.235573 52.677879,66.998032 61.658955,64.767593 
	C67.985443,63.196419 68.449783,61.644413 64.836319,55.905239 
	C61.207710,50.142014 57.503372,44.426476 53.408207,38.096832 
z"/>
<path fill="#0D0D0D" opacity="1.000000" stroke="none" 
	d="
M69.944626,54.060764 
	C69.824165,53.145618 69.761604,52.181908 69.521439,51.264706 
	C68.041328,45.612141 70.407845,40.331409 75.505760,38.003292 
	C80.613457,35.670712 86.465103,37.502563 89.382462,42.347378 
	C92.199982,47.026398 91.266579,52.805904 87.123871,56.332310 
	C82.819374,59.996437 77.027199,59.901714 72.586372,56.043583 
	C71.840904,55.395935 71.256523,54.562870 70.232101,53.900303 
	C69.866486,53.985123 69.920441,54.033699 69.944626,54.060764 
M73.091301,46.837952 
	C73.520294,53.113316 78.032372,56.916203 82.512215,54.216782 
	C84.613991,52.950314 86.806961,49.554283 86.589729,47.357586 
	C86.369690,45.132477 83.590141,42.212715 81.280136,41.357895 
	C77.552376,39.978447 74.754906,42.448833 73.091301,46.837952 
z"/>
<path fill="#F6F6F6" opacity="1.000000" stroke="none" 
	d="
M53.620216,38.393433 
	C57.503372,44.426476 61.207710,50.142014 64.836319,55.905239 
	C68.449783,61.644413 67.985443,63.196419 61.658955,64.767593 
	C52.677879,66.998032 43.674702,69.235573 34.567474,70.816124 
	C30.757544,71.477333 26.656471,70.460960 21.509405,70.132011 
	C23.306179,68.749321 24.171638,67.948265 25.158216,67.345421 
	C33.233551,62.411030 41.288513,57.440540 49.445721,52.644390 
	C52.315071,50.957314 52.952084,49.421421 51.089043,46.334183 
	C45.093369,36.398754 45.214695,36.324734 34.895233,41.178570 
	C31.291771,42.873482 27.773499,44.804913 24.042055,46.142006 
	C22.752367,46.604145 20.934744,45.592979 19.358273,45.254795 
	C20.046000,43.805874 20.346792,41.635113 21.484337,41.025341 
	C28.792261,37.108017 36.210918,33.369530 43.783562,30.000137 
	C45.098801,29.414934 47.816544,30.347076 49.006760,31.492510 
	C50.868366,33.284073 51.979279,35.855675 53.620216,38.393433 
z"/>
<path fill="#F4F4F4" opacity="1.000000" stroke="none" 
	d="
M73.172302,46.453247 
	C74.754906,42.448833 77.552376,39.978447 81.280136,41.357895 
	C83.590141,42.212715 86.369690,45.132477 86.589729,47.357586 
	C86.806961,49.554283 84.613991,52.950314 82.512215,54.216782 
	C78.032372,56.916203 73.520294,53.113316 73.172302,46.453247 
z"/>
</svg>