<svg version="1.1" id="Layer_1" xmlns="http://www.w3.org/2000/svg" xmlns:xlink="http://www.w3.org/1999/xlink" x="0px" y="0px"
	 width="100%" viewBox="0 0 100 100" enable-background="new 0 0 100 100" xml:space="preserve">
<path fill="#FDFDFD" opacity="1.000000" stroke="none" stroke-width="3.000000"
	d="
M101.000000,58.000000 
	C101.000000,72.302979 101.000000,86.605949 101.000000,100.954468 
	C67.767670,100.954468 34.535271,100.954468 1.000000,100.954468 
	C1.000000,79.980072 1.000000,58.958694 1.363877,37.427551 
	C6.161184,39.069275 10.594614,41.220768 14.982361,43.350086 
	C14.982361,53.649063 15.216442,63.638420 14.877574,73.608299 
	C14.722364,78.174774 16.322908,79.419296 20.601221,79.091309 
	C24.989111,78.754929 29.422859,79.016739 33.890026,79.016739 
	C32.862518,87.820061 32.866467,87.795517 41.649418,89.208855 
	C52.804527,91.003914 63.968166,92.754631 75.093773,94.719055 
	C78.402046,95.303185 79.905312,94.666580 80.406303,91.027863 
	C81.737373,81.360191 83.465790,71.747223 84.861961,63.181389 
	C90.757240,61.288609 95.878624,59.644302 101.000000,58.000000 
z"/>
<path fill="#FDFDFD" opacity="1.000000" stroke="none" stroke-width="3.000000"
	d="
M1.000000,34.000000 
	C1.000000,23.025791 1.000000,12.051584 1.000000,1.038688 
	C34.229347,1.038688 67.458748,1.038688 101.000000,1.038688 
	C101.000000,18.686338 101.000000,36.374512 100.653732,54.401791 
	C98.992180,51.169621 97.368919,47.677216 96.429665,44.009640 
	C94.784340,37.584965 90.565231,33.831291 84.724770,31.437014 
	C83.195633,30.810148 81.765953,29.902382 80.200584,29.409508 
	C75.871208,28.046350 73.225365,25.236429 70.784813,21.343498 
	C68.848267,18.254524 65.155701,15.966911 61.791393,14.167516 
	C59.109337,12.733018 55.656086,12.824654 52.710789,11.774385 
	C49.767567,10.724858 47.975601,11.213211 46.007214,13.807151 
	C42.916798,17.879702 37.951210,18.724533 35.363209,15.068698 
	C31.824863,10.070390 28.176609,11.899992 23.801634,12.678734 
	C15.415354,14.171485 9.629462,18.500511 6.002562,26.151545 
	C4.683985,28.933111 2.687296,31.393223 1.000000,34.000000 
z"/>
<path fill="#0B0B0B" opacity="1.000000" stroke="currentColor" stroke-width="3.000000"
	d="
M1.000000,34.375000 
	C2.687296,31.393223 4.683985,28.933111 6.002562,26.151545 
	C9.629462,18.500511 15.415354,14.171485 23.801634,12.678734 
	C28.176609,11.899992 31.824863,10.070390 35.363209,15.068698 
	C37.951210,18.724533 42.916798,17.879702 46.007214,13.807151 
	C47.975601,11.213211 49.767567,10.724858 52.710789,11.774385 
	C55.656086,12.824654 59.109337,12.733018 61.791393,14.167516 
	C65.155701,15.966911 68.848267,18.254524 70.784813,21.343498 
	C73.225365,25.236429 75.871208,28.046350 80.200584,29.409508 
	C81.765953,29.902382 83.195633,30.810148 84.724770,31.437014 
	C90.565231,33.831291 94.784340,37.584965 96.429665,44.009640 
	C97.368919,47.677216 98.992180,51.169621 100.653732,54.870449 
	C101.000000,55.750000 101.000000,56.500000 101.000000,57.625000 
	C95.878624,59.644302 90.757240,61.288609 84.861961,63.181389 
	C83.465790,71.747223 81.737373,81.360191 80.406303,91.027863 
	C79.905312,94.666580 78.402046,95.303185 75.093773,94.719055 
	C63.968166,92.754631 52.804527,91.003914 41.649418,89.208855 
	C32.866467,87.795517 32.862518,87.820061 33.890026,79.016739 
	C29.422859,79.016739 24.989111,78.754929 20.601221,79.091309 
	C16.322908,79.419296 14.722364,78.174774 14.877574,73.608299 
	C15.216442,63.638420 14.982361,53.649063 14.982361,43.350086 
	C10.594614,41.220768 6.161184,39.069275 1.363877,36.958893 
	C1.000000,36.250000 1.000000,35.500000 1.000000,34.375000 
M78.811874,33.411259 
	C78.307930,33.296364 77.803993,33.181473 77.300049,33.066582 
	C77.195160,33.252758 77.090263,33.438938 76.985374,33.625118 
	C77.463020,33.980541 77.940666,34.335964 78.662712,35.335796 
	C77.781410,36.648060 77.191017,38.448795 75.963562,39.179810 
	C72.463203,41.264465 68.703568,42.913761 65.011856,44.751312 
	C65.011856,53.911861 65.013184,62.897778 65.011429,71.883698 
	C65.010040,78.996269 65.008362,78.998436 58.121193,79.001450 
	C51.510712,79.004333 44.900234,79.002075 38.169144,79.002075 
	C37.933136,81.088806 37.753605,82.676201 37.536701,84.594009 
	C50.564125,86.609894 63.281139,88.577751 76.294304,90.591431 
	C78.100723,79.324120 79.735107,68.661316 81.578133,58.034695 
	C81.941299,55.940655 83.108818,53.986115 83.905388,51.967239 
	C85.228714,53.666264 86.548286,55.368237 87.879433,57.061115 
	C88.078178,57.313866 88.331284,57.523869 88.662216,57.857445 
	C91.082497,57.119743 93.561371,56.364182 96.254349,55.543358 
	C95.041069,52.089046 93.778938,49.020432 92.886421,45.847832 
	C90.887527,38.742485 85.787102,35.419895 78.811874,33.411259 
M14.413994,36.736546 
	C15.400204,35.821419 16.386414,34.906296 17.372623,33.991173 
	C17.919409,35.212074 18.904581,36.420898 18.938620,37.655930 
	C19.103624,43.643147 19.013496,49.637394 19.013597,55.629150 
	C19.013704,62.044525 19.013620,68.459900 19.013620,74.660889 
	C33.403336,74.660889 47.127174,74.660889 60.986546,74.660889 
	C60.986546,62.195980 60.945091,50.057156 61.046509,37.919521 
	C61.057434,36.612267 61.898148,35.311947 62.353951,34.008408 
	C63.467823,34.986073 64.654152,35.895615 65.664696,36.970428 
	C66.162720,37.500122 66.335815,38.335308 66.788521,39.320892 
	C69.428131,38.008862 71.741325,36.859077 74.181129,35.646358 
	C71.986557,31.517824 70.015114,27.687153 67.929909,23.919443 
	C65.698914,19.888292 55.176464,14.764003 50.755028,15.576633 
	C50.047997,15.706582 49.416660,16.432125 48.822254,16.962879 
	C42.310787,22.777065 38.081581,22.735863 31.049376,16.806297 
	C30.458237,16.307848 29.581917,15.509414 29.067324,15.655859 
	C23.100403,17.353937 16.298668,17.452097 12.425636,23.478609 
	C10.192760,26.953007 8.227821,30.599600 5.781728,34.785728 
	C8.777457,35.740391 11.419991,36.582500 14.413994,36.736546 
z"/>
<path fill="#FBFBFB" opacity="1.000000" stroke="currentColor" stroke-width="3.000000"
	d="
M14.238258,37.080574 
	C11.419991,36.582500 8.777457,35.740391 5.781728,34.785728 
	C8.227821,30.599600 10.192760,26.953007 12.425636,23.478609 
	C16.298668,17.452097 23.100403,17.353937 29.067324,15.655859 
	C29.581917,15.509414 30.458237,16.307848 31.049376,16.806297 
	C38.081581,22.735863 42.310787,22.777065 48.822254,16.962879 
	C49.416660,16.432125 50.047997,15.706582 50.755028,15.576633 
	C55.176464,14.764003 65.698914,19.888292 67.929909,23.919443 
	C70.015114,27.687153 71.986557,31.517824 74.181129,35.646358 
	C71.741325,36.859077 69.428131,38.008862 66.788521,39.320892 
	C66.335815,38.335308 66.162720,37.500122 65.664696,36.970428 
	C64.654152,35.895615 63.467823,34.986073 62.353951,34.008408 
	C61.898148,35.311947 61.057434,36.612267 61.046509,37.919521 
	C60.945091,50.057156 60.986546,62.195980 60.986546,74.660889 
	C47.127174,74.660889 33.403336,74.660889 19.013620,74.660889 
	C19.013620,68.459900 19.013704,62.044525 19.013597,55.629150 
	C19.013496,49.637394 19.103624,43.643147 18.938620,37.655930 
	C18.904581,36.420898 17.919409,35.212074 17.372623,33.991173 
	C16.386414,34.906296 15.400204,35.821419 14.238258,37.080574 
M34.703537,59.980141 
	C38.963985,61.088100 43.305801,61.290028 45.822250,57.081699 
	C48.073650,53.316628 47.977486,49.209564 44.054180,46.089012 
	C46.910133,42.847435 48.160748,38.900890 45.109039,36.165394 
	C43.093536,34.358727 39.015717,33.946575 36.056412,34.348171 
	C32.958549,34.768570 31.354008,37.584427 32.275898,42.379700 
	C34.058132,41.131927 35.273617,40.271645 36.499054,39.425793 
	C37.577568,38.681358 38.667217,37.953064 39.751949,37.217640 
	C40.225521,38.519989 41.358070,40.042702 41.013992,41.071625 
	C40.530849,42.516396 38.959755,43.602806 37.835014,44.825035 
	C37.341530,45.361290 36.275345,46.093494 36.379623,46.322914 
	C36.707924,47.045204 37.400894,47.996517 38.071747,48.101990 
	C41.511852,48.642849 41.759197,51.224293 41.485054,53.701843 
	C41.358601,54.844635 39.898144,55.839817 39.042538,56.901924 
	C37.695259,55.542183 36.347980,54.182446 34.338795,52.154675 
	C34.027981,52.168297 32.597141,52.231003 29.897579,52.349316 
	C31.545229,55.264675 32.777607,57.445255 34.703537,59.980141 
z"/>
<path fill="#FBFBFB" opacity="1.000000" stroke="currentColor" stroke-width="3.000000"
	d="
M79.005402,33.993179 
	C85.787102,35.419895 90.887527,38.742485 92.886421,45.847832 
	C93.778938,49.020432 95.041069,52.089046 96.254349,55.543358 
	C93.561371,56.364182 91.082497,57.119743 88.662216,57.857445 
	C88.331284,57.523869 88.078178,57.313866 87.879433,57.061115 
	C86.548286,55.368237 85.228714,53.666264 83.905396,51.967239 
	C83.108818,53.986115 81.941299,55.940655 81.578133,58.034695 
	C79.735107,68.661316 78.100723,79.324120 76.294304,90.591431 
	C63.281139,88.577751 50.564125,86.609894 37.536701,84.594009 
	C37.753605,82.676201 37.933136,81.088806 38.169144,79.002075 
	C44.900234,79.002075 51.510712,79.004333 58.121193,79.001450 
	C65.008362,78.998436 65.010040,78.996269 65.011429,71.883698 
	C65.013184,62.897778 65.011856,53.911861 65.011856,44.751312 
	C68.703568,42.913761 72.463203,41.264465 75.963562,39.179810 
	C77.191017,38.448795 77.781410,36.648060 78.695694,34.846115 
	C78.728683,34.356438 79.005402,33.993179 79.005402,33.993179 
z"/>
<path fill="#FBFBFB" opacity="1.000000" stroke="currentColor" stroke-width="3.000000"
	d="
M78.573502,34.523914 
	C77.940666,34.335964 77.463020,33.980541 76.985374,33.625118 
	C77.090263,33.438938 77.195160,33.252758 77.300049,33.066582 
	C77.803993,33.181473 78.307930,33.296364 78.908638,33.702217 
	C79.005402,33.993179 78.728683,34.356438 78.573502,34.523914 
z"/>
<path fill="#111111" opacity="1.000000" stroke="currentColor" stroke-width="3.000000"
	d="
M34.356758,59.802986 
	C32.777607,57.445255 31.545229,55.264675 29.897579,52.349316 
	C32.597141,52.231003 34.027981,52.168297 34.338795,52.154675 
	C36.347980,54.182446 37.695259,55.542183 39.042542,56.901924 
	C39.898144,55.839817 41.358601,54.844635 41.485054,53.701843 
	C41.759197,51.224293 41.511852,48.642849 38.071747,48.101990 
	C37.400894,47.996517 36.707924,47.045204 36.379623,46.322914 
	C36.275345,46.093494 37.341530,45.361290 37.835014,44.825035 
	C38.959755,43.602806 40.530849,42.516396 41.013992,41.071625 
	C41.358070,40.042702 40.225521,38.519989 39.751949,37.217640 
	C38.667217,37.953064 37.577568,38.681358 36.499054,39.425793 
	C35.273617,40.271645 34.058132,41.131927 32.275898,42.379700 
	C31.354008,37.584427 32.958549,34.768570 36.056412,34.348171 
	C39.015717,33.946575 43.093536,34.358727 45.109039,36.165394 
	C48.160748,38.900890 46.910133,42.847435 44.054180,46.089012 
	C47.977486,49.209564 48.073650,53.316628 45.822250,57.081699 
	C43.305801,61.290028 38.963985,61.088100 34.356758,59.802986 
z"/>
</svg>